<?xml version="1.0" standalone="no"?>
<!DOCTYPE svg PUBLIC "-//W3C//DTD SVG 1.1//EN" "http://www.w3.org/Graphics/SVG/1.1/DTD/svg11.dtd">
<svg xmlns="http://www.w3.org/2000/svg">
<metadata>Copyright (C) 2023 by original authors @ fontello.com</metadata>
<defs>
<font id="troff-icon-pack" horiz-adv-x="1000" >
<font-face font-family="troff-icon-pack" font-weight="400" font-stretch="normal" units-per-em="1000" ascent="850" descent="-150" />
<missing-glyph horiz-adv-x="1000" />
<glyph glyph-name="share" unicode="&#xe800;" d="M0-121q0 143 24 256t60 186 95 124 107 76 122 38 114 15 107 2l0 245 371-372-371-371 0 268q-102 0-151-1t-126-10-114-26-86-51-74-83-47-124-31-172z" horiz-adv-x="1000" />

<glyph glyph-name="question" unicode="&#xe801;" d="M494 740q86-62 86-184 0-64-42-124-12-20-88-80l-46-30q-40-34-48-60-6-16-8-44 0-14-16-14l-128 0q-16 0-16 12 4 98 28 124 16 22 48 48t56 42l24 14q22 16 34 34 28 44 28 70 0 40-26 78-28 36-92 36-68 0-94-44-28-42-28-92l-166 0q6 162 114 232 70 42 166 42 130 0 214-60z m-216-636q44 0 73-30t27-74q-2-46-32-73t-74-25q-44 0-73 29t-27 75 32 73 74 25z" horiz-adv-x="580" />

<glyph glyph-name="check" unicode="&#xe802;" d="M933 534q0-22-16-38l-404-404-76-76q-16-15-38-15t-38 15l-76 76-202 202q-15 16-15 38t15 38l76 76q16 16 38 16t38-16l164-165 366 367q16 16 38 16t38-16l76-76q16-15 16-38z" horiz-adv-x="1000" />

<glyph glyph-name="cog" unicode="&#xe803;" d="M571 350q0 59-41 101t-101 42-101-42-42-101 42-101 101-42 101 42 41 101z m286 61v-124q0-7-4-13t-11-7l-104-16q-10-30-21-51 19-27 59-77 6-6 6-13t-5-13q-15-21-55-61t-53-39q-7 0-14 5l-77 60q-25-13-51-21-9-76-16-104-4-16-20-16h-124q-8 0-14 5t-6 12l-16 103q-27 9-50 21l-79-60q-6-5-14-5-8 0-14 6-70 64-92 94-4 5-4 13 0 6 5 12 8 12 28 37t30 40q-15 28-23 55l-102 15q-7 1-11 7t-5 13v124q0 7 5 13t10 7l104 16q8 25 22 51-23 32-60 77-6 7-6 14 0 5 5 12 15 20 55 60t53 40q7 0 15-5l77-60q24 13 50 21 9 76 17 104 3 16 20 16h124q7 0 13-5t7-12l15-103q28-9 51-20l79 59q5 5 13 5 7 0 14-5 72-67 92-95 4-5 4-12 0-7-4-13-9-12-29-37t-30-40q15-28 23-54l102-16q7-1 12-7t4-13z" horiz-adv-x="857.1" />

<glyph glyph-name="resize-full" unicode="&#xe804;" d="M784 111l127 128 0-336-335 0 128 130-128 127 79 79z m-431 686l-129-127 128-127-80-80-126 128-128-129 0 335 335 0z m0-637l-129-127 129-130-335 0 0 336 128-128 128 128z m558 637l0-335-127 129-128-128-79 80 127 127-128 127 335 0z" horiz-adv-x="928" />

<glyph glyph-name="resize-small" unicode="&#xe805;" d="M704 33l-128-130 0 336 335 0-127-128 127-129-79-79z m-686 429l128 129-127 126 79 79 126-126 129 127 0-335-335 0z m0-480l128 129-128 128 335 0 0-336-129 130-127-130z m558 480l0 335 128-127 128 126 78-79-126-126 127-129-335 0z" horiz-adv-x="928" />

<glyph glyph-name="film" unicode="&#xe806;" d="M0-150l0 1000 883 0 0-1000-883 0z m45 119l109 0 0 82-109 0 0-82z m0 184l109 0 0 84-109 0 0-84z m0 185l109 0 0 82-109 0 0-82z m0 186l109 0 0 82-109 0 0-82z m0 183l109 0 0 83-109 0 0-83z m156-826l481 0 0 436-481 0 0-436z m0 467l481 0 0 436-481 0 0-436z m528-379l109 0 0 82-109 0 0-82z m0 184l109 0 0 84-109 0 0-84z m0 185l109 0 0 82-109 0 0-82z m0 186l109 0 0 82-109 0 0-82z m0 183l109 0 0 83-109 0 0-83z" horiz-adv-x="883" />

<glyph glyph-name="image" unicode="&#xe807;" d="M357 529q0-45-31-76t-76-32-76 32-31 76 31 76 76 31 76-31 31-76z m572-215v-250h-786v107l178 179 90-89 285 285z m53 393h-893q-7 0-12-5t-6-13v-678q0-7 6-13t12-5h893q7 0 13 5t5 13v678q0 8-5 13t-13 5z m89-18v-678q0-37-26-63t-63-27h-893q-36 0-63 27t-26 63v678q0 37 26 63t63 27h893q37 0 63-27t26-63z" horiz-adv-x="1071.4" />

<glyph glyph-name="music" unicode="&#xe808;" d="M857 725v-625q0-28-19-50t-48-33-58-18-53-6-54 6-58 18-48 33-19 50 19 50 48 33 58 18 54 6q58 0 107-22v300l-429-132v-396q0-28-19-50t-48-33-58-18-53-6-54 6-58 18-48 33-19 50 19 50 48 34 58 17 54 6q58 0 107-21v539q0 17 10 32t28 20l464 142q7 3 16 3 22 0 38-16t15-38z" horiz-adv-x="857.1" />

<glyph glyph-name="plus" unicode="&#xe809;" d="M786 439v-107q0-22-16-38t-38-15h-232v-233q0-22-16-37t-38-16h-107q-22 0-38 16t-15 37v233h-232q-23 0-38 15t-16 38v107q0 23 16 38t38 16h232v232q0 22 15 38t38 16h107q23 0 38-16t16-38v-232h232q23 0 38-16t16-38z" horiz-adv-x="785.7" />

<glyph glyph-name="pencil" unicode="&#xe80a;" d="M203-7l50 51-131 131-51-51v-60h72v-71h60z m291 518q0 12-12 12-5 0-9-4l-303-302q-4-4-4-10 0-12 13-12 5 0 9 4l303 302q3 4 3 10z m-30 107l232-232-464-465h-232v233z m381-54q0-29-20-50l-93-93-232 233 93 92q20 21 50 21 29 0 51-21l131-131q20-22 20-51z" horiz-adv-x="857.1" />

<glyph glyph-name="search" unicode="&#xe80b;" d="M643 386q0 103-73 176t-177 74-177-74-73-176 73-177 177-73 177 73 73 177z m286-465q0-29-22-50t-50-21q-30 0-50 21l-191 191q-100-69-223-69-80 0-153 31t-125 84-84 125-31 153 31 152 84 126 125 84 153 31 153-31 125-84 84-126 31-152q0-123-69-223l191-191q21-21 21-51z" horiz-adv-x="928.6" />

<glyph glyph-name="share-alt" unicode="&#xe80c;" d="M650 200q62 0 106-43t44-107q0-62-44-106t-106-44-106 44-44 106q0 6 1 14t1 12l-260 156q-42-32-92-32-62 0-106 44t-44 106 44 106 106 44q54 0 92-30l260 156q0 4-1 12t-1 12q0 62 44 106t106 44 106-43 44-107q0-62-44-106t-106-44q-52 0-90 32l-262-156q2-8 2-26 0-16-2-24l262-156q36 30 90 30z" horiz-adv-x="800" />

<glyph glyph-name="window-close" unicode="&#xe80d;" d="M724 112q0-22-15-38l-76-76q-16-15-38-15t-38 15l-164 165-164-165q-16-15-38-15t-38 15l-76 76q-16 16-16 38t16 38l164 164-164 164q-16 16-16 38t16 38l76 76q16 16 38 16t38-16l164-164 164 164q16 16 38 16t38-16l76-76q15-15 15-38t-15-38l-164-164 164-164q15-15 15-38z" horiz-adv-x="785.7" />

<glyph glyph-name="menu" unicode="&#xe80e;" d="M650 400q22 0 36-15t14-35-15-35-35-15l-600 0q-20 0-35 15t-15 35 14 35 36 15l600 0z m-600 100q-20 0-35 15t-15 35 14 35 36 15l600 0q22 0 36-15t14-35-15-35-35-15l-600 0z m600-300q22 0 36-15t14-35-15-35-35-15l-600 0q-20 0-35 15t-15 35 14 35 36 15l600 0z" horiz-adv-x="700" />

<glyph glyph-name="user" unicode="&#xe80f;" d="M714 69q0-60-35-104t-84-44h-476q-49 0-84 44t-35 104q0 48 5 90t17 85 33 73 52 50 76 19q73-72 174-72t175 72q42 0 75-19t52-50 33-73 18-85 4-90z m-143 495q0-88-62-151t-152-63-151 63-63 151 63 152 151 63 152-63 62-152z" horiz-adv-x="714.3" />

<glyph glyph-name="users" unicode="&#xe810;" d="M331 350q-90-3-148-71h-75q-45 0-77 22t-31 66q0 197 69 197 4 0 25-11t54-24 66-12q38 0 75 13-3-21-3-37 0-78 45-143z m598-356q0-66-41-105t-108-39h-488q-68 0-108 39t-41 105q0 30 2 58t8 61 14 61 24 54 35 45 48 30 62 11q6 0 24-12t41-26 59-27 76-12 75 12 60 27 41 26 24 12q34 0 62-11t47-30 35-45 24-54 15-61 8-61 2-58z m-572 713q0-59-42-101t-101-42-101 42-42 101 42 101 101 42 101-42 42-101z m393-214q0-89-63-152t-151-62-152 62-63 152 63 151 152 63 151-63 63-151z m321-126q0-43-31-66t-77-22h-75q-57 68-147 71 45 65 45 143 0 16-3 37 37-13 74-13 33 0 67 12t54 24 24 11q69 0 69-197z m-71 340q0-59-42-101t-101-42-101 42-42 101 42 101 101 42 101-42 42-101z" horiz-adv-x="1071.4" />

<glyph glyph-name="logout" unicode="&#xe811;" d="M502 0l0 100 98 0 0-100q0-40-29-70t-71-30l-400 0q-40 0-70 30t-30 70l0 700q0 42 30 71t70 29l400 0q42 0 71-29t29-71l0-150-98 0 0 150-402 0 0-700 402 0z m398 326l-198-196 0 120-450 0 0 150 450 0 0 120z" horiz-adv-x="900" />

<glyph glyph-name="reload" unicode="&#xe812;" d="M857 707v-250q0-14-10-25t-26-11h-250q-23 0-32 23-10 22 7 38l77 77q-82 77-194 77-58 0-111-23t-91-61-61-91-23-111 23-111 61-91 91-61 111-23q66 0 125 29t100 82q4 6 13 7 8 0 14-5l76-77q5-4 6-11t-5-13q-60-74-147-114t-182-41q-87 0-167 34t-136 92-92 137-34 166 34 166 92 137 136 92 167 34q82 0 158-31t137-88l72 72q17 18 39 8 22-9 22-33z" horiz-adv-x="857.1" />

<glyph glyph-name="chat" unicode="&#xe813;" d="M786 421q0-77-53-143t-143-104-197-38q-48 0-98 9-70-49-155-72-21-5-48-9h-2q-6 0-12 5t-6 12q-1 1-1 3t1 4 1 3l1 3t2 3 2 3 3 3 2 2q3 3 13 14t15 16 12 17 14 21 11 25q-69 40-108 98t-40 125q0 78 53 144t143 104 197 38 197-38 143-104 53-144z m214-142q0-67-40-126t-108-98q5-14 11-25t14-21 13-16 14-17 13-14q0 0 2-2t3-3 2-3 2-3l1-3t1-3 1-4-1-3q-2-8-7-13t-12-4q-28 4-48 9-86 23-156 72-50-9-98-9-151 0-263 74 32-3 49-3 90 0 172 25t148 72q69 52 107 119t37 141q0 43-13 85 72-39 114-99t42-128z" horiz-adv-x="1000" />

<glyph glyph-name="note" unicode="&#xe818;" d="M381 820q0-42 46-97t90-100 61-119-39-154q-20-34-26-16-2 6 0 16 10 18 6 56t-13 78-43 73-82 41l0-536q2-48-37-95t-105-71q-74-28-143-8t-89 76 20 115 116 85q86 30 158 4l0 652 80 0z" horiz-adv-x="582" />

<glyph glyph-name="note-beamed" unicode="&#xe819;" d="M206 714l534 116 0-704q2-42-30-81t-86-59q-64-24-110-8t-62 64q-18 48 7 97t85 73q52 20 106 10l0 376-354-82 0-490q0-42-32-81t-86-59q-64-22-109-7t-61 63q-18 48 6 97t84 73q54 20 108 10l0 592z" horiz-adv-x="740" />

<glyph glyph-name="heart" unicode="&#xe81b;" d="M500-79q-14 0-25 10l-348 336q-5 5-15 15t-31 37-38 54-30 67-13 77q0 123 71 192t196 70q34 0 70-12t67-33 54-38 42-38q20 20 42 38t54 38 67 33 70 12q125 0 196-70t71-192q0-123-128-251l-347-335q-10-10-25-10z" horiz-adv-x="1000" />

<glyph glyph-name="heart-empty" unicode="&#xe81c;" d="M929 517q0 46-12 80t-31 55-46 33-52 18-55 4-62-14-62-36-48-40-34-34q-10-13-27-13t-27 13q-14 15-34 34t-48 40-62 36-62 14-55-4-52-18-46-33-31-55-12-80q0-93 105-198l324-312 324 312q105 105 105 198z m71 0q0-123-128-251l-347-335q-10-10-25-10t-25 10l-348 336q-5 5-15 15t-31 37-38 54-30 67-13 77q0 123 71 192t196 70q34 0 70-12t67-33 54-38 42-38q20 20 42 38t54 38 67 33 70 12q125 0 196-70t71-192z" horiz-adv-x="1000" />

<glyph glyph-name="star" unicode="&#xe81d;" d="M929 489q0-12-15-27l-202-197 48-279q0-4 0-12 0-11-6-19t-17-9q-10 0-22 7l-251 132-250-132q-12-7-23-7-11 0-17 9t-6 19q0 4 1 12l48 279-203 197q-14 15-14 27 0 21 31 26l280 40 126 254q11 23 27 23t28-23l125-254 280-40q32-5 32-26z" horiz-adv-x="928.6" />

<glyph glyph-name="star-empty" unicode="&#xe81e;" d="M635 290l170 166-235 34-106 213-105-213-236-34 171-166-41-235 211 111 211-111z m294 199q0-12-15-27l-202-197 48-279q0-4 0-12 0-28-23-28-10 0-22 7l-251 132-250-132q-12-7-23-7-11 0-17 9t-6 19q0 4 1 12l48 279-203 197q-14 15-14 27 0 21 31 26l280 40 126 254q11 23 27 23t28-23l125-254 280-40q32-5 32-26z" horiz-adv-x="928.6" />

<glyph glyph-name="clarinet" unicode="&#xe821;" d="M24 838c-26-7-25-20-22-33l13-20 200-128 57-34 970-548 134-106 53-44c0 0 1-48 20-52 28-7 58 59 74 83 8 22 41 75 30 91-9 10-42-6-42-6l-39 9-160 67c-333 193-873 479-1001 577l-50 28-123 67-94 43z m56-95c0 0-10-8-11-13-1-4 1-7 2-10 2-2 6-3 9-3 2 0 6 1 8 3 4 5 5 17 5 17z m40-22c0 0-10-9-12-15-1-4 0-8 2-10 2-3 5-4 8-4 3 0 6 1 9 4 4 5 6 19 6 19z m233-146l578-327-5-11-578 331z m483-179l231-127-6-11-230 131z m122-218c7-4 16 3 23 8 13 9 27 40 27 40l8 14-12 7-32-23c0 0-17-19-18-31-1-5-1-12 4-15z m-31 18c7-4 17 3 23 7 13 10 27 41 27 41l8 14-12 7-32-23c0 0-16-19-18-31-1-5 0-13 4-15z m-109 209l51-37 8 4-55 41z" horiz-adv-x="1556" />

<glyph glyph-name="trumpet" unicode="&#xe822;" d="M1467 701c-16 32-33 63-53 92-5 8-11 16-17 23-2 2-5 4-8 4-1 1-3 1-3 0-2-2-2-4-1-6 1-6 2-12 4-17 1-3 2-6 3-9 1-3 3-5 4-7 1-5 0-10-1-14-2-5-3-10-4-16-3-11-7-21-13-32 0-1-1-3-2-5-9-16-20-31-34-45-25-26-55-46-86-65-132-82-271-153-410-223-1-1-2 1-3 1-17-7-34-15-51-22-12-7-29-1-33 12-2 7-1 14 3 19 5 7 14 11 22 14-1 4-2 9-3 13-7-4-14-8-19-14-6-6-13-12-13-21-3-17 11-34 28-37-19-9-37-18-55-27 0 1 0 2 0 2 2 1 3 2 5 3-2 3-5 6-10 5-4-1-7-3-11-5-1 3-2 5-4 8-2-1-4-2-6-3-6 12-12 25-18 38 4 2 9 3 13 7 2 4-2 11-7 9-13-6-25-12-38-17-6-3-2-14 4-12 4 2 8 4 12 5 6-12 12-25 18-38-3-1-5-2-7-3 1-3 2-5 3-8-5-3-13-4-14-12 0-1 0-3 1-4 2 1 4 2 6 3 0-2 1-3 1-4-4-2-8-4-12-6-1 1-1 3-2 4 2 1 4 2 6 3-2 3-6 5-10 5-4-2-8-4-11-6-2 3-3 5-4 8-2-1-5-2-7-3-6 13-12 26-18 39 4 1 8 3 12 5 1 0 1 2 2 3-1 3-1 6-4 8-1 0-3 0-4-1-13-5-25-11-37-17-7-2-2-13 4-11 4 1 7 3 11 5 6-13 12-25 18-38-2-2-5-2-7-3 1-3 3-6 4-8-4-2-8-3-11-6-3-2-4-7-3-10 2 0 4 1 6 2 1-2 2-3 2-5-4-2-8-5-13-7 0 2-1 4-2 6l0 0c2 1 4 2 5 3-1 3-5 5-8 5-5-1-8-4-13-5-1 2-2 5-3 7-3-1-5-2-7-3-6 13-12 26-18 39 4 2 9 3 12 6 4 4-1 13-6 10-13-6-25-12-37-18-3 0-5-3-3-6 0-2 2-6 6-5 4 1 8 4 12 5 6-13 12-25 18-38-2-1-5-2-7-3 1-3 2-5 4-8-4-2-8-3-12-6-3-2-3-6-2-10 2 1 4 2 6 2l0 0c1-3 3-6 4-9-34-16-68-32-102-48-72-35-145-69-217-103-4-2-9-3-13-5-4-2-9-3-13-5-1 1-1 2-2 4-1 0-3 1-4 0-3-2-7-3-10-5-2-2 0-5 1-7-3-2-6-3-8-4 0-1 0-2 0-3-21-9-41-19-62-28 0 0-1 0-2 1-2-1-4-3-6-4 0 0 0-1 0-1-3-1-5-3-8-4-2 1-5 2-7 1-3-1-5-4-5-7-5-1-9-4-13-5-5 2-10 4-15 2-6-3-12-6-18-8-6 1-13 2-19 4-6-3-11-5-17-8 0-2-1-4-1-6 0-9 4-18 8-27 4-9 9-18 14-26 3-4 6-9 11-12 2-2 5 0 7 1 4 2 8 4 11 6 2 5 4 10 7 15 7 4 14 7 21 10 5 4 5 12 5 18 5 1 9 4 13 5 3 0 6-1 8 0 3 1 3 4 4 6 3 1 6 4 9 3 3 1 5 2 7 3 0 0 1 1 1 2 20 9 41 19 62 29 0-2 1-3 2-5 2 1 4 2 6 3-1-4-2-8-3-13 3-1 6-1 10-2 0 2 0 3 1 5 3 0 6 0 9 2 3 3 4 8 3 12-2 2-5 3-7 5 2 0 4-2 6-1 2 1 3 2 5 2 0 1-1 3-1 3 5 2 9 5 14 6 6 2 11 5 16 8-5-14-8-29-9-44 0-9 1-18 3-26 6-32 26-61 52-80 16-12 34-22 54-25 21-3 42 1 61 7 24 8 47 19 69 28 6 3 12 6 18 7 9 2 16 8 25 12 43 22 86 43 129 65 10-20 20-41 29-61 0-2 0-5 2-6 0-2 1-3 2-4 0-4 4-7 7-7 3-1 7 0 10 1 11 5 22 11 34 16 4 2 6 6 6 10 0 2-1 5-3 5l1 0c0 2-1 4-2 4 0 2-1 3-1 5-2 0-2 1-3 2 4 2 8 4 12 6 0-3 0-6 2-8 1-1 1-3 3-4-1-2 1-3 2-5 3-3 8-3 12-1 12 5 24 11 36 17 6 2 8 8 6 13-1 1-1 1-2 1 1 2 0 4-2 5 0 0 0 1 1 1-1 1-1 2-2 3-1 1-2 2-2 3 4 2 7 4 12 5 0-2-1-6 3-7-1-1-1-1-1-2 1-1 2-2 3-3-1-1 0-3 1-4 3-3 9-4 13-2 12 6 24 11 36 17 4 2 6 6 6 10 0 2 0 4-2 5 0 0 0 1 0 1-1 1-1 2-2 3 0 4-3 5-4 8-9 20-19 39-27 59 52 25 104 50 157 74 0-1 1-3 2-5-3-3-5-7-3-11 1-7 9-11 15-9 5 2 8 7 8 12 7 3 14 6 21 9 2 1 3-1 5-1 7-3 16 4 16 11 17 9 35 17 53 26 1-3 1-5 3-7 2 1 4 2 7 3-1 1-1 2-1 4 5 2 10 5 15 7 1-1 1-2 2-3 2 1 4 2 7 3-1 2-2 5-3 7 5 3 11 6 17 8-1 3-2 6-4 8-5-2-11-5-17-8-1 2-2 5-3 7-2-1-5-2-7-3 0-1 1-3 1-4-5-2-10-5-16-7 0 1-1 2-1 3-3-1-5-2-7-3 1-3 2-5 3-7-18-9-35-17-52-25-3 2-7 4-11 4 0 1-1 2-1 3 34 15 68 29 102 44-1 2-2 4-2 5 11 6 23 10 31 21-1-2-2-4-2-6 1-2 1-4 1-6 3-1 5-3 9-3 0 1 0 2 1 4 3-2 5-3 8-3-1-1-1-2-2-2 2-2 4-4 6-5 4 0 6 4 9 6 4 6 8 12 8 19 1 8-2 15-3 23 6 3 13 6 19 9 0 1 0 2 0 3 16 8 30 21 41 36 1-1 1-1 2-2-2-2-3-4-5-7 2-2 5-4 8-6 2 3 3 6 6 8-1-3-4-5-6-8 1-2 2-5 5-6 3-1 8 1 10 4 6 9 13 18 17 28 3 8 5 17 7 25 0 3 0 6 0 9 0 13-2 26-3 39-1 9-2 19-2 28 0 5 0 9-1 14-1 0-3 0-4 0-1-6-2-12-3-18-2-20 2-41 2-61-2-1-4-2-6-3-2 0-4 1-7 2 3 12 4 25 2 38-3 35-22 67-51 88 15 6 30 13 45 18 20 6 40 13 60 20 11 4 22 5 34 8 30 6 62 7 92 0 11-2 21-5 31-10 6-2 11-4 16-6 1-1 3-2 5-3 2-1 4-3 6-5 2-3 4-7 6-10 2-4 4-7 6-10 2-2 4-5 6-7 2-1 3-2 5-1 2 0 2 2 3 3 1 4 0 8 0 12-1 5-3 10-4 14 0 1 0 1 0 1-25 64-53 128-84 189z m-833-674c-46-24-92-47-138-70-3 0-5-2-8-3-1 0-2-1-2-2-3-2-8-2-10 2-2 4 1 9 5 9 1-1 1-2 1-3 4 2 8 2 10 6 1 1 3 2 5 3 44 22 89 45 133 67 1-3 3-6 4-9z m90-23c-4-2-8-3-12-5-2 4-4 9-6 14 4 2 8 4 12 5 2-4 4-9 6-14z m-22 49c-4-3-8-4-12-6-2 4-4 8-5 11 4 2 8 4 12 6 1-4 3-7 5-11z m-21 45c-4-2-8-4-12-6-3 7-6 13-9 19 4 1 8 3 12 5 3-6 6-12 9-18z m109-63c-4-2-8-4-12-6-2 5-5 10-7 15 4 1 8 3 12 5 2-5 5-9 7-14z m-27 58c-5-1-8-3-12-5-9 18-17 35-25 53 4 2 8 4 12 6 8-18 16-36 25-54z m-54 106c1-2 2-5 4-7 1 0 3 2 4 0 4-9 8-17 12-26-4-2-8-4-12-6-4 10-9 19-13 28 1 0 2 1 4 1-2 3-2 6-4 7-18-8-36-16-54-25-2-1-4-1-6-3 0-2 2-4 3-7 1 1 2 1 4 2 4-9 8-19 12-27-4-2-8-4-12-6-4 9-8 18-12 27 1 1 2 1 3 2-1 3-2 5-3 7-20-9-40-19-61-28 1-2 2-5 4-7 1 0 2 1 3 1 9-19 18-39 28-59-10-5-20-10-30-15 0 2 1 4 1 6 1 11-3 23-7 34-2 7-5 14-4 22 0 3-1 6-2 10-2-2-7-2-6-6 0-7-2-14 1-20 2-9 7-18 7-28 1-6-1-13-5-17-6-7-15-12-24-13-6 0-12 2-16 6-10 9-14 21-23 31-2 2-4 4-7 5-3 1-6 1-9 0 0-1-1-2-1-2 6-4 10-10 14-16 6-8 11-16 17-23 5-6 11-11 18-12-17-8-33-17-50-25-6-3-11-6-17-8-9-4-18-11-23-19-10-15-10-36-1-51-1 0-2 1-4 1-18-8-34-19-53-24-20-5-41-1-59 9-29 16-49 47-49 80-1 20 7 40 20 55 29 22 63 39 96 55 53 25 109 47 161 74-1 2-2 5 0 7l-3 0c1 1 2 1 3 2 6-13 12-26 18-38 1-3 3-5 6-5-2-1-4-2-6-3-1-2 1-4 2-6 20 10 40 19 60 28-1 2-1 4-2 6-3-1-5-2-7-3 1 2 2 5 0 7-4 11-9 21-14 32 4 1 8 3 12 5 5-10 9-21 15-32 1-2 3-3 5-4-2-1-4-2-6-3 0-2 1-3 2-5 20 9 40 18 60 28 0 2-1 4-2 5-2-1-4-2-6-3 0 2 1 4 1 6-5 11-10 22-15 33 4 2 7 4 11 5 5-10 10-21 15-31 1-2 3-4 6-4-2-1-5-2-7-4 1-1 2-3 3-5 20 10 40 19 60 29-1 1-1 3-2 5-2-1-5-2-7-3 1 2 2 5 1 7-5 10-10 21-15 31 95 43 190 86 285 129 1-3 2-6 4-9 0 0 2-1 2-1 14-29 28-59 42-88-54-27-108-53-162-79 0 0-1 1-1 1-3-1-6-3-9-4-1 1-1 3-2 4 6 6 10 14 10 23 1 10-3 21-11 28-10 10-25 13-38 8-12-4-21-15-24-28-1-10 2-22 9-30 7-9 19-13 30-13 0-1 1-2 1-3l-10-5 0-3 0 0 0 0c-25-12-51-25-76-37-9 19-18 37-26 56 1 1 2 1 3 2-1 2-2 5-3 7-21-9-41-19-61-28z m188 27c-10-8-26-9-36 0-9 7-13 21-8 32 4 8 10 13 18 16 8 2 16 1 23-4 6-4 10-10 11-16 3-10-1-21-8-28z m6-12c0 0 0 0 0 0l0 0c0 0 0 0 0 0z m134-50c-2-3-3-6-3-10-7-4-14-7-21-10-3 2-6 4-10 4-1 1-2 3-2 4 11 6 23 11 35 16 0-1 1-3 1-4z m104 64c0-1-1-1-1-1-1 2-3 4-4 7 1 0 2 0 3 0 1-2 2-4 2-6z m-315-98c-4-2-9-5-13-6 5 3 10 5 15 8 88 43 176 85 263 128 6 2 31 15 34 17 1 4 7 5 11 2-103-50-207-100-310-149z m354 118c0 3-2 7 2 7-1-2-1-4-2-7z m21-7c-1 1-3 2-4 2 0 1 0 2 0 3-3 0-5 2-8 0 1 2 2 5 3 7-2 1-5 2-7 2 2 1 5 2 6 4 2 2 5 3 8 4 3-7 3-14 2-22z m-31 80c3-7 6-14 10-21-4-2-7-4-11-5-8 15-25 24-42 23-6 0-12-2-18-4-3 1-7-2-10-4-3-2-7-4-10-6-14 30-28 60-42 89 1 1 2 2 3 2-1 3-3 6-4 9 23 11 47 21 70 32 2-3 3-5 4-7 1-1 2-1 3-1 16-34 32-68 48-102 1-2-3-3-1-5z m42-6c-1 0-1 1-2 1-2-1-7-1-7-5-3-1-6-3-8-4-4 7-7 15-11 23-1 0-2-1-3-1-16 35-32 70-48 104 1 1 1 1 2 2-1 2-2 5-3 7 20 9 40 18 60 26 16-4 30-13 41-26 15-17 23-42 20-65-4-26-19-49-41-62z m82 38c1-4 3-7 7-9-2-9-6-18-11-25-2-2-3-4-6-3 3 3 5 6 7 8-2 3-5 5-8 6-2-3-4-6-7-8 0 0-1 1-2 1 6 10 11 21 14 32 2-1 4-1 6-2z" horiz-adv-x="1556" />

<glyph glyph-name="trombone" unicode="&#xe823;" d="M944 576c7 8 12 15 18 22 6 7 10 14 17 19 6 6 14 12 20 14 5 1 8 0 12-5 4-4 9-12 10-23 1-11-1-22-5-44-5-20-16-56-24-80-9-24-16-40-27-61-12-22-29-50-42-67-14-17-30-29-39-34-10-4-15-3-18 6-4 9-2 35-1 47 0 12 2 16 2 24-1 9 2 16-3 27-6 11-12 22-31 36-20 16-50 35-83 53-33 19-66 37-111 59-46 22-104 47-161 72-56 26-116 51-176 77-60 27-140 65-181 83-40 17-45 20-60 22-14 2-19-4-25-9-7-6-10-13-12-23-2-9-3-21-1-32 3-11 6-22 17-34 10-11 23-21 46-34 24-12 51-22 91-40 40-19 104-50 146-72 42-20 73-38 104-54 32-16 32-13 84-41 53-28 154-86 227-126 72-39 134-73 203-109 68-37 138-75 204-110 65-34 138-73 186-98 48-25 72-37 98-51 26-13 44-21 58-29 15-8 23-11 30-20 7-9 11-25 13-36 1-10 0-18-3-27-4-8-9-17-19-22-11-4-20-10-44-2-24 9-50 27-98 53-49 26-107 55-192 101-85 46-217 119-317 173-101 55-204 110-278 151-74 41-127 70-162 91 0 5 1 8 4 12 2 3 6 5 11 6 53-30 108-61 169-95 61-34 87-48 193-106 106-58 341-187 436-238 94-51 88-47 125-66 37-19 72-41 95-51 22-9 32-9 41-7 9 3 15 13 13 22-2 9-5 18-26 33-22 15-46 25-103 55-58 32-179 97-238 129-59 31-23 10-112 58-90 49-321 174-421 228-100 54-114 61-175 94-63 32-141 74-195 100-54 27-93 44-125 60-31 15-46 19-63 33-17 15-33 33-40 53-7 20-7 47-3 64 4 17 14 29 28 36 13 7 25 10 52 3 27-7 58-25 106-45 48-19 122-48 179-70 57-22 93-38 159-62 66-23 178-62 233-79 54-16 64-17 89-21 25-4 43-4 60-3 15 1 27 5 35 10z m-42-82c3 8 6 16 10 25 4 9 8 19 13 27 5 8 13 20 14 19 0-1-3-10-11-27 4-1 8-2 11-6 4-3 8-8 10-13 2-4 2-11 1-11-1 0-4 10-7 14-4 3-8 7-12 4-3-2-6-13-9-19-5-6-10-15-14-17-3-3-5-1-6 4z m-9-53c6-3 11-4 17-3 4 0 8 3 12 7-3-1-5 0-7 2-1 2-2 6 0 9 2 4 7 9 11 9 4 0 10-5 11-10 0-4-3-12-6-17-3-5-9-10-15-12-5-1-13 0-17 2-5 2-8 6-9 10 1 1 2 2 3 3z m-330-19c-1 2 0 5 1 9 1 3 3 9 6 11 2 3 5 5 9 6 1 1 0 2 0 3-1 1 1 0-5 4-7 4-20 10-35 17-15 8-33 18-54 29-4 1-8 0-11-2-3-3-6-7-8-12-2-4-2-7-2-11 4-3 12-7 25-14 12-7 37-21 50-28 12-7 20-11 24-12z m-55-52c0 1-1 4 1 7 1 3 3 9 6 12 2 2 4 3 7 2 1 1 1 2 0 3-2 2-1 3-8 6-7 4-18 10-32 17-14 8-31 18-52 30-4 1-8 0-11-2-4-3-7-7-8-11-2-4-3-8-2-12 4-3 12-7 25-14 12-7 37-21 50-28 12-6 20-9 24-10z m975-438c-1-1-3-2-4-3-1-1-2-3-2-5 0-2 1-5 4-9-2-2-6-3-11-1-4 1-9 4-19 8-10 4-32 13-38 14-5 1-4-3 5-8 9-5 35-17 46-21 11-4 16-4 18 0 2-4 5-6 9-8 4-2 9-3 16-3-1 8-4 16-8 21-4 7-9 11-16 15z m45-46l13-7c-1-4-2-7-3-8-1-2-3-3-4-3l-11 7c2 4 3 8 5 11z m12-2l-3-3c0 0 0-1 0-2 0-2-1-4-1-6-1-2-3-3-4-4 0 0 0 0 0 0l-1-2 14-8c2 0 3 1 5 3 2 2 3 5 5 7 1 2 1 4 0 6-5 3-10 6-15 9z m-1091 551c5 3 11 7 19 12 9 6 18 13 30 20 3 1 5 1 8 0 1 0 3 0 4-2 2-2 3-4 4-7l-46-33c-6 3-12 6-19 10z m16-8c5 3 9 6 15 9 5 4 11 9 16 13 6 4 11 7 16 10 1 1 0 3-1 4-1 1-5 2-5 3 0 1 3 1 5 0 1-1 2-1 3-3 1-1 1-3 1-5l-46-34c-1 1-2 2-4 3z m-17 9c8 5 15 10 23 15 7 5 17 13 22 15 4 4 4 2 6 2 2 1 5 0 5 0 0-1-4-1-7-2-3-1-3-2-10-7-8-6-20-13-37-24 0 0-1 1-2 1z m74-45c5 4 12 9 21 15 8 5 18 12 30 20 2 0 5 0 7 0 2 0 3-1 5-3 1-1 2-4 3-7l-50-34c-5 3-10 6-16 9z m-100 54l-11 6c-1-1-3-1-5 0-1 0-4 1-6 3 0 2 0 4-1 5-1 0-3 0-5-1l-8 6c1 4 0 9-3 13-3 4-8 8-14 13l0 1c2 3 2 5 0 7-2 2-6 4-11 6-8-1-13-3-19-7-5-3-9-7-11-13-3-7-5-15-5-26l10-8 3 3c3-4 7-6 13-6 7-1 15 0 25 3l9-6c0-2 0-2 1-3 1-1 2-1 4-1 3 0 5-1 6-2 2-1 3-2 3-4l13-9c2 5 4 10 6 13 1 3 3 6 5 7z m39 207c-2-11-3-20-4-25-1-6-1-9-1-9l2-3-11-60-6-5-5-30 16-7 5 30-3 4 11 65 5 5 5 29c-5 2-9 4-14 6z m-289 128c-2-12-3-20-4-26-1-5-2-8-2-8l2-3-10-60-6-6-3-17 14-6 4 17-3 4 12 65 4 5 5 29c-4 2-9 4-13 6z m-68 31c-2-9-3-15-4-20-1-5-1-7-1-8l2-4-11-59-6-6-6-30 16-7 5 30-2 5 11 65 4 4 4 25c-4 1-8 3-12 5z" horiz-adv-x="1556" />

<glyph glyph-name="blues" unicode="&#xe824;" d="M559-45c0-1 0-1 1-1 0 1 0 2-1 1z m204 873c-2 2-3 2-6 2l-2 1-4-2-5-1-9-12c-5-4-9-8-10-8-1 0-3 4-3 9-2 11-5 16-10 16-2 0-3-1-5-5l-1-1-3-4v-7c-2-7-4-10-6-11l-2 0-1 0c0 0-1 0-1 0-6 2-10-1-8-5 0-1 0-1 0-2 1 0 1-1 1-1 1-1 1-3 1-4 1 0 1 0 1-1 0-3 1-5 1-6 1-5 1-10 1-16l0-16c0 0 0-1 0-2l-10-14-10-15-35-38c-40-42-54-58-60-70-3-4-6-8-7-8-1 0-22-30-27-40-1-4-5-9-8-13l-6-6h-11c-3 1-5 3-8 5-1 1-2 2-3 3-5 4-11 12-17 16-23 34-54 29-67 0-22-7-36-14-59-18-15-2-30-6-44-6 5 6 3 26 3 28 0 13 0 24 1 24 2 0 5 14 5 31 0 12 1 13 10 23 5 6 11 13 13 16l3 4 5-6c2-2 4-5 7-9 5-6 9-10 12-13l1-2 2 0c2-1 5-3 8-4 13-4 20 1 22 17 1 4 2 5 8 5 8 0 10 2 10 9 0 7 4 11 9 11 8 0 9 2 10 16 0 9 2 17 5 24 3 6 5 13 5 16 0 6 6 25 9 29 2 2 4 8 5 14 2 5 2 8 2 11l0 2-3 3c-1 0-2 1-3 2-2 1-5 3-7 4l-3 2c-2 1-4 3-6 6l-2 3-4 8-11 4c-5 2-12 5-15 6-3 2-13 7-24 11l-18 7h-14l-4-4-3-4-8-1-8-1-11-10-12-11-1-4c-1-3-3-7-6-10l-4-5-3-19-2-20-3-5-2-4c0 0-1-1-1-1l-17-1-17-1-21-11-22-11-33-33-1-2c-13-14-26-28-31-35-2-4-6-8-7-9-4-3-21-24-25-31-5-7-7-10-18-32-2-4-4-8-6-11-2-3-4-6-5-8l-1-1c-5-4-10-14-10-19 0-4-1-8-2-8-3-2-16-26-19-36-6-16-18-41-21-43 0-1-1-1-2-1l-3 1-5 1-1-2c-1 0-1 0-1-1l-1 0-3-3-1-14-1-9c0-1 0-1 0-1 0-1-1-3-2-5l-3-5c-3-3-7-10-10-14l-5-9-2-13-1-13 4-20 4-19 7-12c1-3 2-5 4-8 3-5 6-9 9-13 4-4 5-6 6-8l-7-13-8-14v-31l2-5c1-2 2-5 3-7 1-1 1-1 1-2l4-7 3-4c1-1 4-2 6-4 9-6 19-11 29-11 8 0 34-4 47-8 4-1 14-3 24-4 8-1 15-2 18-3v-2c0-3-1-6-2-8l-1-2c-1-1-2-2-3-2l-4-1-7-2-3-4-3-5-2-11-2-10c0-1 0-1 0-2l-5-6c-2-4-6-12-8-18-2-5-7-17-11-25-5-9-9-20-10-24l-3-9-6-11c-9-15-20-38-20-41v0c-2-3-3-6-5-8l-9-11-15-17v-2c0 0 0-1 0-1 0-1 0-2-1-3 0-2-2-4-3-7l-4-7v-3c0-1 0-1 0-2v-5l2-2 3-2-3-11-2-10 1-13c1-6 2-14 4-17l2-5 7-4c2-2 5-3 8-4l0 0 2 0c5-1 12 0 23 3 8 2 13 4 17 5l0 0 0 1c3 1 4 2 5 3 3 4 4 4 14 2 2 0 4-1 6-1l4-1 6 1c17 2 36 8 46 16l4 2 3 5 2 5-3 3-2 3-8 1c-10 2-18 5-25 11l-6 5v3c2 4 8 10 23 25 8 8 13 14 17 18l1 1 1 1c5 6 6 10 8 16 3 7 7 17 9 22 3 6 6 14 8 20 2 5 7 19 13 30 5 11 9 22 9 24 0 1 0 2 0 3l1 0c1-1 8-8 16-17l10-11c3-4 6-8 8-11l4-9 7-14 18-19 17-18c1-1 2-2 3-3l2-4c4-7 22-62 22-65 0-2 1-7 4-11 5-10 10-22 10-26v-4c0 0 0 0 0 0l-9-3-7-3c-2 0-3-2-3-7l-1-5 1-3-1-5h52l9 9c1 2 3 3 4 5l4 4 1 4c1 1 1 2 1 3l1 3 7-8 7-8 4-11h0v0h1v0l6 0c11-1 38-1 102-1 47 0 80 0 97 1h9l0 0h1v0c2 1 3 1 3 1 0 1-1 2-3 2v1l-20 6c-10 3-21 8-26 10-3 1-5 2-7 4-10 6-22 16-29 24l-5 5c0 1 0 1 0 1l-2 7-1 7-27 28h-4c-2 1-5 3-7 5l-11 10c-9 8-21 21-28 29l-13 15-22 17c-11 9-24 19-28 22-1 2-3 4-5 5-2 2-4 4-5 5l-1 1c-1 1-2 3-2 5l-1 4-1 8-6 4-5 4-8 2-5 1c-1 0-2 1-3 2 0 1-1 3-3 6-1 1-2 3-3 4 0 1-1 2-1 2l-5 7c-1 3-1 5-1 7 0 1-1 3-1 4v3l-8 9-4 4c-5 7-5 12-1 12 3 0 28-15 30-18 1-2 4-4 8-6l2-1 3-1c4-2 7-2 9-2 6 0 10 3 14 12l1 1 0 1c2 5 2 7 0 14l0 4-5 12-6 11-4 3c-1 0-1 1-1 1l-6 3c-6 4-16 10-22 14-12 7-16 10-20 19-1 2-1 4-2 5l-2 5c-1 5 3 6 15 7 11 1 12 1 12 6 0 2 0 3-1 4l0 3-4 3-4 2c2 3 4 5 7 8 4 4 5 6 2 9-1 2-3 4-5 6-13 11-23 26-28 41-3 10-4 20-3 30 2 15 8 30 14 35 2 1 3 4 3 5-1 2 1 8 3 15 4 9 5 11 12 13 4 1 12 2 19 2 6 0 16 1 23 3 7 2 18 3 25 2 3 0 6 0 9 0l2 0 0 0c13 1 26 3 39 1l9-2 12-5c2 0 3-1 4-2 0 0 0 0 0 0l3-2c1-1 2-2 3-3 1-2 3-5 4-8 1-4 2-9 2-16l3-16 4-13c2-7 4-15 4-19 0-3 1-11 3-18l3-14 13-22c7-12 14-24 15-26l1-5-3-3-2-2 1-6 2-6-13-17-7-3-7-4h-20l-5-5-5-5 7-6 7-6 12 1 13 1 3-2 3-2 1-30c1-14-2-25 5-37 7-13 9-12 17-2l7-17c9-5 7-5 14 2-2 8-2 6-5 12l1 11-6 14v0 0 6h3l5-9c2-4 7-12 10-16l7-8c5 1 9 2 8 7-1 2-3 4-5 6l-4 10c-1 6-2 14-3 18l-1 6h3c11-2 17-8 24-16 7-7 14-1 10 5-5 5-10 10-14 15l-8 11-8 12-1 16-2 16-2 7-2 7-4 4c-2 2-4 4-4 5v2l0 5-2 8c-1 5-3 13-4 18l-2 9 0 11c0 2 0 4 0 6 1 1 3 2 4 3l-1 8 7 0 9 0c9-1 13-1 16-1l1 0 0 0c3 1 6 3 10 6 4 3 7 5 9 7l1 1 1 2c1 1 2 3 2 5 2 5 5 11 8 14 7 8 15 24 16 34 1 10 8 25 12 25 1 0 2 2 2 6 0 4-2 6-6 7l0 0h0c-4 1-5 2-4 5 4 8 4 13 0 14-1 0-1 0-1 0-1 2-2 4-2 5 0 1 0 2 0 4l0 1-5 6c-2 2-3 4-3 6 0 3-1 4-3 4-2-1-3 0-3 3 0 3-1 3-8 3l0 0 0 0c-1 0-2 0-3 0-9 0-12 0-22 8-3 2-8 6-13 10l-1 1-17 17-4 4 1 11c1 6 5 17 9 26 9 16 25 45 27 47 5 3 32 44 39 60 4 7 9 14 12 17 2 3 11 14 19 24 7 11 18 23 23 26 11 9 13 14 16 38 3 28 3 27 12 39 16 19 21 26 22 31l0 0 0 0c0 3-1 4-2 7z" horiz-adv-x="765" />

<glyph glyph-name="tango" unicode="&#xe825;" d="M694 850c-16 0-26-4-30-10-2-3-2-6 0-10 2-4 2-4 1-9-1-2-2-9-2-15l-1-11 2-4c2-4 2-4 1-7-1-2-3-6-4-9-4-8-4-10-3-12 1-1 3-3 5-4l4-2v-4c0-4 0-5 1-6 1-1 2-2 2-3-1-2 0-3 1-5 2-2 2-3 2-7-1-5 0-9 2-11 2-1 3-1 12-1 7 0 10 0 11-1 0 0 0-4 0-12 0-9 0-11-1-13-2-3-6-6-10-6-4 0-11-1-14-3-2-1-7-4-11-8-10-7-12-8-30-8-15 0-16-1-41-7-15-3-15-3-22-3-9 1-11 1-18-1-7-2-19-2-30-1l-6 1-6-3c-6-3-13-9-21-20l-4-4 2-1c2 0 4 1 11 6l3 1-1-2c0-2-1-5-1-8 0-5 0-5 1-6 2-1 2-1 1-5-2-4-1-5 1-5 3-1 6 0 12 4 14 8 29 15 35 15 1 0 8 0 14-1 44-7 57-9 72-10l15 0-1-2c0-1 0-8-1-15-2-24-5-74-5-80 0-8-1-8-8-7-3 0-12 1-19 1-7 0-17 1-23 2-13 2-17 2-24-2l-5-2-9 0c-8 1-13 0-12-2 0-1-1-1-4-1-6 0-11-3-17-9-8-10-17-18-19-18-1 0-5 2-9 5-5 2-13 7-18 9-5 3-12 7-15 10-15 10-30 22-37 27-3 3-10 8-14 11-16 9-20 12-24 17-7 6-20 25-28 38-6 11-27 45-29 47-3 4-11 9-15 11-5 3-11 4-19 5-6 0-7 0-12 3-4 2-4 2-5 5 0 1-1 4-1 6-1 6-1 10 1 12 1 2 1 3 2 2 8-3 14-5 17-4 4 1 6 2 6 8 0 4 0 5 2 6 3 1 3 1 3 5 0 2 1 4 1 5 1 0 2 2 1 4 0 2 0 4 0 4 0 1 2 2 4 3 4 1 4 1 4 4 0 2-1 4-1 5-1 2-2 5-3 8-2 4-2 5-1 5 1 0 2 1 3 2 2 1 2 1 1 1-2 0-1 0 0 1l2 2-2-1c-4-2-5-2-3 0 0 0 1 2 2 4 2 3 2 4 1 9 0 4 0 9 0 13-1 8-1 12-4 14 0 1-1 2-1 3 0 4-5 12-11 16-13 10-25 14-40 13-10 0-15-1-20-4l-4-3-3 3c-7 5-12 5-20 0-6-4-9-7-11-14-2-7-2-13 1-21 1-3 3-7 4-8 2-2 5-4 8-4l2 0 1-9c0-10 0-11 4-18 2-3 2-5 3-13 1-5 2-15 2-23 0-13 0-14-1-21-1-4-2-8-2-9-1-1-2-2-9-2-11 0-15-1-31-6-18-6-24-7-41-5-10 1-13 2-19 4-5 1-9 3-14 3-30 3-40 3-49 1-8-2-11-2-23 2-16 4-32 6-34 4-3-2 0-4 7-5 5-1 10-2 14-5 2-2 2-2 1-3-1-1-6-3-11-6-11-6-15-9-15-13 0-4 3-3 15 5 4 2 7 4 8 4 0 0-3-4-8-9-6-5-10-10-10-10 0-1 1-2 3-2 2 0 2 0 2-1-1-2 0-2 1-2 3 0 7 2 17 10 11 8 13 10 15 10 2 0 2-1 1-4 0-3-1-7-4-11-4-8-4-11-2-14 1-2 2-2 3-1 0 1 2 3 4 6 3 6 9 13 14 15 2 1 6 3 9 4 5 1 6 1 15 0 12-1 15-2 28-6 12-5 18-6 35-7 16 0 18 0 31-7 6-2 15-6 21-8 12-5 13-6 15-9 0-2 3-26 5-49 0-6 1-17 2-23 2-14 2-29 1-36-2-11-8-25-18-41-12-20-14-24-18-41-5-17-7-27-7-44-1-16 0-24 3-38l3-9-1-14c-1-7-2-16-2-20l-2-6 3-1c7-1 7-1 6-4-1-10-3-25-4-44-2-30-4-44-6-51-3-9-9-18-21-33-23-27-29-38-32-66-1-7-3-16-4-21-2-11-11-38-14-44-3-6-9-11-17-16-3-2-7-5-10-7-8-5-10-11-8-20 3-10 2-14-6-26-3-4-5-9-5-9 0-1 1-2 2-3l1-1 6 9c10 14 12 16 17 13 3-2 8-7 11-13 2-4 3-8 4-16 3-15 5-19 13-22 5-2 16-2 30-1 11 1 12 2 12 8 0 5-1 7-8 10-6 3-14 10-14 13-1 1 0 5 0 9 1 4 2 12 3 18 1 16 3 27 6 35 17 39 17 40 26 56 6 11 21 41 25 51 6 13 8 18 15 30 4 6 8 13 9 13 1 2 1 2 1 0 0-2-2-11-3-21l-2-19 2-10c2-15 5-27 17-56 13-34 16-44 15-54 0-7-2-11-7-17-5-7-5-8-5-12 0-3 1-7 6-14 2-3 4-8 5-12 2-5 2-7 2-16l0-10 2-1c1 0 2 1 3 1 1 1 2 2 2 13 0 12 1 17 3 17 1 0 5-6 8-11 1-3 3-5 4-6 1-1 5-1 14-1 14 1 15 1 26 8 7 4 8 6 8 10 0 2 0 3-2 4-2 0-6 2-9 2-4 1-7 2-8 2-1 1-3 5-5 15-1 5-4 14-6 20-4 11-11 36-12 45 0 4-1 11-2 17 0 7-1 17-1 24-1 7-2 19-2 26-1 8-1 17-2 21-1 8 0 11 1 26 1 4 2 13 2 20 1 14 2 25 9 57 3 14 7 30 8 36 1 6 2 16 3 21 1 5 3 13 3 18 1 5 2 16 3 23 1 8 3 25 4 39 5 52 11 94 19 132 3 13 5 19 6 23 1 4 2 6 5 10 8 10 12 21 12 21l-1 3 15-13c9-9 19-17 21-19 2-2 9-6 15-9 7-4 15-8 19-11 19-11 41-21 64-29 5-2 11-5 13-6 8-3 11-4 17-3 12 1 14 2 19 5 4 3 11 9 16 15 3 3 4 4 4 2 0-5 2-10 6-14 3-2 5-5 6-6 2-3 5-3 10 0 5 3 9 5 23 11 16 6 20 7 33 6l10-1 1-2c1-5 2-16 4-37 5-64 10-109 15-145 3-23 5-41 6-49 0-3 1-7 2-10 2-7 3-14 4-22 0-3 2-14 4-23 5-25 6-31 5-43 0-7 0-12 1-16 1-5 1-11 1-19 0-12 0-14 2-25 2-11 2-12 2-22 0-8 0-12 1-17 2-10 2-19 2-24-2-8-7-24-15-40-3-5-6-13-8-17-4-10-8-16-14-23-6-5-9-7-16-10-7-2-9-3-12-7-4-4-5-7-5-9 1-2 2-3 15-3 8 0 15 0 21-1 5-1 13-2 16-2 8 0 10 1 18 6 2 2 5 3 7 4 1 0 6 1 10 2 9 2 11 2 13 0 1-2 2-2 7-3 3 0 10 1 17 2 10 1 12 2 12 3 1 1 2 6 2 11 1 5 2 11 3 12 1 2 2 2 2 0 0-1 0-1 0-1 0 0 1-1 1-2 0-3 3-10 6-12 2-2 2-2 8-1 13 1 19 3 25 9 6 6 9 11 12 19 2 5 2 6 2 21 0 9 0 18 1 22l1 5 4 1 4 1 0 32c1 18 1 40 1 50 0 22-1 49-2 60-1 5-2 16-2 25-1 9-1 21-2 27-1 6-1 24-2 43-1 45-1 49-4 65-2 12-2 14-2 29 0 17-1 22-4 35l-2 7 1 3c2 4 2 4 1 9-2 6-13 44-16 55-3 8-5 19-6 30-2 11-2 48-1 56 1 7 8 32 11 42 6 20 9 36 9 53 0 12-1 21-4 30-3 8-10 19-15 25-3 4-9 10-13 15-18 21-19 25-16 42 1 6 3 11 7 18 7 10 9 18 9 33 0 11-1 19-5 25-2 5-18 20-22 22-6 3-26 7-39 8-4 0-8 0-11 0z m74-845c0 0 1 0 1 0 2-1 2-11 1-23-2-14-3-12-3 6 0 15 0 17 1 17z" horiz-adv-x="879" />

<glyph glyph-name="salsa" unicode="&#xe826;" d="M523 13c0-1 0-1 1 0 0 1-1 1-1 0z m-1 837c-19 0-27-3-47-17-12-8-20-15-21-20-1-3-2-15-1-24l1-6-3 3c-5 3-13 6-28 10-12 2-15 3-24 3-9 0-10 0-15-3-6-3-12-8-15-13-1-3-3-5-3-5-2-1-5 0-9 4-5 4-7 6-11 6-5 0-11-6-15-14-2-5-3-6-3-14 0-11 2-19 6-27 3-6 6-8 11-9 7-2 10-6 12-17 2-8 6-15 11-19 5-4 7-9 7-16 0-11-5-24-23-53-5-9-11-19-12-21-3-6-4-16-5-34-1-8-2-14-2-15 0 0-1 1-2 3-5 7-16 17-18 16-2-1-1-7 3-15 6-11 5-13-3-24-6-9-8-13-8-19 0-6 2-10 7-16 3-3 6-5 15-9 12-6 13-7 14-10 2-2 2-19 0-31-1-15-8-24-31-45-64-35-45-78-63-122-10-21-10-23-7-24l2-1-7-17c-7-17-11-28-17-49-4-14-10-31-12-33-1-1-7-6-14-11-20-14-41-33-53-47-8-10-20-28-29-43-16-26-28-41-37-46-3-1-9-2-14-3-11-3-15-4-27-13-11-9-20-14-27-18l-5-2 1-3c0-2 0-4 1-4 0-1 6 2 12 5 16 7 23 7 23 2 0-4-5-12-14-25-5-7-9-13-10-15-2-4-1-17 2-33 5-19 6-21 8-24 2-3 7-6 9-5 1 1 2 10 3 21 1 15 2 17 33 51 8 9 21 24 34 41 16 22 31 37 71 71 27 22 31 25 47 40 11 11 17 15 24 19 2 1 5 5 8 9 5 8 16 22 26 34 8 9 25 34 43 64l6 10h6 7l11-19c13-24 31-59 34-67 2-5 2-8 2-12-1-6-1-6-16-17-16-13-23-21-32-39-7-15-13-33-18-58-3-13-8-26-14-36-2-4-9-13-16-21-12-14-13-17-13-23 0-5 2-15 5-26 4-12 6-21 5-26-1-3-4-18-5-22-1-1 0-1 2-1 4 0 3-1 6 13 2 15 6 30 6 30 1 0 5-11 8-24 2-7 4-13 5-15 5-8 17-11 46-12 13 0 14 0 16 2 2 3 2 8 0 11-1 1-6 7-11 12-11 10-12 12-14 24-2 5-2 10-2 25 0 17 0 19 2 29 7 32 17 49 55 101 7 10 15 21 19 26l5 8 1-2c1-5 5-13 10-18 4-5 8-7 21-10 6-2 12-4 15-6 9-5 37-30 55-49 24-24 48-51 51-58 3-6 3-14-1-29-3-9-4-21-3-26 2-6 9-2 18 11 8 11 14 19 18 23 2 2 4 4 5 4 1 0 3-8 3-12 0-6-2-15-4-20-2-5-9-10-15-14-3-2-13-6-23-10-9-4-18-8-19-9-6-5 1-14 10-16v0c7-1 72 2 75 4 4 2 19 7 21 6 1 0 2-3 1-4 0-1 1-1 11 1 9 3 14 4 22 7l4 1 0 5c0 5-1 16-3 26-2 14-18 63-23 74-2 4-5 11-7 16l-4 10 3 6c4 9 4 11-5 21-4 4-7 8-8 8 0 0-2 1-3 3l-4 3 2 2c5 6-1 13-18 23-11 7-20 14-25 19-4 5-5 5-5 10-1 8 1 15 13 48 11 31 15 40 22 54 3 7 7 14 8 16 0 2 7 17 14 33 7 17 13 31 13 33 0 2 2 4 6 7 3 3 6 6 7 9 2 4 3 5 3 12-1 9-2 16-6 36-2 9-4 19-4 23 0 3-1 10-2 14 0 5-1 14-2 21 0 6-2 24-4 38-3 25-3 27-3 37 1 6 2 11 2 11 1 1 9 4 18 7 15 5 17 6 20 9 7 7 9 15 8 31-1 17-5 34-16 59-3 8-8 22-11 30-5 15-11 29-16 36-4 7-12 12-23 18-23 12-24 13-31 20-9 9-11 14-8 25 2 8 3 12 1 12-3 0-8-4-12-9-5-6-6-6-12-4-1 0-3 1-4 1-1 0-3 1-5 3-2 3-4 4-6 4-1 0-2 0-2 0 0 0-1 4-2 9-1 11-1 18 3 30 6 16 7 22 7 38 0 15 0 15-3 19-5 11-21 23-35 27-5 2-7 2-18 2z m-51-149l4-7c3-4 5-8 6-9 3-2 11-5 14-5 3 1 4 0 5-2 1-2 1-7-1-13-1-4-3-6-18-14-14-8-21-14-24-20-1-2-3-8-4-14-1-6-3-11-3-12-2-1-9 22-11 38-1 7-1 14 0 15 0 0 4 1 8 1 8 1 11 2 15 5 2 3 3 5 4 15 1 4 2 11 3 15z m7-205c1 0 1-2 4-20 2-17 4-36 5-64l2-21-4-18c-11-61-23-117-32-143-2-7-5-17-6-21-1-5-2-10-2-10-1 0-5 21-9 41-1 5-5 23-9 39-7 26-8 29-8 34 3 23 5 47 7 55 4 17 7 24 34 86 3 7 9 19 12 27 3 8 6 15 6 15z" horiz-adv-x="715" />

<glyph glyph-name="balboa" unicode="&#xe827;" d="M89-149c-1 0-4 0-6 1-8 2-19 7-23 11-2 2-4 4-5 6 0 2-1 5-1 5-1 1-2 2-5 2-2 0-5 0-6 0-3 0-8 2-9 4-1 3-1 6 0 13 1 4 2 8 2 9 1 2 1 3 2 4 1 2 1 6 0 11-1 5-1 8 0 12 1 4 6 11 12 18 3 4 6 7 6 8 1 1 1 2 2 2 2 0 4 1 7 5 4 6 6 9 8 16 2 6 2 10 4 24 1 15 2 20 4 28 1 4 2 8 2 9 0 1 0 5 2 10 1 5 3 14 4 20 4 16 6 24 9 32 2 6 9 20 13 26 1 2 2 4 2 4 0 0 6 11 9 14 1 2 4 6 8 10 3 3 6 7 6 7 1 1 1 4 1 7 2 10 1 10-4 8-9-2-15 0-21 6-5 6-7 8-7 16-1 4-1 7 0 8 1 1 1 3 0 3-1 0-3 0-6-1-5-2-5-2-8-1-3 2-5 4-8 10-2 5-5 4-15-1-4-2-6-2-6-2-1 1-2 1-2 1-7 3-9 4-13 9-4 5-6 6-11 6-7 0-12 4-15 12-1 4-3 7-10 15-7 8-9 12-10 20-1 5-1 6 0 11 2 9 4 14 12 23 2 3 4 5 4 5 0 1 12 10 20 16 12 8 14 10 30 23 16 14 29 27 32 31 1 2 4 5 6 7 8 8 20 26 35 52 4 6 9 15 11 19 2 4 4 8 4 8 0 1 0 2-1 3-3 3-4 7-4 10 0 3-1 3-2 5-4 4-5 6-5 11 0 6 1 9 8 21 5 11 5 10 3 22-1 5-1 7-1 10 1 2 2 4 3 5 1 2 5 4 7 4 2 0 2 1 1 4-2 5-4 16-6 22-2 13-3 19-4 22-3 6-2 30 1 41 1 5 1 5 0 6-1 0-2 2-3 3-2 1-2 2-5 2-4 0-7 1-10 3-4 3-5 6-6 12-1 9-1 10-5 12-4 2-7 5-9 7 0 1-1 4-1 8 0 4 0 6-1 8-2 3-1 8 3 14 1 2 2 3 2 7 1 11 5 15 19 22 5 3 9 6 11 6 2 2 2 4 3 11 3 14 8 26 17 39 11 15 19 22 33 29 4 2 7 4 9 5 2 2 4 3 8 3 7 0 13-3 16-9 1-2 2-3 3-4 2 0 7 0 12 1 6 2 18 2 22 1 6-2 10-4 12-8 2-2 2-3 2-6 0-5-1-6-6-12l-5-4 2-5c4-8 5-13 5-23 1-13 1-14 4-18 8-10 9-15 6-19-1-1-3-2-5-3-4-1-4-1-4-2 0-1-1-2-2-3-1-2-2-2-1-5 0-1 0-4 0-6 0-1 0-3 0-5 1-11 1-11-1-13-1-2-5-3-8-2-3 1-14 0-17-2-6-2-10-8-11-17l0-4 3-3c6-6 21-27 30-40 2-4 8-14 13-24 8-17 9-17 10-17 2 0 5 2 8 8 3 7 11 22 14 28 5 8 8 12 15 19 5 4 7 6 12 9 7 3 13 5 17 6 4 0 8 1 14 4 6 2 19 9 21 10 1 1 3 10 2 12 0 1-1 2-2 3-1 2-1 2-7 2-7 0-9 0-12 5-2 4-4 9-5 15-1 7-1 8-5 13-3 4-6 10-8 14-1 2-1 5-1 11 0 7 0 7-2 13-3 5-3 6-3 11 0 13 4 25 12 38 5 7 16 15 25 17 2 1 4 1 4 2 2 0 2 0 9 2 2 0 5 0 6 1 2 0 4 0 5 1 1 0 8-1 14-3 12-3 20-7 30-16 4-5 9-15 10-25 2-11-1-29-5-42-4-12-5-20-5-30 1-4 1-5 2-6 1-1 3-4 6-8 6-9 7-10 13-13 13-6 36-12 47-12 2 0 5-1 7-1 16-4 22-7 30-16 14-13 19-22 25-39 1-5 4-10 4-12 3-4 6-16 7-21 1-8 0-16-3-23-1-2-2-5-2-7-1-3-2-6-3-10-3-4-4-7-12-14l-8-9 0-3c1-5 1-19 0-24-1-6-3-12-6-15-5-5-9-7-22-11-1 0-2-1-3-2-1-1-2-12-2-17 0-7 1-19 2-23 1-3 3-9 4-13 4-11 4-13 6-26 2-20 2-25 1-50 0-32 0-44 0-49 2-8-1-20-7-29-1-3-5-8-8-11-5-6-7-10-7-14 0-5-11-25-21-40-5-8-9-15-10-19-1-2-3-9-4-14-7-23-9-31-9-41-1-9-1-13-3-21-1-1-1-5-2-8 0-5-3-17-7-33-3-12-9-29-13-39-2-4-4-8-4-9 0 0 2-2 4-4 7-8 13-17 14-23 1-6 1-20-1-26-1-3-4-7-8-9l-1-1 3-9c2-4 5-13 8-19 3-6 5-11 5-11 0 0 1-3 2-6 6-13 8-16 8-19 1-8-2-15-8-16-6-2-25 0-37 4-9 3-19 9-21 13-5 9-8 15-12 38-1 1-1 1-2 1-2 1-6 2-8 3-2 2-5 7-7 13-2 6-5 11-7 12 0 1-3 1-6 1-5 0-8 2-12 5-3 2-6 8-7 14-1 5-1 6 0 11 0 4 1 9 2 11 2 3 2 5 2 11 0 10 2 20 7 34 4 12 8 18 14 25l4 3-1 4c0 2-1 6-3 10-3 8-3 11 1 20 4 7 4 6 0 12-3 5 0 10 9 24 3 5 6 10 7 12 1 2 2 4 2 5 2 1 4 7 4 10 0 3 0 4-3 7-5 8-7 11-8 14-2 5-6 21-8 31-2 10-3 14-7 22-5 8-6 11-8 19-6 20-12 36-18 45-2 4-2 5-4 12 0 6-1 7-3 10-6 8-7 14-9 31-1 11-3 19-4 29-4 14-3 18 7 32 8 10 9 11 12 21 3 8 5 10 11 15 5 4 5 4 7 13 1 5 1 5-4 6-6 1-10 2-13 4-5 3-8 5-10 8-3 5-4 8-7 30-1 6-2 6-6 1-5-7-13-15-20-18-2-1-5-3-6-5-3-2-4-3-9-11-8-11-12-16-16-20l-5-5 1-10c2-21 4-40 6-50 1-8 3-14 7-23 2-5 3-10 4-12 0-1 1-4 1-6 1-3 2-6 4-9 6-10 8-16 8-24 0-6 4-15 12-27 7-10 8-13 11-21 1-3 2-7 3-8 0-1 1-4 2-6 3-10 6-19 15-36 10-19 10-21 0-25-8-2-10-5-11-14 0-3-1-6-1-7-1-2-4-3-8-2-1 0-5 1-8 1l-6-1-1-6c-2-5-2-6-4-8-2-1-7-3-9-3-2 0-2-1-5-13-4-15-14-47-15-49 0-1-2-4-3-8-1-4-4-11-6-15-10-23-13-30-16-39-1-5-3-10-3-10 0-1 0-4-1-7-3-8-8-27-10-35-2-11-2-23 0-27 0-2 2-5 3-8 2-7 5-13 9-17 6-8 12-10 21-10 9 0 10-1 13-7 2-5 2-8 1-12-3-8-9-12-27-16-6-1-14-1-18 1-5 1-8 3-14 8-7 7-11 10-15 10-2 0-3 0-4-1-1-1-2-2-2-12-1-10-1-11-2-12-1-1-4-1-9 0-2 1-5 1-7 2-7 0-6 0-7 11-1 4-1 8-2 8 0 0-1 4-3 8-2 8-2 8-2 14 1 10 5 23 10 30 3 4 6 10 9 19 4 14 7 26 9 54 1 4 2 11 2 14 1 3 2 9 2 15 1 5 1 13 2 18 0 5 1 12 2 16 2 21 9 46 20 64 2 3 3 6 3 6 0 0-2 1-4 3-5 2-8 4-11 9-2 2-3 2-6 3-4 1-9 3-10 3-2 2-6 3-7 3-1 0-1 0-5-21-2-9-4-17-4-17-1-1-2-4-4-7-1-3-4-8-6-12-6-10-16-24-17-27-3-2-7-10-10-16-5-9-12-24-13-27 0-1-2-5-3-8-4-6-10-21-13-29-2-3-4-8-5-12-2-3-3-7-3-7 1-1 0-3-2-9-5-12-10-36-11-50-2-12-2-14-2-15-2-1-2-13-2-31 0-26 1-29 7-30 5-2 6-3 7-5 3-5 1-12-2-15-4-3-8-4-19-4-5 0-11 0-12 1z" horiz-adv-x="604" />

<glyph glyph-name="party" unicode="&#xe828;" d="M262 681c0-6 2-6 5-6 3 1 7 4 5 13 0 5-2 13-4 14-3 1-4-11-6-21z m9 25c2-6 4-9 4-20 0-11-3-12-8-13-6-1-7 0-6-9 1-18 1-18 32-2 42 21 85 46 91 53 5 5 5 5 1 10-5 5-69 53-77 57-2 2-12 4-22 6-10 2-21 5-25 7-10 5-16 16-16 27 0 9 1 10 8 13 5 2 13 4 19 5 10 1 10 1 28-15 20-17 44-33 93-61 32-19 40-26 43-38 3-11-21-32-77-67-30-19-43-30-49-43-7-14 1-30 11-52 7-14 8-18 8-28-2-16-17-37-37-66-19-29-27-48-27-67 0-12 2-15 16-40 21-38 34-57 50-76 7-9 13-16 12-17 0 0-4-4-9-7l-8-7 16-37c28-70 34-88 36-107 0-3 0-5 0-7 0-2 2-4 2-5-1-8-4-16-6-23-16-61-46-121-25-187 9-30-26-24-32-7-5 12-9 19-10 30-1 5-3 11-5 14-3 6-3 7 3 17 12 20 24 92 21 134-1 21-1 24 3 26 4 3 4 4 0 18-5 18-12 31-42 73l-25 34-17-1c-9-1-31 0-48 1-18 2-33 2-33 2-1-1-2-32-4-69 0-21-3-49-4-70 5-3 3-8 3-12 0-8-3-16-3-21-3-41-11-105-13-107-1-1-3-10-5-21-15-29 27-88-24-80-9 1-10 14-12 22-2 24 4 70 4 102-1 57-2 106-3 109-1 6-1 6 5 6h6l-1 25c-1 14-3 48-4 75l-3 50-9 3-8 3v27c0 15 1 37 3 51 1 64 45 91 70 116 12 17 18 45 13 50-7 6-101 39-132 46-16 3-28 7-28 8 0 0 9 6 19 12 11 6 27 18 36 26 16 15 37 40 37 44-1 1-13 9-28 19-16 10-37 25-47 33-8 7-18 14-22 22-5 6-11 16-10 26 3 17 25 36 27 37 4 3 30 18 57 33 42 23 53 29 62 39 16 17 19 18 39 11 9-3 19-5 22-5 6 0 6-8 0-20-5-12-8-13-30-15-10-1-23-3-29-6-28-10-67-40-93-72l-9-11 5-4c11-9 69-49 72-50 6-2 17 25 24 60 4 18 9 37 12 43 8 17 24 34 36 37 12 3 31 1 45-6 14-6 24-20 27-38 2-10 4-28 2-45 0-1 1-2 1-3z" horiz-adv-x="436" />

<glyph glyph-name="modern-dance" unicode="&#xe829;" d="M727 507c-2 2-5 4-7 6-3 4-8 6-13 7-5 1-9 5-13 7-5 2-9 4-13 6-2 2-5 3-7 3-3 1-5 0-7 0-6 1-12 0-18-1-9 0-19 1-28 2-16 2-33 5-49 5-8 1-17 1-25 3-3 0-6-1-10-2-2 0-4 1-5 2-3 0-5-1-7-1-4 1-7 2-10 2-3 0-5 2-8 3-3 1-6 0-10 1-3 0-7 1-11 1-1 2-2 5-3 7 3-1 5-1 8-1 2 3 2 6 1 9-2 5-8 6-12 8-1 1-2 3-2 4 7 1 14-1 20 4 1 4-2 8-6 10-4 1-8 2-12 3 1 2 3 3 4 4 4 7 5 14 5 22 0 5-2 9-6 12l-1 0c-3 3-7 5-11 6l0 0c-4 1-6 3-9 5-14 7-29 9-44 12-3 0-6 1-9 1-3 1-8 2-11-1 2 0 4-1 7-1 1 0 2 0 3 0 0 0 0-1-1-1 4-2 7-3 10-4 5 0 10 0 14 0 3-1 5-1 8-2-4-1-7-1-11-1-3 1-5 2-8 2 2-1 3-2 5-3-1-1-3-1-4-2-3 1-6 1-9 1-2 0-3 1-5 0-3 0-5 1-8 2-8 1-16 1-23 3-5 1-10 3-15 3 1-1 3-1 5-2-2 0-4 0-6 0 1-2 3-2 5-3 2-1 4-2 6-2 3-1 7-2 10-2 1 0 1 0 2 0-2-1-3-1-5-1-4-1-9-2-13-2-1 1-2 1-4 1-4 0-8 0-11-1 0 0 1-1 1-1 0-1 0-1 0-1 5-2 10-2 15-1 2 0 5-1 6 1 8 1 16 3 24 3 3 0 6-2 9-2 1-1 2-1 3-1-5 0-10-3-15-2-6 0-12 1-18 0-7 0-14-1-20-1-3 1-7 2-10 2-4 2-8 2-12 4-3 1-5-3-7-4 1-2 4-3 5-4-1 0-2 0-3 0 1-1 1-2 2-3 0 0-1 0-1 0-1-1-1-1-2-2 1-1 3-2 4-3-1-1-2-2-2-3-8 3-16 2-24 2-4 8-7 17-10 26-2 4 0 8-1 12-1 2-3 4-3 7-1 7-2 13-4 19-1 3-2 6-2 8-1 4 0 8-1 12-3 12-5 24-10 36-8 16-18 32-24 49-1 3-2 6-4 9-2 1-3 4-4 5-6 7-15 8-23 11-6 3-12 6-18 8-6 4-12 7-19 8-4 1-8 3-12 3-2 0-4 0-6-1 0-4 3-6 6-7 4 0 8-2 11-3 3-1 6-3 9-5-11 0-22-2-32-7-2 0-4-1-4-3 1-2 4-3 7-3 3 1 6 3 10 3 4-1 8 2 11 0 2-1 5 0 7 0-7-2-13-4-20-5-3-1-6-1-8-4-2 0 0-2 1-2 2-3 6-2 9-1 4 1 9 1 13 2 4 1 7 1 10 1 1 0 1 0 1-1-1 0-3 0-5 0-4-1-9-1-13-2-2-1-1-4 1-5 3-2 7-1 11-1 4 0 8 1 12 0 1 0 2-1 4-1 3-1 7 0 10-2 4 0 9-3 13-2 0-3 1-6 2-9 3-13 4-25 5-38 2-13 5-25 10-37 1-5 2-10 4-14 0-3 2-5 3-8 0-1 1-3 1-5 2-4 2-10 2-15 1-9 2-18 3-27 0-5 0-10 0-15-2-6-4-11-6-16-5 0-14 3-20 2h0c-5 0-12-2-16-5-9-5-11-14-13-24-1-5 0-14-2-20-2-4-2-9-3-14-3-7-5-15-8-23-3-7-5-14-5-21 0-4-1-7-2-11-3-8-5-16-8-24-3-10-6-19-8-29 0-4 0-8-1-11-2-3-2-6-3-9-1-4-4-7-5-12-1-2-1-5-3-7-3-6-3-13-3-19-1-3-2-7-2-10 1-5 1-10 1-15-9-6-17-12-26-18-24-17-47-36-70-54-10-8-19-17-28-26-2-4-6-8-7-12-5-9-5-19-3-29 3-11 12-18 21-23 5-3 11-4 17-5 13-3 27-7 40-9 6-1 10-4 15-5 11-4 23-7 34-11 12-5 24-11 36-16 10-4 20-8 29-14 7-3 14-7 20-11 6-5 12-8 18-13 4-4 8-7 12-10 6-4 12-7 17-11 6-4 11-10 16-15 2-3 4-6 5-9 1-6 2-13 4-19 1-3 0-6 1-9 1-1 3-3 5-3 2 1 3 3 4 5 1 2 3 3 4 5 1 1 0 2 0 4 3 2 2 6 0 9 5 0 5 5 3 8 2 1 3 3 3 4 1 2 0 5 0 7 0 2 0 3 1 5 11-16 20-34 30-51 5-9 11-18 16-27 3-7 7-15 10-22 3-7 6-14 9-20 2-3 4-7 6-10 4-6 8-11 12-16 4-5 9-9 12-15 3-5 6-10 9-16 3-6 5-13 6-20 1-3 3-5 4-8 0-3 0-6 1-9 2-2 5-2 7 0 2 2 3 4 3 7 0 3 1 6-1 9 2 3 2 6 1 8 0 1 1 3 1 4 1 8 2 17 0 25-2 9-4 17-5 26-1 8 2 15 4 23 1 7 1 14-1 21-3 5-9 8-14 8-5-1-10-3-14-3-4 1-5 4-6 7-2 5-5 10-8 15-6 15-10 31-16 46-3 9-7 19-9 29-1 9-5 17-8 25-5 8-10 16-16 23-6 8-14 14-21 21-8 8-15 18-19 28-2 5-2 11-4 16-4 16-8 32-14 47-2 7-6 14-9 21-6 14-13 27-19 41 6 11 15 20 18 33 4 15 3 30 1 45-3 13-6 25-9 37-2 6-5 11-4 18 2 11 10 19 19 25 12 9 25 16 39 22 4 1 8 2 12 4 8 4 15 7 22 10 6 2 12 2 17 2 7 0 14 1 21 2 7-1 14-5 22-5 8-1 16 0 23 1 3 0 6 2 10 2 12-2 23-3 35-3 12-1 24 0 36-2 10-1 19-3 28-3 9-1 17-1 26 0 24 2 47 7 71 8 4 0 8 0 12 1 1-1 2-3 4-4 3-3 6-5 9-8 2-2 3-4 5-6 1-2 4-2 5-4 3-2 5-5 6-8 2-3 4-5 5-8 2-2 4-5 7-5 1 0 3-1 3 1 0 3-3 6-4 9 0 4 0 8-1 12 1 0 1-1 1-1 0-3 0-9 4-9 1-1 2 0 2 2 2 0 1 3 1 4 1 5 0 9-1 13 0 5-3 9-6 12 6-1 10-4 14-8 2-1 4-1 6-1 2 3 0 6-1 8z m-370 133h0c1 0 2 0 3 0-1 0-2 0-3 0z m-114-480c-10 5-21 11-30 18-12 8-23 16-35 23-5 4-10 7-15 12-10 9-24 15-37 21-3 1-6 1-9 3 7 2 14 5 21 8 5 3 11 5 16 8 8 4 15 9 21 13 4 2 7 4 10 7 9-14 17-28 26-42 17-25 38-47 51-74-7-3-13 0-19 3z m105 470c1 0 2 0 2 0 0 0-1 0-2 0z m10-10h0c1 0 2 0 3 0-1 0-2 0-3 0z m3 14c0 0 1 0 1 0h0c0 0-1 0-1 0z m130-48c-3-2-6-4-9-5-1 3-4 5-3 8 4-1 8-2 12-3z m-4 35c0-4-1-9-2-13-1-3-3-5-5-7-1 4 0 8 0 12-1 7-2 13-5 19 4-3 9-6 12-11z m-27 16c4-1 8-2 12-4 3-7 5-15 5-23-4 4-4 10-7 14-2 2-3 4-5 6-2 2-3 5-5 7z m5-10l1 0c1-2 2-3 3-5 1-1 2-2 2-4-2 3-5 6-6 9z m9-57c1 1 1 2 2 3 1-2 2-5 2-7-1 0-2 1-3 1 0 1-1 2-1 3z m2-11c1 0 2-2 2-3-1-1-2 2-2 3z m1-5c1 1 2 1 2 2 1-1 2-3 3-4-2 1-4 1-5 2z m4 15c2-1 4-2 6-3-1 0-3 0-4 0-1 1-1 2-2 3z m60-585c0-1 0-1 1-1 0 1 0 2-1 1z" horiz-adv-x="746" />

<glyph glyph-name="tap" unicode="&#xe82a;" d="M488 850c-1 0-3 0-4-1-3-3-3-5 2-10 2-2 9-13 15-23 34-54 53-85 53-86 0-1-1-5-2-10-1-4-2-11-3-16-1-12-2-17-5-25-3-6-3-7-6-8-5-1-6-3-6-9-1-8-12-33-22-51-3-5-8-14-11-21-7-14-12-23-17-26-1-2-4-5-6-7-1-3-7-9-12-14-7-8-10-10-14-12-3-1-6-3-7-4-2-3-3-3-8-1-3 3-9 3-13 2-1-1-4-2-6-4-1-2-3-3-3-3-2 0-11 8-12 10-1 2-2 7-3 12l-1 9 3 4c5 4 5 6 5 11-1 4-1 6 1 9 3 6 4 13 2 18-2 4-9 8-15 9-2 0-5 1-6 2-2 3-3 8-3 22-1 15-1 15-8 19-6 3-11 4-23 3-22-1-39-7-45-15-3-4-3-7 0-13 5-10 9-25 8-29 0-1-2-3-7-5-9-4-12-8-11-14 1-3 8-10 17-14 10-7 15-12 15-17 0-2 0-4 1-5 2-5 8-11 12-13 6-3 6-4 5-8-2-5-4-6-10-8-4 0-9-2-13-4l-6-4-5 1c-8 2-15 1-19-1-5-2-7-5-11-13-5-8-15-18-20-19-3 0-5-2-9-5-11-9-9-8-27-9l-16 0-4-3c-6-4-9-5-16-5-5 0-6 0-9-3-1-1-5-4-8-5-7-3-15-6-17-6-1 0-4-1-7-3-3-1-6-3-7-3-1 0-10-2-19-6-10-3-20-7-23-7-6-2-7-3-15-8-2-2-4-2-10-3-9 0-12 1-25 8-9 5-25 12-28 12-2 0-2-2 2-5l3-4-2-1c-2 0-6 1-10 2-3 1-7 2-8 2-2 0-2-2 1-5 3-4 2-4-3-3-6 2-7 2-7-1 0-3 1-4 5-8 2-3 5-5 6-5 14-4 37-18 38-22 0-1-2-3-5-7-8-9-10-13-7-16 1-3 3-2 7 1 6 6 12 9 20 12 7 2 10 3 14 7 13 10 14 11 38 15 8 1 18 3 21 4 3 0 13 2 23 4 10 1 22 3 25 4 4 1 7 2 8 2 1 0 6 2 12 3 10 3 10 3 26 4 14 0 18 0 21 1 7 3 12 6 17 9 5 3 10 6 19 10 4 1 8 3 10 5 5 5 6 4 8-2 2-5 4-11 9-17 5-7 7-15 8-32 0-14 0-32-1-37-1-4-5-8-9-9-10-4-13-6-18-17-3-8-4-8-12-5-4 2-18 7-30 11-14 6-23 9-25 9-5 0-9-3-19-12-8-8-9-10-13-16-3-6-3-8-3-12 0-5 0-6 8-20 12-21 11-20 18-17 5 1 26 6 38 8 6 2 14 3 17 5 9 2 9 2 8-3-1-5-3-7-7-7-2 0-5-1-8-4 0 0-3-2-5-4-4-3-4-4-6-8-1-4-3-7-8-13-3-5-8-11-10-15-4-6-5-8-8-9-2-1-5-4-7-6-5-7-6-7-13-6-8 3-15 2-24-1-4-1-8-2-10-2-2-1-2-1-5 7-4 13-7 14-12 5-7-10-10-13-14-15-5-3-9-3-15-1-7 3-13 2-20-1-7-3-9-4-25-6-7 0-16-1-18-2-9-1-26-12-30-18-3-4-3-8 1-11l3-3 17 1c17 0 18 0 23 2 6 2 7 2 16 2 5-1 14 0 21 0l11 1 13-5c29-12 58-20 68-19 15 1 17 1 29 8 30 18 49 31 82 58 8 6 15 12 16 12 2 0 1-4-3-14-3-7-5-13-5-13 1-1 2-2 3-2 14-6 18-8 18-10 1-1 3-6 4-10 4-11 10-21 13-26 4-4 4-5 2-12-2-7-3-13-4-31-1-11-1-19-1-20-2-6-3-8-13-16 0-1-2-2-4-3-6-4-18-14-29-24-7-7-10-9-13-10-12-3-22-8-27-12-3-3-1-12 5-24l4-6c-6-10 0-3-14-18-3 0-8-2-12-2-8-2-11-3-16-9l-4-3 4-6c5-11 9-18 10-18 1 0 3 0 4 1 1 1 3 1 4 1 1-1 9-16 11-25 1-3 3-8 5-10 1-2 2-4 3-5 3-7 7-12 11-17l6-5c6-6 8-6 11-3 1 1 2 3 2 5l0 3c-2 7-2 10-4 16l-3 5c-2 4-2 4-1 13 1 5 1 11 1 14 0 5 1 7 2 8 2 3 2 3 1 9 0 6 0 6 2 10 1 2 6 7 10 12l8 8c12 9 12 9 21 17 1 1 7 5 12 9 5 4 14 11 18 15 22 16 33 24 35 24 4 0 11 4 17 9 4 3 8 7 12 13l6 8c6 8 6 8 9 16l0 2c1 2 0 9-3 31-3 22-7 71-8 92-1 5-1 13-2 17 0 7 0 8 1 10 1 3 1 8 1 39l0 35 5 13c3 6 9 20 14 30 4 9 9 19 9 21 2 5 1 15 0 21-1 5-1 11 1 12 2 1 7 0 14-2 7-3 10-4 10-1 0 3-4 19-6 26-1 4-3 10-4 15-1 10-6 34-10 48-5 17-5 16-1 21 6 6 20 23 34 40 6 7 12 15 14 17 3 4 9 16 19 40 14 34 18 47 20 65 2 14 3 19 10 26 4 4 4 5 6 3 1-1 6-9 13-17 6-9 15-22 19-28 5-7 16-23 24-35 9-13 20-28 24-34 5-7 9-13 10-13 2-2 4-1 4 2 0 1-15 23-45 69-25 36-45 67-45 67 0 1 1 2 2 4 3 3 3 4 1 7 0 1-2 6-4 10-4 9-10 18-13 19-1 1-4 1-7 1l-5 0-3 6c-2 3-11 16-19 29-8 13-20 33-27 44-7 10-13 21-14 24-3 5-6 8-9 8z" horiz-adv-x="675" />

<glyph glyph-name="hip-hop" unicode="&#xe82b;" d="M405 201c0 0 0 0 1 0 0 1 0 1-1 0z m-269-314c0-4 0-10 1-14 1-3 4-7 6-10 3-3 6-7 10-10 2-1 5-2 7-2 2-1 6-1 8 0 3 0 6 2 8 3 4 3 8 6 10 9 2 3 3 7 4 11 1 2 1 4 1 6 1 3 1 7 0 10 0 3-1 7-2 10 0 2-1 6-1 8-1 2-1 4-1 6 0 2 0 5 1 7 2 5 8 11 11 15 3 3 6 6 8 9 5 7 6 11 13 26 8 15 27 52 39 74 15 31 40 82 52 102 11 20 14 24 21 34 3 4 6 10 10 13 2 3 6 6 9 8 2 0 5 1 7 1 1 0 4-2 5-3 13-20 25-43 37-64 10-17 23-39 31-56 7-14 13-34 21-48 1-2 3-4 5-5 0-1 1-2 1-2 0-2-1-5-1-6 0-3 0-6 0-8 0-1 0-3 0-5 1-2 3-4 5-5 4-5 12-8 18-12 4-3 10-7 14-11 5-4 10-12 16-15 8-3 19-5 28-5 3 0 9-1 12 1 2 1 3 4 4 7 0 2-1 6-1 9-1 3-3 7-5 10-2 4-6 10-8 14-5 8-13 13-18 20-2 2-3 5-4 7-2 4-6 9-7 12-2 3-4 5-5 8-1 7-4 7-7 12-4 8-4 21-6 30-4 22-8 40-17 60-13 35-14 73-27 107-4 9-7 18-10 28 0 2-1 5-1 7 0 2 1 3 0 5-1 2-4 4-5 6 0 2 1 4 1 6 0 34 12 78 12 117-1 4-1 9-2 13 0 5-1 13-3 18-1 3-4 6-4 9 0 2-1 12-1 18 0 3 0 8 0 12-1 3-1 8-2 11-1 5-4 11-6 15-1 4-2 9-5 13-2 2-5 4-8 5-3 2-7 3-10 4-3 2-8 2-11 4-1 0-3 2-5 3 0 0-1 0-2 1-1 1-4 2-4 2 9 11 15 22 21 32 2 5 4 12 6 18 0 2 2 5 2 8-1 1-1 2-2 3 0 0-2 0-2 0l-1-1c7 20 8 53-9 68-8 8-25 13-37 14-9 0-21-4-27-7-6-3-8-6-10-9-3-3-6-12-8-16-2-7-4-17-5-24 0-3 0-11 0-11 0 0-5 1-6 0-2 0-3-1-4-2-1-3 0-7 0-10 1-4 1-9 2-13 1-3 2-6 4-8 1-1 6-1 6-1l3 1v-8-11c0-1 1-3 0-4-2-1-4 0-5 1-4 2-6 7-9 10-3 3-8 7-14 11-6 5-17 14-25 18-8 4-20 5-28 9-3 2-8 5-11 8-3 2-9 7-9 7 0 0-16 15-23 21-3 2-9 6-9 6 0 0-7 10-11 14-5 7-13 16-19 22-5 6-13 12-19 18-5 5-18 16-18 16l-23 23c0 0-11 9-17 12-1 1-3 0-4 1-3 3-6 9-7 13-2 3-4 8-5 11-2 4-4 8-6 11-1 3-4 5-6 7-4 6-10 13-14 18-3 3-6 6-8 9-2 2-5 6-7 8-1 1-3 2-4 2-1 1-2 1-3 0-1 0-2-2-2-2 0 0-1 4-2 4-1 1-2 1-3 0-2 0-4-3-4-4-2-6 6-14 10-19l5-6 6-9h0c0 0-3 1-4 0-2 0-5-1-6-2-2-2-4-5-5-8-1-2-1-5-1-7 0-10 2-11 10-16 2-2 6-3 8-5 3-1 6-2 8-4 2-1 4-5 6-7 2-2 6-4 9-6 2-1 7-2 9-5 5-4 6-11 12-19 5-8 19-23 27-32 5-6 10-14 15-20 6-6 15-13 21-18 4-4 10-9 13-11 3-3 4-4 6-6 2-2 4-5 5-7 3-5 5-13 7-18 6-10 23-32 23-32-2-8-5-15-6-23 0-3 1-8 1-10 1-3 0-5 1-6 2-2 6-3 8-3 6-3 14-6 20-9 7-6 14-12 20-19 3-3 6-8 7-12 3-15 5-30 6-45 3-31 5-62 1-94 3-59-13-115-20-170-1-7-1-16-3-22-2-5-4-11-6-15-4-8-8-19-12-26-18-41-31-87-43-130-7-25-16-49-20-73-1-6-2-13-3-19 0-4 1-8 1-12 0-4-1-9-1-13z" horiz-adv-x="554" />

<glyph glyph-name="ballet" unicode="&#xe82c;" d="M385 233c0 0 0 0 1 0 0 1 0 1-1 0z m142 167c-1 1 0 3-1 5 0 2 0 3 0 5 0 4-1 8-1 11-1 5-1 9-1 13 0 5-1 9-1 13-1 4-1 8-1 12 0 4 0 8-1 12-3 8-9 14-15 19-13 13-24 28-38 39-3 2-6 5-9 7-4 2-7 4-11 6-3 1-7 2-10 4-2 1-3 3-4 4-2 1-4 2-7 3-15 9-32 16-47 25-16 8-31 16-47 24-8 3-15 7-23 8-4 0-7 1-11 1-5 0-9 0-13-1-2 0-4 0-6-1-2 0-4-1-6-2-4 0-7 0-11 0-4 0-8 1-12 2-4 1-7 4-10 7-5 6-9 12-13 19-2 4-3 7-5 11-1 2 1 3 2 4 1 2 2 4 2 6 1 3 0 7 1 10 1 4 3 9 3 13 1 1 1 3 1 4-1 2 0 4 0 6 1 3 0 7 0 10-7 27-40 39-65 33-12-3-25-11-33-21-4-6-7-13-7-21 0-7-1-14 2-22 1-3 2-7 4-9 3-4 6-6 7-10 1-9 8-14 12-20 3-4 6-7 8-10 2-3 6-5 9-6 2 0 5 0 7 1 2 1 3 1 5-1 1-2 2-4 3-6 2-3 4-7 5-11 0-1-1-2-2-3-2-1-3-3-5-4-2-2-3-4-5-5-4-2-7 4-10 5-6 5-13 7-21 10-3 1-7 1-10 3-3 3-6 7-8 9-13 13-27 26-41 38-3 3-6 6-9 9-2 1-3 2-5 4-1 2-2 4-3 6-5 9-10 17-14 25-9 16-18 32-27 49-2 4-5 7-6 11-1 3-3 10 0 11 4 2 6 3 8 6 2 4 5 7 7 10 2 4 4 7 7 11 2 3 4 7 6 11 1 2 1 3 0 4-1 1-3 2-4 1-3-1-5-2-7-4-2-3-3-6-6-9-2-2-6-4-6 1 0 3 1 7 3 10 1 1 2 2 4 3 1 2 2 3 4 5 1 1 2 2 3 2 3 2 5 3 7 5 2 1 4 1 5 3 1 2 2 4 2 6 0 3-4 1-5 0-2-1-3-3-6-4-2 0-5-1-7-2-2-1-4-2-6-3 1 2 2 4 4 6 2 1 4 4 6 6 2 2 4 2 5 6 1 1 0 3 0 4-1 3-4 1-6 0-2-2-4-4-7-6-3-2-6-3-8-5-2-2-4-5-7-6 1 3-1 6 0 9 0 4 1 8-1 12-1 2-2 4-5 4-1 0-2-2-2-2-1-2 0-4 0-6 0-2 0-4 0-6 0-2-1-4-1-6-1-4-1-8 0-11 1-9-2-19-3-27-1-4-2-8-3-12-1-5-2-9-3-13-1-4-1-7-1-11 1-1 1-3 1-5 1-1 2-3 2-5 1-2 1-4 1-5 1-2 2-5 3-7 3-8 6-17 9-25 3-9 6-18 8-26 3-9 6-17 10-25 1-3 3-7 5-9 2-4 5-5 8-8 3-2 7-4 8-8 2-4 5-8 7-11 10-13 20-25 31-36 12-13 24-25 38-37 3-3 6-6 10-8 3-2 7-4 10-6 7-5 12-12 18-18 4-6 8-11 12-17 2-2 4-4 6-6 3-4 5-8 8-12 8-14 14-31 8-47-2-8-5-15-9-22-2-3-4-6-6-8-1-2-2-4-3-2-1 2-3 4-4 5-8 10-17 18-27 26-4 3-8 8-12 12-3 4-8 8-12 11-4 4-9 7-14 8-3 1-6 2-9 2-3 0-7 0-10 1-2 1-5 3-8 4-2 1-4 2-5 2-3 0 0-2 0-2 3-2 6-3 8-5-2 0-16 9-17 8-2-2-2-2 0-3 1-1 9-5 9-6 0 1-5 0-5 0-3-1-6-2-9-3-5-2-9-7-12-12-2-5-5-11-6-16-1-1-1-3-1-4-2 0-4 0-5 0-3 0-6 0-9 0 0-1 0-1 0-2 2 0 4-1 7-1 1-1 4-1 6-2 0 0-1-4-1-5 0-2 0-4-1-7 0-2-4-1-5-1-2 0-5 0-5-1 0-2 1-1 2-2-2-2 8-2 9-4 0-4 2-8 2-12-1 0-9 1-8-2 0-1 4-1 5-1 1-1 3-1 4-2 1 0 1-1 2-3 1-4 2-8 3-12 1-1 0-2 0-3 0-1 1-2 1-3 0-2 0-2-2-3 0 0-1 0-2 0-1-1-12-2-11-3 0-2 9-1 11-1 1 0 1 0 2 0 2 0 3 0 3-2 0-2 1-4 2-6 0-2-7-1-7-5 1 0 2 0 4 1 1 0 2 0 3 0 2 0 2-2 2-3 2-3 3-7 6-9 4-2 8-3 12-4 3-1 7-2 11-4-2-3-11-1-11-5 3 0 5 1 7 1-2-3-5-6-7-10 0 0-2-3-1-3 1-1 2 1 3 2 2 3 5 6 8 9 3 3 5 4 10 2 3-2 7-3 10-5 2-1 3-1 2-3-1-2-2-3-4-5-2-3-5-6-7-10 0 0-5-7-2-6 6 6 11 13 17 18 2 1 2 1 4 0 1-1 3-2 2-3 0-2-2-3-3-4 0 0-3-5 0-4 2 0 5 8 6 5 1-2 2-3 3-5 0-1 1-1 0-3 0-1-1-2-1-3-2-3-4-7-5-11-1-1-1-2 1-2 1 2 2 3 4 5 1 2 3 5 5 6 2-1 3-3 4-5 1-2 3-4 4-5 0-2-2-5-3-6 0-1-1-2-1-3 3 0 5 3 7 5 1 1 1 0 3-1 2-1 4-1 6-1 2 0 5 0 7 1 1 0 2 0 3 0 0 0 0-1 0-1 2-5 3-9 4-14 5-17 12-34 19-50 2-4 4-8 6-12 1-2 2-4 3-5 0-2 1-2 0-3 0-2 0-3-1-5-2-9-5-18-6-27-1-7-3-14-6-21-3-7-7-14-11-20-4-6-7-11-10-17-3-7-5-15-3-23 0-5 2-9 2-13 1-4 1-8 0-13-1-9-3-17-5-26 0-1-1-3-1-3 0 0-1 0-1-1-1 0-2-1-2-2-1-1-1-3-2-5 0-2 0-4 0-6 0-1 0-2 0-3 0-1 1-2-1-3 0 0-1 0-2-1-1-1-2-2-3-4-3-1-5-3-7-5 0-1 0-1-1-2-1 0-2 0-3 0-2-1-3-1-5-2-5-3-4-11-2-15 0-2 2-4 3-6 5-9 12-17 18-25 2-4 3-10 4-14 1-4 2-8 2-11 1-6 2-12 2-18 0-6-4-18 5-20 8-2 15 5 18 12 3 6 3 13 3 20 0 13 2 26 2 39 0 9-1 17 1 25 1 4 2 8 2 12 1 4 3 8 4 12 6 14 12 28 17 42 2 6 4 11 6 16 2 5 4 9 5 14 2-10 6-20 9-29 7-17 13-34 20-52 3-7 7-15 9-23 1-5 1-10 0-15 0-4-1-8-1-12 1-3 1-5 1-8 0-2 1-3 1-5 0-2-1-4-1-6-1-5-1-10 1-15 0-2 1-4 2-6 1-3 0-4 0-7-1-7-2-14-1-21 1-9 8-19 15-24 4-2 9-4 13-3 4 1 7 3 10 6 1 1 2 2 3 3 2 2 3 4 4 6 1 2 1 4 2 6 1 4 1 8 1 12 0 2-1 5-1 8-1 1-2 3-2 4-1 2-1 4-1 5-1 5-2 9-2 14-1 7-2 14-3 21-1 6-2 12-3 18 0 7-3 12-5 18-1 2-3 5-4 7-1 4-1 8-1 12-1 17 0 33 0 49 1 9 1 17-1 26-1 8-5 15-6 23-2 8-1 15-2 23 0 7 1 14 2 21 1 8 0 17-2 25-2 3-4 7-5 11-1 4-2 9-3 13 0 2-1 4-1 6 0 1 0 2 0 3 0 0 1 1 2 2 2 3 4 7 6 11 4 6 7 13 10 21 4 8 7 16 9 24 2 4 2 8 4 11 0 1 8-1 9-2 0 0 0-1 0-1 9-1 17-1 26 0 5 1 10 2 15 2 4 0 8-2 11-1 1 1 0 1-1 2 4 0 9 1 12-1 2-2 3-5 6-5-1 2-2 4-2 6 5 0 10 1 15 3 4 2 9 5 13 8 2 2 2 3 5 2 2-1 5-2 8-3 4-1 8-1 12-2 1 0 5 0 5 1 0 2-1 1-2 1-3 0-5 2-7 2-3 1-5 2-8 4-1 0-6 2-6 3 0 1 3 4 4 5 1 0 5-2 5-1 2 1-1 3-1 3 1-1 3-3 5-2 0 1-2 3-3 4-1 0-2 1-1 2 1 2 2 3 2 5 4 5 7 9 11 14 4 4 8 9 10 15 2 5 6 11 8 17 1 5 2 10 1 15-1 6-5 11-9 15-4 3-7 6-11 10-3 1-5 3-8 5-2 2-5 3-8 4 1 0 2 0 3 1 0 2-2 2-4 2-2 1-5 2-8 3 2 0 7 0 8 1 0 1-1 3-2 2-1 0-4 1-6 1-2 0-4 0-6 0-5 1-9 1-14 0-4 0-8-1-12-1-5-1-9-1-14-1-4 0-8 0-12-1-2 0-3 0-4-1-1-1-5-1-7-1-4 0-8 1-12 0-2 0-4-1-4 1 0 3 0 5 0 8 0 8 0 16 1 24 0 5 2 8 3 12 1 5 2 10 2 15 0 7-1 14-1 21 0 7-1 14-1 21 1 7 5 13 7 19 3 6 3 13 1 20-2 7-7 13-10 19 7-2 15-5 22-7 9-4 18-7 27-10 9-4 18-7 26-10 4-2 8-2 12-3 4-2 8-4 11-6 8-5 16-9 24-14 11-7 22-14 33-21 7-5 14-9 21-14 1 0 1 0 0-1 0-1 0-2 0-3-1-2-2-4-2-6-2-4-2-8-2-12 0-4 0-8 0-12-1-3-2-7-1-11 1-3 3-6 6-4 4 1 4 5 4 8 0 3 0 7 1 11 1 1 2 0 2-2 0-2 0-4 1-6 0-1 1-3 2-4 1-2 2-3 2-5 0-3 0-5 0-8 0-3 0-6 0-9 1-2-1-4-1-6 0-2 0-3 0-4 1-2 1-5 3-6 2 1 3 0 4 3 0 2 0 4 1 6 0-2 1-5 4-5 2 0 2 4 2 5 0-2 2-3 4-2 1 1 1 2 1 4z" horiz-adv-x="527" />

<glyph glyph-name="swedish-folk-dance" unicode="&#xe82d;" d="M471 850l-43-2c-5-1-9-3-13-5-5-4-11-7-12-7-2 0-6-2-9-6-4-3-9-7-12-8-3-1-7-5-10-8-4-6-4-7 7-16 8-8 11-12 11-18 0-6 1-9 4-10 3-1 4-4 2-13-1-9-1-11 3-11 2 0 4-2 4-4 0-3 2-4 8-4 8 0 10-4 3-7-3-2-3-4 0-11 1-5 3-11 3-13 2-5 9-7 18-3 5 2 9 2 10 0 2-2 1-2-1-2-7 0-8-6-2-12 5-6 5-16-1-24-1-2-2-6-1-10 0-7 0-8-12-8-17-1-20 2-20 21 0 9-1 17-3 19-2 2-3 7-3 13-1 8-2 10-6 10-4 1-7 0-8-3-1-2-2-4-4-4-1 0-7-3-12-6-8-5-11-9-11-13 0-4-1-7-2-7-3 0-2-18 2-25 1-2 3-8 4-13l1-9-24 1c-26 1-32 4-32 18 0 5 1 7 7 9 12 3 24 17 15 20-1 0-3 7-3 14-1 7-1 14-2 15 0 1 1 5 2 8 1 3 1 5-2 7-10 6-11 7-8 13 2 3 2 8 1 11-2 3-2 10-1 16 1 9 0 12-7 20l-9 10-19-2c-35-2-71-14-81-26-12-15-18-44-13-68 4-18-1-32-11-35-11-4-15 1-9 12 6 9 3 13-2 5-3-3-5-6-6-6-3 0-2 18 1 24 1 3 1 5-2 5-2 0-5-4-7-8-1-4-4-8-5-8-2 0-3-3-2-10 1-6 0-11-1-11-6-2 0-15 11-22 13-8 23-8 35 0 11 8 13 8 15 3 3-6-4-20-8-20-3 0-3 2-1 5 3 7 3 8 0 8-2 0-2-1-1-2 1-2-1-3-5-2-5 0-6-1-6-9-1-6 0-10 3-12 2-2 4-3 4-1 0 1 4 2 9 2 5-1 10 1 12 3 2 2 4 3 5 3 2 0 1-2 0-4-3-3-3-4 0-7 3-1 2-2-3-1-5 1-8 0-9-2-1-4 5-5 19-5 6 1 21 14 22 20 1 12 4-18 4-42 0-27 1-33 9-55 4-13 11-30 15-37 4-7 8-14 8-15 0-2 0-5 2-6 1-1 2-5 2-10 0-8 5-23 9-30 1-1 5-3 8-3 4 0 4-1 3-6-4-13-12-25-23-34-18-15-42-39-46-47-2-4-5-10-7-14-5-8-13-35-13-45v-7l-24 0c-16 0-26-1-31-4-3-2-8-4-10-5-2-1-14-9-27-18-50-34-59-38-73-31-4 2-9 4-11 4-2 0-3 1-3 2 0 2-2 3-4 3-2 0-7-7-10-15-6-12-7-17-6-30 2-17 7-32 14-41 10-13 28-28 40-33 7-4 13-7 12-8 0-1-7-9-15-18l-16-17-7 5c-11 6-25 5-30-2-2-3-7-10-12-14-7-8-7-10-4-13 4-4 5-4 10 2 3 3 7 5 8 5 3 0 2-10-2-13-17-17-19-67-3-67 7 0 12 4 12 10 0 12 64 75 76 75 1 0 2-8 2-17 0-13 1-19 4-21 2-2 3-6 3-9 0-6 25-31 36-37 17-8 63-6 84 4 6 3 12 5 13 5 9 6 19 8 26 14 5 3 12 7 17 9 14 8 21 13 34 21 3 3 14 8 15 8 0-1-2-5-4-10-19-38-26-52-26-54 0-4 8-10 21-15 9-3 20-4 43-4l31 0-9-15c-9-15-10-16-24-17-13-2-42 1-58 5-6 1-17-6-17-11 0-5 29-30 40-35 6-2 16-5 22-5 7 0 14-1 17-4 3-2 5-3 4-4 0 0 1-2 0-4l0 0 51-2 4 8c0 3 0 5 2 7 2 3 4 15 4 28 1 12 3 24 4 26 3 5 11 7 14 3 0-2 5-2 11-2 8 0 10 1 10 6 2 9 7 11 30 12 22 0 23 0 26-7 2-6 2-10-2-20l-4-13 12-17c17-22 25-23 18-3-2 6-3 11-2 13 1 2 2 1 19-14l12-10 19 1c14 2 19 3 21 7 3 6 1 10-5 10-6 0-24 16-24 21 0 5-13 27-24 40-8 9-7 11 15 22 9 5 18 10 20 12 1 2 5 4 7 4 4 0 14 10 20 21 4 7 9 8 9 1 0-2 3-6 6-10 4-3 7-7 7-10 0-2 2-6 4-9 3-4 4-4 14 0 6 2 12 3 13 2 5-3 13-24 18-50 8-44 8-40 0-44-6-3-8-5-8-12 0-5 1-9 2-9 15-2 28-1 32 3 2 2 6 5 8 6 3 1 3 1 0 1-2 1-2 2 1 5 2 2 5 7 6 12 1 4 2 7 3 7 4 0 5 7 3 15-2 5-2 8 0 8 1 0 2 2 2 4 0 2 1 4 3 4 4 0 13 11 13 16 0 3 1 7 3 10 5 8 0 13-21 24-20 10-27 19-38 45-7 16-18 49-17 49 1 0-1 4-4 8-8 12-11 20-9 29 2 9 30 42 36 42 2 0 3 2 2 4-1 2-1 5-1 6 0 0-2 0-3-1-1-1-3 0-3 1 0 1-5 6-12 11-7 4-16 10-20 14-10 8-36 22-41 22-3 0-4 2-4 6 0 3-2 7-3 9-3 3 2 30 12 75 2 10 5 22 6 28 1 8 4 14 13 25 18 20 22 28 17 33-2 3-3 5-2 6 0 1-2 9-6 18-8 19-10 23-27 53-4 6-8 14-11 19-2 5-7 12-9 15-5 5-8 13-10 24 0 2-2 8-3 13-3 15-3 19-5 40-1 11-2 20-4 20-1 0-1 2 0 5 1 3 0 5-2 5-3 0-3 1-1 3 2 2 2 7 0 16-1 7-2 16-2 19 0 4-1 6-2 6-1 0-2 4-2 8 0 15-11 32-32 50-20 17-20 18-19 28 2 14-5 21-20 21l-10 0 0 16c0 19-2 29-8 38-3 4-5 8-5 9 0 4-17 25-24 29-2 2-5 3-9 4z m-15-309c3 0 7-3 9-8 2-6 2-8-3-10-2-2-6-3-7-3-2 0-7-2-11-5-4-3-8-5-8-4 0 1-3 0-8-3-5-2-10-5-12-6-3-1-8-3-13-4-8-2-8-1-8 7 0 5 1 11 2 15 1 5 2 5 17 4 14-1 17-1 26 5 5 4 11 7 12 7 2 0 3 1 3 2 0 2 0 3 1 3z m32-84c0 0 0 0 1-1 1 0 1-4-1-7-1-3-3-13-3-21-1-9-3-17-3-20-1-2-2-8-3-14-1-5-2-15-3-20-1-10 0-11 12-23l12-12-2-15c-1-8-3-19-3-24-2-7-7-12-7-5 0 2-3 7-7 12-8 10-29 52-29 56 0 2-2 5-3 7-2 1-10 13-16 26-7 14-17 30-22 37-4 8-7 14-5 14 1 1 4-1 6-4 3-5 5-5 11-3 4 2 12 4 17 5 6 1 19 5 29 8 8 2 16 4 19 4z" horiz-adv-x="776" />

<glyph glyph-name="disco-man" unicode="&#xe82e;" d="M92 199l-24-48c-6-12-7-24-9-37-3-20-11-62-18-98-4-20-12-41-13-58-1-16-6-25-6-25 0-2 3-4 6-5 5-2 10-2 16-3l-3-7c-4-9-15-15-25-19-13-6-18-12-15-17 4-7 15-9 29-8 22 1 29 5 38 18 4 6 4 12 8 13 5 1 8-4 11-9 1-4 2-6 3-8 2-1 4 0 8 1 16 3 14 2 15 15 1 12 1 19 3 21 3 2 7 0 14 0 13-2 15-1 14 3-4 15-16 69-17 84-2 13 2 20 1 49 0 24-4 46-9 69 23 17 40 37 59 56l50 52 8-7c12-8 33-36 34-49 1-16 19-51 27-64 8-12 9-13 17-53 2-10 8-38 15-62 11-43 12-60 12-88v-23c0-5 4-6 9-3 14 4 8-6 0-14-10-7-23-14-15-24 30-5 62 5 83 25l8-15 20 3s0 26-5 39c12 7 16 9 26 20-6 9-13 19-15 27-15 74-74 137-102 200-11 24-14 34-20 67-3 14-4 22-4 25-1 3-2 8-2 8 1 3 3 4-1 10-1 1-3 2-2 4 0 2 3 3 3 5 1 1-2 4-4 10-7 17-22 52-39 85l-13 25 1 30c2 6-1 16-1 24 6 6 11 29 13 36 0 3 2 5 3 8 1 0 14-16 34-35 20-19 20-14 24-21 1-2 4-6 7-9 5-6 9-4 10-7 3-7 6-20 14-29 3-3 4-7 5-10 0-6 5-31 7-34 3-6 9-9 2-19-8-9-14-19-13-27 1-5 3-9 4-13 3-12 6-13 9-5 2 4 0 7 3 7 3 0 5-2 7-3 2-2 5-2 9 0 2 0 3 5 4 6 7 2 8 6 10 10 1 5 4 3 5 5 1 2 2 9 0 12-7 19-6 28-3 30 13 7 26 10 38 17-11 8-23 14-35 21l-11 24c-8 15-12 27-15 35-6 13-11 16-16 25-10 16-29 31-46 41-4 2-6 3-8 6-1 1-3 3-4 4-4 1-6-2-8 0-1 1 2 3-1 5-6 4-12 11-12 15 1 23-19 23-40 29-5 0-4 2 4 12l10 10c-13-1-25-3-37-5-7 0-9 0-9 5-1 14 3 17 20 24 22 10 45 34 48 58 7 66-32 108-88 108-45 0-78-38-83-53-11 6-23 13-31 19 0 0-12-6-13-6 0 0-2 11-4 20-2 14-2 19 1 32l3 16-6 15c-7 18-15 31-16 28-1-2 1-9 2-15 4-16 4-16-2-14-7 2-15-4-18-14-2-7-2-9 2-13 2-2 3-6 3-9 0-3 1-13 3-22 2-9 7-28 7-33l-14-33c1-1 21-17 22-19 1-8-1-16 5-22 2-10 6-24 9-29 2-6 6-16 8-23 3-12 11-18 13-23 8-15 12-14 13-20 0-8-3-17-6-40-3-28-5-43-4-56 3-40 20-89 49-139 4-8 11-18 11-20 0-4-20-27-30-35-22-21-33-50-44-72z m61 403c-3 3-7 6-10 9-1 1-2 8-4 11-5 6-8 19-12 27-3 3-8 12-12 21-3 7-5 16-6 20-7 18-11 20-8 21 4 3 24 10 25 9-3-17-5-36-1-52 7-25 25-39 32-52-1-11 6-15 9-17 1-1 4-2 4-2 4-3-13 0-17 5z" horiz-adv-x="467" />

<glyph glyph-name="harp" unicode="&#xe82f;" d="M72 614l-3-348c-6-6-10-12-11-17-1-6 0-10 4-15-4-4-6-8-6-11 0-3 2-6 6-8l-4-196c-3-2-6-5-6-7-1-2-1-5 1-7-4-3-5-7-6-10 0-4 1-7 5-11-6-8-12-14-16-19-5-5-10-7-14-9-6 0-10-1-13-4-2-2-2-8-1-12 1-3 4-7 7-10l0-27c-7-2-11-4-13-7-3-2-2-5 0-8 1-3 3-7 7-11l59-27c35 0 64 1 88 2 23 1 41 2 52 4 11 2 15 4 13 7 7 1 19 3 35 6 17 2 49 6 63 9 13 2 16 4 20 8 3 3 4 7 1 12 8 0 14 1 18 3 4 2 6 5 5 9 8-3 14-4 19-4 5 0 7 1 10 3 3 2 5 5 7 10 3-3 7-4 12-2 4 2 14 8 17 14 2 6 0 15-2 19-3 5-8 6-12 7-4 2-9 1-13 2-4 1-7 3-11 5-3 2-6 4-9 6 9 17 20 38 33 62 13 25 27 52 45 84 18 33 36 63 63 108 26 46 70 118 95 163 25 45 45 80 55 104 10 24 8 25 5 37-3 13-12 28-22 36-10 8-23 9-36 10-13 1-24 1-41-7-18-7-43-28-63-36-20-8-37-12-55-10-19 1-40 9-55 20-15 12-22 27-32 51-9 24-14 68-24 94-10 26-22 45-35 61-13 16-25 26-41 35-15 10-36 16-52 21-16 4-30 5-43 4 2 3 5 6 8 8 3 3 7 5 12 7 2 2 3 4 4 6 0 2 0 5-1 8-8 4-19 7-34 9-15 3-33 6-54 5-21-1-43-4-69-9-4-5-5-10-5-13 0-4 2-7 5-9 6-2 11-4 14-7 3-3 5-6 6-11l-3-164 11-23z m85 6c11 4 20 5 28 4 8 0 14-1 23-9 9-8 18-22 28-38 10-16 18-40 29-57 11-16 22-27 38-39 16-13 37-27 59-34 21-8 48-11 69-12 20-1 32 1 50 5 19 4 39 11 58 18 19 7 37 15 56 24-26-32-53-64-83-100-29-36-62-76-92-112-30-36-57-70-86-103-29-33-60-64-87-92-27-28-51-52-74-74 0 2-1 3-2 5-1 1-3 2-5 3 1 3 2 5 1 6-1 2-3 3-6 3l1 201c4 3 6 7 6 10 0 3-2 6-6 9 3 3 5 6 3 10-1 5-5 10-11 15l-2 348c2 3 4 6 5 9z m-78-26c1 3 3 3 4 2 1-1 2 1 3-7 1-9 2-22 2-45 0-23-2-58-2-93 0-36 0-90 0-118 1-28 3-37 3-47-1-11-2-12-3-15-1-2-3-1-4 0-1 1-2 2-2 4 0-3 1-5 3-7 1-1 3-3 4-2 2 1 4-2 5 7 0 10-2 28-3 49 0 21 0 49 0 77 0 29 0 65 0 92 0 27 0 52 0 70 0 17 1 27 0 34 0 7-2 6-3 7-2 2-5 2-6 0-1-1-2-4-1-8z m19 8c2 3 3 3 5 2 1 0 2 2 3-8 0-9 1-22 1-46 0-25-1-60-1-98-1-37 0-94 0-123 1-29 2-38 2-50 0-10-1-12-2-15-1-2-3-1-4 0-1 1-2 2-3 5 1-3 2-6 3-8 2-1 3-3 5-2 1 1 4-2 4 8 1 10-2 29-2 51-1 22-1 51-1 80 0 30 1 68 1 96 0 29-1 55-1 73 0 18 1 28 1 36-1 7-2 6-4 8-1 1-5 1-6 0-1-2-1-5-1-9z m22-4c2 3 3 3 4 2 2 0 3 1 3-7 1-9 2-22 2-46 0-23-1-58-2-94 0-36 0-91 1-120 0-28 2-37 2-48 0-10-1-12-3-14-1-3-2-1-3-1-2 1-2 2-3 5 1-3 2-6 3-7 1-2 3-3 5-3 1 1 3-2 4 8 0 9-2 28-2 49-1 22-1 50-1 79 0 29 1 65 1 93 0 27-1 52-1 70 0 18 1 28 1 35-1 7-3 6-4 7-2 2-5 2-6 0-1-1-1-4-1-8z m17-12c2 2 3 3 4 2 2-1 3 1 3-8 1-8 2-20 2-42 0-21-1-53-2-87 0-33 0-84 1-111 0-25 2-34 2-44 0-9-2-11-3-14-1-2-2-1-3 0-1 1-2 2-3 4 1-3 2-5 3-6 1-2 3-3 5-2 1 1 4-2 4 7 0 9-2 26-2 46-1 20-1 45-1 72 0 27 1 60 1 86 0 25-1 49-1 65 0 16 1 26 1 32-1 7-2 6-4 7-2 2-5 2-6 0-1-1-1-3-1-7z" horiz-adv-x="679" />

<glyph glyph-name="double-bass" unicode="&#xe830;" d="M194 779l-5-58-9-192c1-14 0-19-1-19l-11-250c35 2 50-2 50-2l-7 463-3 58z m-2-873c86-2 155 41 176 98 20 57-17 164-17 164-5 5-13-11-33 8-21 19-23 81-17 99 5 18 27 16 27 16 0 0 15 56 2 101-13 45-52 65-94 96-21 17-17 39-19 39-2 0-20 5-20 5l0 0c0 0-18-4-20-4-2 0 1-23-21-38-43-30-82-48-97-93-16-44-3-100-3-100 0 0 22 1 27-17 5-18 0-80-21-98-22-18-29-3-34-7 0 0-42-105-23-163 18-58 85-104 171-106z m-6-3l0-2c0-2 1-4 3-4v0l2 0-1-47 5 0 1 47 1 0c2 0 4 1 4 4v0l0 2c0 2-2 4-4 4v0l-7 0c0 0 0 0 0 0v0c-3 0-4-1-4-4z m-4 888c0 0-10-66-7-69v0c3-4 41-5 44-1v0c3 3-6 69-6 69v0c0 0-5 8-3 9v0l-24 1c2-3-4-9-4-9z m6 46c0 0-4 1-6-1v0c-1-2-2-10-2-10v0l-8 1c0 0-3-12 0-18v0c0 0 5 1 6-2v0c0-3 2-1 1-9v0c0 0 18-2 18-5v0l2-1c0 4 18 6 18 6v0c0 7 2 5 2 8v0c0 3 6 2 6 2v0c3 6 0 17 0 17v0l-7 1c0 0-1 8-3 9v0c-1 2-5 2-5 2v0l-2 13c-3-3-8 0-8 0v0l-2 0c0 0-5-3-8 0v0z" horiz-adv-x="374" />

<glyph glyph-name="drums" unicode="&#xe831;" d="M824 850c0 0 7-1 7-1 1-1 1-3 1-4 15 6 15-9 15-17 177 8 158-26 41-46-14-2-28-4-42-5 1-5 4-3 5-23 1 1 2 2 4 2 1-1 1-1-5-16 0-6 1-12 1-17-1-1-2-1-3-1 2-45 3-90 5-134 15-1 22 2 22-10 11 1 21 1 32 1 12 1 24 1 36 1 0 2 0 4 0 5 1 1 2 1 3 2 1 1 1 2 1 3-1 0-2 1-2 1 0 1 1 1 1 2 0 1-1 1-1 2 0 1 1 1 1 1-1 1-1 3-1 4-2 0-4 0-6-1-1-7-8-11-7 0 1 5 4 13 5 14 1 1 2 1 3 0 2-2-1-8 5-7 1 7 0 7 5 7 3 88 5 88 4 0 2 0 4-1 5-2 0 0-1-1-2-1 3-4 0-12 1-16-2 0-3-1-4-2 2-1 3-1 4-1 0-1-1-1-2-1 0-1 0-2 0-3 1-1 2-2 3-3 0-1 0-3-1-5 140-5 150-42 9-40 0-2 0-5 0-7-4-4-2-3-5-4-1-1-3-2-4-2-1-4-1-8-2-12 0-1-1-1-2-1-1-52-2-103-4-155 1 0 3 0 4-1 0-2 0-4 0-6 3-1 6-1 9-3-1-4 0-8-1-12-2 0-5-1-8-1 0-5 0-9-1-14 0-1-1-2-2-3-1-34-1-69-2-103 8-1 10-3 10-7 2-2 25-68 25-70 2-1 4-1 2-7 0-1 22-52 25-72 5-2 4-2 6-10 0 0-1-1-1-1 0 0 0-1 0-1 0-1 0-1 0-1 0-1 0-1 1-2-1-1 0-2 1-3 0-2 1-4 0-6-4-6-25-4-18 5 1 1 0 1-1 2 1 1 1 1 1 2 0 0 1 1 1 1-1 2-4 4 2 8-1 13-19 62-24 74-1-1-3-1-4-2 8-37 16-74 24-111 39-23 46-25 51-35 7 2 22-19 21-19-8-9-21-13-24-1 0 0-1 1-1 1 0 0 1 1 1 1-1 0-2 1-3 1 0 1 1 1 1 2-1 0-5 1-3 7-7 9-30 22-40 27 1-4 2-9 3-14 5-1 4-5 5-10 0-1-1-1-1-2 0-1 1-1 2-2-1 0-2-1-2-1 1-1 1-2 2-2 0 0-1-1-1-1 0-1 1-2 2-3 1-2 1-3 1-5 0-3-8-3-11-3-6 2-9 5-8 12 2 1 1 2 1 4 1 0 0 2 0 3 0 0 0 0 1 1-1 1-1 1-2 2-1 4 0 5 4 7-1 6-1 12-2 19-10 5-20 11-30 17-1-4-1-7-1-10-30-8-20-6-40-7-2-1-39-27-45-32-1-1-1-2-1-3-4 0-8-1-12-2-2-3-6-3-11-3 0-1-1-6-4-4 0 1 0 1-1 2-1 0-2-2-3-2-1 0-2 1-3 2 1 3-2 6-4 7-6-28-12-57-18-86 3-3 3-7 3-12-2-2-2-1-2-4 0-1 0-1-1-1 0-1 1-2 1-3-2-1-2-1 0-4 0-2 0-6-2-8l0 0-1 0c-6 3-17-3-12 12 1 1 2 1 2 2 0 0 0 1 0 2 0 0 1 0 1 1 0 1 0 1-1 2 1 1 2 1 2 1 1 1 0 2-1 3 1 5 1 9 6 10 6 29 12 58 18 87-1 1-2 1-3 2 0 2 0 4 0 6-9 9-18 18-26 28-5-1-13 0-18 1 1-2 3-14-14-10 2 12-2 3 2 27-4 3-6 9-7 15-76-43-72-38-76-46 4-3-5-16-11-17 0-2 1-4 1-7 1 0 2 0 2 0 1-4 2-8 2-12 4 0 5 0 6-4 0 1 1 1 1 1 6 31 17-17 7-16 0 1-7 9-7 10-2-5-4-4-10-6 1-4 1-8 2-13 1 0 1 0 2 0 3-2 16-38 9-43-23-15-28 16-20 42 0 0 1 0 1 0 0 4-1 9-2 13-1 0-3 0-4 0-1 9-3 17-4 25 1 1 2 1 2 2-2 16-5 33-7 49-1 1-1 1-2 2 0 3-1 6-1 9-1-1-2-2-4-4-1 1-2 2-4 3-11-16-22-31-33-47 1 0 1-1 1-1-5-6-16-24-23-16-23-24-56-42-87-52 1-11-20-14-21-4-33-8-69-3-99 9 0-1-1-2-1-2-4 0-8 0-11 0-3 3-6 6-9 9 0 1 0 2 0 3-30 14-58 40-76 64-1 0-2-1-3-1-9 3-14 12-9 18-5 8-8 16-12 24-3-12-7-23-10-35 1 0 1 0 2 0-1-8-3-16-5-24-2 0-4 0-6 0-2-4-3-8-4-12 7-3-1-68-25-35 0 1-1 3-1 4 5 7 12 32 19 34 1 4 2 8 3 11-6 3 0-1-15 13 0 1 0 2 0 2 4-1 8-2 12-3 3 3 2 0 6 14 1 0 2 0 3 0 3 12 6 23 9 34-13-6-17-8-44-25 0-1 0-2 0-3-20 1-15-4-26-3-3-1-6-3-10-4 0 1 0 2 0 3 0 0-1-1-2-1-1 0-1 0-2 1 0 1 0 2 0 3-11 5-23 10-34 16-47-81-43-73-51-93 6-14-1-5 1-12-1-1-2-1 0-3-2-1 0-15-10-11-8 3-13 3-13 7 0 2 1 4 2 6 2 0 3 0 3 4 0 0 1 0 1 1 1 0 0 1 0 2 2 1 2 0 1 3 3 7 4 9 10 9 9 21-1 3 50 92-1 3-1 5 2 8 1 0 2 0 2-1 5 9 10 18 15 26-7 11-13 9-19 21-45-35-43-33-44-35-1-1-1-3 0-5 0-1 1-2 0-3-2-2-2-5-2-8 1-2-10-4-12-2-3 2-5 6-7 9-3 5 82 80 111 79 0 37-1 74-1 112-12 2-35 7-39 19-7-125 0-101-24-130-2-2-3-5-5-6-10-10-10-20-8-34-4-4-8-2-12 2 3 3 3 8 4 12 0 1 1 1 2 1 0 3 0 5 1 8 1 3 3 7 6 10 2 3 5 6 8 9 38 43 10 96 24 139-11 5-8 6-7 18-2 3-1 6 2 10 0 2 0 3 0 5-4 1-5 0-6-2-2 0-4 0-6 1-1 4 0 9 2 14 2-1 5-1 7-1 0-1 0-3 0-4 13-3 9 1 13 106-2 0-5 0-7 0-2 4-2 10 0 14 2 0 5 0 7 0 0 7 0 15 0 22 1 0 1 1 2 1 1 11 1 9-2 12-1 3 0 6 2 8 1 3 0 3 4 3 1 0 1 1 2 1 1 4-5 14 33 16 1 113 5 85-11 123-7 1-12 16-9 22-21 48-17 53-37 49-3 0-5 2-5 5 5 3 8 6 11 4 1 1 2 1 2 2 0 10-10 1-71 41-177 115 69 93 212-10 92-66 22-90-121-35 0-2 1-4 2-6-1-1-2-2-3-3 6-14 12-28 19-43 14 4 28 7 28-8 1 0 2 0 3 0 2 4 3 8 4 12 2 0 3 0 4-1 3-21 3-15 0-30-1 0-2 1-3 1-1 3-3 7-4 10-1 0-3 0-4-1 0-3-1-7-4-8 0-6 0-12 0-17-1-1-2-1-3-2 0-13 21-51 26-64 0-2-1-8-11-5-11 26 3 1-15 35 0-23 0-46 0-70 6 2 17 2 24 1-3 7 11 39 15 42 6-1 13-2 20-3 3 6 2 6 6 9 6-1 9 0 7-12 10-1 12-2 13 0-1 2-4 3 2 6 3 6 1 6-2 7-5 6 22 12 14 2-1-1-6-3-5-11 3-1 7-1 10-1 2 3 2 10 6 8 4 14 3 6 9 33-2 4-1 6 2 7 0 5 1 4 3 4 4 5 10 7 16 9 0 4 0 5 4 3 25 20 76 13 107 7 8-2 16-3 24-5 14-4 27-8 40-15 7-3 14-8 21-13 12-12 9-17 8-26 7-8 0-12-2-24-1 1-2 1-3 1-1-4-1-8-2-11 0-1 1-2 1-2-1-6-2-11-3-16 3-1 5-2 8-3 3-3-1-11-4-15-2 1-4 1-7 2-2-14-4-29-7-43 1-1 2-2 1-4 0-1-1-2-2-3 1-2 2-5 1-7 0-1-1-2-2-3 0-3-1-7-3-9-1-2 0-3-1-5-1-1-2 0-3 0-24-12-56-10-82-7-19 2-37 6-55 12-1-36-3-72-4-107 3 4 16 10 20 10 15 17 36 31 57 40-1 2-1 3-2 5 8 5 12 5 16 4 0 0 1 0 1 0 1 4 4 5 9 7 4 6 15 3 15-2 31 7 66 4 95-6 6 7 22-1 19-9 28-12 54-35 72-59 5 1 13-5 13-6 1-2 1-4 1-5 0-2 1-3 0-5 0-1-2-2-3-2 15-27 27-61 26-91 1 0 2 0 3 0 7-16 0-23-5-23 0-17-11-45-18-61 33 18 20 12 38 20-1 1-1 3 0 4 3 2 4-1 5-3 15 5 5 3 19 6 1 19 1 38 2 57-5 5 0 14-6 24-7-10-15 3-16 8 5 0 3-4 14-2 1 5 6 4 11 4 0 21 1 43 1 65-2 0-5 0-8 0-7-33-11-28-12-9-4 2-2 4-3 6-1 2-3 2-5 3 0 2 0 5 0 7-2 5-5 7-1 11-3 12-10 9-21 38-49 9-49 7-45 23-10 2-11 3-10-2 2-1 4-2 6-3-6-1-8-2-24 7-2-2-4-2-6-3-3-3-7 0-18 5 0 1 1 1 1 1-1 1-2 2-3 2-2 20-5 24 11 32-12 1-25 3-36 8-9 4-19 11-15 20-3 7-3 3-3 9-1 1-2 2-3 3 0 2 0 5 0 7 1 0 2 0 2 1 0 0-1 10 0 62-3 0-5 0-8 0-3 5-1 12 1 16 2 0 5 0 7 0 0 6 0 11 0 17 1 0 1 0 2 0 0 3 0 7 0 10-1 1-2 1-4 2 1 2 1 5 1 7 1 0 2 0 3 1 0 1 0 3 0 5 1-1 2-1 3-1 15 38 192 39 196-22 3-3 3-4 0-7 0-6 0-12-1-18 1-1 3-2 4-3 6 1 2 1 13 0 0 2 0 3 1 5-5 3-7 4-7 6 1 1 3 0 7-1 3 1 5 1 7-1 0-1 0-2 0-2 9-7 8-9-1-6 0-1 0-2-1-3 2-2 2-4 2-6 4 0 8 0 12 0 1 8 4 9 13 7 0-2 0-4 0-6 9-1 20-1 22-1 4-3 7-19 8-23 11-9-2-21-3-32 5-1 9-3 14-5 0 1 1 2 2 2 1 0 2 0 3 0 0 8-1 17-1 26-3-2-7-1-9 0-1 30-2 60-3 90-9 4-13 7-8 11-1 8-1 18 7 21-2 45-3 90-5 135 0 0-1 0-2 0 0 7 0 13 0 20-1 0-2 0-3 0-5 11-6 22-2 33-28-2-107-7-132 5-2 1-4 3-5 5 0 3 2 6 4 7 20 17 95 28 120 32-4 20 3 18 7 19 0 2-1 5-1 7m-505-286c-1-1-2-1-4-1-1-2-1-4-1-5 4-1 7-1 5-5 2-1 3-2 4-3 1 4 2 8 3 13-1 1-3 2-4 4-2 0-2-2-3-3m551-17c0-2 0-3-1-5 0-1-1-2-2-2 1-98 0-91 1-95 0 4 1 8 5 8 1-1 2-2 3-3 0 0-2-25-2-25 1-1 1-2 2-2 0-4 0-8 0-12-1-1-2-1-3-1 1-5 0-5-2-6 0-1 0-3 0-4 7 0 16-1 22-4 0-7 0-13 1-19 13 1 0-4-8-9 0-1 0-2-1-3-5-1-11-2-16-3 0-8-1-16-1-24 9-2 8-17 5-19 0-6 0-12-3-17 0-10 0-20-1-30 0-43-1-87-2-130 38 57 46 61 46 61 0 7-3 19 7 6 2 3 6 3 9 3 2 1 4 2 7 2 0 34 1 69 1 103 1 1 0 3 0 4-1 4-1 9 0 14-2 0-4 1-5 1-1 21-2 21 9 23 1 51 3 103 4 154 0 0-1 1-2 1-1-2-1-4-8-1 0 1 0 2 0 3 4 2 3 3 5 9-1 0-3 1-4 1 0 1 1 2 1 3-2 2-3 3-4 5 0 2 0 4 1 6-22 1-43 3-64 7m-304-34c2 0 4 0 5 0 0 3 0 7-1 10-1 1-2 2-4 3 0-4 0-9 0-13m185-4c2 0 4 0 7 0-4 5-6 4-7 0m-11 1c0-4 0-8 0-11 1 0 3 1 4 1 0 1 0 2 0 3-1 1-1 1-2 1 1 2 1 5 1 7-1-1-2-1-3-1m-494-5c0-1 0-2 0-3 5-5 6-11 2-18 16 0 33-1 49-3 0 1 0 2-1 4-4 1-4 5-3 10-6 1-12 2-18 3-1 1-3 4-2 6-3 1-6 1-9 1-1-4-6-3-13-2 0 1 0 2 0 2-2 0-4 0-5 0m320-8c-1-62-1-53 0-61 1 2 3 3 4 4 1 19 1 37 1 56-1 0-3 1-5 1m220-14c1-11 0-9-22-9-1-3-3-7-6-8 0-3 0-5 0-8-1 0-1 0-2-1 0 0 0-1 0-1-1 3-3 11-7 13 0-6 0-12 0-18 14-1 29-2 43-3 8 0 16-1 23-2 0 0 0 1 0 2-3 3-6 8-6 13 0 5 2 9 5 12 0 2 0 3 0 5-1 0-2 1-3 1 0 0 0-1-1-1-4 0-8 0-12 0-1 1-2 3-1 4-3 0-7 0-11 1m-45-6c-1-9-1-17-2-26 2 0 3 0 5-1-1 26-1 21-3 27m-595-26c-1-3-1-7-1-10 1-2 1 2 1-23 2 0 4 0 4 1 0 2-3 9 1 12 0 6 0 11 1 17-2 1-4 2-6 3m594-5c0-2 0-4 0-6 1-1 3-2 4-3 0 3 0 6 0 9-2 0-3 0-4 0m-595-42c-1-38-1-77-2-115 5-3 3-7 7 115-2 0-3 0-5 0m463-36c-2-3-2-12 3-9 0 1 0 3 0 5-4 2-3 2-1 4-1 0-2 0-2 0m8-7c-2-4-1-5 2-6 0 1 0 3 0 4 0 1-1 1-2 2m13-2c0-2 0-4 1-6 8 1 4 1 14-4 2 10 5 10-15 10m-6-2c0-1 0-2 1-4 3-2 3 2 2 5-1 0-2-1-3-1m225-3c-4-1-9-3-14-4 0-1 0-2 0-3 1 0 3 0 4 0 2 2-1 1 16 4 0 2 0 5 0 7-2-1-4-3-6-4m-178-7c-3-3-2-7-1-11 4 0 9-1 13-2 1 0 2-1 3-1 40 2-21 7 34 1 0 3-1 6-1 9-7 0-5-2-48 4m114-4c-17-1-34-1-51-1 8-16 36-6 87 4-12-1-24-2-36-3m55 0c1-5 4-12 7-9-1 4 3 5 8 5 0 2 0 4 0 6-5-1-10-1-15-2m-117-1c0-3 1-6 2-9 2 0 4-1 6-1-1 4-3 7-5 10-1 0-2 0-3 0m99-4c-6-1-13-3-20-4-3-4-29-39-32-43-1-3-1-28-3-87 9-1 6-12 6-16 0 0-1-1-2-2-1-4-1-8-2-13 0 0-1-1-2-2 0-19 0-37-1-56 1-1 2-2 3-3 16-1 56-28 58-31 8 11 15 22 23 33 0 6 2 185 2 188 0 0-5 26-5 26-1 0-2 0-3-1-2-1-3-8-3-10-2 0-3 0-4 0-3 7-3 14-3 21-4-2-8-1-12 0m-49-10c1-7 0-6-2-20 0 0 1 0 2-1 6 9 12 17 19 25-6-1-13-3-19-4m-61-2c2-5 6-18 10-18-2 5-1 11 0 16-4 1-7 1-10 2m12-2c-3-11 1-20 3-21 6-3 6-9 7-15 1 5 2 10 1 14-1 3-1 4 0 19-1 0-3 0-5 1-5 1-2 1-6 2m30-19c1-6-1-7-4-5 0 2-1 3-1 5-1 0-2 0-2 0-3-4-2 2-3-24 3 0 5 0 8 0 2 2 3 4 5 6 0 6 0 11 0 17-1 1-2 1-3 1m-556-82c0-35 0-70 0-106 7 0 21-1 27-6-3-1-5 0-8-1 2-2 8-3 13-4 3 38 6 76 10 113-4 0-7 1-11 1-10 1-21 2-31 3m59-5c-4 0-8 1-12 1-3-38-7-76-11-114 4-2 13-5 16-8-1 3-2 6-3 9 2 4 3 7 4 11 1 0 2 0 3 0 2 17 5 35 11 52 4 15 11 30 20 44-1 0-2 1-3 2 0 2 1 3 1 5-9-2-18-2-26-2m667-21c0-2 0-5 0-7-1 0-2 0-3-1-1 1-2 2-2 3-13-11-7-5-49-67 1 0 58-5 63-2 1 25 2 49 4 74-4-1-8 0-11 2-1-1-2-2-2-2m25-10c-1-21-1-43-2-64 0 0 6 1 22 6-11 50-9 49-20 58m21-36c2-7 3-13 5-20 0 2 1 4 2 5-2 7-5 14-8 20 0-1 1-3 1-5m-4-32c0-5 0-10 0-14 3-1 6-2 9-4-2 7-3 14-5 20-1-1-3-1-4-2m-83-4c-5-1-10 0-15 1 0-11 0-21 0-32 2 0 3-2 3-3 7 1 33-9 40-12 1 14 2 29 3 44-38 4-26 3-31 2m-719-15c-9-5-16-11-23-18 1-1 2-3 4-4 7-4 10-8 12-13 5 8 10 16 15 24-1 4 0 8 2 12 0 1 0 1 0 2-3-1-7-2-10-3m783 2c-1-1-2-3-2-5 3-2 1-7-1-11 1-2 3-4-1-9 1-1 2-2 0-9 1-1 0-4-1-5 6-1 10 0 8-6 0 0-5-2-15-2 8-5 16-11 24-16 0 19 0 38 0 57-3 2-6 5-10 7 0 0-1-1-2-1m-26-1c0-11-1-21-2-32 4 0 8 1 12 1-1 3 0 7 2 10-2 3-1 7 1 10-1 2-1 4 0 6 4 0 0 4-1 6-4 1-8-1-12-1m-151-3c-1-1-4-6-5-7 7-6 6-3 8-27 21 16 25 24 25 24-12 12-27 12-28 10m-568 0c-1-3 0-2-4-4 1-24 1-49 2-73 4-1 8-1 12-1 3 2 6 11 5 15 1 1 1 1 2 2 2 23 6 35 11 58-12-1-9 3-28 3m532 0c-1-3-1-5-1-8-4-7-6 4-7 6-4 0-19-9-23-12 10-4 14-4 36-19 1 1 2 2 9-1 0 9 1 19 1 29-5 0-6-4-11 5-2 0-3 0-4 0m232-4c-1-19-1-38-1-58 9-5 19-11 28-17-5 24-10 47-15 70-5 4-9 7-12 5m-790-8c0-6 1-3-14-29 7-11 13-21 19-32 0 22 0 45 0 67-3-1-5-4-5-6m57 6c-16-75-7-42-9-66 13 7 26 14 38 21 2 12 2-3-5 33-17 10-20 12-24 12m569-13c-10-12-3-4-25-24 2 1 38 22 39 22-3 2-7 4-10 6-1-1-3-2-4-4m-125-10c0-1 0-1 1-2 3 1 24-27-1-15 1-6 1-10-1-12 1-6 3-12 4-18-1-1-2-2-2-3 0-6 1-12 2-18 2 1 5 2 8 3 11 9 12 9 66 39 0 1 0 2 0 3 0 0-19 6-19 6-1 1-1 3-1 5-14 10-38 23-38 23-6-4-13-7-19-11m200-1c-2-1-4-1-6-1 0-1 0-2-1-4 6-1 17-2 22 0-1 1-13 5-15 5m-92-21c-2-1-5-2-7-4 4-3 13-8 17-12 1 2 2 4 4 3 8 17 16 30 16 30-10-5-20-11-30-17m41 11c-4-4-13-22-16-28 3-2 2-11 1-16 8-8 17-17 25-26 0 2 2 4 3 6 1 0 2 0 3-1 7 34 5 20 7 65 0 0-1 0-1 1-8-7-14-4-19 4-1-1-2-3-3-5m-175-6c0-4-1-9-3-13 5 1 10 2 15 3 0 2 0 4 0 6-2 0-3 1-4 2-1 0-3 0-5 0 0 2 1 5 0 8-2-1-2-4-3-6m245 0c5-2 9-5 14-7 0 3 0 6 0 9-4-1-9-1-14-2m-29 0c0-1 0-2 0-3 14-9 27-19 41-29 0 7 1 14 2 21-6 4-12 8-18 11-8 0-17 0-25 0m50-1c0-4 0-7 0-10 8-4 16-9 24-13 2 1 4 3 6 4-10 6-20 12-30 19m-770-21c0-1 0-2 0-2 10-4 19-8 29-12-1 6 4-3-18 34-4-7-7-13-11-20m720 17c-1-21-2-43-2-64 10-8 18 2 47 22-10 8-13 9-7 13-13 10-26 19-38 29m50-9c-1-8-1-15-2-22 4 0 8 0 12 0 12 6 9 6 12 10-8 4-15 8-22 12m-272-8c-5-11-17-30-26-45 4 5 28 40 31 45-1 1-2 2-3 3 0-1-2-2-2-3m136-1c1-1 1-3 2-4 4-1 5-4 4-8-2-2-1-2 0-3-1-2 0-2 0-2 2 1 6 4 5 6 0 1 0 3 0 4-2 4-6 6-11 7m167-8c-1-1-2-2-3-4-1-1-1-3-1-4 5 0 9 1 14 2 0 0 0 1 1 1-4 2-8 3-11 5z" horiz-adv-x="1071" />

<glyph glyph-name="oboe" unicode="&#xe832;" d="M277-51c-5-3-9-8-11-15-2-6-7-13-3-23 5-11 21-28 31-38 11-10 20-21 31-23 12-1 23 3 36 13-2 2-2 6 1 13 3 6 3 8 18 25 15 18 44 51 71 79 26 29 60 65 85 91 25 25 36 35 63 61 27 26 58 56 97 93 3-3 6-5 9-5 3 0 6 0 9 4 4 4 7 10 11 19 3-5 6-6 9-2 4 3 8 10 12 22 5-2 8-3 9-2 2 1 1 6 1 8-1 2-2 4-4 5l5 6c1 0 2 1 3 2 1 1 1 3 1 6l26 27c5-1 9-1 12 0 3 2 5 6 6 9 1 3 0 6-1 8 18 19 31 31 37 37 6 6 7 5 1-2 6-6 10-10 13-11 3-1 6 3 4 6-1 3-5 7-12 13 7 0 12 1 15 4 3 3 3 7 2 12 14 15 22 24 25 26 3 2-5-10-5-13 0-3-1-6 5-4 7 3 21 11 33 22 12 11 31 31 41 45 10 15 16 27 18 40l18 16c0-3 1-5 3-6 2-1 5-2 8 0 4 1 10 8 13 10 2 2 3 3 2 3 3 0 6 1 8 4 3 4 6 9 9 16 7 2 12 5 16 8 4 3 7 9 8 12 0 3-2 4-6 3l14 16c4-5 7-8 9-6 2 1 4 5 4 14l7 6c4-2 8-2 11-1 3 1 7 4 9 7 1 2 1 6-1 11l33 34c0-2 1-2 4 0 3 2 9 7 10 11 2 3 1 6-3 9l69 67c6 1 9 2 12 4 3 2 5 5 5 8 1 3 0 6-2 10 3 2 4 3 5 6 0 2-1 5-4 8l16 14-3 1 55 49-12 9-48-52-3 2-13-15c-3 0-5 0-7 0-2-1-3-1-4-2-3 2-7 3-10 3-3 1-8 0-11-2-3-3-5-7-6-13-3-1-6-2-9-4-1-2-3-6-5-7-1-2-3-3-4-2-1 1 0 7-1 8-2 0-6-2-9-3-3-2 2 4-9-6-11-10-30-28-58-54l-8-2c-4 2-8 1-11 0-3-2-3-5-8-10-5-5-12-12-21-20-8-9-19-19-31-30l7-5 55 50 3-7-19-17c-2 1-5 1-7-1-3-1-5-4-8-9l-47-42c-4 1-7 0-9-1-1-1-2-4-1-7l-55-48 2-7c-5 1-7 1-8-2-1-2 0-7 3-13-3 0-6-1-8-4-3-2-4-6-5-12l-10-6c-3 6-5 11-9 15-3 3-7 6-11 5-3-1-12-9-11-12 2-3 17-4 19-6 3-3 2-6-2-10-3 4-7 6-11 5-3 0-8-1-13-5 1 8-4 8-14 0-11-7-27-22-50-45l11-14-48-50c-3 0-6 0-8-2-2-2-4-5-4-9l-12-10c-3-1-6-3-7-4-2-2-3-4-2-6l-15-12c-4-1-7-2-9-4-2-2-4-5-5-8-4-5-11-11-20-18-9-8-26-22-34-28-7-6-9-6-13-8-3-3-5-4-6-6-4 0-6 0-7-1-1-1 0-2 1-5-3-7-7-12-12-16-5-4-10-7-16-9-4 1-6 1-8 0-1-2-1-4 0-8-1-3-3-6-6-8-4-2-10-3-14-5-3-3-6-6-8-10-4 2-6 2-7 0-1-2 0-6 3-12-7-5-12-10-15-13-2-3-3-5-3-6l-52-46c-3 0-6-1-7-2-1-2-2-3-1-6-6-5-12-9-17-14-5-5-10-9-13-14 1-3 2-5 2-7 0-1 0-2-2-1l-21-23c-3 2-6 2-7 1-2 0-1-3-2-5-1-1-4-1-4-3-1-2-1-5-1-9-11-10-24-22-40-36-15-13-36-34-51-46-14-11-25-17-34-22-9-4-17-5-22-4z m180 87l-4-6c-1 0-2 1-2 3 0 2 1 5 1 9 2-2 4-4 5-6z m195 179l3-2c-1-2-2-4-4-6-1-1-2-2-3-3l-4 4c2 0 3 1 5 2 1 2 2 3 3 5z m-11-12c-1-2-3-3-4-4-2-1-3-2-6-2l5-3c3 1 5 2 6 3 2 1 3 2 3 3-1 1-3 2-4 3z m-130-134c-1 1-3 3-6 6-2 2-4 6-7 10l-13-13c4-4 7-7 11-10 3-3 5-5 8-7 2 5 5 9 7 14z m201 220c0-1-5-1-6-3 0-2 1-6 0-7 0-2-2-2-3-1-1 1-3 6-2 9 1 2 5 4 7 4 2 1 5-1 4-2z m33 8c0-1-5-1-6-3-1-2 1-5 0-7-1-1-3-2-4-1 0 2-2 7-1 9 1 2 4 4 6 5 3 0 5-2 5-3z m-20 32c0 1 5 0 6 2 1 2 0 6 1 7 1 2 3 2 4 1 1-2 1-7 0-9-1-2-5-4-7-4-2 0-4 2-4 3z m24 28c1 0 4 0 5 1 1 2 0 5 1 6 1 1 2 1 3 0 0-1 1-5 0-7-1-1-4-2-5-3-2 1-4 2-4 3z m24 20c1 0 5 0 7 1 1 1 1 6 2 7 1 1 3 1 3 0 1-2 1-7 0-9-2-2-6-3-8-3-2 0-4 3-4 4z m56 50c1 1 6 0 7 1 2 2 1 6 2 7 1 2 3 2 4 0 1-2 1-7 0-9-2-2-6-3-8-3-2 0-5 3-5 4z m102 93c0 0 4-1 5 0 1 2 0 5 1 6 1 0 2 1 3-1 0-1 1-4 0-6-1-2-5-2-6-2-2 0-3 2-3 3z m-42-43c0-1-4 0-6-1-1-1-1-5-2-6-1-1-3-1-3 1-1 1-1 6 0 7 2 2 6 3 8 2 1 0 4-2 3-3z m-158-212c0-1-4-1-6-2 0-2 1-6 0-7 0-1-2-2-3-1-1 2-2 6-1 8 1 2 4 4 6 4 1 1 4-1 4-2z m-23-29c0 0-3-1-4-2-1-1 0-4 0-5-1-1-2-2-3-1 0 2-2 5-1 7 1 1 3 3 5 3 2 0 3-1 3-2z m242 309c0 0 4-1 5 0 1 2 0 5 1 6 1 0 2 0 3-1 0-1 1-4 0-6-1-2-5-2-6-2-2 0-3 2-3 3z m35 24c1 1 5 0 6 1 1 2 1 5 1 6 1 1 3 1 3 0 1-1 2-6 0-7-1-2-4-2-6-2-2 0-4 2-4 2z m19 20c1 1 4 0 5 1 2 1 1 4 2 5 1 1 2 1 2 0 1-1 1-5 0-7 0-1-4-2-6-2-1 1-3 3-3 3z m20 24c0 1 5 0 6 1 1 2 1 6 1 7 2 1 3 1 4-1 1-1 1-6 0-8-1-2-5-2-8-2-1 0-3 2-3 3z" horiz-adv-x="1556" />

<glyph glyph-name="ukelele" unicode="&#xe833;" d="M554 141a90 90 0 0 0-124 31 90 90 0 0 0 30 123 90 90 0 0 0 124-30 90 90 0 0 0-30-124z m234 243c-212-129-424-258-637-388m422 509c-14-4-28-10-43-18-33-21-78-103-115-115-58-18-160 9-212-23-120-73-125-232-52-353 0 0 0 0 0 0 73-120 217-189 337-116 52 31 75 135 118 177 27 28 122 31 155 51 101 61 89 174 27 276 0 0 0 0 0 0-53 87-130 146-215 121z m213-123c-55-33-108-65-159-96 51 31 104 63 159 96z m461 341l-604-367c-1 0-1 0 0 0 22-38 9-17 18-31 0 0 0 0 0 0 9-15-4 6 19-31 0 0 0 0 0 0l0 0 604 369-18 30 1 0c0 0 0 1 0 1z m-14 14c9-13 52-82 59-96 7-13 168 115 168 115 7 4 9 13 5 20-3 4-7 6-12 7 7 6 8 16 3 24-5 8-14 12-23 9 2 4 1 9-1 13-4 7-13 9-20 5 0 0 0 0-1 0 0 0-186-84-178-97z" horiz-adv-x="1556" />

<glyph glyph-name="saxophone" unicode="&#xe834;" d="M542 718l-15 21c0 0 8 5 13 2 4-3 29-19 34-25 4-6 17-24 21-26 3-3 10-12 15-17 6-4 18-2 18-9 0-7 2-12 12-23 9-11 22-16 27-21 5-5 12-21 16-27 5-7 18-12 18-12l-4-20c0 0-61 59-69 65-8 6-88 92-86 92z m537-423c-26-23-36-61-22-85 15-30 30-60 46-90 4-10 9-20 19-26 19-14 51-14 76 2 25 15 43 42 44 67 1 15-4 28-10 39-17 32-32 64-50 96-15 23-51 28-82 12-7-4-14-9-21-15z m13-19c22 20 56 23 73 5 16-15 16-44-1-65-2-3-4-5-6-8 23 8 47 0 56-19 9-19 3-45-15-63-17-16-41-24-60-18-21 5-33 26-28 49 2 12 8 24 17 33-24-8-49 2-57 22-8 20 0 47 20 63 0 1 0 1 1 1z m127-89a29 39 65.11 0 0-5-42 29 39 65.11 0 0-53 14 29 39 65.11 0 0 5 42 29 39 65.11 0 0 53-13m-41 74a29 39 65.11 0 0-4-42 29 39 65.11 0 0-54 14 29 39 65.11 0 0 5 42 29 39 65.11 0 0 53-13m-78 137c0 0 42-154 151-286 108-133 87-194 74-215-13-22-76-55-142-48-66 8-125 69-176 138-51 69-549 739-549 739 0 0-12 11-37 30-39 30-97-10-152-42-55-32-62-21-62-21l-7 18c0 0 149 82 157 92 9 10 51 20 78 6 134-71 408-431 408-431l313-392c0 0 6-26 12-16 5 10-81 113-123 176-43 62-132 179-122 200 9 22 178 55 177 52z m46 76a156 72 15.16 0 0-103-113 156 72 15.16 0 0-188 11 156 72 15.16 0 0 103 113 156 72 15.16 0 0 188-11m-3-471l44-6c0 0 10-19 18-40 9-21 19-52 0-71-19-20-34-33-34-33 0 0 3 34 8 48 5 13 14 40-2 63-16 22-27 35-34 39z m-677 767c-8-12 8-27 19-36 101-99 189-210 273-323 1-13 22-12 10 1-22 30-46 59-68 88-74 93-151 184-233 271l-1-1z m-273-60l62 33c0 0-16-7-7-21 9-13 23-10 23-10l-60-31c0 0-15 2-20 10-4 7 2 19 2 19z m730-478c0 0-60-53-58-55 2-3 63 49 63 49 3 3 4 6 3 8-1 1-5 0-8-2z m-58 69c0 0-58-49-55-52 2-2 59 47 59 47 3 3 5 6 3 7-1 2-4 1-7-2z m-228 297a23 22 40.79 0 0-3-32 23 22 40.79 0 0-31 2 23 22 40.79 0 0 3 31 23 22 40.79 0 0 31-1m-62 55a23 22 37.92 0 0 25-18 23 22 37.92 0 0-19-25 23 22 37.92 0 0-25 17 23 22 37.92 0 0 19 26m25-34a23 22 40.79 0 0-3-32 23 22 40.79 0 0-31 2 23 22 40.79 0 0 3 31 23 22 40.79 0 0 31-1m86-77a17 15 40.79 0 0-3-23 17 15 40.79 0 0-23 0 17 15 40.79 0 0 3 23 17 15 40.79 0 0 23 0m-412 209c13 3 21 34 108 69 11 5 24 7 33-1 16-11 21-34 16-54-1-10 1-20 7-28 4 9 4 18 3 27 2 4 7 5 11 7 8 1 13 6 21 7 5 1 13 2 16 8 2 12 3 25-4 35-6 12-15 25-30 26-16 1-55 2-67-2-12-4-54-17-94-58-39-39-20-36-20-36z m158 77c15-2 33-4 43-16 5-4 1-13-5-14-7-2-16-2-22-8-4-3-11-4-13 0 0 13-2 26-5 39 0 0 1-1 2-1z m221-268a18 19 40.79 0 0-1-26 18 19 40.79 0 0-27 3 18 19 40.79 0 0 1 26 18 19 40.79 0 0 27-3m-17-10c0 0 40 33 41 32 1-1-38-35-38-35-2-2-4-3-5-2-1 1 0 3 2 5z m-12 3c1 0 3 0 4-1 0-1 0-1 0-2 1-3 4-6 6-9 1-1 5-5 6-7 1 0-6 3-7 4-1 1-4 4-5 5-2 2-4 5-4 8 0 0 0 1 0 1 0 0 0 0 0 1z m6 78a18 19 40.79 0 0-1-26 18 19 40.79 0 0-26 2 18 19 40.79 0 0 0 27 18 19 40.79 0 0 27-3m-17-11c0 0 40 34 41 32 1-1-38-35-38-35-2-2-4-2-5-1-1 0 0 2 2 4z m-11 3c0 0 2 0 3-1 0 0 0-1 0-2 1-3 4-6 6-9 1-1 5-5 6-6 1 0-6 2-7 4-1 1-4 3-5 4-2 3-3 5-4 8 0 1 0 1 0 2 0 0 0 0 1 0z m-16 56a18 19 40.79 0 0-1-26 18 19 40.79 0 0-26 3 18 19 40.79 0 0 1 26 18 19 40.79 0 0 26-3m-16-10c0 0 39 33 40 32 1-1-38-35-38-35-2-2-4-3-5-2 0 1 1 3 3 5z m-12 3c1 0 2 0 3-1 0-1 0-1 1-2 1-3 3-6 5-9 1-1 5-5 6-7 1 0-6 3-7 4-1 1-4 4-5 5-2 2-3 5-4 8 0 0 0 1 0 1 0 0 0 0 1 1z m-12 50a18 19 40.79 0 0-1-26 18 19 40.79 0 0-27 2 18 19 40.79 0 0 1 27 18 19 40.79 0 0 27-3m-17-11c0 0 40 34 41 32 1-1-38-35-38-35-2-1-4-2-5-1-1 0 0 2 2 4z m-12 3c1 0 3 0 4 0 0-1 0-2 0-3 1-3 4-6 6-9 1-1 5-5 6-6 1 0-6 2-7 4-1 1-4 3-5 5-2 2-3 4-4 7 0 1 0 1 0 2 0 0 0 0 0 0z m29 26c7 8 11 11 18 8 12-4 26-10 34-22 7-12-2-27-2-27l-26 33c0 0-3 4-9-3-5-5 0-12 0-12 0 0-16 15-15 23z m29-6c-1-1-1-2-1-3 1-2 2-3 3-5 1-1 3-2 3-3 2-1 3-3 4-4 0-1 1-2 2-2 1 0 1 1 1 1 0 2 0 3 0 4-2 3-4 5-6 7-1 0-1 1-2 2-1 1-1 2-3 3 0 0-1 0-1 0z m-20 12c-1-1-1-2-1-3 1-1 2-2 3-3 1-1 2-2 3-3 1-1 2-2 3-3 0-1 1-2 1-2 1 0 1 0 1 1 0 0 0 2-1 3-1 2-3 3-5 5 0 1-1 1-1 2-1 1-2 2-3 2 0 1 0 1 0 1z m39-53c5 6 7 7 12 5 8-3 18-8 23-16 6-8 0-18 0-18l-18 23c0 0-3 3-6-2-4-3 0-8 0-8 0 0-11 11-11 16z m20-5c-1 0-1-1-1-2 0-1 1-2 2-3 1-1 2-2 3-3 1 0 1-1 2-2 0-1 1-2 1-2 1 0 1 0 1 1 0 1 0 2 0 3-1 2-3 3-4 4-1 1-1 1-1 2-1 1-2 2-3 2 0 0 0 0 0 0z m-15 9c0-1 0-1 0-2 1-1 2-1 2-2 1-1 2-2 2-2 1-1 2-2 2-3 1 0 1-1 1-1 1 0 1 0 1 0 0 1 0 2-1 3-1 1-2 2-3 3-1 1-1 1-1 2-1 0-1 1-2 2 0 0 0 0-1 0z m36-49c7 8 10 10 17 8 13-4 27-10 34-22 8-12-1-27-1-27l-26 32c0 0-3 4-9-2-5-6-1-12-1-12 0 0-15 15-14 23z m29-6c-1-1-2-2-1-4 0-1 2-3 3-4 1-1 2-2 3-4 1-1 2-2 3-4 1 0 2-1 3-2 0 0 1 1 1 2 0 1 0 3-1 4-1 2-4 4-5 6-1 1-2 2-2 3-1 1-2 2-3 3 0 0-1 0-1 0z m-21 11c0 0 0-1 0-2 1-1 2-3 3-4 1-1 2-2 3-3 1-1 1-2 2-3 1 0 1-1 2-2 1 0 1 1 1 1 0 1-1 2-1 3-2 2-4 4-5 5-1 1-1 2-1 2-1 1-2 2-3 3 0 0-1 0-1 0z" horiz-adv-x="1556" />

<glyph glyph-name="guitar" unicode="&#xe835;" d="M1393 812c-10 17-39 42-54 38l-57-38-4 7-1 0c0 1-1 3-1 4-4 6-12 9-17 5-6-3-7-11-3-17 3-6 11-9 16-6l-30-20-4 7-2 0c0 1 0 3-1 4-4 6-11 9-17 6-5-4-7-11-3-18 4-6 11-8 16-5l-28-19-4 7-1-1c-1 2-1 3-2 4-4 7-11 9-17 6-5-3-7-11-3-17 4-7 11-9 17-6l-33-21-1-7-5-10-3-1 39-66 3 2 11-1 6-2 35 18c-6-3-7-11-4-17 4-6 12-9 17-5 6 3 7 11 3 17-1 1-2 3-3 4l1 0-4 7 30 16c-5-3-6-11-2-17 3-6 11-9 16-6 6 4 7 11 3 18 0 1-1 2-3 3l1 1-4 7 33 17c-6-3-7-11-3-17 3-6 11-9 16-6 6 4 7 11 4 18-1 1-2 2-3 3l1 1-4 7 60 31c11 12 3 49-7 65z m-79-6c2-4 2-8-3-12l-13-8-9 15 11 8c5 3 11 1 14-3z m35-59c2-4 2-11-4-14l-12-6-9 15 14 7c4 3 9 1 11-2z m-70 48l9-16-31-20-9 16z m34-58l10-16-33-17-9 16 32 17z m-75 31l9-16-28-19-10 16 29 19z m32-54l9-16-30-16-10 16z m-71 29l10-17-3-2c-13-8-25 7-11 16l4 3z m30-50l9-17-4-2c-14-8-22 10-8 17l3 2z m-86 16l-440-249c-74 103-145 107-200 81-52-24-87-88-116-103-59-30-162 35-290-48-150-96-99-244-29-362 70-118 175-234 331-149 135 73 127 194 182 231 27 19 100 19 146 53 49 35 80 99 25 214l430 266-9-6-39 67 9 5z m-77-44l40-68-10-6-40 68 10 6z m-81-46l42-71-10-6-43 71 11 6z m-75-43l44-74-10-6-44 75 10 5z m-64-36l45-76-10-6-45 76 10 6z m-60-34l46-79-10-6-47 79 11 6z m-54-30l48-81-11-7-48 82 11 6z m-47-27l49-83-10-6-49 83 10 6z m-43-24l50-85-10-6-50 85 10 6z m-38-21l51-86-10-6-51 86 10 6z m-33-19l52-88-10-6-52 88 10 6z m32-99c-1-32-17-62-46-79-46-27-104-12-131 33-26 45-11 104 34 130 29 18 63 18 91 3l-21-12c-20 6-41 4-60-7-36-22-48-68-27-104 21-36 68-48 104-26 18 11 31 29 35 48l21 14z m-36 38c1-1 1-1 1-2 1 0 1-1 1-2 1 0 1-1 1-1 0 0 0 0 0 0 1-1 1-3 2-4 0 0 0-1 0-1 1-2 1-3 2-4 1-5 2-9 3-14 0-3 0-5 0-7 0-4 0-8-1-11 0-1 0-3 0-4-1-2-2-4-2-7l0 0c-5-15-16-29-31-38-32-19-75-8-94 25-19 32-9 75 24 94 15 9 32 11 48 8 0 0 0 0 0 0 1 0 2 0 4 0 1-1 2-1 3-1 5-2 9-4 13-6 1 0 2-1 3-2 1 0 2-1 3-1 0-1 0-1 1-1 1 0 1-1 2-2 3-2 6-4 8-7 0 0 0 0 1 0 0-1 1-2 2-3 0 0 1-1 1-1 0-1 1-1 1-2 1 0 1-1 1-1 1-1 1-1 1-2 1 0 1-1 1-2 1 0 1-1 1-1z m-336-39l141-238c2-4 0-9-6-12l-27-16c-5-3-11-3-13 1l-141 238c-2 3 0 9 5 12l28 16c5 3 11 3 13-1z" horiz-adv-x="1405" />

<glyph glyph-name="electric-guitar" unicode="&#xe836;" d="M398 458l-76-136-10-5-10-1-12 2-14 10-12 15-6 24 1 24 8 25 7 16 6 8 3 2 1 1 2-2 8 6-1 1-10 13-4-3-4-2 2-3-4-1-4-1-13-2-14-8-16-15-14-23-11-21-9-26-5-31-3-24-6-29-7-28-20-30-20-19-50-38-19-16-18-19-24-30-10-17-7-23-2-23 2-17 12-29 14-18 22-19 24-16 30-17 37-20 44-22 20-9 31-9 24-2 33 5 25 13 13 12 14 22 11 23 6 18 5 19 3 25 4 34 1 23 7 25 10 23 18 21 15 13 11 8 23 20 19 24 11 24 0 18-4 6-5 1-4-1-7-5-11-11-12-10-20-12-12-4-12-1-12 3-9 4-9 6-6 10-7 11-2 8 0 7 1 5 98 189-59 31-1 0m-76-137l-42-78 1-6 55-30 6 1 3 2 15 27m-86 214l7-11 4 3 2-2 8 5-11 14-8-5 2-3z m263 259l-216-391-41-76 1-6 54-29 6 0 4 4 244 468z m-407-810l-11 7-2-4-3 1-5-8 16-9 5 8-3 3z m457 769l1 2c0 0 0 2 2 4 1 1 4 6 6 8 1 2 7 10 7 10 0 0 4 3 8 2 4 0 13-1 13-1l9-1 6 1 4 3c0 0 1 6 1 8 0 2 0 7 0 8 1 2 3 32 3 32l-1 10c0 0-2 7-2 9 1 3 1 7 1 9 1 2 1 4 2 5 2 2 3 4 5 3 3 0 4-1 6 0 3 0 21 2 21 2l9 8 1 14-7 17-10 13c0 0-9 6-11 8-3 2-21 6-21 6l-12-3-8-8-86-103 3-9-2-11-2-7-6-7z m24 166a7 7 77.71 0 0-7 5 7 7 77.71 0 0 2 8 7 7 77.71 0 0 9 0 7 7 77.71 0 0 1-9m-5-4l4-3 3 3-2 4m-21-22a7 7 77.71 0 0-7 5 7 7 77.71 0 0 3 8 7 7 77.71 0 0 8 0 7 7 77.71 0 0 1-9m-5-4l5-3 2 3-2 4m-20-22a7 7 77.71 0 0-7 4 7 7 77.71 0 0 3 9 7 7 77.71 0 0 8-1 7 7 77.71 0 0 1-8m-5-4l5-3 2 2-2 5m-21-23a7 7 77.71 0 0-7 4 7 7 77.71 0 0 3 9 7 7 77.71 0 0 8-1 7 7 77.71 0 0 2-8m-6-4l5-3 2 2-1 5m-22-22a7 7 77.71 0 0-7 4 7 7 77.71 0 0 3 9 7 7 77.71 0 0 8-1 7 7 77.71 0 0 1-8m-5-4l5-3 2 2-2 5m-20-23a7 7 77.71 0 0-6 5 7 7 77.71 0 0 2 9 7 7 77.71 0 0 8-1 7 7 77.71 0 0 2-9m-6-4l5-2 2 2-1 5m-165-755l13 16-6 5-16-20z m-9 1l2-3 6 2-7 2z m165 705l-1-3m2 2l-1-3" horiz-adv-x="689" />

<glyph glyph-name="disco-woman" unicode="&#xe837;" d="M214 712c2-3 9-15 9-20 0-4 1-8 2-8 1 0 9-23 9-28 0-1 5-6 12-11 6-5 14-12 18-16 8-9 9-7-21-20-21-9-32-19-39-37-13-38-38-75-63-94-14-12-41-20-62-32-6-4-23-5-21-15 5-25 46-70 44-66l16 13c60 63 109 144 114 141 1-1 2-5 2-10s2-13 5-20c6-16 10-33 8-39 0-2-7-8-15-14-29-20-43-43-45-70-3-31 7-52 43-100 37-50 49-70 57-103 3-11 5-27 5-38 0-28-3-36-47-132-9-19-16-37-16-39 0-3 4-6 12-10 12-5 15-8 13-14 0-3-1-21-2-41l0-36h12c15 0 17 2 19 17 5 32 27 28 32-5l1-12 38 1 38 0v18c0 20-3 24-24 32l-15 6 21 0c17 1 22 2 23 5 2 4-3 159-6 205-3 36-7 46-47 122-16 30-28 55-28 55 1 1 35-20 75-47l74-49v-55c0-54 0-56-12-132-6-43-12-80-12-82 0-3 4-3 22-2l22 1-2-26c0-15-2-30-2-34-2-9 2-11 19-11h10l3 14c3 14 10 25 16 25 2 0 6-3 8-5 6-6 6-8 9-25 1-8 2-9 9-9 12 0 16-2 15-7 0-1 40-7 50 1 12 9-3 37-5 38-5 4-11 9-16 12-12 6-26 15-29 17-8 7-6 12 5 12 0 68-8 155-21 226-5 28-12 62-15 75-6 26-8 28-40 52-26 20-47 32-84 49-46 21-55 26-67 36-12 12-30 38-30 45 0 5 25 34 30 34 1 0 6-3 12-8 15-13 107-57 120-57 1 0 1 3-1 6-2 3-4 8-4 12v8l15 0c19 0 48 12 48 20 0 6-3 6-11 1-5-3-6-3-10 0-2 3-4 6-4 8 0 5 13 16 22 20 10 4 9 7-2 7-8 0-12-2-19-8-5-5-12-12-15-17-7-10-9-10-17-4l-5 4 6 18c3 10 5 18 4 19-1 0-6-1-11-2-5-2-25-3-43-4l-34-2-2 19c-1 10-2 33-2 49 0 17-1 45-2 62-2 26-3 31-7 35-7 7-23 7-40-1-8-4-15-7-16-6-3 2-7 26-6 33 1 4 4 9 7 10 5 2 16 19 12 26-1 1 7 0 14 0 8 0 12 2 16 6 9 9 11 17 8 29-3 9-3 12 1 21 5 13 4 16-7 23-9 6-10 11-6 21 3 8-4 19-19 20-10 1-17 6-19 14-9 9-11 9-24 10-10-2-19-1-22 4-4 2-9 4-12 4-7 0-29-7-42-15-6-7-14-11-18-9-5 0-12-1-15-14-1-4-10-15-14-18-12-9 9-36 8-40 3-4-9-20-1-27 8-8 17-10 23-15z m132-10c7-3 15-18 9-31-11-21-25 0-24 8 0 0 2 3 2 2 0-8 10-28 20-9 3 6 2 23-8 28-3 1 1 2 1 2z m-112-41c-7-4-12 2-14 13-1 6-1 12 4 17l-1 4c-4-6-6-10-5-21 1-14 9-17 17-17z m-149-274l-13-7c-17-9-48-13-52-6-2 6 0 7 9 7 6-1 7 0 8 4 1 3 1 7 0 9-2 4-18 8-28 7-11-1-12 2-2 7 7 4 11 4 21 2 6-1 16-5 21-7 10-5 13-5 16 4l3 6z" horiz-adv-x="624" />

<glyph glyph-name="banjo" unicode="&#xe838;" d="M2686-593c0-1 1-2 3 0-1 1-2 2-3 0z m-2036 757c-10-184-164-324-344-314-179 11-316 168-305 351 10 184 164 324 344 314 179-11 316-168 305-351z m670 639c5-6 18-15 18-15 0 0-3-19 0-27 1-8 10-22 10-22 0 0-61-12-85-30-9-6-19-25-19-25 0 0-19 6-29 6-12 0-36-6-36-6l-26 44c0 0 22 16 28 27 5 9 8 29 8 29 0 0 16 3 23 7 26 14 66 59 66 59 0 0 5-12 10-17 6-5 23-9 23-9 0 0 5-15 9-21z m-785-443l42-69 615 401-28 44z" horiz-adv-x="1348" />

<glyph glyph-name="violin" unicode="&#xe839;" d="M3185-861c1-2 2-2 4-1-1 2-2 3-4 1z m-2803 1400l-23 2c-4-11-10-19-20-25-11-6-17-6-42-12-27-6-77-12-112-24-36-12-72-25-100-47-28-22-53-48-67-83-14-34-17-87-18-123-1-34 4-60 11-85 7-24 18-44 32-60-5-8-5-17-1-25 4-9 12-18 24-27 6-22 22-45 46-71 25-25 65-62 102-81 35-18 75-28 113-28 37 1 78 15 111 32 33 16 60 47 83 67 23 19 35 39 52 50 17 11 33 15 50 14l12 18c-9 4-15 9-20 17-4 9-8 20-5 34 3 14 11 32 26 49 16 18 47 41 66 54 19 13 33 19 46 23 13 4 19 5 30-1 10-7 20-20 31-40l25-1c5 10 11 18 19 25 8 8 13 13 30 19 18 6 47 9 73 18 25 10 55 22 77 38 20 16 35 34 46 58 12 23 20 52 20 83 0 31-7 64-21 100l352 191c12 8 24 15 37 23 14 8 28 16 43 23 2-2 5-3 10-1 5 2 11 6 19 12 1-9 5-13 11-15 6-1 19 3 24 8 4 5 4 11 0 19 7 4 12 8 14 11 2 4 0 8-4 13 10-1 15 2 15 9 0 8-4 27-10 32-6 5-14 4-24-4-2 6-5 10-10 11-4 1-9-1-16-4-2 7-6 13-11 14-6 2-15 1-19-3-5-3-8-10-9-14 0-5 2-9 6-14-7-1-12-3-16-6-4-4-6-8-6-14 1 3-9 0-28-9-20-8-48-21-88-40l-336-153c-5 15-16 31-33 48-17 17-42 40-68 52-26 11-57 17-84 16-27-1-52-9-77-22-26-12-57-39-76-53-19-13-23-20-36-25-13-4-26-4-41-1l-14-21c11-9 17-19 17-29 0-11-2-23-15-35-14-11-39-26-63-35-24-9-54-17-77-18-24 0-50 6-64 17-14 11-20 27-19 49z" horiz-adv-x="1599" />

<glyph glyph-name="piano" unicode="&#xe83a;" d="M1526 30c0-1 1-1 2 0-1 1-1 1-2 0z m-902 820c45-12 92-24 141-39-44-46-92-83-140-122-14-19 97-41 82-65-22-36-50-62-80-82l41-81c39-2 57-6 70-11 12-6 7-10 1-13l1-50c6-5 8-10 5-13-5-37-7-85-8-133l5-1c2-16-1-21-2-30l-5-3c-21-39-31-34-44-43 4-20-12-16-20-22-11-6-11-11-11-15 9 3 10 0 6-7 1-12-3-14-6-17 4-7 1-13-3-19 2-9-3-11-7-15 5-5 1-12-5-19 1-7-3-11-6-15-2-7 4-19-8-18-1-7 2-12-4-20-5-36-18-42-28-56-17-7-12-25-13-40 9-5 6-11 6-16 19-16 7-21 3-30-11-8-22-3-33-3-8 4-8 8-9 12-14-1-10 12-5 26 4 22-1 45-4 68-3 10-3 20 7 26-37 48-18 60-15 82-3 8 1 17 1 25 2-6 2-13 4-17 2 6 7 12 2 20-17-6-34-9-51-19l-95 33-13-37c3-3 8-5 8-11 2-5 2-8-1-10-4-7-6-11-8-10l-2-21c0-6 4-8 8-8 3-5 9-7 9-15l22-12-6-5 0-18 9-5-51-30-48 22c-3-6-5-13-13-8-12 3-9 8 0 15l-13 6c-12-3-24-6-32 0-6 7 2 9 7 13l-7 2 0 7 9 2 1 21-5 1 0 5c16 1 15 5 20 8-2 12 10 13 16 18l-1 23-9 6c-3 6-5 11-1 14 0 7 4 7 7 7l2 50-118 43c-1-6 5 0-4-25-3-5-6-3-9 0l7-37-1-47c7-5 15-10-1-20-7-6-16-5-25 1-14-1-10 8-11 14l6 8 5 11c-2 51-27 49-41 72-6 4-14 6-14 19-3 5-8 5-8 19-6 14-5 16-4 18-24 10-47 20-87 35l0 24 3 1 0 8 3 0-1 17c24 13 64 25 60 53 1 16 0 28-7 31-1 9 1 16-4 31 45 17 104 14 156 21l2 6-5-1-3 6 13 9c5 6 8 17 9 30l12 0c7 9 12 19 35 20 117 115 227 222 351 345z m-10-315l35-71c-48 5-96 5-144 5 36 20 74 38 109 66z m11-431l22 12c-13-10-17-21-22-31l-3 4 5 6c3 0 3 3-2 9z m-302 27c0-3 2-43 2-43 3 0 6 3 9-5l-1-11c-2-5-4-9-9-10l0-20 7-10 6-5 2-5 0 106-16 3z m21-6l0-116 9-2 9 10 2 23c-4 2-8 3-11 8-3 4-1 7-1 11 2 4 5 6 9 8l2 53-19 5z m38-14c-2-3-2-24-2-24l9 22-7 2z m-259 94c1-6 6-15 6-15l0 10-6 5z" horiz-adv-x="766" />

<glyph glyph-name="paw" unicode="&#xe83b;" d="M225 561c10-99-33-185-95-191-62-6-119 71-129 170-9 100 34 185 95 191 62 6 120-70 129-170z m530-181c-68-73-87-167-42-209 46-43 138-18 206 55 69 73 88 167 42 209-45 43-137 18-206-55z m-243 276c-11-99-71-174-133-166-61 7-102 93-90 193 12 99 71 174 133 167 62-8 102-94 90-194z m73-25c-51-85-50-181 3-213 53-32 138 12 190 97 52 86 50 182-3 214-53 32-138-12-190-98z m-534-409c-16-18-29-41-37-73-21-92 51-135 112-152 75-19 183-71 260-109 77-39 181-65 234 11 35 51 24 91 22 136-18 99-71 325-186 361-103 20-324-79-405-174z" horiz-adv-x="986" />

<glyph glyph-name="hop" unicode="&#xe83c;" d="M234-65c5 17 12 34 24 49l92 67-10 8 33 29 13-9c8-2 22-13 43-18 38 2 50-5 82-22l6-5c44-2 26 34 16 58-13 13-9 23-8 40-8 14-10 12-4 26-44 105-4 188-1 295-6 16-4 31-3 48-5 26-19 20-46 19-15-4-22-3-37 2-119 6-203 18-311 25l-17 5c-11-2-20-7-28-13-3-12-12-10-20-7 0 5-5 4-9 5-12 7-11 14-9 26 2 6 2 9 0 15-10 1-20 1-30 1-13 3-14 10 0 11 17 1 33 3 49 5-3 15 5 13 15 6 21-7 43-10 65-15l2 4c100 6 208 8 312 14 28 12 30 20 88 23l104 6c12 0 15 0 20 22 2 15 3 27 2 42-1 11 2 18 7 27 5 29 18 30 44 32l56-14c20-2 36-27 30-45l-7-7c2-11-1-18-6-28 2-14-4-17-14-26 3-17-6-22-18-34l-13-11c-8-8-15-6-25-2l-5-16c30-4 23 1 46-24 8-1 8-2 11-9l33-39c6-13 15-23 24-33l-2-6c25-32 55-55 91-68 36-19 67-28 99-47l1-4 9 1c12-1 22-7 32-13l12-3 15-1 3-5 14-4 25 1 16 3c57 15 54 17 77 63l16 31c8 35 23 54 47 73l4 2c7 11 13 23 7 31l-14 16c-5 4-6 9-7 17-9 6-11 15-15 24 2 12 2 23-2 33-1 7-2 12-2 19-12 5-10 10 1 15 1 6 5 9 10 13 3 9 14 7 22 8 18 20 37 13 59 3 13-33 30-5 35-52 2-11 0-15-6-23 4-12-2-16-9-26 1-7 0-8-6-13-5-23 5-15 15-4l16 6c11 12 26 20 42 26 32 1 45 17 72 29 16 8 30 19 44 31l3 7 34 22c3 7 10 9 17 12l40 30 4 5 2 7 20 13 3 6-1 15-4 6c-2 12-4 25 1 37l3 8c-9 13-2 16 8 5l2 2 5 8 0 5 0 10c0 9 6 10 8 2l3 2c8 9 11 2 10-8l-2-3 2-3c8 4 12 0 11-8-4-15 1-32-1-46l-1-4 1-7c2-5 1-7-1-11-2-17-15-27-26-40l-16-24-36-32-16-13-53-47-10-6-12-5-21-18-21-21-49-21-3-8c9-30 21-60 30-87 17-40 50-77 69-107l9-13c44-46 32-77 3-119 1-11 15-25 18-35-14-8-25-14-37-19 0 0 9-27 8-31-37 1-76 0-110 11l-20-21c22-9 39-25 57-41l29-19c10-4 15-11 22-18l15-9 12-4 25-5 5 3c18-2 19-1 24-16 1-24 5-48 8-72l1-26-9-26c-18-19-21-22-34-9-8 9-8 18-8 31-7 8-7 15-7 25-11 6-13 10-6 19-9 21-24 30-42 43l-35 18-17-34c-15-17-29-27-32-6-2 6 0 11 3 17-7 8-4 12-1 21l-8 13c-8 2-9 6-11 13l-74 32c-22 9-29 24-30 45l-26 14c-27 17-35 35-18 58l33 31c12 19 29 33 47 48 36 27 53 39 29 82-31 36-47 16-62 24-8 5-13 13-15 21-5 17 5 22-1 30-9 2-10 0-16-6-10-17-22-34-30-52-22-31-35-36-71-46-28 1-55-3-82-5-8-6-18-6-27-2l-11-1c-2-16-6-15-19-7-27 22-48 25-77 34-47 10-71 25-77 26l-21 12-20 12c-31 25-60 52-90 76-18 13-17 5-27-3l-9-26-2-4-7-17-3-27-5-24c-1-21 4-50 11-63l19-11 43-14 76-31 23-9 27-14 9-13 58-42 61-50 16-21c5-10 12-10 20-12l27 12c28 21 46 29 38-13-6-12-11-16-17-24-19-11-37-29-52-49l7-6-21-19c-10 10-20 19-29 29l-32 28-6 10-71 51-28 12-70 37-54 14-82 3-8-9-11-72-7-37-18-67c-14-38-38-35-82-34l-42 14-59 21c-17-3-31 3-47 7l-36 1c-24-6-48-16-71-28l-41-26c-12-3-18 3-22 17z" horiz-adv-x="1720" />

<glyph glyph-name="jas" unicode="&#xe83d;" d="M69 500l-33 56c-6 1-12 2-17 5-4 3-7 6-9 9 0 2 0 4 1 6 2 1 4 2 6 3l-17 25 53-8 60-28 61-7c9-3 15-4 27-14 2-2 2-5 0-7-5-4-12-5-20-5l15-8 2 7 26-5-2-13 31-17 49 3 53 31 112 224-32-1-11 1-33 3c-3 6-4 10-3 13 4 7 14 11 24 15 96-12 192-26 288-41 4-4 8-4 12-17 2-7 1-9-4-13-14-1-25 1-34 3l-74 23-18-2 96-103-24 3 166-195c6-4 10-4 24-18 0 11 4 22 7 32l-28 114 48-8 173-162 9-1 17-19 16-11 1-22c44-7 75-21 114-39l95-26c76-20 163-61 260-117-137-18-240-5-341 10l-144 26-9-10-15 1-21-28-6-3-90 7-226-60-50 13 93 76-21-4-310-136 28-8-182-68 24-15 72-7c13-4 28-7 37-12 3-3 7-6 5-12-8-6-18-11-28-16l-315 80c-3 6-6 13-8 19 0 4 0 6 1 9 2 3 5 4 8 5 11-2 23-4 34-7l45-22 105 269-19 48-41 18-5 9-84 42c-3 1-3 2-5 4 0 3-2 4-4 5-22 11-44 26-66 41-3 24-3 32 12 48 13 3 26 7 39 9z" horiz-adv-x="1556" />

<glyph glyph-name="lindy-hop" unicode="&#xe83f;" d="M1235 850c-16-3-21-10-30-22l-6-17 0-12c0-2 2-4 2-6 0-7-1-14-1-22l-6-17c2-8 3-5 11-6l4-12 3-8 1-10 9-7 19 2 8-4 3-7-1-12-9-10-20-8-11-1-50-31-90-43v-5c-53-9-92-50-137-50l-11-4-3 8-19-3c-2-4-8 5-10 7l-10-3c-13-17-21-24-21-44-9-4-21-13-26-15-1 2-3 5-5 8-44-14-90-36-133-29-2 26-18 43-22 65l30 8c20 7 13 10 13 27l-1 19c12 3 11 4 5 13-7 9-14 18-22 27l-8 22c-5 13-15 17-27 23-27 12-56 4-69-3-16-12-19-30-20-54-7-10-8-6-14 2-32-2-64 3-96 5-33 12-64 7-98 5-38 2-73-4-109-10l0-5c-25 6-51 7-77 11l-52-1c-8-1-8-14-2-16l33-2c-3-19 2-32 7-50 17-8 37-8 55-8l21 12 20 7c1-9 2-17 4-25 51 9 123 17 168 19 23-21 19-26 9-54-16-30-56-33-87-43-43-19-68-43-101-71-16-12-33-28-14-31 33 2 32 4 40-21 27-28 45-68 38-102-35 4-59-6-90-19l-76-33-47-13 0-5-22-1 2 16-49-1c-6-18-9-32-13-50l12-6-11-30c-7-13-12-24-15-33-1-4-11-45-11-46-1-25 21-25 34-9 21 24 33 51 44 80 11 3 25 7 35 10 2-23 5-49 5-73 84 48 203 77 290 117 19-76-7-144-25-214l16 2-12-46 39-9 8 12c31-6 48-14 75-19l72-3c33 6 19 36-4 42-15 4-28 11-42 18l-37 13 38 4c8 97 22 173 38 270 3 21-5 35-14 53-19 31-39 49-59 78 1 20 11 28 24 42 36 7 62 18 97 29 38-17 57-26 99-27 54 8 145 50 149 51-4 5-10 12-11 14 4 2 19 10 22 13 14 0 27 7 39 12l15 20c1 4 0 8 0 11 0 0 1 0 1 0 6 2 13 3 15 2 54 16 73 24 121 43l2-33c43 16 83 45 127 56 8-20 16-29 42-37 9-30 19-96 21-128-16-17-27-32-31-55-46-3-60-22-100-29 14-15 18-31 22-49l31-9c3-32-23-81-24-111-3-77 13-123 37-198 9-35-1-39-21-66-6-9-22-17-9-24-15-15-2-14 14-18l65 6c11 2 10 7 14 17l0 63c49 81 59 149 53 240l62 68c10 2 12 1 14 10l37 1c2 16 4 13 18 13l-9 14 0 12 23 15-2 21 22 13c-8 64-46 125-80 169-7 47-6 100 7 138 52 1 93-12 146-9l5 30c41 2 66 34 102 37l4-4 27 2c42-14 42-9 1 5l12 11c25 3 54 6 10 10l3 7c47 7 15 11-12 10l-3 5c-20 3-30 5-45-7l1-7c-33-15-72-23-103-27l0 3-78-7c-35 18-71 23-109 28-71 7-50 15 5 8 9 10 11 12-2 24l-22 4-17 7c9 8 9 12 9 23-26 35-75 47-106 47z m7-668l9-7 5-5c0-30-7-71-15-101-6 23-12 53-19 79 0 14 13 24 20 34z" horiz-adv-x="1741" />

<glyph glyph-name="pause" unicode="&#xf00e;" d="M0 5q0-27 19-46t45-19h127q27 0 45 19t19 46v691q0 27-19 45t-45 19h-127q-27 0-45-19t-19-45v-691z m480 0q0-27 19-46t45-19h127q26 0 45 19t19 46v691q0 27-19 45t-45 19h-127q-27 0-45-19t-19-45v-691z" horiz-adv-x="735.4" />

<glyph glyph-name="play" unicode="&#xf00f;" d="M0 11v677q0 39 22 52t53-8l564-349q20-14 20-33 0-9-5-18t-10-12l-5-4-564-349q-31-20-53-7t-22 51z" horiz-adv-x="658.7" />

<glyph glyph-name="docs" unicode="&#xf0c5;" d="M946 636q23 0 38-16t16-38v-678q0-23-16-38t-38-16h-535q-23 0-38 16t-16 38v160h-303q-23 0-38 16t-16 38v375q0 22 11 49t27 42l228 228q15 16 42 27t49 11h232q23 0 38-16t16-38v-183q38 23 71 23h232z m-303-119l-167-167h167v167z m-357 214l-167-167h167v167z m109-361l176 176v233h-214v-233q0-22-15-37t-38-16h-233v-357h286v143q0 22 11 49t27 42z m534-449v643h-215v-232q0-22-15-38t-38-15h-232v-358h500z" horiz-adv-x="1000" />

<glyph glyph-name="columns" unicode="&#xf0db;" d="M89-7h340v643h-358v-625q0-7 6-13t12-5z m768 18v625h-357v-643h339q8 0 13 5t5 13z m72 678v-678q0-37-27-63t-63-27h-750q-36 0-63 27t-26 63v678q0 37 26 63t63 27h750q37 0 63-27t27-63z" horiz-adv-x="928.6" />

<glyph glyph-name="circle" unicode="&#xf111;" d="M857 350q0-117-57-215t-156-156-215-58-216 58-155 156-58 215 58 215 155 156 216 58 215-58 156-156 57-215z" horiz-adv-x="857.1" />

<glyph glyph-name="mic" unicode="&#xf130;" d="M643 457v-71q0-124-82-215t-204-104v-74h143q15 0 25-11t11-25-11-25-25-11h-357q-15 0-25 11t-11 25 11 25 25 11h143v74q-121 13-204 104t-82 215v71q0 15 11 25t25 11 25-11 10-25v-71q0-103 74-177t176-73 177 73 73 177v71q0 15 11 25t25 11 25-11 11-25z m-143 214v-285q0-74-52-126t-127-53-126 53-52 126v285q0 74 52 127t126 52 127-52 52-127z" horiz-adv-x="642.9" />

</font>
</defs>
</svg>
