<?xml version="1.0" encoding="UTF-8" standalone="no"?>
<svg
   version="1.1"
   x="0"
   y="0"
   width="710.909"
   height="261.713"
   viewBox="0, 0, 710.909, 261.713"
   id="svg49"
   sodipodi:docname="curvy-notes-3.svg"
   inkscape:version="1.1 (c4e8f9ed74, 2021-05-24)"
   xmlns:inkscape="http://www.inkscape.org/namespaces/inkscape"
   xmlns:sodipodi="http://sodipodi.sourceforge.net/DTD/sodipodi-0.dtd"
   xmlns="http://www.w3.org/2000/svg"
   xmlns:svg="http://www.w3.org/2000/svg">
  <defs
     id="defs53" />
  <sodipodi:namedview
     id="namedview51"
     pagecolor="#505050"
     bordercolor="#eeeeee"
     borderopacity="1"
     inkscape:pageshadow="0"
     inkscape:pageopacity="0"
     inkscape:pagecheckerboard="0"
     showgrid="false"
     inkscape:zoom="0.83203336"
     inkscape:cx="302.87247"
     inkscape:cy="141.2203"
     inkscape:window-width="1534"
     inkscape:window-height="1172"
     inkscape:window-x="0"
     inkscape:window-y="0"
     inkscape:window-maximized="1"
     inkscape:current-layer="svg49" />
  <g
     id="ƒŒƒCƒ_x201e__x0081__x005b__x0020_1"
     style="fill:#000000">
    <g
       id="_163514472"
       style="fill:#000000">
      <path
         d="M63.064,105.477 C62.488,104.109 62.128,103.245 62.128,103.245 C59.608,95.973 56.944,88.63 54.208,81.358 C55.36,81.142 56.872,80.926 58.456,80.926 C59.248,80.926 60.112,80.998 60.904,81.142 C61.696,81.286 62.56,81.574 63.352,81.862 C66.52,83.158 69.112,85.894 69.544,91.15 C69.688,92.446 69.688,94.965 68.896,97.701 C68.464,99.069 67.888,100.509 66.952,101.805 C66.52,102.453 65.944,103.101 65.296,103.749 C64.648,104.325 63.928,104.901 63.064,105.477 z M61.048,106.629 L61.048,106.629 C59.392,107.421 57.52,107.997 55.144,108.429 C53.56,108.789 51.4,108.933 49.024,108.789 C47.8,108.717 46.576,108.573 45.28,108.285 C43.984,108.069 42.616,107.709 41.32,107.277 C36.064,105.477 31.24,101.661 29.8,94.461 C29.152,91.15 29.656,87.046 31.312,82.582 C32.104,80.35 33.256,78.046 34.624,75.742 C35.992,73.438 37.72,71.062 39.736,68.83 C40.96,67.39 42.688,65.59 44.56,63.574 C45.208,65.158 46.936,69.478 48.952,74.518 C42.904,77.542 38.152,85.246 39.304,91.438 C39.952,95.037 41.68,97.701 43.912,99.573 C46.216,101.445 49.168,102.381 52.48,102.525 C52.48,102.525 52.264,102.381 51.832,102.021 C51.4,101.661 50.896,101.229 50.248,100.581 C49.024,99.357 47.512,97.629 46.432,95.685 C44.344,91.726 44.056,86.614 51.976,82.294 C55.144,90.43 58.168,98.565 61.048,106.701 z M38.656,35.639 L38.656,35.639 C38.44,31.607 39.664,28.223 41.68,25.847 C43.624,23.471 46.144,22.103 48.016,21.959 C49.384,21.887 50.464,22.319 51.328,22.967 C52.192,23.687 52.768,24.695 53.2,25.775 C54.064,27.935 54.208,30.383 54.352,31.607 C54.568,34.199 54.064,36.287 53.272,38.231 C52.408,40.175 51.184,41.759 49.816,43.271 C47.08,46.223 43.696,48.311 41.968,50.543 C40.24,45.575 38.944,40.247 38.656,35.567 z M74.656,89.998 L74.656,89.998 C74.512,86.902 74.008,84.238 73.072,81.934 C72.208,79.63 70.84,77.686 69.112,76.318 C65.584,73.51 60.04,72.286 52.264,73.51 C51.904,73.582 51.544,73.654 51.184,73.726 C49.6,69.694 47.944,65.59 46.288,61.558 C49.528,58.102 53.056,53.927 55.72,48.959 C58.456,44.135 60.328,38.447 59.752,31.895 C59.464,27.935 57.592,22.607 54.856,18.36 C53.488,16.2 51.904,14.4 50.176,13.104 C48.52,11.808 46.72,11.16 44.992,11.376 L43.912,11.736 C43.912,11.736 40.672,13.824 37.792,17.568 C35.128,21.383 32.896,26.927 34.048,33.839 C35.416,41.903 38.008,50.615 39.376,53.063 C37.864,54.791 35.776,56.878 33.688,59.326 C31.672,61.774 29.512,64.654 27.712,67.966 C24.112,74.518 21.808,82.87 23.752,93.238 C24.616,97.845 27.208,101.517 30.232,104.181 C33.184,106.845 36.568,108.645 39.16,109.509 C40.456,109.941 41.752,110.301 43.12,110.661 C44.488,110.949 45.856,111.237 47.152,111.453 C49.816,111.885 52.624,111.885 55.648,111.237 C57.304,110.949 59.464,110.085 61.84,108.717 C63.784,113.685 65.512,118.293 65.512,118.293 C66.016,119.949 67.24,124.485 66.952,128.877 C66.808,131.037 66.304,133.196 65.224,134.924 C64.648,135.788 64,136.58 63.064,137.156 C62.632,137.444 62.128,137.732 61.624,137.948 C61.048,138.164 60.328,138.452 59.608,138.596 C55.936,139.46 52.336,140.828 51.544,136.58 C53.776,136.364 58.384,132.908 57.664,128.373 C57.016,124.413 55.216,121.821 49.312,123.117 C48.376,123.333 47.368,123.837 46.504,124.629 C45.64,125.349 44.92,126.357 44.272,127.365 C43.048,129.453 42.472,131.829 42.832,133.628 C43.192,135.572 44.632,138.092 47.296,139.82 C48.592,140.684 50.248,141.332 52.192,141.62 C53.992,141.98 56.008,141.98 58.384,141.404 C59.032,141.26 59.752,141.044 60.472,140.756 C60.832,140.612 61.192,140.468 61.552,140.252 C61.912,140.108 62.2,139.964 62.488,139.748 C63.784,139.028 65.008,138.02 66.016,136.652 C67.024,135.284 67.96,133.628 68.464,131.613 C68.968,129.597 69.112,127.221 68.824,124.413 C68.104,120.021 65.44,112.173 63.568,107.493 C66.304,105.621 69.04,103.389 71.128,100.365 C71.632,99.645 72.136,98.853 72.568,98.061 C73,97.269 73.36,96.477 73.648,95.613 C74.224,93.886 74.512,92.086 74.44,90.07 z"
         fill="#373435"
         id="path6043"
         style="fill:#000000" />
      <g
         id="g6127"
         style="fill:#000000">
        <g
           id="g6067"
           style="fill:#000000">
          <path
             d="M273.158,67.606 L265.238,63.43 C263.942,62.71 262.646,61.99 261.278,61.342 L257.102,59.398 L248.678,55.583 L246.59,54.647 L244.43,53.783 L240.038,52.127 C228.518,47.807 216.999,44.423 205.479,41.687 C182.367,36.215 159.471,33.263 137.151,31.391 C131.607,30.887 126.063,30.527 120.519,30.167 C114.975,29.807 109.647,29.519 103.96,29.303 L95.536,28.943 L93.448,28.871 L91.216,28.871 L86.824,28.799 C83.872,28.799 80.992,28.727 77.896,28.799 L68.608,29.159 C65.512,29.231 62.344,29.519 59.176,29.807 C56.008,30.095 52.84,30.311 49.816,30.743 L40.6,31.967 L32.032,33.335 L27.784,34.055 L23.752,34.775 L15.688,36.215 L0.208,38.951 L0.064,38.303 L15.544,35.567 L23.608,34.199 L27.64,33.479 L31.888,32.759 L40.528,31.391 L49.744,30.167 C52.768,29.735 56.008,29.519 59.176,29.231 C62.344,28.943 65.512,28.655 68.608,28.583 L77.896,28.223 C80.92,28.151 83.872,28.223 86.824,28.223 L91.288,28.295 L93.52,28.295 L95.608,28.367 L104.032,28.727 C109.719,28.943 115.119,29.231 120.591,29.591 C126.063,29.951 131.607,30.311 137.223,30.815 C159.543,32.687 182.511,35.639 205.623,41.183 C217.215,43.919 228.734,47.375 240.254,51.695 L244.646,53.351 L246.806,54.215 L248.894,55.151 L257.318,58.966 L261.494,60.91 C262.862,61.558 264.158,62.278 265.454,62.998 L273.374,67.174 z"
             fill="#373435"
             id="path6047"
             style="fill:#000000" />
          <path
             d="M266.75,80.71 L259.19,76.894 C257.894,76.246 256.67,75.598 255.374,75.022 L251.414,73.294 L243.494,69.838 L241.478,68.974 L239.462,68.254 L235.358,66.742 C224.487,62.926 213.543,59.902 202.527,57.526 C180.495,52.775 158.391,50.399 136.647,49.031 C131.175,48.671 125.775,48.455 120.375,48.239 C114.975,48.023 109.647,47.807 104.176,47.735 L95.968,47.591 L93.952,47.519 L91.864,47.519 L87.616,47.591 C84.808,47.663 82,47.663 79.192,47.735 L70.552,48.239 C67.672,48.311 64.72,48.671 61.84,49.031 C58.96,49.319 55.936,49.607 53.128,50.039 L44.56,51.335 L36.352,52.847 L32.248,53.567 L28.288,54.359 L20.368,55.943 L4.96,59.038 L4.816,58.39 L20.224,55.295 L28.144,53.711 L32.104,52.919 L36.208,52.199 L44.416,50.687 L52.984,49.391 C55.792,48.887 58.816,48.671 61.696,48.383 C64.648,48.095 67.528,47.735 70.408,47.663 L79.12,47.159 C82,47.087 84.736,47.087 87.616,47.015 L91.864,46.943 L93.952,46.943 L96.04,47.015 L104.248,47.159 C109.791,47.231 115.047,47.447 120.447,47.663 C125.847,47.879 131.247,48.167 136.719,48.455 C158.463,49.823 180.639,52.199 202.671,57.022 C213.687,59.398 224.702,62.422 235.574,66.31 L239.678,67.822 L241.694,68.542 L243.71,69.406 L251.63,72.862 L255.59,74.59 C256.886,75.166 258.11,75.886 259.406,76.462 L266.966,80.278 z"
             fill="#373435"
             id="path6051"
             style="fill:#000000" />
          <path
             d="M260.342,93.814 L253.07,90.358 C251.846,89.782 250.694,89.206 249.47,88.63 L245.726,87.118 L238.238,84.094 L236.366,83.302 L234.422,82.654 L230.606,81.358 C220.383,78.046 209.943,75.382 199.503,73.366 C178.479,69.262 157.239,67.462 135.999,66.67 C125.415,66.31 114.831,66.094 104.248,66.166 C98.92,66.166 93.664,66.166 88.264,66.382 C85.6,66.526 82.936,66.526 80.272,66.67 L72.208,67.318 C61.48,68.326 50.752,69.982 40.384,72.286 C29.944,74.446 19.72,76.894 9.496,79.198 L9.352,78.55 C19.576,76.246 29.8,73.87 40.24,71.71 C50.608,69.406 61.408,67.75 72.136,66.742 L80.2,66.166 C82.864,66.022 85.528,65.95 88.264,65.878 C93.592,65.662 98.92,65.662 104.248,65.662 C114.903,65.59 125.415,65.806 135.999,66.238 C157.167,67.03 178.551,68.902 199.575,73.006 C210.087,75.022 220.527,77.686 230.75,81.07 L234.566,82.366 L236.51,83.014 L238.382,83.806 L245.87,86.83 L249.614,88.342 C250.838,88.846 252.062,89.494 253.286,90.07 L260.558,93.526 L260.342,93.958 z"
             fill="#373435"
             id="path6055"
             style="fill:#000000" />
          <path
             d="M253.934,106.917 L247.022,103.821 C245.87,103.317 244.718,102.741 243.566,102.309 L240.038,101.013 L233.054,98.349 L231.326,97.701 L229.526,97.125 L225.999,96.045 C216.423,93.166 206.559,90.934 196.623,89.278 C176.679,85.894 156.159,84.67 135.567,84.382 C130.383,84.31 125.199,84.31 120.015,84.382 C114.831,84.454 109.576,84.454 104.464,84.67 L96.76,84.886 L94.816,84.958 L92.944,85.102 L89.128,85.318 C86.608,85.462 84.088,85.606 81.568,85.822 L74.152,86.614 C71.632,86.83 69.256,87.262 66.808,87.622 C64.36,87.982 61.912,88.27 59.464,88.846 L52.12,90.286 L44.704,92.014 L40.96,92.878 L37.144,93.814 L29.584,95.685 L14.248,99.573 L14.104,98.925 L29.44,95.037 L37,93.166 L40.816,92.23 L44.56,91.366 L52.048,89.638 L59.392,88.198 C61.84,87.694 64.288,87.406 66.736,86.974 C69.184,86.614 71.632,86.182 74.152,85.966 L81.568,85.246 C84.088,85.03 86.608,84.958 89.128,84.742 L92.944,84.526 L94.816,84.382 L96.76,84.31 L104.464,84.094 C109.576,83.95 114.831,83.878 120.015,83.806 C125.199,83.734 130.383,83.806 135.567,83.878 C156.231,84.166 176.679,85.462 196.695,88.846 C206.703,90.502 216.567,92.734 226.143,95.613 L229.742,96.693 L231.542,97.269 L233.27,97.917 L240.254,100.581 L243.782,101.877 C244.934,102.309 246.086,102.885 247.238,103.389 L254.15,106.485 z"
             fill="#373435"
             id="path6059"
             style="fill:#000000" />
          <path
             d="M247.526,120.021 L240.902,117.285 C239.822,116.853 238.742,116.349 237.59,115.917 L234.278,114.765 L227.726,112.533 L226.07,111.957 L224.415,111.525 L221.103,110.589 C212.175,108.213 202.887,106.341 193.455,105.045 C174.519,102.381 154.863,101.733 134.847,101.949 C129.807,102.021 124.767,102.165 119.655,102.309 C114.615,102.453 109.36,102.669 104.464,102.957 L96.976,103.389 L95.104,103.461 L93.304,103.605 L89.704,103.893 C87.328,104.109 84.88,104.253 82.576,104.541 L75.736,105.477 C73.432,105.693 71.272,106.197 69.04,106.557 C66.808,106.989 64.648,107.277 62.416,107.853 L55.72,109.365 L48.664,111.237 L45.136,112.173 L41.392,113.181 L33.976,115.197 L18.712,119.445 L18.568,118.797 L33.832,114.549 L41.248,112.533 L44.992,111.525 L48.52,110.589 L55.576,108.789 L62.344,107.277 C64.648,106.701 66.808,106.413 69.04,105.981 C71.272,105.621 73.432,105.117 75.736,104.901 L82.576,104.037 C84.88,103.749 87.328,103.605 89.704,103.389 L93.304,103.101 L95.104,102.957 L96.976,102.885 L104.464,102.453 C109.432,102.165 114.615,101.949 119.655,101.805 C124.767,101.661 129.807,101.517 134.847,101.445 C154.935,101.229 174.591,101.877 193.527,104.613 C202.959,105.909 212.319,107.781 221.247,110.157 L224.559,111.093 L226.215,111.525 L227.87,112.101 L234.422,114.405 L237.734,115.557 C238.814,115.989 239.894,116.493 241.046,116.925 L247.67,119.661 L247.454,120.093 z"
             fill="#373435"
             id="path6063"
             style="fill:#000000" />
        </g>
        <path
           d="M-0.008,38.231 L3.232,37.655 L22.096,118.725 L18.928,119.589 z"
           fill="#373435"
           id="polygon6069"
           style="fill:#000000" />
        <g
           id="g6095"
           style="fill:#000000">
          <g
             id="g6091"
             style="fill:#000000">
            <path
               d="M482.028,203.899 C477.492,202.387 473.1,200.659 468.852,198.787 L465.756,197.347 C464.748,196.843 463.668,196.411 462.588,195.835 L456.18,192.523 C447.541,187.915 439.117,182.803 430.693,177.331 C413.845,166.388 397.357,154.22 380.437,141.62 C371.941,135.356 363.373,129.021 354.445,122.685 L347.821,118.005 L341.629,113.541 L329.03,104.397 L315.998,95.037 C313.838,93.454 311.534,91.87 309.302,90.358 L302.462,85.606 C300.158,84.022 297.71,82.51 295.406,80.926 C293.03,79.414 290.726,77.83 288.206,76.318 L280.718,71.854 C278.198,70.342 275.75,68.83 273.086,67.462 L273.302,67.03 C275.966,68.398 278.414,69.91 280.934,71.422 L288.422,75.886 C290.87,77.398 293.174,78.982 295.622,80.494 C297.998,82.078 300.374,83.59 302.678,85.174 L309.518,89.926 C311.75,91.51 314.054,93.094 316.214,94.677 L329.246,104.037 L341.845,113.181 L348.037,117.645 L354.661,122.325 C363.517,128.589 372.157,134.996 380.581,141.26 C397.501,153.788 413.989,166.028 430.837,176.971 C439.261,182.443 447.685,187.555 456.324,192.163 L462.732,195.475 C463.812,196.051 464.82,196.483 465.9,196.987 L468.996,198.427 C473.244,200.299 477.636,202.027 482.172,203.539 L482.1,203.827 z"
               fill="#373435"
               id="path6071"
               style="fill:#000000" />
            <path
               d="M479.796,212.034 C475.044,210.594 470.364,208.866 465.828,207.067 L462.444,205.627 C461.292,205.123 460.212,204.691 459.06,204.115 L452.293,200.875 C443.293,196.411 434.437,191.299 425.725,185.971 C408.229,175.315 391.309,163.364 374.101,151.268 C365.461,145.22 356.821,139.1 347.893,133.124 L341.27,128.661 L334.862,124.269 L321.974,115.413 C304.622,103.461 286.766,91.078 266.75,80.638 L266.966,80.206 C286.982,90.646 304.91,103.101 322.19,115.053 L335.078,123.909 L341.486,128.301 L348.109,132.764 C356.965,138.74 365.677,144.86 374.317,150.908 C391.525,163.004 408.517,174.955 425.941,185.683 C434.653,191.011 443.509,196.051 452.509,200.587 L459.276,203.827 C460.428,204.403 461.508,204.835 462.66,205.339 L466.044,206.779 C470.58,208.578 475.26,210.234 480.012,211.746 L479.94,212.034 z"
               fill="#373435"
               id="path6075"
               style="fill:#000000" />
            <path
               d="M477.564,220.17 C472.596,218.73 467.628,217.146 462.804,215.346 L459.204,213.906 C457.98,213.402 456.829,212.97 455.605,212.466 C453.229,211.386 450.853,210.378 448.477,209.298 C439.045,204.907 429.829,199.939 420.829,194.683 C402.757,184.243 385.261,172.579 367.765,160.916 C358.981,155.084 350.269,149.252 341.342,143.564 L334.646,139.316 L328.022,135.068 C323.63,132.26 319.238,129.381 314.846,126.501 C297.278,114.981 279.494,103.317 260.27,93.814 L260.486,93.382 C279.71,102.885 297.494,114.621 315.062,126.069 C319.454,128.949 323.846,131.829 328.238,134.636 L334.862,138.884 L341.558,143.132 C350.485,148.82 359.197,154.724 367.981,160.556 C385.477,172.219 402.901,183.883 420.973,194.395 C430.045,199.651 439.189,204.619 448.621,209.01 C450.997,210.09 453.373,211.17 455.749,212.178 C456.901,212.754 458.125,213.186 459.349,213.618 L462.948,215.058 C467.772,216.858 472.74,218.442 477.708,219.882 L477.636,220.17 z"
               fill="#373435"
               id="path6079"
               style="fill:#000000" />
            <path
               d="M475.332,228.306 C470.076,226.938 464.892,225.426 459.78,223.626 L455.965,222.258 C454.669,221.826 453.373,221.322 452.149,220.818 C449.701,219.738 447.181,218.73 444.661,217.65 C434.797,213.33 425.293,208.506 415.933,203.395 C397.213,193.171 379.285,181.795 361.501,170.563 C352.573,164.948 343.789,159.332 334.862,153.932 L328.166,149.9 L321.398,145.724 C316.862,142.988 312.398,140.18 307.934,137.372 C290.078,126.285 272.438,115.341 254.078,106.845 L254.294,106.413 C272.726,114.909 290.366,125.925 308.222,137.012 C312.686,139.82 317.15,142.556 321.686,145.364 L328.454,149.54 L335.15,153.572 C344.077,158.972 352.933,164.588 361.789,170.203 C379.573,181.435 397.429,192.811 416.149,203.035 C425.509,208.146 435.013,213.042 444.877,217.362 C447.325,218.442 449.845,219.45 452.293,220.53 C453.517,221.106 454.813,221.538 456.108,221.97 L459.924,223.338 C465.036,225.138 470.22,226.65 475.476,228.018 L475.404,228.306 z"
               fill="#373435"
               id="path6083"
               style="fill:#000000" />
            <path
               d="M473.1,236.514 C467.628,235.218 462.156,233.706 456.757,231.978 L452.653,230.61 C451.285,230.178 449.917,229.674 448.621,229.17 C446.029,228.162 443.437,227.154 440.845,226.074 C430.621,221.826 420.685,217.074 410.965,212.106 C391.597,202.099 373.237,191.011 355.165,180.211 C346.165,174.811 337.238,169.483 328.31,164.372 L321.542,160.556 L314.558,156.524 L300.806,148.46 C282.662,137.804 265.166,127.581 247.598,120.093 L247.814,119.661 C265.454,127.221 282.95,137.444 301.094,148.1 L314.846,156.164 L321.83,160.196 L328.598,164.012 C337.526,169.124 346.453,174.451 355.453,179.851 C373.525,190.651 391.885,201.739 411.253,211.746 C420.901,216.714 430.837,221.538 441.061,225.714 C443.653,226.794 446.245,227.802 448.837,228.81 C450.133,229.314 451.501,229.818 452.869,230.25 L456.973,231.618 C462.444,233.346 467.844,234.858 473.316,236.154 L473.244,236.442 z"
               fill="#373435"
               id="path6087"
               style="fill:#000000" />
          </g>
          <path
             d="M273.374,67.246 L273.806,67.462 L247.886,120.165 L247.526,120.021 z"
             fill="#373435"
             id="polygon6093"
             style="fill:#000000" />
        </g>
        <g
           id="g6125"
           style="fill:#000000">
          <g
             id="g6117"
             style="fill:#000000">
            <path
               d="M703.354,166.46 C690.25,182.083 674.339,194.971 656.699,204.043 C639.059,213.114 619.691,218.514 600.395,220.098 C598.019,220.314 595.571,220.386 593.195,220.458 C592.043,220.458 590.819,220.458 589.667,220.458 C589.091,220.458 588.515,220.458 587.939,220.386 C587.435,220.386 586.787,220.314 586.427,220.314 L578.579,219.81 L570.803,219.306 C560.508,218.586 550.212,217.65 540.132,216.354 C519.972,213.834 500.172,210.09 482.028,203.899 L482.1,203.611 C500.244,209.802 519.972,213.546 540.204,216.138 C550.284,217.434 560.58,218.37 570.875,219.09 L578.651,219.594 L586.499,220.098 C586.859,220.17 587.507,220.17 588.011,220.17 C588.587,220.17 589.163,220.17 589.667,220.242 C590.819,220.242 591.971,220.242 593.195,220.242 C595.571,220.17 597.947,220.098 600.323,219.882 C619.619,218.298 638.987,212.97 656.627,203.899 C674.267,194.899 690.178,182.011 703.282,166.388 z"
               fill="#373435"
               id="path6097"
               style="fill:#000000" />
            <path
               d="M705.226,167.828 C692.41,184.027 676.499,197.563 658.643,207.283 C640.859,217.074 621.059,223.194 601.115,225.354 C598.595,225.642 596.147,225.858 593.627,225.93 C591.179,226.074 588.659,226.074 586.427,226.002 L578.579,225.714 L570.732,225.354 C560.292,224.85 549.996,224.202 539.7,223.194 C519.18,221.178 498.876,217.866 479.796,211.962 L479.868,211.674 C498.948,217.578 519.18,220.89 539.7,222.906 C549.996,223.914 560.364,224.634 570.732,225.138 L578.579,225.498 L586.427,225.786 C588.659,225.858 591.179,225.786 593.627,225.714 C596.075,225.57 598.595,225.426 601.043,225.138 C620.987,222.978 640.715,216.93 658.571,207.139 C676.427,197.419 692.266,183.883 705.154,167.684 L705.226,167.756 z"
               fill="#373435"
               id="path6101"
               style="fill:#000000" />
            <path
               d="M707.098,169.196 C694.498,185.899 678.731,200.155 660.659,210.594 C642.659,221.106 622.499,227.874 601.907,230.682 C596.795,231.402 591.539,231.834 586.427,231.834 C581.171,231.762 575.916,231.69 570.66,231.618 C560.148,231.402 549.708,230.97 539.268,230.178 C518.388,228.666 497.58,225.858 477.564,220.242 L477.636,219.954 C497.652,225.57 518.388,228.378 539.268,229.962 C549.708,230.754 560.148,231.186 570.66,231.402 C575.916,231.546 581.171,231.546 586.427,231.618 C591.539,231.618 596.723,231.186 601.835,230.538 C622.427,227.73 642.515,221.034 660.515,210.522 C678.587,200.083 694.354,185.827 706.954,169.196 L707.026,169.268 z"
               fill="#373435"
               id="path6105"
               style="fill:#000000" />
            <path
               d="M708.898,170.563 C696.586,187.771 680.819,202.747 662.531,213.906 C644.315,225.138 623.795,232.626 602.555,236.01 C599.891,236.442 597.227,236.802 594.563,237.018 C591.827,237.306 589.163,237.45 586.355,237.522 C581.099,237.594 575.843,237.666 570.516,237.666 C559.932,237.666 549.348,237.522 538.764,237.018 C517.596,235.938 496.212,233.634 475.26,228.306 L475.332,228.018 C496.284,233.346 517.596,235.722 538.764,236.802 C549.348,237.306 559.932,237.522 570.516,237.522 C575.771,237.522 581.099,237.45 586.355,237.378 C589.163,237.306 591.827,237.162 594.563,236.874 C597.227,236.586 599.891,236.298 602.555,235.866 C623.795,232.482 644.243,224.994 662.459,213.834 C680.675,202.675 696.442,187.771 708.826,170.563 L708.898,170.635 z"
               fill="#373435"
               id="path6109"
               style="fill:#000000" />
            <path
               d="M710.77,171.931 C698.674,189.715 682.979,205.339 664.547,217.218 C646.115,229.17 625.307,237.306 603.419,241.338 C600.683,241.842 597.875,242.274 595.139,242.634 C593.771,242.778 592.331,242.922 590.891,243.066 C589.451,243.21 588.083,243.282 586.427,243.354 L578.507,243.642 L570.516,243.858 C559.86,244.146 549.132,244.218 538.404,243.93 C516.876,243.354 495.06,241.554 473.172,236.442 L473.244,236.154 C495.132,241.194 516.948,243.066 538.476,243.642 C549.276,243.93 559.932,243.858 570.588,243.57 L578.579,243.354 L586.499,243.066 C588.083,242.994 589.523,242.922 590.963,242.778 C592.403,242.634 593.771,242.49 595.211,242.346 C598.019,241.986 600.755,241.554 603.491,241.122 C625.379,237.09 646.187,228.954 664.619,217.074 C683.051,205.195 698.746,189.643 710.842,171.859 L710.914,171.931 z"
               fill="#373435"
               id="path6113"
               style="fill:#000000" />
          </g>
          <path
             d="M482.1,203.683 L482.532,203.827 L473.532,236.586 L473.1,236.514 z"
             fill="#373435"
             id="polygon6119"
             style="fill:#000000" />
          <path
             d="M701.194,168.836 L703.354,166.388 L710.77,171.931 L708.826,174.667 z"
             fill="#373435"
             id="polygon6121"
             style="fill:#000000" />
          <path
             d="M706.81,177.475 C706.162,178.411 705.442,179.275 704.722,180.139 L696.874,173.515 C697.594,172.723 698.386,172.003 699.034,171.211 L706.738,177.475 z"
             fill="#373435"
             id="path6123"
             style="fill:#000000" />
        </g>
      </g>
    </g>
    <path
       d="M684.059,176.467 C681.755,175.603 680.387,175.171 679.955,175.027 L679.091,173.659 L678.659,173.947 L686.651,186.331 C685.643,186.115 684.491,186.691 683.771,187.771 C682.907,189.139 683.051,190.723 684.131,191.371 C685.139,192.019 686.723,191.515 687.587,190.147 C688.234,189.139 688.307,187.915 687.802,187.123 L687.802,187.123 L681.611,177.619 C686.003,177.547 687.731,179.995 687.731,179.995 C689.458,182.659 689.099,185.467 689.099,185.467 C689.891,183.019 688.451,179.995 688.451,179.995 C687.587,178.627 686.867,177.475 684.059,176.467 z"
       fill="#373435"
       id="path6130"
       style="fill:#000000" />
    <path
       d="M667.067,193.603 C664.475,193.819 662.963,193.891 662.459,193.963 L661.091,193.027 L660.803,193.459 L673.763,201.883 C672.755,202.099 671.819,203.107 671.603,204.547 C671.387,206.203 672.179,207.714 673.475,207.858 C674.771,208.074 675.995,206.851 676.211,205.195 C676.427,203.899 675.923,202.747 675.131,202.171 L675.131,202.171 L665.123,195.691 C669.299,193.747 672.035,195.331 672.035,195.331 C674.843,197.131 675.635,199.939 675.635,199.939 C675.347,197.275 672.611,194.971 672.611,194.971 C671.171,194.035 670.019,193.243 666.923,193.459 z"
       fill="#373435"
       id="path6133"
       style="fill:#000000" />
    <path
       d="M549.564,253.289 C552.804,256.385 554.676,258.185 555.324,258.833 L555.756,261.713 L556.62,261.569 L552.66,235.002 C554.1,236.154 556.476,236.082 558.564,234.786 C561.012,233.202 561.948,230.394 560.724,228.522 C559.5,226.65 556.548,226.362 554.1,227.946 C552.228,229.17 551.22,231.114 551.436,232.77 L551.436,232.77 L554.46,253.145 C547.116,249.905 546.108,244.578 546.108,244.578 C545.244,238.89 547.98,234.57 547.98,234.57 C544.884,238.026 544.956,244.146 544.956,244.146 C545.388,247.025 545.676,249.545 549.564,253.217 z"
       fill="#373435"
       id="path6136"
       style="fill:#000000" />
    <path
       d="M374.173,156.092 C370.429,151.988 368.269,149.612 367.549,148.748 L367.261,145.148 L366.181,145.22 L368.917,178.483 C367.189,176.971 364.237,176.827 361.573,178.267 C358.405,179.995 356.965,183.451 358.333,185.827 C359.701,188.275 363.373,188.779 366.469,187.051 C368.917,185.683 370.285,183.379 370.213,181.291 L370.213,181.291 L368.125,155.732 C376.981,160.34 377.773,167.036 377.773,167.036 C378.349,174.163 374.605,179.275 374.605,179.275 C378.781,175.243 379.069,167.612 379.069,167.612 C378.781,163.94 378.565,160.844 374.101,155.948 z"
       fill="#373435"
       id="path6139"
       style="fill:#000000" />
    <path
       d="M229.958,80.422 C234.422,82.294 237.014,83.374 237.878,83.734 L239.39,86.47 L240.254,85.966 L225.926,60.838 C227.798,61.414 230.246,60.406 231.758,58.318 C233.558,55.799 233.486,52.559 231.542,51.191 C229.598,49.751 226.502,50.687 224.702,53.207 C223.335,55.151 223.047,57.526 223.911,59.11 L223.911,59.11 L234.926,78.406 C226.286,78.046 223.191,73.078 223.191,73.078 C220.095,67.678 221.175,62.278 221.175,62.278 C219.375,66.958 221.895,73.078 221.895,73.078 C223.479,75.814 224.775,78.19 230.03,80.422 z"
       fill="#373435"
       id="path6142"
       style="fill:#000000" />
    <path
       d="M134.055,23.831 C129.519,14.4 126.855,8.928 125.919,7.056 L127.287,0.432 L125.271,-0 L112.599,61.63 C110.367,57.958 105.04,56.087 99.496,57.382 C92.872,58.894 88.48,64.294 89.632,69.406 C90.784,74.518 97.12,77.47 103.744,75.958 C108.856,74.806 112.599,71.35 113.535,67.462 L113.535,67.462 L123.327,20.159 C136.863,33.191 134.775,45.719 134.775,45.719 C132.039,58.894 122.535,66.238 122.535,66.238 C132.183,61.198 136.863,47.519 136.863,47.519 C138.231,40.751 139.527,35.063 134.127,23.831 z"
       fill="#373435"
       id="path6145"
       style="fill:#000000" />
    <path
       d="M524.58,215.922 L506.004,200.155 L505.428,199.651 L503.412,202.027 L492.324,215.058 C492.252,213.474 490.812,211.89 488.796,211.314 C486.348,210.594 483.972,211.602 483.468,213.474 C482.964,215.346 484.476,217.434 486.924,218.082 C488.796,218.586 490.668,218.154 491.604,217.074 L491.604,217.074 L503.988,202.459 L522.564,218.226 L511.476,231.258 C511.404,229.674 509.964,228.09 507.948,227.514 C505.5,226.794 503.124,227.802 502.62,229.674 C502.116,231.546 503.628,233.634 506.076,234.282 C507.948,234.786 509.82,234.354 510.756,233.274 L510.756,233.274 L523.14,218.658 L525.156,216.282 L524.58,215.778 z"
       fill="#373435"
       id="path6148"
       style="fill:#000000" />
    <path
       d="M357.181,125.925 L330.902,116.781 L330.038,116.493 L328.886,119.877 L322.406,138.308 C321.686,136.652 319.526,135.572 317.15,135.788 C314.27,136.076 312.11,138.092 312.326,140.252 C312.542,142.484 314.99,144.068 317.87,143.78 C320.102,143.564 321.83,142.34 322.478,140.756 L322.478,140.756 L329.678,120.093 L355.957,129.237 L349.477,147.668 C348.757,146.012 346.597,144.932 344.221,145.148 C341.341,145.436 339.182,147.452 339.398,149.612 C339.614,151.844 342.061,153.428 344.941,153.14 C347.173,152.924 348.901,151.7 349.549,150.116 L349.549,150.116 L356.749,129.453 L357.901,126.069 L357.037,125.781 z"
       fill="#373435"
       id="path6151"
       style="fill:#000000" />
    <path
       d="M211.095,83.086 L183.951,61.63 L183.087,60.982 L180.279,64.51 L165.159,83.59 C164.943,81.358 162.855,79.198 159.975,78.478 C156.519,77.614 153.135,79.126 152.487,81.79 C151.839,84.454 154.071,87.334 157.599,88.198 C160.263,88.846 162.855,88.126 164.223,86.542 L164.223,86.542 L181.143,65.158 L208.287,86.614 L193.167,105.693 C192.951,103.461 190.863,101.301 187.983,100.581 C184.527,99.717 181.143,101.229 180.495,103.893 C179.847,106.557 182.079,109.437 185.607,110.301 C188.271,110.949 190.863,110.229 192.231,108.645 L192.231,108.645 L209.151,87.262 L211.959,83.734 z"
       fill="#373435"
       id="path6154"
       style="fill:#000000" />
    <path
       d="M697.45,202.459 L697.522,183.379 L697.522,183.379 C697.594,182.299 698.386,181.147 699.754,180.499 C701.482,179.707 703.354,180.139 704.002,181.507 C704.578,182.875 703.714,184.531 701.986,185.323 C700.546,185.971 698.962,185.755 698.17,184.891 L698.098,202.459 L697.522,202.459 z M698.602,184.819 L698.602,184.819 C698.962,185.323 700.33,184.819 701.554,183.739 C702.778,182.659 703.498,181.435 703.138,181.003 C702.778,180.499 701.41,181.003 700.186,182.083 C698.962,183.163 698.242,184.387 698.602,184.819 z"
       fill="#373435"
       id="path6157"
       style="fill:#000000" />
    <path
       d="M610.619,211.602 L622.427,224.634 L622.427,224.634 C623.075,225.426 623.219,226.722 622.715,227.946 C621.995,229.53 620.483,230.394 619.259,229.89 C618.035,229.386 617.603,227.658 618.251,226.002 C618.827,224.634 620.051,223.842 621.131,223.914 L610.259,211.962 z M620.843,224.274 L620.843,224.274 C620.267,224.202 619.691,225.354 619.475,226.866 C619.259,228.378 619.547,229.602 620.123,229.674 C620.699,229.746 621.275,228.594 621.491,227.082 C621.707,225.57 621.419,224.346 620.843,224.274 z"
       fill="#373435"
       id="path6160"
       style="fill:#000000" />
    <path
       d="M292.094,166.316 L281.942,134.564 L281.942,134.564 C281.438,132.692 282.23,130.317 284.102,128.589 C286.55,126.357 289.934,126.069 291.662,128.013 C293.39,129.885 292.814,133.268 290.366,135.5 C288.278,137.372 285.614,137.876 283.742,136.868 L293.102,166.1 L292.166,166.388 z M284.462,136.436 L284.462,136.436 C285.398,137.012 287.342,135.5 288.854,133.124 C290.366,130.677 290.87,128.301 289.934,127.725 C288.998,127.149 287.054,128.661 285.542,131.037 C284.03,133.484 283.526,135.86 284.462,136.436 z"
       fill="#373435"
       id="path6163"
       style="fill:#000000" />
    <path
       d="M93.088,125.349 L114.903,90.214 L114.903,90.214 C116.271,88.198 119.079,87.046 122.247,87.478 C126.351,87.982 129.303,91.006 128.871,94.102 C128.439,97.269 124.839,99.357 120.735,98.853 C117.351,98.421 114.687,96.261 114.183,93.67 L94.096,125.997 L93.016,125.349 z M115.191,94.102 L115.191,94.102 C115.407,95.397 118.359,96.045 121.887,95.541 C125.415,95.037 128.079,93.526 127.863,92.23 C127.647,90.934 124.695,90.286 121.167,90.79 C117.639,91.294 114.975,92.806 115.191,94.102 z"
       fill="#373435"
       id="path6166"
       style="fill:#000000" />
    <path
       d="M255.878,103.965 L256.67,99.789 L257.174,96.909 L257.966,92.734 L261.35,74.446 L261.35,74.446 C261.782,72.502 263.654,70.774 266.174,70.126 C269.486,69.262 272.654,70.702 273.302,73.222 C273.95,75.742 271.79,78.478 268.55,79.342 C265.814,80.062 263.15,79.198 261.926,77.398 L259.046,93.022 L291.23,98.925 L294.542,80.638 L294.542,80.638 C294.974,78.694 296.846,76.966 299.366,76.318 C302.678,75.454 305.846,76.894 306.494,79.414 C307.142,81.934 304.982,84.67 301.742,85.534 C299.006,86.254 296.342,85.39 295.118,83.59 L292.238,99.213 L291.446,103.389 L290.942,106.269 L290.15,110.445 L289.142,110.229 L256.958,104.325 L255.95,104.109 z M257.678,100.005 L257.678,100.005 L289.862,105.909 L290.366,103.029 L258.182,97.125 z"
       fill="#373435"
       id="path6169"
       style="fill:#000000" />
    <path
       d="M580.811,252.209 L580.451,250.049 L580.235,248.537 L579.875,246.377 L578.363,236.874 L578.363,236.874 C578.219,235.866 578.867,234.642 579.947,233.922 C581.387,232.986 583.187,233.13 583.979,234.21 C584.699,235.362 584.123,237.018 582.683,238.026 C581.459,238.818 580.019,238.89 579.083,238.17 L580.379,246.305 L597.155,243.714 L595.643,234.21 L595.643,234.21 C595.499,233.202 596.147,231.978 597.227,231.258 C598.667,230.322 600.467,230.466 601.259,231.546 C601.979,232.698 601.403,234.354 599.963,235.362 C598.739,236.154 597.299,236.226 596.363,235.506 L597.659,243.642 L598.019,245.801 L598.235,247.313 L598.595,249.473 L598.091,249.545 L581.315,252.137 z M581.027,249.977 L581.027,249.977 L597.803,247.385 L597.587,245.873 L580.811,248.465 z"
       fill="#373435"
       id="path6172"
       style="fill:#000000" />
    <path
       d="M663.467,206.347 L663.107,208.29 L662.891,209.586 L662.531,211.53 L660.947,219.954 L660.947,219.954 C660.731,220.818 659.867,221.682 658.715,221.898 C657.203,222.258 655.763,221.61 655.475,220.458 C655.187,219.306 656.195,218.01 657.707,217.65 C659.003,217.362 660.227,217.722 660.731,218.586 L662.099,211.458 L653.099,209.73 L651.515,218.154 L651.515,218.154 C651.299,219.018 650.435,219.882 649.283,220.098 C647.771,220.458 646.331,219.81 646.043,218.658 C645.755,217.506 646.763,216.21 648.275,215.85 C649.571,215.562 650.795,215.922 651.299,216.786 L652.667,209.658 L643.667,207.93 L642.083,216.354 L642.083,216.354 C641.867,217.218 641.003,218.082 639.851,218.298 C638.339,218.658 636.899,218.01 636.611,216.858 C636.323,215.706 637.331,214.41 638.843,214.05 C640.139,213.762 641.363,214.122 641.867,214.986 L643.235,207.858 L643.595,205.915 L643.811,204.619 L644.171,202.675 L644.675,202.747 L653.675,204.475 L654.107,204.547 L663.107,206.275 L663.611,206.347 z M652.955,207.714 L652.955,207.714 L653.171,206.419 L644.171,204.691 L643.955,205.987 z M662.675,208.218 L662.675,208.218 L653.675,206.491 L653.459,207.786 L662.459,209.514 z"
       fill="#373435"
       id="path6175"
       style="fill:#000000" />
    <path
       d="M392.101,216.642 L405.061,219.594 L405.709,219.738 L418.669,222.69 L419.317,222.834 L419.965,220.098 L423.421,205.123 C424.141,206.347 425.941,206.995 427.741,206.635 C429.973,206.203 431.485,204.403 431.125,202.675 C430.765,200.947 428.677,199.939 426.517,200.371 C424.789,200.731 423.565,201.811 423.205,203.107 L423.205,203.107 L419.389,219.81 L406.429,216.858 L409.885,201.883 C410.605,203.107 412.333,203.755 414.205,203.395 C416.437,202.963 417.949,201.163 417.589,199.435 C417.229,197.707 415.141,196.699 412.909,197.131 C411.181,197.491 409.957,198.571 409.597,199.867 L409.597,199.867 L405.781,216.57 L392.821,213.618 L396.277,198.643 C396.997,199.867 398.797,200.515 400.597,200.155 C402.829,199.723 404.341,197.923 403.981,196.195 C403.621,194.467 401.533,193.459 399.373,193.891 C397.645,194.251 396.421,195.331 396.061,196.627 L396.061,196.627 L392.245,213.33 L391.597,216.066 L392.245,216.21 z"
       fill="#373435"
       id="path6178"
       style="fill:#000000" />
    <path
       d="M463.524,197.779 C463.236,199.795 462.372,200.875 461.436,202.027 C461.436,202.027 457.98,205.195 453.949,204.907 C453.949,204.907 458.268,204.547 460.932,201.091 C460.932,201.091 461.58,200.227 461.724,198.499 C460.788,198.787 459.708,198.931 458.629,198.859 C458.629,198.859 460.068,198.715 461.796,197.995 C461.868,196.339 461.58,194.107 460.212,191.227 L451.573,202.315 L451.573,202.315 C450.565,203.539 448.549,204.115 446.461,203.611 C443.797,202.963 441.997,200.803 442.501,198.715 C443.005,196.627 445.597,195.475 448.261,196.123 C450.493,196.627 452.077,198.283 452.293,200.011 L467.988,179.851 L468.636,180.355 L467.556,181.723 C467.628,182.443 467.844,184.603 468.276,188.347 C468.708,192.811 467.556,194.251 466.116,195.979 C466.116,195.979 465.108,196.915 463.524,197.707 z M463.596,196.987 L463.596,196.987 C464.316,196.483 464.964,195.907 465.612,195.115 C465.612,195.115 467.988,191.731 464.892,185.251 L462.876,187.843 C462.948,188.563 463.164,190.723 463.596,194.467 C463.668,195.475 463.74,196.267 463.668,196.987 z"
       fill="#373435"
       id="path6181"
       style="fill:#000000" />
  </g>
</svg>
