<?xml version="1.0" encoding="UTF-8"?>
<!DOCTYPE svg PUBLIC "-//W3C//DTD SVG 1.1//EN" "http://www.w3.org/Graphics/SVG/1.1/DTD/svg11.dtd">
<svg version="1.1" xmlns="http://www.w3.org/2000/svg" xmlns:xlink="http://www.w3.org/1999/xlink" x="0" y="0" width="841.889" height="288" viewBox="0, 0, 841.889, 288">
  <g id="ƒŒƒCƒ_x201e__x0081__x005b__x0020_1">
    <g id="_153951488">
      <path d="M-0.576,151.769 C20.088,156.161 43.056,156.377 67.896,153.713 C259.99,132.761 564.331,-64.873 779.681,94.386 C797.465,107.562 814.673,123.114 831.089,141.473 C834.545,145.289 837.929,149.249 841.241,153.281" fill-opacity="0" stroke="#000000" stroke-width="1"/>
      <path d="M841.313,158.033 C838.001,154.001 834.617,150.113 831.161,146.297 C814.601,127.865 797.249,112.242 779.321,99.21 C564.835,-56.882 262.15,150.473 69.984,176.176 C44.352,179.632 20.664,179.92 -0.576,175.528" fill-opacity="0" stroke="#000000" stroke-width="1"/>
      <path d="M841.313,162.784 C838.001,158.753 834.617,154.865 831.233,151.121 C814.529,132.545 797.033,116.922 778.961,104.034 C565.267,-48.818 264.238,168.184 71.999,198.64 C45.576,202.887 21.168,203.607 -0.648,199.288" fill-opacity="0" stroke="#000000" stroke-width="1"/>
      <path d="M841.313,167.536 C838.001,163.576 834.689,159.689 831.305,155.945 C814.457,137.225 796.817,121.674 778.601,108.786 C565.771,-40.898 266.326,185.824 74.087,221.031 C46.872,226.071 21.744,227.223 -0.576,222.903" fill-opacity="0" stroke="#000000" stroke-width="1"/>
      <path d="M841.313,172.36 C629.275,-83.953 288.43,199.432 76.175,243.494 C48.168,249.326 22.392,250.982 -0.576,246.662" fill-opacity="0" stroke="#000000" stroke-width="1"/>
    </g>
    <g id="_153952280">
      <path d="M841.313,36.068 C748.938,-68.185 552.235,159.329 296.638,191.728 C204.478,203.391 104.759,189.712 -0.576,125.993" fill-opacity="0" stroke="#000000" stroke-width="1"/>
      <path d="M841.313,42.044 C748.938,-62.21 552.235,174.232 296.638,211.311 C204.478,224.703 104.759,212.103 -0.576,148.385" fill-opacity="0" stroke="#000000" stroke-width="1"/>
      <path d="M841.313,48.092 C748.938,-56.162 552.235,189.208 296.638,230.967 C204.478,246.014 104.759,234.639 -0.576,170.92" fill-opacity="0" stroke="#000000" stroke-width="1"/>
      <path d="M841.313,54.067 C748.938,-50.186 552.235,204.039 296.638,250.478 C204.478,267.254 104.759,257.03 -0.576,193.312" fill-opacity="0" stroke="#000000" stroke-width="1"/>
      <path d="M-0.576,215.775 C104.759,279.493 204.55,288.565 296.638,270.134 C552.235,218.943 748.938,-44.138 841.313,60.115" fill-opacity="0" stroke="#000000" stroke-width="1"/>
    </g>
    <path d="M705.162,48.596 L706.098,48.596 C706.242,49.963 706.53,51.115 706.962,52.123 C707.25,53.059 707.682,53.851 708.186,54.643 L709.05,55.795 L710.346,57.307 L712.722,60.043 C714.522,62.347 715.458,64.795 715.458,67.315 C715.458,68.611 715.17,70.051 714.666,71.635 C714.09,73.219 713.298,74.947 712.146,76.819 L711.57,76.819 L712.506,74.587 L713.442,72.211 C713.658,71.563 713.874,70.915 714.018,70.195 L714.234,68.755 L714.306,68.107 C714.306,67.747 714.306,67.387 714.306,67.027 C714.234,66.739 714.162,66.451 714.09,66.163 C714.018,65.875 713.874,65.443 713.658,64.867 C713.298,63.787 712.65,62.779 711.786,61.915 C710.994,60.907 710.058,60.187 709.194,59.683 C708.762,59.395 708.186,59.179 707.682,58.963 C707.106,58.819 706.602,58.675 706.17,58.675 L706.17,79.915 C706.17,81.067 705.81,82.147 705.018,83.155 C704.442,84.019 703.506,84.739 702.282,85.243 C701.058,85.819 699.906,86.107 698.826,86.107 C697.746,86.107 696.882,85.819 696.09,85.243 C695.37,84.739 695.01,83.875 695.01,82.795 C695.01,81.643 695.37,80.635 696.09,79.699 C696.81,78.835 697.746,78.043 698.898,77.467 C700.05,76.891 701.13,76.603 702.138,76.603 C703.578,76.603 704.658,76.891 705.306,77.467 L705.306,58.243 L705.306,48.452 z" fill="#000000"/>
    <path d="M546.691,9.357 L548.131,9.501 C548.131,11.661 548.347,13.604 548.779,15.26 C549.067,16.772 549.571,18.14 550.219,19.436 L551.371,21.452 L553.099,24.116 L556.267,28.94 C558.643,32.972 559.579,36.932 559.147,40.892 C558.931,42.908 558.211,45.14 557.059,47.516 C555.835,49.891 554.179,52.483 552.091,55.147 L551.227,55.003 L553.171,51.691 L555.043,48.164 C555.547,47.228 555.979,46.148 556.339,45.068 L556.915,42.836 L557.131,41.828 C557.203,41.252 557.275,40.748 557.347,40.172 C557.275,39.74 557.275,39.236 557.203,38.804 C557.203,38.372 557.059,37.652 556.771,36.644 C556.411,34.844 555.619,33.188 554.467,31.604 C553.387,29.876 552.163,28.508 550.795,27.572 C550.147,26.996 549.355,26.564 548.491,26.204 C547.627,25.844 546.835,25.556 546.187,25.484 L542.083,59.035 C541.867,60.835 541.075,62.491 539.635,63.859 C538.555,65.083 536.971,66.019 534.883,66.667 C532.867,67.315 530.924,67.531 529.196,67.315 C527.54,67.099 526.172,66.523 525.092,65.443 C524.012,64.435 523.58,63.139 523.796,61.411 C524.012,59.611 524.804,58.027 526.1,56.731 C527.396,55.435 528.98,54.427 530.996,53.779 C532.94,53.131 534.74,52.915 536.251,53.059 C538.483,53.347 540.139,53.995 541.075,55.003 L544.819,24.692 L546.691,9.213 z" fill="#000000"/>
    <path d="M399.381,178.696 L401.181,178.336 C401.973,180.856 402.909,183.088 404.061,184.888 C404.997,186.544 406.077,187.984 407.301,189.28 L409.389,191.224 L412.413,193.744 L417.885,198.208 C422.205,202.095 424.724,206.415 425.66,211.239 C426.092,213.687 426.092,216.567 425.66,219.807 C425.156,223.047 424.148,226.647 422.637,230.607 L421.557,230.823 L422.637,226.215 L423.573,221.391 C423.789,220.095 423.932,218.727 424.005,217.287 L423.861,214.407 L423.717,213.111 C423.573,212.463 423.501,211.743 423.357,211.023 C423.141,210.519 422.924,209.943 422.709,209.439 C422.493,208.935 422.061,208.143 421.413,207.063 C420.333,205.119 418.749,203.463 416.805,201.951 C414.861,200.295 412.917,199.216 410.973,198.568 C409.965,198.208 408.885,197.92 407.733,197.776 C406.581,197.632 405.573,197.632 404.781,197.776 L412.269,238.742 C412.701,240.974 412.341,243.134 411.189,245.366 C410.325,247.238 408.813,248.894 406.653,250.406 C404.493,251.918 402.333,252.854 400.245,253.286 C398.229,253.646 396.357,253.43 394.773,252.638 C393.189,251.846 392.181,250.478 391.821,248.39 C391.389,246.158 391.749,244.07 392.757,242.054 C393.765,240.11 395.349,238.31 397.365,236.799 C399.453,235.287 401.397,234.351 403.269,234.063 C406.005,233.559 408.165,233.775 409.677,234.639 L402.909,197.632 L399.453,178.768 z" fill="#000000"/>
    <path d="M352.077,99.426 L361.509,41.972 L363.093,42.26 C362.949,43.34 362.877,44.204 362.949,44.996 C363.021,45.788 363.093,46.58 363.381,47.372 L364.317,49.387 C364.605,49.963 365.037,50.611 365.685,51.331 L370.149,57.235 C373.533,61.843 374.757,66.811 373.893,72.211 C373.605,73.939 373.029,75.739 372.237,77.539 C372.453,79.267 372.453,80.923 372.165,82.651 C371.949,84.163 371.445,85.747 370.725,87.33 C371.517,88.77 371.661,90.858 371.157,93.738 L370.509,96.69 C370.437,97.194 370.293,97.554 370.149,97.914 C369.789,98.634 369.573,99.138 369.429,99.498 C368.565,101.442 367.485,103.098 366.189,104.466 L365.181,104.322 C367.701,100.65 369.213,97.41 369.645,94.674 C369.933,92.73 369.861,91.002 369.429,89.49 C368.997,87.978 368.205,86.467 367.053,85.099 C366.189,83.875 365.037,82.507 363.525,81.067 L357.621,75.595 L352.941,103.89 C352.653,105.618 351.789,107.202 350.277,108.57 C348.693,109.938 346.965,110.946 344.949,111.522 C342.933,112.098 340.989,112.242 339.189,111.954 C337.389,111.666 335.877,110.946 334.797,109.794 C333.789,108.642 333.429,107.202 333.717,105.402 C334.005,103.602 334.941,102.09 336.453,100.722 C337.893,99.426 339.765,98.49 341.925,97.842 C344.013,97.194 345.885,97.05 347.469,97.338 C349.485,97.698 350.997,98.418 352.077,99.57 z M359.493,64.579 L359.493,64.579 C359.349,65.515 359.349,66.451 359.421,67.315 C359.565,68.251 359.853,69.187 360.285,70.195 C361.005,71.779 362.013,73.507 363.309,75.235 L367.197,80.491 C368.565,82.291 369.501,83.875 369.933,85.171 L370.221,83.731 C371.229,77.467 367.701,71.059 359.493,64.507 z M361.437,53.779 L361.437,53.779 C361.149,55.579 361.293,57.163 361.941,58.603 C362.517,60.115 363.669,61.987 365.325,64.147 L367.557,67.171 L369.285,69.619 C370.149,70.987 370.941,72.787 371.661,75.091 L372.165,73.003 C372.597,70.411 372.309,67.963 371.301,65.731 C370.941,64.867 370.653,64.219 370.509,63.931 C370.365,63.643 370.005,63.139 369.573,62.491 C368.997,61.555 368.349,60.619 367.485,59.755 C366.189,58.315 364.245,56.299 361.509,53.779 z" fill="#000000"/>
    <path d="M424.58,98.706 L409.101,37.004 L411.189,36.5 C411.549,37.868 411.981,39.092 412.629,40.172 C413.277,41.252 414.069,42.26 414.933,43.052 C416.373,44.348 418.605,45.788 421.629,47.372 C424.652,48.956 427.1,50.539 429.188,52.051 L432.932,55.291 C434.084,56.299 435.02,57.307 435.812,58.459 C437.54,60.691 438.764,63.355 439.484,66.379 C439.772,67.603 439.988,68.827 440.132,70.051 C440.276,71.347 440.348,72.715 440.276,74.299 C442.076,75.811 443.516,78.547 444.524,82.579 L445.244,86.539 C445.388,87.115 445.46,87.69 445.532,88.194 C445.46,89.13 445.46,89.85 445.46,90.354 C445.46,93.018 445.028,95.394 444.092,97.626 L442.868,97.914 C444.092,92.442 444.236,87.906 443.3,84.235 C441.572,77.467 436.172,72.931 427.1,70.699 L426.092,70.483 L424.292,69.763 L421.268,68.683 L419.253,68.251 L428.108,103.386 C428.684,105.69 428.396,108.066 427.316,110.514 C426.884,111.666 426.236,112.746 425.444,113.682 C425.084,114.186 424.652,114.618 424.148,115.122 C424.076,115.194 423.572,115.698 422.564,116.634 C420.333,118.362 418.101,119.514 415.869,120.018 C413.709,120.594 411.693,120.522 409.893,119.874 C409.101,119.658 408.309,119.154 407.733,118.434 C407.013,117.714 406.509,116.85 406.293,115.77 C405.717,113.466 405.933,111.09 407.013,108.642 C408.093,106.194 409.749,104.034 411.837,102.018 C413.997,100.074 416.229,98.778 418.533,98.202 C420.909,97.626 422.996,97.77 424.724,98.634 z M415.365,51.187 L415.365,51.187 C416.229,54.643 417.957,57.451 420.477,59.611 C422.996,61.771 426.308,64.075 430.484,66.451 C434.66,68.827 437.396,70.771 438.764,72.283 L438.26,68.827 C437.9,67.315 437.468,66.091 436.964,65.011 C436.46,64.003 435.74,62.923 434.732,61.771 C433.22,59.683 431.348,58.027 429.188,56.875 C427.316,55.579 425.156,54.499 422.636,53.491 L418.389,51.907 L415.509,51.115 z" fill="#000000"/>
    <path d="M225.358,248.75 L225.286,171.136 L227.95,171.136 C227.95,172.864 228.166,174.448 228.526,175.96 C228.958,177.472 229.606,178.84 230.398,180.064 C231.694,182.008 233.926,184.384 237.094,187.12 C240.19,189.856 242.71,192.448 244.654,194.896 L248.11,199.791 C249.118,201.303 249.982,202.815 250.63,204.399 C251.998,207.567 252.646,211.095 252.646,214.839 C252.646,216.423 252.574,217.935 252.358,219.375 C252.142,220.887 251.782,222.615 251.278,224.415 C253.006,226.719 253.87,230.391 253.87,235.503 L253.582,240.398 C253.582,241.19 253.51,241.838 253.366,242.486 C253.006,243.566 252.79,244.43 252.646,245.006 C251.854,248.102 250.63,250.838 248.902,253.214 L247.318,253.214 C250.414,247.166 251.926,241.766 251.926,237.158 C251.926,228.591 246.814,221.679 236.734,216.351 L235.582,215.775 L233.71,214.407 L230.398,212.247 L228.166,211.167 L228.238,255.374 C228.238,258.254 227.23,260.99 225.214,263.582 C224.35,264.806 223.342,265.886 222.046,266.822 C221.47,267.254 220.822,267.758 220.102,268.118 C220.03,268.19 219.238,268.622 217.726,269.486 C214.558,270.854 211.606,271.574 208.798,271.574 C206.062,271.574 203.686,270.926 201.742,269.63 C200.806,269.126 200.086,268.334 199.582,267.254 C198.934,266.246 198.646,265.022 198.646,263.654 C198.646,260.702 199.654,257.966 201.598,255.446 C203.614,252.926 206.134,250.766 209.302,249.11 C212.47,247.382 215.494,246.518 218.374,246.518 C221.398,246.518 223.774,247.31 225.574,248.822 z M228.454,189.784 L228.454,189.784 C228.454,194.176 229.606,197.992 231.982,201.231 C234.286,204.543 237.598,208.287 241.846,212.319 C246.094,216.351 248.758,219.447 249.91,221.679 L250.27,217.503 C250.27,215.631 250.126,214.047 249.838,212.679 C249.55,211.311 249.046,209.799 248.182,208.143 C246.958,205.191 245.302,202.743 243.07,200.655 C241.198,198.568 238.966,196.624 236.302,194.68 L231.694,191.584 L228.454,189.784 z" fill="#000000"/>
    <path d="M142.703,141.977 C141.263,144.137 138.959,145.865 135.935,147.233 C132.911,148.601 130.031,149.177 127.151,149.033 C126.071,148.961 125.135,148.745 124.271,148.385 C123.335,148.025 122.399,147.377 121.463,146.441 C120.023,144.929 119.375,143.129 119.519,140.897 C119.663,138.521 120.671,136.289 122.471,134.201 C124.199,132.401 126.503,130.961 129.167,129.953 C131.831,128.945 134.351,128.513 136.799,128.657 C139.391,128.873 141.479,129.593 143.063,130.889 C144.647,132.257 145.295,134.201 145.151,136.793 L140.399,203.535 L138.311,203.391 L142.703,141.905 z" fill="#000000"/>
    <path d="M289.942,112.458 C289.654,109.866 290.302,107.562 291.742,105.33 C293.182,103.17 295.126,101.37 297.718,99.714 L301.318,98.058 C302.11,97.842 302.758,97.626 303.117,97.554 C303.549,97.482 304.125,97.338 304.99,97.266 C310.245,96.762 313.125,98.85 313.557,103.53 C313.773,105.474 313.125,107.634 311.685,110.01 C310.389,112.314 308.445,114.33 305.925,115.914 C303.333,117.498 300.886,118.434 298.582,118.722 C296.278,118.938 294.19,118.578 292.318,117.642 L296.566,158.753 C299.806,157.889 302.613,156.305 305.061,153.857 C307.509,151.553 309.309,148.817 310.533,145.721 C311.757,142.625 312.189,139.673 311.901,136.793 C311.541,133.481 310.821,130.601 309.741,128.225 C308.733,125.705 307.005,122.466 304.629,118.506 L305.853,117.858 C307.293,119.802 308.661,121.962 309.957,124.41 L311.613,127.865 L313.053,131.609 C313.413,132.617 313.773,133.697 314.061,134.993 C314.349,136.217 314.637,137.513 314.781,138.881 C315.141,142.553 314.637,145.865 313.269,148.817 C311.901,151.841 309.813,155.513 306.933,159.689 C303.982,163.864 301.822,167.464 300.454,170.56 C299.014,173.656 298.51,176.968 298.87,180.496 L296.998,180.712 L290.014,112.314 z" fill="#000000"/>
    <path d="M582.619,93.306 C581.899,91.794 581.755,90.138 582.259,88.482 C582.691,86.826 583.555,85.243 584.779,83.731 L586.723,81.931 C587.155,81.571 587.515,81.355 587.731,81.211 C587.947,81.067 588.307,80.851 588.883,80.635 C592.051,79.195 594.283,79.915 595.579,82.723 C596.155,83.875 596.155,85.387 595.795,87.114 C595.507,88.842 594.715,90.498 593.491,92.01 C592.195,93.594 590.899,94.674 589.459,95.322 C588.019,95.97 586.651,96.186 585.283,95.97 L596.659,120.81 C598.459,119.586 599.899,118.002 600.907,115.986 C601.915,114.042 602.491,111.954 602.635,109.722 C602.707,107.562 602.347,105.618 601.555,103.89 C600.619,101.874 599.611,100.218 598.387,98.994 C597.235,97.626 595.435,95.97 593.131,94.026 L593.779,93.378 C595.075,94.314 596.443,95.394 597.739,96.618 L599.539,98.418 L601.195,100.434 C601.627,100.938 602.059,101.586 602.563,102.306 C602.995,103.026 603.427,103.818 603.787,104.61 C604.795,106.842 605.155,109.002 604.939,111.162 C604.723,113.394 604.147,116.058 603.283,119.298 C602.347,122.538 601.771,125.273 601.555,127.505 C601.339,129.737 601.699,131.969 602.635,134.057 L601.483,134.561 L582.619,93.306 z" fill="#000000"/>
    <path d="M179.135,218.367 L182.447,207.495 C182.735,206.631 182.951,205.983 183.023,205.551 C183.095,205.191 183.239,204.543 183.383,203.679 L184.031,199.359 C184.391,196.336 184.319,193.312 183.815,190.216 C183.671,189.136 183.455,187.984 183.095,186.832 C182.807,185.68 182.375,184.312 181.871,182.872 L180.143,179.2 C179.495,177.904 178.847,176.896 178.271,176.104 L176.111,173.584 C175.247,172.72 174.455,172.072 173.591,171.496 C171.935,170.2 170.135,169.48 168.191,169.264 C166.247,169.12 164.375,169.696 162.575,171.064 C160.847,172.432 159.479,174.016 158.471,175.816 C157.463,177.688 157.319,179.704 157.895,181.936 L158.255,182.656 C158.471,182.944 158.831,183.088 159.191,183.016 L160.415,182.656 L161.279,181.648 L162.503,180.352 C163.655,179.488 164.951,179.056 166.463,179.2 C167.903,179.344 169.055,179.92 169.919,181.072 C170.495,181.792 170.855,182.656 170.999,183.664 C171.143,184.744 170.999,185.824 170.567,186.832 C170.063,187.84 169.415,188.704 168.407,189.424 C166.823,190.648 165.023,191.224 163.007,191.152 C160.991,191.008 159.407,190.072 158.183,188.488 C156.527,186.4 155.807,184.024 155.879,181.504 C156.023,178.984 156.743,176.536 158.039,174.232 C159.335,171.928 161.063,169.984 163.151,168.328 C165.311,166.672 167.831,165.664 170.783,165.232 C173.663,164.872 176.471,165.232 179.207,166.24 C181.943,167.32 184.103,168.904 185.831,171.064 C188.926,175.096 190.51,179.848 190.51,185.392 C190.51,186.832 190.438,188.128 190.366,189.352 C190.294,190.648 190.078,192.088 189.862,193.672 C189.43,196.336 188.71,199.143 187.702,202.095 C187.415,202.959 187.055,203.895 186.623,205.047 C186.191,206.127 185.615,207.495 184.895,209.079 L180.431,219.015 L179.279,218.151 z M182.879,163.504 L182.879,163.504 C182.303,162.784 182.159,161.92 182.303,160.985 C182.447,159.977 182.879,159.257 183.599,158.753 C184.319,158.249 185.111,158.033 186.047,158.177 C187.055,158.321 187.846,158.753 188.35,159.473 C188.926,160.193 189.142,161.057 188.998,161.992 C188.926,162.928 188.494,163.72 187.702,164.296 C186.983,164.872 186.119,165.016 185.183,164.872 C184.247,164.8 183.455,164.296 182.879,163.576 z M191.446,174.592 L191.446,174.592 C190.87,173.872 190.654,173.008 190.798,172 C190.942,170.992 191.374,170.272 192.094,169.696 C192.742,169.192 193.534,169.048 194.542,169.192 C195.55,169.264 196.27,169.696 196.918,170.416 C197.566,171.208 197.782,172.072 197.71,173.008 C197.566,173.944 197.134,174.664 196.414,175.24 C195.694,175.816 194.83,176.104 193.894,176.032 C192.958,175.96 192.166,175.456 191.518,174.664 z" fill="#000000"/>
    <path d="M480.668,67.459 C480.956,65.515 481.82,63.859 483.26,62.491 C484.772,61.123 486.572,60.115 488.732,59.467 C490.82,58.891 492.764,58.675 494.564,58.963 C498.308,59.467 500.18,61.411 500.108,64.867 C499.892,66.451 499.1,67.963 497.732,69.475 C496.292,70.915 494.564,72.067 492.404,72.859 C490.244,73.651 488.228,73.939 486.284,73.651 C484.556,73.435 483.044,72.787 481.604,71.779 L478.22,96.906 C484.988,94.026 489.524,91.578 491.828,89.562 C493.628,87.978 494.708,85.603 495.14,82.507 C495.572,79.483 495.212,76.387 494.204,73.291 L494.996,72.715 C496.436,76.531 496.94,80.131 496.508,83.443 C496.22,85.747 495.428,87.834 494.204,89.85 C494.492,91.578 494.492,93.306 494.204,95.178 C493.484,100.29 490.82,105.042 486.14,109.434 L484.412,110.874 L481.748,112.674 C479.66,114.042 478.148,115.194 477.212,116.13 C476.348,117.066 475.7,118.362 475.196,120.162 L473.612,119.946 L480.668,67.459 z M476.348,110.298 L476.348,110.298 C479.804,109.29 482.756,107.85 485.204,105.978 C487.652,104.034 489.524,102.018 490.892,99.786 C491.036,99.426 491.324,98.994 491.612,98.346 C491.9,97.77 492.26,96.978 492.62,96.042 C492.98,95.178 493.196,94.098 493.34,92.946 L493.556,91.074 C493.34,91.434 493.124,91.794 492.836,92.154 C492.548,92.514 492.188,92.874 491.828,93.162 C491.396,93.666 491.036,94.026 490.748,94.242 C490.532,94.458 490.1,94.818 489.452,95.178 L484.34,98.922 C482.756,100.146 481.244,101.586 479.804,103.386 C478.508,105.114 477.428,107.418 476.564,110.154 z" fill="#000000"/>
    <path d="M48.096,148.313 L43.56,136.361 C42.336,132.257 41.472,128.369 40.896,124.697 C40.104,119.37 39.888,114.402 40.32,109.794 C40.536,105.258 41.328,101.082 42.768,97.194 C44.136,93.45 45.792,90.57 47.736,88.626 C49.608,86.755 50.976,85.747 51.984,85.603 C52.416,85.531 52.992,85.675 53.64,85.963 L55.872,87.834 C62.784,95.25 67.104,104.754 68.832,116.346 C69.264,119.37 69.552,121.962 69.552,124.05 C69.624,126.209 69.696,127.793 69.624,128.657 C69.624,129.521 69.408,130.889 69.048,132.761 C68.4,138.233 67.104,143.489 65.16,148.601 C63.144,153.713 60.408,158.465 57.024,162.712 L63.792,181.36 L68.112,180.208 C71.927,179.632 75.455,179.92 78.551,181.072 C81.863,182.008 84.743,183.808 87.191,186.328 C89.639,188.704 91.727,191.44 93.383,194.608 C95.039,197.776 96.119,201.231 96.695,204.903 C97.559,210.519 96.839,215.919 94.607,221.031 C92.303,226.287 88.271,230.535 82.655,233.775 L86.255,243.566 L90.071,253.934 L91.799,261.566 C92.375,265.454 92.015,268.91 90.647,272.078 C89.207,275.245 87.047,277.981 84.095,280.285 C81.143,282.373 77.831,283.669 74.087,284.245 C68.904,285.037 64.08,284.173 59.472,281.797 C54.792,279.421 52.128,275.677 51.336,270.638 C51.192,269.558 51.192,268.478 51.336,267.47 L52.056,263.87 C52.632,261.782 53.712,259.982 55.296,258.254 C56.88,256.67 58.752,255.734 60.84,255.374 C62.784,255.086 64.656,255.302 66.528,255.95 C68.328,256.67 69.84,257.966 71.135,259.694 C72.359,261.422 73.079,263.294 73.367,265.382 C73.799,268.262 73.223,270.854 71.639,273.158 C69.984,275.461 67.68,276.829 64.728,277.261 L63.576,277.405 C65.88,280.069 69.192,281.077 73.583,280.429 C75.599,280.141 77.687,279.349 79.847,278.125 C82.079,276.829 83.807,275.317 85.175,273.518 L86.831,270.782 L87.623,268.19 C87.983,266.03 87.911,263.222 87.407,259.766 C87.047,257.318 86.543,255.23 85.895,253.502 C85.535,252.206 85.319,251.27 85.103,250.622 C84.887,249.974 84.599,249.398 84.239,248.75 L82.295,244.07 L79.055,235.575 L74.879,237.087 L70.271,238.094 C65.376,238.814 60.264,238.526 54.936,237.158 C49.968,235.503 45.432,233.055 41.256,229.887 C37.368,226.647 33.984,222.615 31.176,217.791 C28.368,213.039 26.568,208.071 25.776,202.887 C25.416,200.583 25.272,198.136 25.416,195.544 C25.416,194.608 25.56,193.384 25.776,192.088 C25.92,190.792 26.064,189.568 26.352,188.416 L28.44,181.216 C28.872,180.064 29.304,178.984 29.736,177.904 C30.096,176.896 30.672,175.744 31.248,174.448 L34.488,168.184 L38.088,162.352 C41.184,157.817 44.496,153.065 48.024,148.241 z M64.872,195.112 L64.872,195.112 C62.136,196.264 59.688,198.496 57.528,201.807 C55.512,205.047 54.792,208.359 55.296,211.815 C55.584,213.831 56.664,216.135 58.464,218.727 C60.264,220.959 62.64,222.543 65.664,223.551 C66.456,223.479 66.888,223.839 67.104,224.631 C66.96,224.919 66.816,225.063 66.6,225.207 C66.384,225.423 66.24,225.495 66.168,225.495 C61.56,224.991 57.528,223.191 54.216,219.951 C50.832,216.783 48.816,212.895 48.168,208.431 C47.952,207.135 47.88,205.911 47.88,204.903 C47.88,203.823 48.024,202.383 48.384,200.439 C48.672,198.496 49.392,196.264 50.544,193.816 C52.704,189.208 55.944,185.536 60.264,182.944 L54.432,166.168 C50.904,170.2 47.88,173.944 45.504,177.472 C43.056,181.072 40.968,184.672 39.24,188.272 C37.512,191.872 36.216,195.688 35.424,199.791 C35.136,201.807 34.92,203.751 34.848,205.551 C34.776,207.351 34.92,209.367 35.28,211.455 C35.424,212.463 35.568,213.471 35.712,214.479 C36.072,215.415 36.36,216.063 36.504,216.495 C37.152,218.079 38.016,219.735 39.024,221.463 C40.896,224.559 43.488,227.367 46.728,229.743 C49.824,232.119 53.208,233.775 56.88,234.711 C60.48,235.719 64.512,235.863 68.832,235.215 C71.495,234.855 74.591,233.847 78.191,232.263 L65.016,195.256 z M50.76,144.929 L50.76,144.929 C52.272,143.849 53.856,141.905 55.512,139.097 C56.52,137.585 57.312,136.217 57.888,134.993 L60.048,130.169 C61.416,127.001 62.424,123.618 63.072,119.946 C63.72,116.274 63.864,113.106 63.504,110.442 L62.64,107.058 C62.136,105.258 61.344,104.034 60.336,103.242 C59.328,102.45 58.104,102.234 56.52,102.45 C53.712,102.882 51.408,105.042 49.536,109.002 L47.88,114.042 L46.656,120.522 L46.368,127.145 L46.8,133.337 C46.944,134.417 47.088,135.353 47.232,136.145 C47.376,136.937 47.664,138.161 48.24,139.745 C48.816,141.401 49.68,143.129 50.832,144.929 z M68.328,194.104 L68.328,194.104 L81.359,230.391 C88.271,226.287 90.935,219.159 89.423,209.079 C88.487,205.767 87.047,202.887 85.103,200.583 C83.087,198.28 80.639,196.408 77.759,195.112 C74.879,193.96 71.783,193.6 68.328,194.104 z" fill="#000000"/>
    <path d="M258.478,121.242 C255.31,104.25 251.494,83.443 248.758,68.755 C248.614,68.755 248.47,68.827 248.326,68.827 C233.998,74.875 219.598,80.779 205.126,86.683 C208.87,106.986 212.686,127.361 216.43,147.665 C207.934,143.561 197.998,154.937 200.23,163 C202.174,170.2 210.67,167.896 214.486,164.512 C216.718,162.496 218.806,159.473 219.31,156.521 C219.958,152.489 218.086,146.225 217.006,140.465 C214.198,125.273 210.526,106.482 208.51,93.234 C222.046,88.122 235.582,81.859 248.542,77.035 C251.854,94.818 255.094,112.53 258.406,130.313 C249.766,126.569 240.19,137.297 242.206,145.649 C242.926,148.673 246.094,150.761 248.758,150.761 C255.742,150.761 260.494,143.777 261.142,138.593 C261.646,134.849 259.774,127.289 258.622,121.242 z" fill="#000000"/>
    <path d="M574.627,143.993 C572.539,132.761 570.019,119.082 568.219,109.362 C568.147,109.362 568.003,109.434 567.931,109.434 C558.499,113.394 548.923,117.354 539.419,121.242 C541.867,134.633 544.387,148.097 546.835,161.489 C541.219,158.753 534.668,166.312 536.108,171.64 C537.404,176.392 543.019,174.88 545.467,172.648 C546.979,171.28 548.347,169.336 548.635,167.392 C549.067,164.728 547.843,160.625 547.123,156.809 C545.251,146.801 542.875,134.417 541.508,125.633 C550.435,122.25 559.363,118.146 567.931,114.978 C570.091,126.713 572.251,138.449 574.411,150.113 C568.723,147.593 562.387,154.721 563.683,160.265 C564.187,162.281 566.275,163.648 568.003,163.648 C572.611,163.648 575.779,159.041 576.211,155.585 C576.499,153.065 575.275,148.097 574.555,144.137 z" fill="#000000"/>
    <path d="M804.665,138.953 L816.761,122.466 L817.193,122.826 C816.977,123.114 816.833,123.402 816.689,123.69 C816.545,123.978 816.473,124.194 816.473,124.481 L816.401,125.273 C816.401,125.489 816.473,125.777 816.545,126.065 L816.977,128.657 C817.337,130.601 816.905,132.401 815.753,133.913 C815.393,134.417 814.961,134.921 814.385,135.353 C814.169,135.929 813.881,136.433 813.521,136.937 C813.233,137.369 812.801,137.801 812.369,138.161 C812.369,138.737 812.081,139.385 811.505,140.249 L810.857,141.041 C810.785,141.185 810.641,141.257 810.569,141.401 C810.353,141.545 810.209,141.689 810.065,141.761 C809.489,142.265 808.913,142.553 808.265,142.769 L807.977,142.553 C809.345,141.833 810.353,141.041 810.929,140.249 C811.361,139.673 811.577,139.169 811.721,138.593 C811.793,138.017 811.793,137.441 811.649,136.865 C811.577,136.361 811.433,135.713 811.217,135.065 L810.209,132.401 L804.233,140.537 C803.873,141.041 803.369,141.401 802.649,141.617 C801.929,141.833 801.209,141.833 800.489,141.689 C799.769,141.545 799.121,141.257 798.617,140.897 C798.113,140.537 797.753,140.033 797.609,139.529 C797.465,139.025 797.609,138.521 797.969,138.017 C798.329,137.513 798.905,137.153 799.553,137.009 C800.201,136.865 800.921,136.793 801.713,136.937 C802.505,137.081 803.081,137.297 803.513,137.657 C804.089,138.089 804.449,138.521 804.593,139.097 z M812.513,129.161 L812.513,129.161 C812.297,129.449 812.153,129.737 812.081,130.025 C811.937,130.313 811.937,130.673 811.865,131.033 C811.865,131.609 811.865,132.329 812.009,133.121 L812.369,135.425 C812.513,136.217 812.513,136.865 812.441,137.369 L812.801,136.937 C814.097,135.137 814.025,132.545 812.513,129.233 z M814.817,126.065 L814.817,126.065 C814.457,126.569 814.241,127.145 814.169,127.649 C814.097,128.225 814.169,128.945 814.385,129.953 L814.601,131.249 L814.745,132.257 C814.817,132.833 814.745,133.481 814.601,134.345 L815.105,133.769 C815.681,133.049 815.969,132.185 815.969,131.321 C815.969,130.961 815.969,130.745 816.041,130.601 C816.041,130.457 816.041,130.313 815.969,130.025 C815.969,129.665 815.897,129.233 815.753,128.873 C815.609,128.225 815.249,127.289 814.817,126.065 z" fill="#000000"/>
    <path d="M791.849,41.396 L786.809,21.524 L787.385,21.38 C787.457,21.74 787.601,22.028 787.745,22.244 C787.889,22.46 788.033,22.748 788.177,22.964 L788.753,23.468 C788.897,23.612 789.185,23.756 789.473,23.9 L791.705,25.196 C793.433,26.204 794.513,27.644 795.017,29.516 C795.161,30.092 795.233,30.74 795.233,31.46 C795.521,31.964 795.809,32.54 795.953,33.116 C796.097,33.62 796.169,34.196 796.169,34.844 C796.601,35.204 796.961,35.852 797.177,36.86 L797.393,37.94 C797.465,38.084 797.465,38.228 797.465,38.372 C797.465,38.66 797.465,38.876 797.465,38.948 C797.465,39.668 797.321,40.388 797.105,41.036 L796.745,41.108 C797.033,39.596 797.105,38.3 796.817,37.364 C796.673,36.716 796.385,36.14 796.025,35.708 C795.665,35.276 795.233,34.916 794.657,34.628 C794.225,34.34 793.649,34.052 792.929,33.836 L790.265,32.9 L792.713,42.692 C792.857,43.268 792.785,43.916 792.497,44.564 C792.209,45.212 791.777,45.788 791.201,46.292 C790.625,46.796 790.049,47.084 789.401,47.228 C788.753,47.372 788.177,47.372 787.673,47.156 C787.169,46.94 786.881,46.508 786.737,45.86 C786.593,45.212 786.665,44.636 786.953,43.988 C787.241,43.34 787.673,42.836 788.321,42.26 C788.897,41.756 789.473,41.468 790.049,41.324 C790.769,41.18 791.345,41.18 791.849,41.396 z M789.329,29.084 L789.329,29.084 C789.401,29.372 789.545,29.732 789.689,29.948 C789.833,30.236 790.049,30.524 790.337,30.74 C790.769,31.172 791.345,31.532 791.993,31.964 L794.009,33.116 C794.729,33.476 795.233,33.908 795.521,34.268 L795.449,33.764 C794.873,31.604 792.857,30.02 789.329,29.084 z M788.393,25.34 L788.393,25.34 C788.537,25.988 788.825,26.42 789.257,26.852 C789.689,27.284 790.265,27.716 791.129,28.148 L792.281,28.796 L793.145,29.372 C793.577,29.66 794.153,30.164 794.657,30.812 L794.513,30.092 C794.297,29.228 793.865,28.436 793.217,27.86 C793.001,27.644 792.785,27.5 792.713,27.356 C792.641,27.284 792.425,27.14 792.209,26.996 C791.921,26.78 791.561,26.564 791.129,26.42 C790.481,26.132 789.617,25.772 788.393,25.34 z" fill="#000000"/>
    <path d="M827.417,151.625 L832.385,129.809 L833.105,129.953 C833.033,130.457 832.961,130.889 832.961,131.321 C832.961,131.753 833.105,132.185 833.249,132.617 C833.465,133.265 833.969,134.057 834.689,134.993 C835.409,135.929 835.913,136.865 836.273,137.657 L836.921,139.241 C837.137,139.745 837.281,140.249 837.353,140.681 C837.497,141.689 837.497,142.697 837.281,143.777 C837.209,144.209 837.065,144.641 836.921,145.001 C836.777,145.433 836.561,145.865 836.273,146.369 C836.633,147.161 836.633,148.241 836.273,149.609 L835.841,150.977 C835.769,151.193 835.697,151.409 835.625,151.553 C835.481,151.841 835.337,152.057 835.265,152.201 C834.833,152.993 834.329,153.713 833.681,154.289 L833.249,154.217 C834.473,152.705 835.265,151.265 835.553,149.969 C836.129,147.593 835.121,145.289 832.601,143.129 L832.313,142.913 L831.881,142.409 L831.089,141.617 L830.513,141.185 L827.705,153.569 C827.489,154.361 827.057,155.081 826.337,155.657 C826.049,155.945 825.689,156.161 825.257,156.377 C825.041,156.449 824.825,156.521 824.609,156.593 C824.609,156.593 824.321,156.665 823.889,156.809 C822.953,157.025 822.017,157.025 821.225,156.809 C820.433,156.665 819.857,156.305 819.353,155.801 C819.137,155.585 818.993,155.297 818.921,155.009 C818.777,154.649 818.777,154.289 818.849,153.929 C819.065,153.137 819.497,152.417 820.217,151.841 C820.937,151.265 821.801,150.833 822.809,150.545 C823.817,150.257 824.681,150.185 825.545,150.401 C826.409,150.617 826.985,150.977 827.417,151.481 z M832.025,135.281 L832.025,135.281 C831.737,136.505 831.809,137.657 832.313,138.737 C832.745,139.817 833.465,141.041 834.401,142.481 C835.337,143.921 835.913,144.929 836.057,145.649 L836.417,144.497 C836.561,143.993 836.633,143.489 836.633,143.129 C836.633,142.697 836.561,142.265 836.489,141.761 C836.345,140.825 835.985,140.033 835.553,139.313 C835.193,138.593 834.689,137.945 834.041,137.225 L832.961,136.073 L832.169,135.353 z" fill="#000000"/>
    <path d="M755.562,91.794 C754.77,92.226 753.762,92.442 752.61,92.37 C751.458,92.298 750.45,92.082 749.586,91.506 C749.298,91.29 749.01,91.074 748.794,90.858 C748.578,90.57 748.362,90.282 748.218,89.778 C748.002,89.058 748.074,88.41 748.506,87.762 C748.938,87.043 749.586,86.467 750.522,86.107 C751.386,85.819 752.25,85.747 753.33,85.819 C754.338,85.891 755.202,86.179 755.922,86.611 C756.714,87.043 757.218,87.618 757.506,88.338 C757.794,88.986 757.65,89.778 757.218,90.498 L745.122,110.658 L744.474,110.298 L755.634,91.722 z" fill="#000000"/>
    <path d="M806.393,105.906 C806.681,105.042 807.257,104.394 808.049,103.962 C808.841,103.53 809.777,103.242 810.785,103.17 L812.153,103.242 C812.441,103.314 812.657,103.314 812.801,103.386 C812.945,103.386 813.161,103.458 813.449,103.602 C815.177,104.25 815.753,105.402 815.177,106.914 C814.961,107.562 814.385,108.138 813.593,108.642 C812.801,109.146 811.937,109.506 810.857,109.578 C809.777,109.65 808.841,109.578 808.121,109.29 C807.329,109.002 806.753,108.57 806.321,107.994 L801.137,121.53 C802.289,121.746 803.441,121.746 804.593,121.386 C805.745,121.026 806.753,120.522 807.617,119.73 C808.481,118.938 809.057,118.074 809.489,117.138 C809.921,116.058 810.137,115.05 810.137,114.114 C810.209,113.178 810.209,111.882 810.065,110.226 L810.569,110.226 C810.713,111.09 810.785,111.954 810.785,112.962 L810.785,114.33 L810.641,115.698 C810.569,116.058 810.497,116.49 810.425,116.922 C810.353,117.354 810.209,117.786 809.993,118.218 C809.561,119.442 808.841,120.378 807.905,121.098 C806.969,121.818 805.745,122.61 804.161,123.474 C802.577,124.338 801.353,125.129 800.417,125.849 C799.481,126.569 798.761,127.577 798.329,128.729 L797.681,128.513 L806.321,105.978 z" fill="#000000"/>
    <path d="M772.914,11.013 C772.842,10.077 773.13,9.285 773.634,8.565 C774.138,7.845 774.857,7.197 775.794,6.693 L777.089,6.189 C777.378,6.117 777.594,6.045 777.737,6.045 C777.881,6.045 778.097,5.973 778.385,5.973 C780.257,5.829 781.193,6.621 781.337,8.277 C781.409,8.997 781.121,9.717 780.617,10.509 C780.113,11.301 779.393,11.948 778.529,12.524 C777.594,13.028 776.729,13.316 775.938,13.388 C775.146,13.46 774.354,13.316 773.778,12.956 L774.642,27.5 C775.794,27.284 776.802,26.708 777.665,25.916 C778.529,25.124 779.249,24.188 779.753,23.108 C780.185,22.028 780.401,21.02 780.329,20.012 C780.257,18.86 780.041,17.852 779.681,16.988 C779.393,16.052 778.818,14.9 778.026,13.532 L778.457,13.316 C778.961,14.036 779.393,14.828 779.826,15.692 L780.329,16.916 L780.761,18.212 C780.905,18.572 780.977,18.932 781.049,19.436 C781.121,19.868 781.193,20.372 781.265,20.804 C781.337,22.1 781.121,23.252 780.545,24.26 C780.041,25.34 779.249,26.564 778.169,28.004 C777.089,29.444 776.297,30.668 775.721,31.748 C775.146,32.828 774.93,33.98 775.002,35.204 L774.354,35.276 L772.914,11.157 z" fill="#000000"/>
    <path d="M754.842,121.53 L757.578,118.65 C757.794,118.434 758.01,118.218 758.082,118.146 C758.154,118.074 758.298,117.858 758.514,117.57 L759.45,116.346 C760.026,115.482 760.53,114.474 760.818,113.466 C760.962,113.106 761.034,112.746 761.178,112.314 C761.25,111.882 761.322,111.378 761.394,110.874 L761.466,109.434 C761.466,108.93 761.466,108.498 761.394,108.138 L761.106,106.986 C760.962,106.554 760.818,106.266 760.674,105.978 C760.386,105.33 759.882,104.826 759.306,104.394 C758.73,104.034 758.01,103.962 757.218,104.106 C756.426,104.25 755.778,104.538 755.202,104.97 C754.626,105.402 754.194,105.978 754.05,106.77 L754.05,107.058 C754.05,107.202 754.122,107.274 754.266,107.346 L754.698,107.418 L755.13,107.202 L755.706,106.986 C756.21,106.914 756.642,106.986 757.146,107.274 C757.578,107.562 757.866,107.922 757.938,108.426 C758.01,108.714 757.938,109.074 757.866,109.434 C757.722,109.794 757.506,110.082 757.218,110.37 C756.93,110.586 756.57,110.802 756.138,110.874 C755.418,111.018 754.77,110.874 754.122,110.586 C753.546,110.226 753.186,109.65 753.042,109.002 C752.898,108.066 752.97,107.202 753.402,106.482 C753.834,105.69 754.482,105.042 755.202,104.538 C755.994,104.034 756.858,103.674 757.722,103.53 C758.658,103.386 759.594,103.458 760.602,103.746 C761.538,104.106 762.402,104.61 763.05,105.402 C763.77,106.194 764.202,106.986 764.346,107.994 C764.706,109.722 764.418,111.522 763.554,113.25 C763.338,113.682 763.122,114.114 762.906,114.474 C762.69,114.834 762.402,115.266 762.042,115.77 C761.466,116.562 760.818,117.282 760.026,118.074 C759.81,118.29 759.522,118.506 759.234,118.794 C758.946,119.082 758.514,119.37 758.082,119.802 L755.13,122.178 L754.914,121.746 z M764.706,104.898 L764.706,104.898 C764.634,104.61 764.706,104.322 764.922,104.034 C765.138,103.746 765.426,103.602 765.714,103.53 C766.002,103.458 766.29,103.53 766.578,103.746 C766.866,103.962 767.01,104.25 767.082,104.538 C767.154,104.898 767.082,105.186 766.866,105.402 C766.65,105.69 766.434,105.834 766.074,105.906 C765.786,105.978 765.498,105.906 765.21,105.69 C764.922,105.474 764.778,105.258 764.706,104.898 z M765.642,109.722 L765.642,109.722 C765.57,109.434 765.642,109.074 765.858,108.786 C766.074,108.498 766.29,108.354 766.65,108.282 C766.938,108.21 767.226,108.282 767.513,108.498 C767.802,108.642 768.018,108.93 768.09,109.218 C768.161,109.578 768.09,109.866 767.945,110.154 C767.729,110.442 767.513,110.586 767.154,110.658 C766.794,110.73 766.505,110.658 766.218,110.514 C765.93,110.37 765.786,110.082 765.714,109.722 z" fill="#000000"/>
    <path d="M795.089,103.674 C796.817,97.842 798.905,90.714 800.345,85.675 C800.273,85.675 800.273,85.675 800.201,85.603 C794.729,85.243 789.257,84.811 783.785,84.307 C781.769,91.29 779.681,98.274 777.665,105.186 C775.65,102.522 770.754,104.538 770.106,107.418 C769.602,110.01 772.626,110.586 774.354,110.154 C775.362,109.866 776.513,109.29 777.161,108.426 C778.026,107.274 778.385,105.042 778.961,103.026 C780.473,97.842 782.345,91.362 783.785,86.899 C788.825,87.474 794.081,87.618 798.905,88.194 C797.105,94.314 795.305,100.362 793.505,106.482 C791.417,103.89 786.665,105.762 785.945,108.714 C785.657,109.794 786.377,110.946 787.169,111.378 C789.329,112.458 791.921,111.09 793.001,109.506 C793.721,108.426 794.369,105.762 794.945,103.674 z" fill="#000000"/>
    <path d="M828.137,26.852 C828.209,20.804 828.353,13.316 828.425,8.061 C828.353,8.061 828.353,8.061 828.281,8.061 C822.953,9.141 817.553,10.221 812.153,11.229 C812.081,18.5 811.937,25.772 811.865,33.044 C809.201,31.028 805.025,34.268 805.241,37.22 C805.457,39.812 808.481,39.596 810.065,38.732 C811.001,38.156 811.865,37.292 812.297,36.284 C812.801,34.916 812.585,32.684 812.585,30.596 C812.657,25.196 812.657,18.428 812.873,13.748 C817.913,12.884 822.953,11.661 827.777,10.941 C827.705,17.276 827.633,23.612 827.489,30.02 C824.753,28.148 820.721,31.172 820.865,34.196 C820.937,35.276 821.873,36.212 822.737,36.428 C825.113,36.932 827.273,34.844 827.849,33.116 C828.281,31.82 828.137,29.156 828.137,26.996 z" fill="#000000"/>
    <path d="M593.059,35.348 L591.763,39.812 L593.923,39.74 L592.195,45.5 L593.419,45.86 L595.219,39.74 L600.331,39.596 L598.387,46.148 L599.611,46.508 L601.627,39.596 L603.931,39.524 L605.227,35.06 L602.923,35.132 L604.723,28.94 L607.027,28.868 L608.323,24.404 L606.019,24.476 L607.675,19.004 L606.451,18.644 L604.723,24.548 L599.611,24.692 L601.483,18.428 L600.259,18.068 L598.315,24.692 L596.155,24.764 L594.859,29.228 L597.019,29.156 L595.219,35.348 L593.059,35.42 z M598.387,29.012 L598.387,29.012 L603.499,28.868 L601.699,35.06 L596.587,35.204 L598.387,29.012 z" fill="#000000"/>
    <path d="M121.967,254.942 L119.591,263.078 L123.479,262.934 L120.383,273.374 L122.615,274.022 L125.927,262.862 L135.143,262.574 L131.615,274.382 L133.847,275.029 L137.591,262.43 L141.767,262.286 L144.143,254.15 L139.895,254.294 L143.207,243.062 L147.383,242.918 L149.759,234.783 L145.583,234.927 L148.535,224.919 L146.303,224.271 L143.135,234.999 L133.919,235.287 L137.303,223.911 L135.071,223.263 L131.471,235.359 L127.583,235.503 L125.207,243.638 L129.095,243.494 L125.783,254.798 L121.895,254.942 z M131.615,243.494 L131.615,243.494 L140.831,243.206 L137.519,254.51 L128.303,254.798 L131.615,243.494 z" fill="#000000"/>
    <path d="M726.834,86.035 L726.258,86.395 L730.65,89.778 L724.242,93.666 L724.962,94.89 L739.002,86.323 L739.002,86.323 L741.666,84.667 L737.202,81.283 L743.538,77.395 L742.818,76.171 L726.762,85.963 L726.762,85.963 z M734.682,82.939 L734.682,82.939 L737.922,85.387 L733.386,88.122 L730.146,85.675 L734.682,82.939 z" fill="#000000"/>
    <path d="M636.259,102.09 C636.259,102.09 641.803,102.018 642.307,96.474 C642.307,96.474 642.307,92.514 638.923,92.73 C638.923,92.73 636.403,92.658 636.619,95.25 C636.619,95.25 636.259,97.842 639.211,97.698 C639.211,97.698 640.651,97.626 639.931,98.85 C639.931,98.85 637.411,102.018 633.883,99.138 C633.883,99.138 631.075,96.258 632.587,91.578 C632.587,91.578 632.803,86.539 640.291,82.147 C640.291,82.147 641.371,80.491 639.643,81.067 C639.643,81.067 627.979,85.747 628.555,95.61 C628.555,95.61 629.059,102.594 636.187,102.018 z M627.043,98.274 L627.043,98.274 C626.251,98.346 625.675,98.994 625.747,99.786 C625.819,100.578 626.467,101.154 627.259,101.082 C628.051,101.01 628.627,100.362 628.555,99.57 C628.483,98.778 627.835,98.202 627.043,98.274 z M626.755,94.314 L626.755,94.314 C627.547,94.242 628.123,93.594 628.051,92.802 C627.979,92.01 627.331,91.434 626.539,91.506 C625.747,91.578 625.171,92.226 625.243,93.018 C625.315,93.81 625.963,94.386 626.755,94.314 z" fill="#000000"/>
    <path d="M722.73,59.971 C724.386,61.339 727.05,60.763 728.706,58.675 C729.93,57.163 730.218,55.291 729.642,53.851 L729.642,53.779 L720.93,33.98 L718.914,29.444 L718.482,28.364 L716.466,23.828 L715.818,22.388 L728.13,15.044 L728.778,16.484 L730.794,21.02 L731.226,22.1 L733.242,26.636 L739.362,40.532 C737.706,39.812 735.546,40.46 734.178,42.26 C732.522,44.276 732.594,47.012 734.25,48.38 C735.906,49.747 738.57,49.172 740.226,47.084 C741.45,45.572 741.738,43.7 741.162,42.26 L741.162,42.188 L734.106,26.132 L746.418,18.788 L750.882,28.868 C749.226,28.148 747.066,28.796 745.698,30.596 C744.042,32.612 744.114,35.348 745.77,36.716 C747.426,38.084 750.09,37.508 751.746,35.42 C752.97,33.908 753.258,32.036 752.682,30.596 L752.682,30.524 L747.282,18.284 L745.266,13.748 L744.834,12.668 L742.818,8.133 L742.17,6.693 L740.154,2.157 L739.362,2.589 L727.05,9.933 L726.258,10.365 L713.946,17.708 L713.154,18.14 L715.17,22.676 L715.818,24.116 L717.834,28.652 L718.266,29.732 L720.282,34.268 L728.058,51.907 C726.402,51.187 724.242,51.835 722.874,53.635 C721.218,55.651 721.29,58.387 722.946,59.755 z M744.258,14.324 L744.258,14.324 L731.946,21.668 L731.514,20.588 L743.826,13.244 L744.258,14.324 z M741.162,7.269 L741.162,7.269 L741.81,8.709 L729.498,16.052 L728.85,14.612 L741.162,7.269 z" fill="#000000"/>
    <path d="M382.893,193.672 C381.597,188.776 375.693,186.112 369.789,187.768 C365.397,188.92 362.229,192.088 361.365,195.616 L361.293,195.76 L350.277,245.654 L347.757,257.102 L347.181,259.766 L344.661,271.214 L343.869,274.885 L310.245,271.718 L311.037,268.046 L313.557,256.598 L314.133,253.934 L316.653,242.486 L324.357,207.567 C326.445,211.167 331.557,212.967 336.669,211.527 C342.645,209.943 346.389,204.687 345.093,199.863 C343.797,194.968 337.893,192.304 331.989,193.96 C327.597,195.112 324.357,198.28 323.565,201.807 L323.565,201.951 L314.637,242.27 L281.014,239.03 L286.63,213.615 C288.718,217.215 293.83,219.015 298.942,217.575 C304.918,215.991 308.661,210.735 307.293,205.911 C305.997,201.015 300.094,198.352 294.19,200.007 C289.798,201.159 286.63,204.327 285.766,207.855 L285.694,207.999 L278.854,238.814 L276.334,250.262 L275.758,252.926 L273.238,264.374 L272.446,268.046 L269.926,279.493 L272.014,279.709 L305.638,282.877 L307.725,283.093 L341.349,286.261 L343.437,286.477 L345.957,275.102 L346.749,271.43 L349.269,259.982 L349.845,257.318 L352.365,245.87 L362.229,201.375 C364.317,204.975 369.429,206.775 374.541,205.335 C380.517,203.751 384.261,198.496 382.893,193.672 z M278.35,250.478 L278.35,250.478 L311.973,253.718 L311.397,256.382 L277.774,253.214 L278.35,250.55 z M274.39,268.19 L274.39,268.19 L275.182,264.518 L308.805,267.686 L308.013,271.358 L274.39,268.19 z" fill="#000000"/>
    <path d="M614.515,84.235 C616.531,74.803 618.475,65.371 620.491,55.939 C623.803,58.891 630.355,57.091 631.651,53.131 C632.371,50.971 630.571,49.387 628.771,48.884 C628.051,48.812 627.331,48.812 626.611,48.74 C626.035,48.884 625.387,48.956 624.811,49.1 C623.227,49.603 621.859,50.395 620.923,51.547 C620.059,52.627 619.987,54.211 619.627,55.723 C619.195,57.955 618.691,60.115 618.259,62.347 C616.747,69.619 615.163,76.891 613.651,84.163 C613.651,84.163 613.723,84.163 613.723,84.235 C614.011,84.307 614.299,84.307 614.587,84.379 z" fill="#000000"/>
    <path d="M459.86,189.064 C459.068,185.176 457.34,181.864 455.396,179.056 C454.532,177.976 453.74,176.824 452.876,175.744 C452.444,175.528 452.372,175.744 451.868,175.96 C452.516,176.896 453.164,177.832 453.812,178.768 C455.036,180.64 456.26,182.728 457.052,184.96 C460.076,193.744 455.108,201.375 448.484,203.679 C448.484,203.679 448.412,203.679 448.412,203.679 C446.828,194.464 445.244,185.248 443.588,176.032 C448.916,178.624 454.316,173.656 456.332,170.2 C457.556,168.112 457.916,165.016 456.188,163.072 C455.108,161.849 453.236,161.777 451.58,161.489 C450.644,161.705 449.708,161.993 448.772,162.209 C445.676,163.504 442.796,166.096 441.716,169.336 C440.78,172.216 442.724,179.92 443.444,183.304 C445.46,195.112 447.476,206.919 449.564,218.655 C449.996,218.583 450.5,218.511 451.004,218.511 C451.004,217.071 450.932,215.631 450.932,214.191 C451.076,212.391 451.364,210.807 451.94,209.439 C454.244,203.895 461.732,197.992 459.932,188.92 z" fill="#000000"/>
    <path d="M660.451,52.699 C659.01,48.74 663.546,44.78 666.858,44.204 C668.946,43.844 670.746,46.004 670.386,48.38 C670.026,51.115 666.426,56.155 662.394,54.931 C665.778,64.003 669.234,73.003 672.618,82.075 C672.33,82.147 671.97,82.291 671.682,82.363 C670.89,80.635 669.882,78.979 668.586,77.827 C667.578,76.891 666.138,76.387 664.914,75.739 C660.954,73.867 655.771,71.275 655.627,64.579 C655.555,62.347 655.771,60.043 655.987,58.027 C656.203,57.955 656.419,57.883 656.635,57.883 C656.635,57.883 656.635,57.955 656.635,57.955 C655.267,66.523 659.586,74.515 668.082,72.931 C665.562,66.235 662.97,59.467 660.451,52.771 z" fill="#000000"/>
    <path d="M519.116,134.417 C525.164,114.69 509.756,107.994 508.748,106.77 C507.668,105.474 507.668,104.25 507.668,104.25 L507.668,104.106 L505.94,103.962 L500.612,162.424 C498.74,160.769 495.428,159.977 491.828,160.553 C486.644,161.345 482.9,164.584 483.404,167.752 C483.908,170.92 488.444,172.936 493.628,172.144 C498.596,171.352 502.34,168.328 502.124,165.232 L504.932,134.489 C504.932,134.489 505.652,134.705 507.956,136.289 C515.084,141.185 517.676,145.865 514.436,159.617 C514.364,159.977 514.652,160.049 514.796,159.689 C516.812,154.505 517.532,150.113 517.316,146.441 C518.972,141.761 519.404,137.729 519.116,134.345 z M506.948,112.098 L506.948,112.098 C506.948,112.098 507.668,112.314 510.044,113.898 C516.38,118.146 519.98,122.178 518.828,131.969 C516.812,122.322 508.532,118.506 507.812,117.642 C506.732,116.346 506.732,115.122 506.732,115.122 L507.02,112.098 z M506.66,129.305 L506.66,129.305 C505.58,128.009 505.58,126.785 505.58,126.785 L505.94,122.898 C505.94,122.898 506.66,123.114 508.964,124.697 C515.516,129.161 518.828,133.409 517.028,144.353 C515.588,134.129 507.38,130.169 506.588,129.305 z" fill="#000000"/>
  </g>
</svg>
