<?xml version="1.0" encoding="UTF-8" standalone="no"?>
<svg
   version="1.1"
   x="0"
   y="0"
   width="773"
   height="204"
   viewBox="0, 0, 773, 204"
   id="svg102"
   sodipodi:docname="curvy-notes-4.svg"
   inkscape:version="1.1 (c4e8f9ed74, 2021-05-24)"
   xmlns:inkscape="http://www.inkscape.org/namespaces/inkscape"
   xmlns:sodipodi="http://sodipodi.sourceforge.net/DTD/sodipodi-0.dtd"
   xmlns="http://www.w3.org/2000/svg"
   xmlns:svg="http://www.w3.org/2000/svg">
  <sodipodi:namedview
     id="namedview104"
     pagecolor="#505050"
     bordercolor="#eeeeee"
     borderopacity="1"
     inkscape:pageshadow="0"
     inkscape:pageopacity="0"
     inkscape:pagecheckerboard="0"
     showgrid="false"
     inkscape:zoom="0.76520052"
     inkscape:cx="352.19527"
     inkscape:cy="246.34066"
     inkscape:window-width="1561"
     inkscape:window-height="1172"
     inkscape:window-x="0"
     inkscape:window-y="0"
     inkscape:window-maximized="1"
     inkscape:current-layer="Layer_1" />
  <defs
     id="defs5">
    <clipPath
       id="Clip_1">
      <path
         d="M0,0.335 L772.217,0.335 L772.217,203.94 L0,203.94 z"
         id="path2" />
    </clipPath>
  </defs>
  <g
     id="Layer_1"
     style="fill:#000000">
    <path
       d="M1.5,67.979 C1.5,67.979 121.507,25.098 212.439,7.911 C257.905,-0.683 311.918,10.113 301.884,61.057 C291.85,112.001 319.598,145.929 401.031,135.508 C482.464,125.087 665.039,86.169 759.465,49.647 M4.488,80.45 C4.488,80.45 117.699,40.444 208.631,23.257 C254.097,14.663 308.111,25.459 298.076,76.403 C288.042,127.348 315.79,161.275 397.224,150.855 C478.656,140.433 667.682,98.677 762.107,62.156 M5.639,95.071 C5.639,95.071 113.891,55.79 204.823,38.603 C250.29,30.009 304.303,40.805 294.269,91.749 C284.235,142.692 311.982,176.621 393.416,166.2 C474.849,155.778 670.411,112.285 764.837,75.765 M10.672,108.05 C10.672,108.05 110.083,71.136 201.016,53.949 C246.482,45.355 300.495,56.151 290.461,107.095 C280.427,158.039 308.174,191.968 389.607,181.546 C471.041,171.125 673.055,124.794 767.48,88.273 M11.615,120.013 C11.615,120.013 106.276,86.482 197.208,69.294 C242.674,60.701 296.688,71.497 286.653,122.441 C276.619,173.386 304.367,207.313 385.8,196.893 C467.233,186.471 676.291,137.81 770.717,101.288"
       fill-opacity="0"
       stroke="#CBCCCB"
       stroke-width="3"
       stroke-linecap="round"
       stroke-linejoin="round"
       id="path7"
       style="fill:#000000;fill-opacity:0;stroke:#000000;stroke-opacity:1" />
    <path
       d="M109.31,0.335 C109.31,0.335 117.747,11.692 125.411,19.594 C132.474,26.876 132.411,36.745 121.968,42.839 C124.945,32.813 119.117,29.359 116.261,26.57 C113.405,23.783 110.999,20.982 110.999,20.982 L109.31,0.335"
       fill="#EC99A8"
       id="path9"
       style="fill:#000000" />
    <path
       d="M113.294,46.388 L110.946,46.573 L107.329,0.605 L109.676,0.42 L113.294,46.388"
       fill="#EC99A8"
       id="path11"
       style="fill:#000000" />
    <path
       d="M113.564,46.081 C115.621,50.018 111.936,56.007 105.332,59.456 C98.729,62.906 91.708,62.511 89.651,58.573 C87.594,54.635 91.279,48.646 97.882,45.197 C104.486,41.746 111.507,42.142 113.564,46.081"
       fill="#EC99A8"
       id="path13"
       style="fill:#000000" />
    <path
       d="M457.642,144.072 C457.642,144.072 464.879,156.229 471.701,164.869 C477.986,172.831 476.919,182.643 465.91,187.644 C469.893,177.972 464.446,173.943 461.889,170.878 C459.33,167.814 457.222,164.783 457.222,164.783 L457.642,144.072"
       fill="#C1D38C"
       id="path15"
       style="fill:#000000" />
    <g
       clip-path="url(#Clip_1)"
       id="g21"
       style="fill:#000000">
      <path
         d="M456.92,190.292 L454.565,190.236 L455.643,144.138 L457.996,144.194 L456.92,190.292"
         fill="#C1D38C"
         id="path17"
         style="fill:#000000" />
      <path
         d="M457.22,190.014 C458.866,194.139 454.591,199.722 447.671,202.481 C440.752,205.241 433.808,204.134 432.16,200.009 C430.515,195.88 434.79,190.298 441.711,187.539 C448.63,184.778 455.575,185.886 457.22,190.014"
         fill="#C1D38C"
         id="path19"
         style="fill:#000000" />
    </g>
    <path
       d="M331.662,85.252 C331.662,85.252 340.1,96.609 347.763,104.511 C354.827,111.792 354.763,121.662 344.32,127.757 C347.297,117.73 341.469,114.275 338.613,111.487 C335.758,108.699 333.352,105.899 333.352,105.899 L331.662,85.252"
       fill="#B5A3B8"
       id="path23"
       style="fill:#000000" />
    <path
       d="M335.646,131.304 L333.299,131.489 L329.681,85.521 L332.028,85.337 L335.646,131.304"
       fill="#B5A3B8"
       id="path25"
       style="fill:#000000" />
    <path
       d="M335.916,130.997 C337.973,134.934 334.288,140.924 327.685,144.374 C321.082,147.823 314.061,147.427 312.004,143.489 C309.946,139.552 313.632,133.564 320.235,130.114 C326.838,126.663 333.859,127.06 335.916,130.997"
       fill="#B5A3B8"
       id="path27"
       style="fill:#000000" />
    <path
       d="M634.257,102.423 C634.257,102.423 642.693,113.78 650.358,121.683 C657.422,128.964 657.356,138.833 646.915,144.927 C649.893,134.901 644.063,131.447 641.207,128.659 C638.352,125.87 635.946,123.07 635.946,123.07 L634.257,102.423"
       fill="#CBAC85"
       id="path29"
       style="fill:#000000" />
    <path
       d="M638.24,148.477 L635.894,148.661 L632.275,102.693 L634.622,102.508 L638.24,148.477"
       fill="#CBAC85"
       id="path31"
       style="fill:#000000" />
    <path
       d="M638.511,148.168 C640.568,152.105 636.882,158.096 630.279,161.544 C623.676,164.995 616.655,164.599 614.599,160.66 C612.542,156.723 616.226,150.733 622.83,147.285 C629.434,143.833 636.453,144.231 638.511,148.168"
       fill="#CBAC85"
       id="path33"
       style="fill:#000000" />
    <path
       d="M170.125,72.976 L167.771,72.96 L168.1,26.851 L170.454,26.868 L170.125,72.976"
       fill="#CBAC85"
       id="path35"
       style="fill:#000000" />
    <path
       d="M170.421,72.694 C172.133,76.794 167.949,82.445 161.074,85.317 C154.2,88.189 147.239,87.194 145.526,83.094 C143.813,78.995 147.998,73.343 154.872,70.472 C161.747,67.599 168.708,68.595 170.421,72.694"
       fill="#CBAC85"
       id="path37"
       style="fill:#000000" />
    <path
       d="M178.735,71.782 C178.724,73.235 177.537,74.405 176.083,74.395 C174.63,74.385 173.459,73.197 173.471,71.744 C173.48,70.291 174.668,69.12 176.121,69.131 C177.575,69.14 178.745,70.328 178.735,71.782"
       fill="#CBAC85"
       id="path39"
       style="fill:#000000" />
    <path
       d="M349.973,190.144 L347.639,189.83 L353.776,144.131 L356.11,144.444 L349.973,190.144"
       fill="#EC99A8"
       id="path41"
       style="fill:#000000" />
    <path
       d="M350.302,189.899 C351.484,194.182 346.622,199.263 339.44,201.244 C332.258,203.227 325.479,201.363 324.296,197.08 C323.114,192.798 327.977,187.718 335.158,185.734 C342.339,183.751 349.12,185.616 350.302,189.899"
       fill="#EC99A8"
       id="path43"
       style="fill:#000000" />
    <path
       d="M754.485,114.649 L752.141,114.857 L748.068,68.928 L750.414,68.72 L754.485,114.649"
       fill="#B5A3B8"
       id="path45"
       style="fill:#000000" />
    <path
       d="M754.751,114.341 C756.849,118.256 753.223,124.282 746.655,127.797 C740.084,131.312 733.061,130.985 730.965,127.068 C728.868,123.15 732.493,117.124 739.063,113.61 C745.633,110.095 752.657,110.422 754.751,114.341"
       fill="#B5A3B8"
       id="path47"
       style="fill:#000000" />
    <path
       d="M761.672,111.577 C761.982,112.998 761.08,114.399 759.66,114.71 C758.241,115.021 756.838,114.119 756.529,112.699 C756.218,111.279 757.119,109.877 758.54,109.566 C759.96,109.256 761.361,110.157 761.672,111.577"
       fill="#B5A3B8"
       id="path49"
       style="fill:#000000" />
    <path
       d="M492.256,115.599 L494.563,115.13 L503.766,160.311 L501.46,160.782 L492.256,115.599"
       fill="#B5A3B8"
       id="path51"
       style="fill:#000000" />
    <path
       d="M492.026,115.939 C489.502,112.281 492.429,105.886 498.562,101.657 C504.696,97.426 511.713,96.961 514.233,100.618 C516.757,104.276 513.832,110.671 507.698,114.899 C501.564,119.132 494.548,119.595 492.026,115.939"
       fill="#B5A3B8"
       id="path53"
       style="fill:#000000" />
    <path
       d="M224.777,44.9 L223.012,45.038 L220.291,10.463 L222.056,10.324 L224.777,44.9"
       fill="#C1D38C"
       id="path55"
       style="fill:#000000" />
    <path
       d="M224.981,44.668 C226.528,47.629 223.756,52.135 218.79,54.73 C213.823,57.325 208.542,57.027 206.995,54.064 C205.447,51.102 208.219,46.598 213.186,44.004 C218.152,41.408 223.434,41.706 224.981,44.668"
       fill="#C1D38C"
       id="path57"
       style="fill:#000000" />
    <path
       d="M250.088,55.023 L248.324,55.162 L245.603,20.586 L247.368,20.447 L250.088,55.023"
       fill="#C1D38C"
       id="path59"
       style="fill:#000000" />
    <path
       d="M250.292,54.791 C251.839,57.753 249.067,62.257 244.1,64.852 C239.133,67.447 233.852,67.15 232.306,64.187 C230.758,61.226 233.53,56.721 238.497,54.126 C243.464,51.531 248.745,51.829 250.292,54.791"
       fill="#C1D38C"
       id="path61"
       style="fill:#000000" />
    <path
       d="M220.066,8.709 L247.368,20.447 L248.629,36.476 L221.499,25.071 L220.066,8.709"
       fill="#C1D38C"
       id="path63"
       style="fill:#000000" />
    <path
       d="M564.475,126.022 L566.239,125.883 L568.96,160.458 L567.195,160.598 L564.475,126.022"
       fill="#EC99A8"
       id="path65"
       style="fill:#000000" />
    <path
       d="M564.271,126.253 C562.725,123.292 565.495,118.786 570.463,116.19 C575.43,113.597 580.711,113.894 582.257,116.856 C583.805,119.819 581.033,124.323 576.065,126.917 C571.098,129.514 565.818,129.215 564.271,126.253"
       fill="#EC99A8"
       id="path67"
       style="fill:#000000" />
    <path
       d="M539.162,115.898 L540.929,115.759 L543.65,150.335 L541.884,150.474 L539.162,115.898"
       fill="#EC99A8"
       id="path69"
       style="fill:#000000" />
    <path
       d="M538.96,116.13 C537.412,113.169 540.185,108.663 545.151,106.069 C550.118,103.474 555.398,103.771 556.946,106.733 C558.493,109.695 555.722,114.199 550.754,116.794 C545.788,119.39 540.507,119.091 538.96,116.13"
       fill="#EC99A8"
       id="path71"
       style="fill:#000000" />
    <path
       d="M569.186,162.212 L541.884,150.474 L540.622,134.446 L567.753,145.851 L569.186,162.212"
       fill="#EC99A8"
       id="path73"
       style="fill:#000000" />
    <path
       d="M46.742,87.962 C46.742,87.962 41.857,85.673 41.577,80.51 C41.179,73.164 44.711,67.843 52.526,66.647 C60.342,65.452 68.377,72.435 68.276,80.209 C68.174,87.984 64.274,94.639 55.946,96.225 C46.625,97.999 37.153,94.856 34.332,85.641 C32.192,78.65 32.023,72.88 36.153,66.942 C40.284,61.003 50.598,47.814 50.598,47.814 C50.598,47.814 55.638,40.653 56.995,37.813 C58.351,34.973 58.502,29.638 54.834,26.911 C49.72,31.343 48.189,39.232 47.92,41.267 C47.65,43.303 47.848,47.602 47.848,47.602 L50.911,62.605 L55.896,85.508 L60.385,103.993 C60.385,103.993 63.108,114.709 55.748,118.027 C48.389,121.345 42.587,118.929 40.577,115.35 C38.567,111.769 38.26,107.91 40.605,104.847 C42.951,101.783 49.325,100.558 52.239,104.642 C55.152,108.725 52.39,111.965 50.634,113.398 C48.878,114.833 45.162,115.128 45.162,115.128 C45.162,115.128 48.151,118.343 52.479,116.705 C56.808,115.066 59.033,112.301 58.03,106.913 C57.025,101.528 47.169,57.149 47.169,57.149 C47.169,57.149 44.59,46.422 44.267,40.55 C43.944,34.68 48.765,22.934 53.654,21.106 C60.699,28.314 60.882,36.066 60.435,41.279 C59.985,46.493 53.43,54.493 53.43,54.493 L44.844,64.094 C44.844,64.094 38.266,71.808 38.537,78.834 C38.808,85.86 42.922,90.567 45.808,92.495 C48.694,94.424 56.812,95.217 61.713,89.936 C66.616,84.656 63.049,75.833 58.88,74.196 C55.028,72.684 49.493,74.078 47.277,77.196 C45.963,79.043 45.097,85.36 46.742,87.962"
       fill="#CBAC85"
       id="path75"
       style="fill:#000000" />
    <path
       d="M398.271,163.876 L396.505,164.015 L393.785,129.439 L395.549,129.3 L398.271,163.876"
       fill="#CBAC85"
       id="path77"
       style="fill:#000000" />
    <path
       d="M398.474,163.647 C400.021,166.607 397.249,171.112 392.283,173.706 C387.316,176.3 382.035,176.004 380.488,173.042 C378.94,170.079 381.712,165.575 386.68,162.981 C391.646,160.385 396.929,160.684 398.474,163.647"
       fill="#CBAC85"
       id="path79"
       style="fill:#000000" />
    <path
       d="M428.16,150.564 L426.394,150.702 L423.781,117.509 L425.481,116.534 L428.16,150.564"
       fill="#CBAC85"
       id="path81"
       style="fill:#000000" />
    <path
       d="M428.363,150.331 C429.91,153.294 427.139,157.798 422.171,160.393 C417.204,162.987 411.924,162.69 410.378,159.728 C408.829,156.766 411.602,152.261 416.567,149.667 C421.534,147.071 426.815,147.37 428.363,150.331"
       fill="#CBAC85"
       id="path83"
       style="fill:#000000" />
    <path
       d="M393.56,127.686 L425.481,116.534 L426.306,126.997 L394.554,138.483 L393.56,127.686"
       fill="#CBAC85"
       id="path85"
       style="fill:#000000" />
    <path
       d="M425.849,134.28 L417.396,137.349 L417.109,133.709 L425.563,130.642 L425.849,134.28"
       fill="#CBAC85"
       id="path87"
       style="fill:#000000" />
    <path
       d="M692.028,93.703 L690.292,94.048 L683.519,60.034 L685.255,59.689 L692.028,93.703"
       fill="#C1D38C"
       id="path89"
       style="fill:#000000" />
    <path
       d="M692.203,93.449 C694.088,96.209 691.866,101.008 687.239,104.17 C682.613,107.332 677.334,107.657 675.449,104.898 C673.563,102.139 675.785,97.34 680.411,94.179 C685.039,91.016 690.318,90.69 692.203,93.449"
       fill="#C1D38C"
       id="path91"
       style="fill:#000000" />
    <path
       d="M718.355,100.775 L716.619,101.12 L709.846,67.106 L711.581,66.76 L718.355,100.775"
       fill="#C1D38C"
       id="path93"
       style="fill:#000000" />
    <path
       d="M718.53,100.521 C720.415,103.279 718.193,108.08 713.566,111.241 C708.94,114.402 703.662,114.73 701.776,111.97 C699.891,109.211 702.112,104.411 706.738,101.251 C711.366,98.088 716.646,97.762 718.53,100.521"
       fill="#C1D38C"
       id="path95"
       style="fill:#000000" />
    <path
       d="M683.089,58.319 L711.581,66.76 L714.722,82.529 L686.438,74.4 L683.089,58.319"
       fill="#C1D38C"
       id="path97"
       style="fill:#000000" />
    <path
       d="M715.025,88.225 L708.114,86.233 L707.501,83.154 L714.412,85.145 L715.025,88.225"
       fill="#C1D38C"
       id="path99"
       style="fill:#000000" />
  </g>
</svg>
