<?xml version="1.0" encoding="UTF-8" standalone="no"?>
<svg
   version="1.1"
   id="Layer_1"
   x="0px"
   y="0px"
   width="208.49931"
   height="697.66943"
   viewBox="0 0 208.49931 697.66943"
   enable-background="new 0 0 825 329"
   xml:space="preserve"
   sodipodi:docname="shoe.svg"
   inkscape:version="1.1 (c4e8f9ed74, 2021-05-24)"
   xmlns:inkscape="http://www.inkscape.org/namespaces/inkscape"
   xmlns:sodipodi="http://sodipodi.sourceforge.net/DTD/sodipodi-0.dtd"
   xmlns:xlink="http://www.w3.org/1999/xlink"
   xmlns="http://www.w3.org/2000/svg"
   xmlns:svg="http://www.w3.org/2000/svg"
   xmlns:rdf="http://www.w3.org/1999/02/22-rdf-syntax-ns#"
   xmlns:cc="http://creativecommons.org/ns#"
   xmlns:dc="http://purl.org/dc/elements/1.1/"><metadata
   id="metadata8"><rdf:RDF><cc:Work
       rdf:about=""><dc:format>image/svg+xml</dc:format><dc:type
         rdf:resource="http://purl.org/dc/dcmitype/StillImage" /></cc:Work></rdf:RDF></metadata><defs
   id="defs6" /><sodipodi:namedview
   pagecolor="#ffffff"
   bordercolor="#666666"
   borderopacity="1"
   objecttolerance="10"
   gridtolerance="10"
   guidetolerance="10"
   inkscape:pageopacity="0"
   inkscape:pageshadow="2"
   inkscape:window-width="1920"
   inkscape:window-height="1174"
   id="namedview4"
   showgrid="false"
   inkscape:zoom="0.90509668"
   inkscape:cx="198.87378"
   inkscape:cy="287.81456"
   inkscape:window-x="0"
   inkscape:window-y="0"
   inkscape:window-maximized="1"
   inkscape:current-layer="layer1"
   inkscape:pagecheckerboard="0"
   fit-margin-top="0"
   fit-margin-left="0"
   fit-margin-right="0"
   fit-margin-bottom="0" />  
<g
   inkscape:groupmode="layer"
   id="layer1"
   inkscape:label="Layer 1"
   style="display:inline"
   transform="translate(-64.404195,-55.474364)"><image
     width="709.87769"
     height="759.02313"
     preserveAspectRatio="none"
     xlink:href="mall.jpg"
     id="image82604"
     x="-706.9917"
     y="50.33754"
     style="fill:#666666;fill-opacity:1" /><path
     style="fill:#dd2c00;fill-opacity:1;stroke:none;stroke-width:0.109036px;stroke-linecap:butt;stroke-linejoin:miter;stroke-opacity:1"
     d="m 342.74928,69.037921 c -0.3766,-8.568 -5.2491,-19.5113 -10.8645,-23.412 -5.0755,-3.5256 -14.4771,9.7237 -17.3868,24.1408 -2.8612,14.1761 4.6104,24.86 4.6104,24.86 l 0.095,8.549299 c 1.7432,0.4876 3.7698,0.7036 5.8307,0.6213 3.3997,-0.1439 6.5551,-1.0833 8.4799,-2.5245 -0.8489,-14.721999 9.2665,-21.375499 9.2575,-30.988899 0,-0.4088 0,-0.8246 -0.022,-1.246 z m -5.8812,46.009999 c -0.1451,-3.3915 -1.1482,-7.2201 -3.024,-10.6681 -1.9235,1.4527 -5.0949,2.4003 -8.5132,2.5436 -2.1673,0.087 -4.2945,-0.1558 -6.0934,-0.6956 -0.1403,9.441 1.9966,20.9349 9.6085,20.7253 5.2529,-0.1446 8.2991,-5.4307 8.0221,-11.9052 z"
     id="path816" /><path
     style="display:inline;fill:#e6e9f0;fill-opacity:1;stroke:none;stroke-width:0.109036px;stroke-linecap:butt;stroke-linejoin:miter;stroke-opacity:1"
     d="m 374.20995,340.6305 c -0.3766,-8.568 -5.2491,-19.5113 -10.8646,-23.412 -5.0755,-3.5256 -14.477,9.7237 -17.3868,24.1408 -2.8611,14.1761 4.6105,24.86 4.6105,24.86 l 0.095,8.5493 c 1.7431,0.4876 3.7698,0.7036 5.8307,0.6214 3.3997,-0.1439 6.5551,-1.0834 8.4799,-2.5246 -0.849,-14.722 9.2665,-21.3755 9.2575,-30.9889 0,-0.4088 0,-0.8246 -0.022,-1.246 z m -5.8812,46.01 c -0.1451,-3.3914 -1.1482,-7.2201 -3.024,-10.6681 -1.9235,1.4527 -5.0949,2.4003 -8.5132,2.5436 -2.1674,0.087 -4.2945,-0.1557 -6.0934,-0.6956 -0.1403,9.4411 1.9966,20.9349 9.6085,20.7254 5.2529,-0.1447 8.2991,-5.4308 8.0221,-11.9053 z"
     id="path816-3" /><path
     style="display:inline;fill:#e6e9f0;fill-opacity:1;stroke:none;stroke-width:0.109036px;stroke-linecap:butt;stroke-linejoin:miter;stroke-opacity:1"
     d="m -190.66004,671.69831 c -6.63023,-5.44 -18.03046,-9.1185 -24.68354,-7.5421 -6.01336,1.4248 -2.42617,17.2699 6.3646,29.0615 8.64378,11.5945 21.58616,13.1649 21.58616,13.1649 l 6.42831,5.637 c 1.52681,-0.9722 3.04065,-2.3368 4.35539,-3.9261 2.16261,-2.6271 3.56987,-5.6034 3.78189,-7.9987 -11.52713,-9.1968 -9.72723,-21.1698 -16.8903,-27.5813 -0.30185,-0.2757 -0.61645,-0.5477 -0.94251,-0.8152 z m 30.32749,35.0962 c -2.62175,-2.1562 -6.14185,-3.9655 -9.96119,-4.871 -0.20266,2.4019 -1.61451,5.3956 -3.78996,8.0362 -1.38219,1.6717 -2.98311,3.0932 -4.586,4.0721 6.93507,6.4076 16.9188,12.4904 21.84471,6.6835 3.39937,-4.0074 1.4976,-9.8044 -3.50756,-13.9208 z"
     id="path816-3-2"
     inkscape:transform-center-x="-29.193043"
     inkscape:transform-center-y="27.387084" /><path
     style="display:inline;fill:#e6e9f0;fill-opacity:1;stroke:none;stroke-width:0.109036px;stroke-linecap:butt;stroke-linejoin:miter;stroke-opacity:1"
     d="m -123.82677,351.15341 c -3.56157,-7.8018 -12.18166,-16.12 -18.84997,-17.6307 -6.02713,-1.3654 -9.77521,14.4423 -7.0672,28.8987 2.66274,14.2147 13.59507,21.3179 13.59507,21.3179 l 3.29356,7.8899 c 1.79882,-0.2015 3.75859,-0.7611 5.63835,-1.6101 3.09773,-1.408 5.67073,-3.462 6.9147,-5.5198 -6.3068,-13.3297 0.57608,-23.2905 -3.03666,-32.1992 -0.14982,-0.3804 -0.31271,-0.763 -0.48785,-1.1467 z m 11.79862,44.8586 c -1.40608,-3.0896 -3.77151,-6.2629 -6.80322,-8.7561 -1.23851,2.068 -3.82327,4.1355 -6.93845,5.55 -1.97662,0.8933 -4.03961,1.4658 -5.90968,1.6398 3.4097,8.8049 9.70016,18.6591 16.67817,15.6109 4.81554,-2.1036 5.65752,-8.1463 2.97318,-14.0446 z"
     id="path816-3-2-7"
     inkscape:transform-center-x="-13.429826"
     inkscape:transform-center-y="37.071447" /><path
     style="display:inline;fill:#e6e9f0;fill-opacity:1;stroke:none;stroke-width:0.109036px;stroke-linecap:butt;stroke-linejoin:miter;stroke-opacity:1"
     d="m -204.88032,547.26121 c 0.57511,-8.557 5.7,-19.3844 11.40439,-23.1538 5.15588,-3.407 14.24772,10.0567 16.82246,24.5374 2.53167,14.2386 -5.1856,24.7465 -5.1856,24.7465 l -0.29326,8.5447 c -1.75401,0.4471 -3.78509,0.616 -5.84356,0.486 -3.39545,-0.2227 -6.52822,-1.235 -8.41906,-2.7205 1.19002,-14.6983 -8.76845,-21.5846 -8.53657,-31.1952 0.006,-0.4087 0.0229,-0.8242 0.0512,-1.2451 z m 4.81292,46.1339 c 0.22369,-3.3871 1.31528,-7.1915 3.27048,-10.5951 1.88931,1.497 5.03788,2.5178 8.45193,2.7404 2.16475,0.1373 4.29694,-0.056 6.10787,-0.5541 -0.0786,9.4417 -2.48138,20.8829 -10.08634,20.4969 -5.2482,-0.2663 -8.17098,-5.6217 -7.74394,-12.0881 z"
     id="path816-3-2-5"
     inkscape:transform-center-x="-1.1823816"
     inkscape:transform-center-y="39.552319" /><path
     style="display:inline;fill:#e6e9f0;fill-opacity:1;stroke:none;stroke-width:0.109036px;stroke-linecap:butt;stroke-linejoin:miter;stroke-opacity:1"
     d="m -90.332185,419.26951 c 0.5751,-8.557 5.7,-19.3844 11.4043,-23.1538 5.1559,-3.407 14.2478,10.0567 16.8225,24.5374 2.5317,14.2386 -5.1856,24.7465 -5.1856,24.7465 l -0.2932,8.5447 c -1.7541,0.4471 -3.7851,0.616 -5.8436,0.486 -3.3955,-0.2227 -6.5282,-1.235 -8.4191,-2.7205 1.1901,-14.6983 -8.7684,-21.5846 -8.5365,-31.1952 0.01,-0.4087 0.023,-0.8242 0.051,-1.2451 z m 4.8129,46.1339 c 0.2237,-3.3871 1.3153,-7.1915 3.2705,-10.5951 1.8893,1.497 5.0378,2.5178 8.4519,2.7404 2.1647,0.1373 4.2969,-0.056 6.1079,-0.5542 -0.079,9.4418 -2.4814,20.883 -10.0864,20.497 -5.2482,-0.2664 -8.171,-5.6217 -7.7439,-12.0881 z"
     id="path816-3-2-5-4"
     inkscape:transform-center-x="-1.1824034"
     inkscape:transform-center-y="39.552322" /><path
     style="display:inline;fill:#e6e9f0;fill-opacity:1;stroke:none;stroke-width:0.109036px;stroke-linecap:butt;stroke-linejoin:miter;stroke-opacity:1"
     d="m -61.623485,220.80331 c -8.0123,-3.0589 -19.9906,-2.9359 -25.8015,0.6673 -5.252,3.2568 3.1708,17.1488 15.2448,25.5476 11.8721,8.2584 24.6452,5.6471 24.6452,5.6471 l 7.8832,3.3098 c 1.1401,-1.4059 2.1435,-3.1799 2.887,-5.1038 1.2188,-3.177 1.6105,-6.4459 1.0526,-8.7848 -13.8472,-5.0707 -15.9336,-16.9971 -24.7591,-20.8087 -0.3736,-0.1658 -0.7582,-0.3241 -1.1522,-0.4745 z m 39.885,23.6788 c -3.1698,-1.2144 -7.0818,-1.8152 -10.9913,-1.4639 0.5688,2.3423 0.1783,5.6291 -1.0484,8.823 -0.7813,2.0235 -1.8494,3.879 -3.0595,5.3153 8.608,3.8801 20.0046,6.4862 22.8368,-0.5823 1.9545,-4.8779 -1.686,-9.7737 -7.7376,-12.0921 z"
     id="path816-3-2-5-4-4"
     inkscape:transform-center-x="-36.121689"
     inkscape:transform-center-y="16.388339" /><path
     style="display:inline;fill:#bccbde;fill-opacity:1;stroke:none;stroke-width:0.109036px;stroke-linecap:butt;stroke-linejoin:miter;stroke-opacity:1"
     d="m 348.98635,161.13796 c 0.9581,-8.5227 -2.1564,-20.0897 -7.0982,-24.8149 -4.4667,-4.2708 -15.8111,7.3583 -20.9238,21.149 -5.0272,13.56 0.6952,25.2743 0.6952,25.2743 l -1.2333,8.4604 c 1.6463,0.7523 3.6149,1.2803 5.6636,1.519 3.3808,0.3856 6.6438,-0.053 8.769,-1.1776 1.4468,-14.6752 12.4726,-19.6777 13.9561,-29.1759 0.067,-0.4033 0.1243,-0.8152 0.1714,-1.2343 z m -12.9527,44.539 c 0.3831,-3.3728 -0.013,-7.3108 -1.3312,-11.0082 -2.1257,1.1365 -5.4057,1.5803 -8.8048,1.1912 -2.1546,-0.2505 -4.2183,-0.8206 -5.9115,-1.6331 -1.6043,9.3048 -1.2777,20.991 6.2744,21.9657 5.2117,0.6726 9.0416,-4.0765 9.7731,-10.5156 z"
     id="path816-6" /><path
     style="display:inline;fill:#003366;fill-opacity:1;stroke:none;stroke-width:0.109036px;stroke-linecap:butt;stroke-linejoin:miter;stroke-opacity:1"
     d="m 352.35022,254.51042 c 0.3189,-8.57036 -3.65089,-19.87242 -8.93185,-24.21529 -4.77315,-3.92533 -15.21728,8.51857 -19.2857,22.65257 -4.00032,13.89761 2.581,25.15191 2.581,25.15191 l -0.598,8.52882 c 1.69796,0.62724 3.70037,1.00672 5.76128,1.09176 3.4001,0.13203 6.62129,-0.54867 8.65645,-1.8292 0.34678,-14.74238 10.96807,-20.5543 11.7381,-30.13683 0.0368,-0.4072 0.063,-0.82223 0.0787,-1.24374 z m -9.58998,45.3821 c 0.13015,-3.39199 -0.55942,-7.28935 -2.14959,-10.87802 -2.03492,1.29216 -5.27263,1.97956 -8.69131,1.84556 -2.16729,-0.0889 -4.26778,-0.50322 -6.01701,-1.18708 -0.90488,9.39862 0.29365,21.02781 7.89757,21.43569 5.2474,0.28154 8.71177,-4.74045 8.96034,-11.21615 z"
     id="path816-7" /><path
     style="display:inline;fill:#003366;fill-opacity:1;stroke:none;stroke-width:0.109036px;stroke-linecap:butt;stroke-linejoin:miter;stroke-opacity:1"
     d="m 360.20233,257.68129 c -0.91607,-8.52719 2.2554,-20.07881 7.22048,-24.77947 4.48762,-4.24878 15.77463,7.4361 20.81925,21.2518 4.96026,13.58455 -0.81975,25.27062 -0.81975,25.27062 l 1.19154,8.46632 c -1.65,0.74418 -3.62104,1.26247 -5.67098,1.49102 -3.38262,0.36901 -6.64341,-0.0853 -8.76308,-1.22066 -1.37448,-14.68226 -12.37545,-19.73907 -13.81216,-29.24443 -0.0649,-0.40363 -0.12051,-0.81579 -0.16559,-1.23517 z m 12.73309,44.60239 c -0.36659,-3.37468 0.0494,-7.31062 1.3853,-11.00143 2.12015,1.1469 5.39792,1.60679 8.79893,1.23448 2.15579,-0.23996 4.22224,-0.79973 5.91951,-1.60389 1.55837,9.31254 1.17412,20.99698 -6.38261,21.93447 -5.21507,0.64693 -9.02142,-4.12101 -9.72113,-10.56363 z"
     id="path816-5" /><path
     style="display:inline;fill:#bccbde;fill-opacity:1;stroke:none;stroke-width:0.109036px;stroke-linecap:butt;stroke-linejoin:miter;stroke-opacity:1"
     d="m 363.72794,161.00805 c -0.2925,-8.5713 3.7121,-19.8612 9.0064,-24.1877 4.7852,-3.9106 15.191,8.5655 19.2158,22.7119 3.9575,13.9098 -2.6584,25.1438 -2.6584,25.1438 l 0.5717,8.5306 c -1.6999,0.622 -3.7035,0.9953 -5.7646,1.074 -3.4005,0.1216 -6.6196,-0.569 -8.6508,-1.8558 -0.3014,-14.7434 -10.9047,-20.5881 -11.6452,-30.1729 -0.035,-0.4072 -0.061,-0.8224 -0.075,-1.2439 z m 9.4501,45.4114 c -0.1197,-3.3924 0.5819,-7.2876 2.1831,-10.8713 2.0309,1.2983 5.2666,1.9958 8.6856,1.8722 2.1676,-0.082 4.2693,-0.4901 6.0206,-1.1685 0.8759,9.4014 -0.3584,21.0268 -7.9635,21.4113 -5.2482,0.2653 -8.6972,-4.7673 -8.9258,-11.2437 z"
     id="path816-35" /><path
     style="display:inline;fill:#e6e9f0;fill-opacity:1;stroke:none;stroke-width:0.109036px;stroke-linecap:butt;stroke-linejoin:miter;stroke-opacity:1"
     d="m 374.21025,340.6305 c -0.2925,-8.5713 3.712,-19.8611 9.0063,-24.1877 4.7852,-3.9106 15.191,8.5655 19.2159,22.7119 3.9575,13.9099 -2.6585,25.1438 -2.6585,25.1438 l 0.5717,8.5306 c -1.6998,0.622 -3.7034,0.9954 -5.7645,1.0741 -3.4006,0.1215 -6.6196,-0.5691 -8.6509,-1.8559 -0.3013,-14.7433 -10.9047,-20.588 -11.6451,-30.1729 -0.036,-0.4072 -0.061,-0.8223 -0.075,-1.2439 z m 9.4501,45.4115 c -0.1197,-3.3924 0.5818,-7.2877 2.1831,-10.8714 2.0309,1.2984 5.2665,1.9958 8.6856,1.8722 2.1675,-0.082 4.2693,-0.49 6.0206,-1.1684 0.8759,9.4013 -0.3585,21.0268 -7.9635,21.4112 -5.2483,0.2654 -8.6972,-4.7672 -8.9258,-11.2436 z"
     id="path816-62" /><path
     style="display:inline;fill:#dd2c00;fill-opacity:1;stroke:none;stroke-width:0.109036px;stroke-linecap:butt;stroke-linejoin:miter;stroke-opacity:1"
     d="m 372.63298,73.021921 c -0.2925,-8.5713 3.7121,-19.8612 9.0063,-24.1878 4.7852,-3.9105 15.1911,8.5655 19.2159,22.712 3.9575,13.9098 -2.6584,25.1437 -2.6584,25.1437 l 0.5717,8.530699 c -1.6999,0.622 -3.7035,0.9953 -5.7646,1.074 -3.4005,0.1216 -6.6196,-0.569 -8.6509,-1.8559 -0.3013,-14.743299 -10.9046,-20.587999 -11.6451,-30.172799 -0.035,-0.4073 -0.06,-0.8224 -0.075,-1.2439 z m 9.4501,45.411399 c -0.1197,-3.3924 0.5819,-7.2876 2.1831,-10.8714 2.0309,1.2984 5.2666,1.9959 8.6856,1.8723 2.1676,-0.082 4.2693,-0.4901 6.0206,-1.1685 0.8759,9.4013 -0.3584,21.0268 -7.9635,21.4113 -5.2482,0.2653 -8.6972,-4.7673 -8.9258,-11.2437 z"
     id="path816-9" /><g
     id="g87198-6-3"
     transform="matrix(1.0317592,1.469891,1.469891,-1.0317592,2433.3363,3192.5731)"
     style="display:inline;fill:#dd2c00;fill-opacity:1"><path
       style="fill:#dd2c00;fill-opacity:1;stroke:none;stroke-width:1px;stroke-linecap:butt;stroke-linejoin:miter;stroke-opacity:1"
       d="m -1909.7006,-79.230232 2.9959,3.70672 c -3.6075,2.615625 -8.0834,4.812699 -10.5728,10.668214 -1.702,4.003264 -3.2687,5.527098 -5.8585,6.503362 -2.2426,0.845383 -7.2758,1.241203 -8.035,1.157588 -0.4438,0.03448 -1.3779,-0.104406 -1.6553,-0.501073 -0.3329,-0.485362 -0.4527,-1.273413 -0.2918,-1.947993 2.0061,-8.363808 6.9126,-12.35091 10.4134,-13.2315 3.2317,-0.884744 5.303,-0.03871 13.0034,-6.355319 z"
       id="path82641-0-7"
       sodipodi:nodetypes="ccsscccccc" /><path
       style="fill:#dd2c00;fill-opacity:1;stroke:none;stroke-width:1px;stroke-linecap:butt;stroke-linejoin:miter;stroke-opacity:1"
       d="m -1909.1786,-80.528125 3.7744,4.582841 c 0,0 2.6345,-1.813321 4.1304,-3.162434 0.6779,-0.543575 1.4048,-2.830469 0.4722,-4.239172 -1.033,-0.984015 -2.6043,-1.285525 -3.9823,-0.780764 -2.2583,1.396861 -4.3947,3.599529 -4.3947,3.599529 z"
       id="path86286-6-5"
       sodipodi:nodetypes="cccccc" /></g><g
     id="g87198-6-3-9"
     transform="matrix(1.0317592,1.469891,1.469891,-1.0317592,2423.0308,3295.0522)"
     style="display:inline;fill:#003366;fill-opacity:1"><path
       style="fill:#003366;fill-opacity:1;stroke:none;stroke-width:1px;stroke-linecap:butt;stroke-linejoin:miter;stroke-opacity:1"
       d="m -1909.7006,-79.230232 2.9959,3.70672 c -3.6075,2.615625 -8.0834,4.812699 -10.5728,10.668214 -1.702,4.003264 -3.2687,5.527098 -5.8585,6.503362 -2.2426,0.845383 -7.2758,1.241203 -8.035,1.157588 -0.4438,0.03448 -1.3779,-0.104406 -1.6553,-0.501073 -0.3329,-0.485362 -0.4527,-1.273413 -0.2918,-1.947993 2.0061,-8.363808 6.9126,-12.35091 10.4134,-13.2315 3.2317,-0.884744 5.303,-0.03871 13.0034,-6.355319 z"
       id="path82641-0-7-2"
       sodipodi:nodetypes="ccsscccccc" /><path
       style="fill:#003366;fill-opacity:1;stroke:none;stroke-width:1px;stroke-linecap:butt;stroke-linejoin:miter;stroke-opacity:1"
       d="m -1909.1786,-80.528125 3.7744,4.582841 c 0,0 2.6345,-1.813321 4.1304,-3.162434 0.6779,-0.543575 1.4048,-2.830469 0.4722,-4.239172 -1.033,-0.984015 -2.6043,-1.285525 -3.9823,-0.780764 -2.2583,1.396861 -4.3947,3.599529 -4.3947,3.599529 z"
       id="path86286-6-5-2"
       sodipodi:nodetypes="cccccc" /></g><g
     id="g87198-6-3-8"
     transform="matrix(1.0317592,1.469891,1.469891,-1.0317592,2429.982,3393.1927)"
     style="display:inline;fill:#bccbde;fill-opacity:1"><path
       style="fill:#bccbde;fill-opacity:1;stroke:none;stroke-width:1px;stroke-linecap:butt;stroke-linejoin:miter;stroke-opacity:1"
       d="m -1909.7006,-79.230232 2.9959,3.70672 c -3.6075,2.615625 -8.0834,4.812699 -10.5728,10.668214 -1.702,4.003264 -3.2687,5.527098 -5.8585,6.503362 -2.2426,0.845383 -7.2758,1.241203 -8.035,1.157588 -0.4438,0.03448 -1.3779,-0.104406 -1.6553,-0.501073 -0.3329,-0.485362 -0.4527,-1.273413 -0.2918,-1.947993 2.0061,-8.363808 6.9126,-12.35091 10.4134,-13.2315 3.2317,-0.884744 5.303,-0.03871 13.0034,-6.355319 z"
       id="path82641-0-7-9"
       sodipodi:nodetypes="ccsscccccc" /><path
       style="fill:#bccbde;fill-opacity:1;stroke:none;stroke-width:1px;stroke-linecap:butt;stroke-linejoin:miter;stroke-opacity:1"
       d="m -1909.1786,-80.528125 3.7744,4.582841 c 0,0 2.6345,-1.813321 4.1304,-3.162434 0.6779,-0.543575 1.4048,-2.830469 0.4722,-4.239172 -1.033,-0.984015 -2.6043,-1.285525 -3.9823,-0.780764 -2.2583,1.396861 -4.3947,3.599529 -4.3947,3.599529 z"
       id="path86286-6-5-7"
       sodipodi:nodetypes="cccccc" /></g><g
     id="g87198-6-3-3"
     transform="matrix(1.0317592,1.469891,1.469891,-1.0317592,2432.9973,3478.4228)"
     style="display:inline;fill:#e6e9f0;fill-opacity:1"><path
       style="fill:#e6e9f0;fill-opacity:1;stroke:none;stroke-width:1px;stroke-linecap:butt;stroke-linejoin:miter;stroke-opacity:1"
       d="m -1909.7006,-79.230232 2.9959,3.70672 c -3.6075,2.615625 -8.0834,4.812699 -10.5728,10.668214 -1.702,4.003264 -3.2687,5.527098 -5.8585,6.503362 -2.2426,0.845383 -7.2758,1.241203 -8.035,1.157588 -0.4438,0.03448 -1.3779,-0.104406 -1.6553,-0.501073 -0.3329,-0.485362 -0.4527,-1.273413 -0.2918,-1.947993 2.0061,-8.363808 6.9126,-12.35091 10.4134,-13.2315 3.2317,-0.884744 5.303,-0.03871 13.0034,-6.355319 z"
       id="path82641-0-7-6"
       sodipodi:nodetypes="ccsscccccc" /><path
       style="fill:#e6e9f0;fill-opacity:1;stroke:none;stroke-width:1px;stroke-linecap:butt;stroke-linejoin:miter;stroke-opacity:1"
       d="m -1909.1786,-80.528125 3.7744,4.582841 c 0,0 2.6345,-1.813321 4.1304,-3.162434 0.6779,-0.543575 1.4048,-2.830469 0.4722,-4.239172 -1.033,-0.984015 -2.6043,-1.285525 -3.9823,-0.780764 -2.2583,1.396861 -4.3947,3.599529 -4.3947,3.599529 z"
       id="path86286-6-5-1"
       sodipodi:nodetypes="cccccc" /></g><g
     id="g87198-6-3-3-0"
     transform="matrix(-1.6602112,-0.68469363,-0.68469363,1.6602112,-3326.8261,-669.90729)"
     style="display:inline;fill:#e6e9f0;fill-opacity:1"
     inkscape:transform-center-x="16.804463"
     inkscape:transform-center-y="-32.300326"><path
       style="fill:#e6e9f0;fill-opacity:1;stroke:none;stroke-width:1px;stroke-linecap:butt;stroke-linejoin:miter;stroke-opacity:1"
       d="m -1909.7006,-79.230232 2.9959,3.70672 c -3.6075,2.615625 -8.0834,4.812699 -10.5728,10.668214 -1.702,4.003264 -3.2687,5.527098 -5.8585,6.503362 -2.2426,0.845383 -7.2758,1.241203 -8.035,1.157588 -0.4438,0.03448 -1.3779,-0.104406 -1.6553,-0.501073 -0.3329,-0.485362 -0.4527,-1.273413 -0.2918,-1.947993 2.0061,-8.363808 6.9126,-12.35091 10.4134,-13.2315 3.2317,-0.884744 5.303,-0.03871 13.0034,-6.355319 z"
       id="path82641-0-7-6-63"
       sodipodi:nodetypes="ccsscccccc" /><path
       style="fill:#e6e9f0;fill-opacity:1;stroke:none;stroke-width:1px;stroke-linecap:butt;stroke-linejoin:miter;stroke-opacity:1"
       d="m -1909.1786,-80.528125 3.7744,4.582841 c 0,0 2.6345,-1.813321 4.1304,-3.162434 0.6779,-0.543575 1.4048,-2.830469 0.4722,-4.239172 -1.033,-0.984015 -2.6043,-1.285525 -3.9823,-0.780764 -2.2583,1.396861 -4.3947,3.599529 -4.3947,3.599529 z"
       id="path86286-6-5-1-2"
       sodipodi:nodetypes="cccccc" /></g><g
     id="g87198-6-3-3-0-7"
     transform="matrix(-1.6602112,-0.68469363,-0.68469363,1.6602112,-3273.3235,-511.18259)"
     style="display:inline;fill:#e6e9f0;fill-opacity:1"
     inkscape:transform-center-x="16.804462"
     inkscape:transform-center-y="-32.300355"><path
       style="fill:#e6e9f0;fill-opacity:1;stroke:none;stroke-width:1px;stroke-linecap:butt;stroke-linejoin:miter;stroke-opacity:1"
       d="m -1909.7006,-79.230232 2.9959,3.70672 c -3.6075,2.615625 -8.0834,4.812699 -10.5728,10.668214 -1.702,4.003264 -3.2687,5.527098 -5.8585,6.503362 -2.2426,0.845383 -7.2758,1.241203 -8.035,1.157588 -0.4438,0.03448 -1.3779,-0.104406 -1.6553,-0.501073 -0.3329,-0.485362 -0.4527,-1.273413 -0.2918,-1.947993 2.0061,-8.363808 6.9126,-12.35091 10.4134,-13.2315 3.2317,-0.884744 5.303,-0.03871 13.0034,-6.355319 z"
       id="path82641-0-7-6-63-4"
       sodipodi:nodetypes="ccsscccccc" /><path
       style="fill:#e6e9f0;fill-opacity:1;stroke:none;stroke-width:1px;stroke-linecap:butt;stroke-linejoin:miter;stroke-opacity:1"
       d="m -1909.1786,-80.528125 3.7744,4.582841 c 0,0 2.6345,-1.813321 4.1304,-3.162434 0.6779,-0.543575 1.4048,-2.830469 0.4722,-4.239172 -1.033,-0.984015 -2.6043,-1.285525 -3.9823,-0.780764 -2.2583,1.396861 -4.3947,3.599529 -4.3947,3.599529 z"
       id="path86286-6-5-1-2-5"
       sodipodi:nodetypes="cccccc" /></g><g
     id="g87198-6-3-2"
     transform="matrix(-1.0317592,1.469891,-1.469891,-1.0317592,-1695.1414,3189.072)"
     style="display:inline;fill:#dd2c00;fill-opacity:1"><path
       style="fill:#dd2c00;fill-opacity:1;stroke:none;stroke-width:1px;stroke-linecap:butt;stroke-linejoin:miter;stroke-opacity:1"
       d="m -1909.7006,-79.230232 2.9959,3.70672 c -3.6075,2.615625 -8.0834,4.812699 -10.5728,10.668214 -1.702,4.003264 -3.2687,5.527098 -5.8585,6.503362 -2.2426,0.845383 -7.2758,1.241203 -8.035,1.157588 -0.4438,0.03448 -1.3779,-0.104406 -1.6553,-0.501073 -0.3329,-0.485362 -0.4527,-1.273413 -0.2918,-1.947993 2.0061,-8.363808 6.9126,-12.35091 10.4134,-13.2315 3.2317,-0.884744 5.303,-0.03871 13.0034,-6.355319 z"
       id="path82641-0-7-93"
       sodipodi:nodetypes="ccsscccccc" /><path
       style="fill:#dd2c00;fill-opacity:1;stroke:none;stroke-width:1px;stroke-linecap:butt;stroke-linejoin:miter;stroke-opacity:1"
       d="m -1909.1786,-80.528125 3.7744,4.582841 c 0,0 2.6345,-1.813321 4.1304,-3.162434 0.6779,-0.543575 1.4048,-2.830469 0.4722,-4.239172 -1.033,-0.984015 -2.6043,-1.285525 -3.9823,-0.780764 -2.2583,1.396861 -4.3947,3.599529 -4.3947,3.599529 z"
       id="path86286-6-5-19"
       sodipodi:nodetypes="cccccc" /></g><g
     id="g87198-6-3-9-4"
     transform="matrix(-1.0317592,1.469891,-1.469891,-1.0317592,-1698.4312,3291.9015)"
     style="display:inline;fill:#003366;fill-opacity:1"><path
       style="fill:#003366;fill-opacity:1;stroke:none;stroke-width:1px;stroke-linecap:butt;stroke-linejoin:miter;stroke-opacity:1"
       d="m -1909.7006,-79.230232 2.9959,3.70672 c -3.6075,2.615625 -8.0834,4.812699 -10.5728,10.668214 -1.702,4.003264 -3.2687,5.527098 -5.8585,6.503362 -2.2426,0.845383 -7.2758,1.241203 -8.035,1.157588 -0.4438,0.03448 -1.3779,-0.104406 -1.6553,-0.501073 -0.3329,-0.485362 -0.4527,-1.273413 -0.2918,-1.947993 2.0061,-8.363808 6.9126,-12.35091 10.4134,-13.2315 3.2317,-0.884744 5.303,-0.03871 13.0034,-6.355319 z"
       id="path82641-0-7-2-7"
       sodipodi:nodetypes="ccsscccccc" /><path
       style="fill:#003366;fill-opacity:1;stroke:none;stroke-width:1px;stroke-linecap:butt;stroke-linejoin:miter;stroke-opacity:1"
       d="m -1909.1786,-80.528125 3.7744,4.582841 c 0,0 2.6345,-1.813321 4.1304,-3.162434 0.6779,-0.543575 1.4048,-2.830469 0.4722,-4.239172 -1.033,-0.984015 -2.6043,-1.285525 -3.9823,-0.780764 -2.2583,1.396861 -4.3947,3.599529 -4.3947,3.599529 z"
       id="path86286-6-5-2-8"
       sodipodi:nodetypes="cccccc" /></g><g
     id="g87198-6-3-8-4"
     transform="matrix(-1.0317592,1.469891,-1.469891,-1.0317592,-1687.1817,3393.3366)"
     style="display:inline;fill:#bccbde;fill-opacity:1"><path
       style="fill:#bccbde;fill-opacity:1;stroke:none;stroke-width:1px;stroke-linecap:butt;stroke-linejoin:miter;stroke-opacity:1"
       d="m -1909.7006,-79.230232 2.9959,3.70672 c -3.6075,2.615625 -8.0834,4.812699 -10.5728,10.668214 -1.702,4.003264 -3.2687,5.527098 -5.8585,6.503362 -2.2426,0.845383 -7.2758,1.241203 -8.035,1.157588 -0.4438,0.03448 -1.3779,-0.104406 -1.6553,-0.501073 -0.3329,-0.485362 -0.4527,-1.273413 -0.2918,-1.947993 2.0061,-8.363808 6.9126,-12.35091 10.4134,-13.2315 3.2317,-0.884744 5.303,-0.03871 13.0034,-6.355319 z"
       id="path82641-0-7-9-5"
       sodipodi:nodetypes="ccsscccccc" /><path
       style="fill:#bccbde;fill-opacity:1;stroke:none;stroke-width:1px;stroke-linecap:butt;stroke-linejoin:miter;stroke-opacity:1"
       d="m -1909.1786,-80.528125 3.7744,4.582841 c 0,0 2.6345,-1.813321 4.1304,-3.162434 0.6779,-0.543575 1.4048,-2.830469 0.4722,-4.239172 -1.033,-0.984015 -2.6043,-1.285525 -3.9823,-0.780764 -2.2583,1.396861 -4.3947,3.599529 -4.3947,3.599529 z"
       id="path86286-6-5-7-0"
       sodipodi:nodetypes="cccccc" /></g><g
     id="g87198-6-3-3-3"
     transform="matrix(-1.0317592,1.469891,-1.469891,-1.0317592,-1689.9688,3477.4939)"
     style="display:inline;fill:#e6e9f0;fill-opacity:1"><path
       style="fill:#e6e9f0;fill-opacity:1;stroke:none;stroke-width:1px;stroke-linecap:butt;stroke-linejoin:miter;stroke-opacity:1"
       d="m -1909.7006,-79.230232 2.9959,3.70672 c -3.6075,2.615625 -8.0834,4.812699 -10.5728,10.668214 -1.702,4.003264 -3.2687,5.527098 -5.8585,6.503362 -2.2426,0.845383 -7.2758,1.241203 -8.035,1.157588 -0.4438,0.03448 -1.3779,-0.104406 -1.6553,-0.501073 -0.3329,-0.485362 -0.4527,-1.273413 -0.2918,-1.947993 2.0061,-8.363808 6.9126,-12.35091 10.4134,-13.2315 3.2317,-0.884744 5.303,-0.03871 13.0034,-6.355319 z"
       id="path82641-0-7-6-6"
       sodipodi:nodetypes="ccsscccccc" /><path
       style="fill:#e6e9f0;fill-opacity:1;stroke:none;stroke-width:1px;stroke-linecap:butt;stroke-linejoin:miter;stroke-opacity:1"
       d="m -1909.1786,-80.528125 3.7744,4.582841 c 0,0 2.6345,-1.813321 4.1304,-3.162434 0.6779,-0.543575 1.4048,-2.830469 0.4722,-4.239172 -1.033,-0.984015 -2.6043,-1.285525 -3.9823,-0.780764 -2.2583,1.396861 -4.3947,3.599529 -4.3947,3.599529 z"
       id="path86286-6-5-1-1"
       sodipodi:nodetypes="cccccc" /></g><g
     id="g87198-6-3-3-3-0"
     transform="matrix(1.0898432,-1.4273571,1.4273571,1.0898432,1978.847,-2251.7536)"
     style="display:inline;fill:#e6e9f0;fill-opacity:1"
     inkscape:transform-center-x="0.39730711"
     inkscape:transform-center-y="-36.176541"><path
       style="fill:#e6e9f0;fill-opacity:1;stroke:none;stroke-width:1px;stroke-linecap:butt;stroke-linejoin:miter;stroke-opacity:1"
       d="m -1909.7006,-79.230232 2.9959,3.70672 c -3.6075,2.615625 -8.0834,4.812699 -10.5728,10.668214 -1.702,4.003264 -3.2687,5.527098 -5.8585,6.503362 -2.2426,0.845383 -7.2758,1.241203 -8.035,1.157588 -0.4438,0.03448 -1.3779,-0.104406 -1.6553,-0.501073 -0.3329,-0.485362 -0.4527,-1.273413 -0.2918,-1.947993 2.0061,-8.363808 6.9126,-12.35091 10.4134,-13.2315 3.2317,-0.884744 5.303,-0.03871 13.0034,-6.355319 z"
       id="path82641-0-7-6-6-6"
       sodipodi:nodetypes="ccsscccccc" /><path
       style="fill:#e6e9f0;fill-opacity:1;stroke:none;stroke-width:1px;stroke-linecap:butt;stroke-linejoin:miter;stroke-opacity:1"
       d="m -1909.1786,-80.528125 3.7744,4.582841 c 0,0 2.6345,-1.813321 4.1304,-3.162434 0.6779,-0.543575 1.4048,-2.830469 0.4722,-4.239172 -1.033,-0.984015 -2.6043,-1.285525 -3.9823,-0.780764 -2.2583,1.396861 -4.3947,3.599529 -4.3947,3.599529 z"
       id="path86286-6-5-1-1-1"
       sodipodi:nodetypes="cccccc" /></g><g
     id="g87198-6-3-3-3-0-7"
     transform="matrix(1.2353549,-1.3034588,1.3034588,1.2353549,2330.2893,-2182.9472)"
     style="display:inline;fill:#e6e9f0;fill-opacity:1"
     inkscape:transform-center-x="-1.7781765"
     inkscape:transform-center-y="-36.013686"><path
       style="fill:#e6e9f0;fill-opacity:1;stroke:none;stroke-width:1px;stroke-linecap:butt;stroke-linejoin:miter;stroke-opacity:1"
       d="m -1909.7006,-79.230232 2.9959,3.70672 c -3.6075,2.615625 -8.0834,4.812699 -10.5728,10.668214 -1.702,4.003264 -3.2687,5.527098 -5.8585,6.503362 -2.2426,0.845383 -7.2758,1.241203 -8.035,1.157588 -0.4438,0.03448 -1.3779,-0.104406 -1.6553,-0.501073 -0.3329,-0.485362 -0.4527,-1.273413 -0.2918,-1.947993 2.0061,-8.363808 6.9126,-12.35091 10.4134,-13.2315 3.2317,-0.884744 5.303,-0.03871 13.0034,-6.355319 z"
       id="path82641-0-7-6-6-6-6"
       sodipodi:nodetypes="ccsscccccc" /><path
       style="fill:#e6e9f0;fill-opacity:1;stroke:none;stroke-width:1px;stroke-linecap:butt;stroke-linejoin:miter;stroke-opacity:1"
       d="m -1909.1786,-80.528125 3.7744,4.582841 c 0,0 2.6345,-1.813321 4.1304,-3.162434 0.6779,-0.543575 1.4048,-2.830469 0.4722,-4.239172 -1.033,-0.984015 -2.6043,-1.285525 -3.9823,-0.780764 -2.2583,1.396861 -4.3947,3.599529 -4.3947,3.599529 z"
       id="path86286-6-5-1-1-1-5"
       sodipodi:nodetypes="cccccc" /></g><g
     id="g87198-6-3-3-3-0-7-6"
     transform="matrix(1.7363534,-0.45845741,0.45845741,1.7363534,3220.6231,-700.52674)"
     style="display:inline;fill:#e6e9f0;fill-opacity:1"
     inkscape:transform-center-x="-22.032583"
     inkscape:transform-center-y="-29.060423"><path
       style="fill:#e6e9f0;fill-opacity:1;stroke:none;stroke-width:1px;stroke-linecap:butt;stroke-linejoin:miter;stroke-opacity:1"
       d="m -1909.7006,-79.230232 2.9959,3.70672 c -3.6075,2.615625 -8.0834,4.812699 -10.5728,10.668214 -1.702,4.003264 -3.2687,5.527098 -5.8585,6.503362 -2.2426,0.845383 -7.2758,1.241203 -8.035,1.157588 -0.4438,0.03448 -1.3779,-0.104406 -1.6553,-0.501073 -0.3329,-0.485362 -0.4527,-1.273413 -0.2918,-1.947993 2.0061,-8.363808 6.9126,-12.35091 10.4134,-13.2315 3.2317,-0.884744 5.303,-0.03871 13.0034,-6.355319 z"
       id="path82641-0-7-6-6-6-6-9"
       sodipodi:nodetypes="ccsscccccc" /><path
       style="fill:#e6e9f0;fill-opacity:1;stroke:none;stroke-width:1px;stroke-linecap:butt;stroke-linejoin:miter;stroke-opacity:1"
       d="m -1909.1786,-80.528125 3.7744,4.582841 c 0,0 2.6345,-1.813321 4.1304,-3.162434 0.6779,-0.543575 1.4048,-2.830469 0.4722,-4.239172 -1.033,-0.984015 -2.6043,-1.285525 -3.9823,-0.780764 -2.2583,1.396861 -4.3947,3.599529 -4.3947,3.599529 z"
       id="path86286-6-5-1-1-1-5-3"
       sodipodi:nodetypes="cccccc" /></g><g
     id="g87198-6-3-3-3-0-5"
     transform="matrix(0.93680359,-1.5321571,1.5321571,0.93680359,1765.4481,-2287.7391)"
     style="display:inline;fill:#e6e9f0;fill-opacity:1"
     inkscape:transform-center-x="2.5620892"
     inkscape:transform-center-y="-35.937921"><path
       style="fill:#e6e9f0;fill-opacity:1;stroke:none;stroke-width:1px;stroke-linecap:butt;stroke-linejoin:miter;stroke-opacity:1"
       d="m -1909.7006,-79.230232 2.9959,3.70672 c -3.6075,2.615625 -8.0834,4.812699 -10.5728,10.668214 -1.702,4.003264 -3.2687,5.527098 -5.8585,6.503362 -2.2426,0.845383 -7.2758,1.241203 -8.035,1.157588 -0.4438,0.03448 -1.3779,-0.104406 -1.6553,-0.501073 -0.3329,-0.485362 -0.4527,-1.273413 -0.2918,-1.947993 2.0061,-8.363808 6.9126,-12.35091 10.4134,-13.2315 3.2317,-0.884744 5.303,-0.03871 13.0034,-6.355319 z"
       id="path82641-0-7-6-6-6-5"
       sodipodi:nodetypes="ccsscccccc" /><path
       style="fill:#e6e9f0;fill-opacity:1;stroke:none;stroke-width:1px;stroke-linecap:butt;stroke-linejoin:miter;stroke-opacity:1"
       d="m -1909.1786,-80.528125 3.7744,4.582841 c 0,0 2.6345,-1.813321 4.1304,-3.162434 0.6779,-0.543575 1.4048,-2.830469 0.4722,-4.239172 -1.033,-0.984015 -2.6043,-1.285525 -3.9823,-0.780764 -2.2583,1.396861 -4.3947,3.599529 -4.3947,3.599529 z"
       id="path86286-6-5-1-1-1-4"
       sodipodi:nodetypes="cccccc" /></g><path
     style="display:inline;fill:#003366;fill-opacity:1;stroke:none;stroke-width:0.109036px;stroke-linecap:butt;stroke-linejoin:miter;stroke-opacity:1"
     d="m 95.713845,701.79132 c -6.6302,-5.4399 -18.0304,-9.1185 -24.6835,-7.5421 -6.0134,1.4249 -2.4262,17.2699 6.3646,29.0616 8.6437,11.5944 21.5861,13.1649 21.5861,13.1649 l 6.428305,5.637 c 1.5269,-0.9723 3.0407,-2.3369 4.3555,-3.9261 2.1626,-2.6271 3.5698,-5.6035 3.7818,-7.9987 -11.5271,-9.1969 -9.7272,-21.1698 -16.890205,-27.5813 -0.3019,-0.2757 -0.6165,-0.5477 -0.9426,-0.8153 z m 30.327605,35.0963 c -2.6218,-2.1562 -6.1419,-3.9655 -9.9612,-4.8711 -0.2027,2.402 -1.6145,5.3957 -3.79,8.0363 -1.3822,1.6716 -2.9831,3.0932 -4.586,4.072 6.935,6.4076 16.9187,12.4904 21.84462,6.6835 3.3995,-4.0073 1.4977,-9.8044 -3.50742,-13.9207 z"
     id="path816-3-2-3"
     inkscape:transform-center-x="-29.193057"
     inkscape:transform-center-y="27.387028" /><path
     style="display:inline;fill:#003366;fill-opacity:1;stroke:none;stroke-width:0.109036px;stroke-linecap:butt;stroke-linejoin:miter;stroke-opacity:1"
     d="m 162.54717,381.24642 c -3.5616,-7.8018 -12.1816,-16.1199 -18.85,-17.6306 -6.0271,-1.3654 -9.7751,14.4423 -7.0671,28.8987 2.6626,14.2147 13.595,21.3179 13.595,21.3179 l 3.2936,7.8899 c 1.7987,-0.2015 3.7586,-0.7612 5.6383,-1.6101 3.0978,-1.4081 5.6707,-3.462 6.9147,-5.5198 -6.3068,-13.3298 0.5761,-23.2906 -3.0367,-32.1993 -0.1498,-0.3803 -0.3127,-0.763 -0.4878,-1.1467 z m 11.7986,44.8586 c -1.406,-3.0896 -3.7715,-6.2628 -6.8032,-8.756 -1.2385,2.0679 -3.8233,4.1355 -6.9384,5.55 -1.9766,0.8933 -4.0397,1.4657 -5.9097,1.6398 3.4097,8.8049 9.7001,18.6591 16.6782,15.6108 4.8155,-2.1036 5.6574,-8.1462 2.9731,-14.0446 z"
     id="path816-3-2-7-0"
     inkscape:transform-center-x="-13.429848"
     inkscape:transform-center-y="37.071454" /><path
     style="display:inline;fill:#003366;fill-opacity:1;stroke:none;stroke-width:0.109036px;stroke-linecap:butt;stroke-linejoin:miter;stroke-opacity:1"
     d="m 81.493645,577.35432 c 0.575,-8.557 5.6999,-19.3844 11.4044,-23.1539 5.1559,-3.4069 14.247605,10.0567 16.822405,24.5375 2.5317,14.2385 -5.1856,24.7464 -5.1856,24.7464 l -0.2932,8.5448 c -1.7541,0.447 -3.7851,0.616 -5.843605,0.486 -3.3955,-0.2227 -6.5282,-1.235 -8.4191,-2.7205 1.19,-14.6984 -8.7685,-21.5846 -8.5366,-31.1952 0.01,-0.4088 0.023,-0.8243 0.051,-1.2451 z m 4.8128,46.1339 c 0.2238,-3.3871 1.3153,-7.1915 3.2706,-10.5951 1.8892,1.4969 5.0379,2.5178 8.4519,2.7403 2.164705,0.1373 4.296905,-0.056 6.107905,-0.5541 -0.079,9.4417 -2.4815,20.883 -10.086405,20.497 -5.2482,-0.2664 -8.171,-5.6217 -7.744,-12.0881 z"
     id="path816-3-2-5-7"
     inkscape:transform-center-x="-1.18236"
     inkscape:transform-center-y="39.552323" /><path
     style="display:inline;fill:#003366;fill-opacity:1;stroke:none;stroke-width:0.109036px;stroke-linecap:butt;stroke-linejoin:miter;stroke-opacity:1"
     d="m 196.04177,449.36262 c 0.575,-8.557 5.6999,-19.3844 11.4043,-23.1539 5.1559,-3.4069 14.2477,10.0567 16.8225,24.5375 2.5317,14.2385 -5.1856,24.7464 -5.1856,24.7464 l -0.2932,8.5448 c -1.7541,0.447 -3.7851,0.616 -5.8436,0.486 -3.3955,-0.2227 -6.5282,-1.235 -8.4191,-2.7205 1.19,-14.6984 -8.7685,-21.5846 -8.5366,-31.1952 0.01,-0.4088 0.023,-0.8243 0.051,-1.2451 z m 4.8128,46.1339 c 0.2238,-3.3871 1.3153,-7.1915 3.2706,-10.5951 1.8892,1.4969 5.0379,2.5178 8.4519,2.7403 2.1647,0.1373 4.2969,-0.056 6.1079,-0.5541 -0.079,9.4417 -2.4815,20.883 -10.0864,20.497 -5.2482,-0.2664 -8.171,-5.6217 -7.744,-12.0881 z"
     id="path816-3-2-5-4-8"
     inkscape:transform-center-x="-1.1823669"
     inkscape:transform-center-y="39.552326" /><path
     style="display:inline;fill:#003366;fill-opacity:1;stroke:none;stroke-width:0.109036px;stroke-linecap:butt;stroke-linejoin:miter;stroke-opacity:1"
     d="m 224.75047,250.89632 c -8.0123,-3.0589 -19.9906,-2.9358 -25.8015,0.6674 -5.2521,3.2568 3.1708,17.1488 15.2448,25.5476 11.872,8.2583 24.6452,5.6471 24.6452,5.6471 l 7.8831,3.3098 c 1.1402,-1.406 2.1436,-3.1799 2.887,-5.1038 1.2188,-3.177 1.6105,-6.4459 1.0528,-8.7849 -13.8473,-5.0707 -15.9337,-16.997 -24.7592,-20.8086 -0.3736,-0.1658 -0.7582,-0.3242 -1.1522,-0.4746 z m 39.885,23.6788 c -3.1699,-1.2144 -7.0819,-1.8152 -10.9914,-1.4639 0.5689,2.3424 0.1783,5.6292 -1.0484,8.823 -0.7812,2.0235 -1.8493,3.879 -3.0594,5.3153 8.608,3.8802 20.0045,6.4862 22.8368,-0.5822 1.9545,-4.878 -1.6861,-9.7738 -7.7376,-12.0922 z"
     id="path816-3-2-5-4-4-6"
     inkscape:transform-center-x="-36.121678"
     inkscape:transform-center-y="16.388328" /><g
     id="g87198-6-3-3-0-8"
     transform="matrix(-1.6602112,-0.68469363,-0.68469363,1.6602112,-3040.4522,-639.8142)"
     style="display:inline;fill:#e6e9f0;fill-opacity:1"
     inkscape:transform-center-x="16.804488"
     inkscape:transform-center-y="-32.300305"><path
       style="fill:#e6e9f0;fill-opacity:1;stroke:none;stroke-width:1px;stroke-linecap:butt;stroke-linejoin:miter;stroke-opacity:1"
       d="m -1909.7006,-79.230232 2.9959,3.70672 c -3.6075,2.615625 -8.0834,4.812699 -10.5728,10.668214 -1.702,4.003264 -3.2687,5.527098 -5.8585,6.503362 -2.2426,0.845383 -7.2758,1.241203 -8.035,1.157588 -0.4438,0.03448 -1.3779,-0.104406 -1.6553,-0.501073 -0.3329,-0.485362 -0.4527,-1.273413 -0.2918,-1.947993 2.0061,-8.363808 6.9126,-12.35091 10.4134,-13.2315 3.2317,-0.884744 5.303,-0.03871 13.0034,-6.355319 z"
       id="path82641-0-7-6-63-8"
       sodipodi:nodetypes="ccsscccccc" /><path
       style="fill:#e6e9f0;fill-opacity:1;stroke:none;stroke-width:1px;stroke-linecap:butt;stroke-linejoin:miter;stroke-opacity:1"
       d="m -1909.1786,-80.528125 3.7744,4.582841 c 0,0 2.6345,-1.813321 4.1304,-3.162434 0.6779,-0.543575 1.4048,-2.830469 0.4722,-4.239172 -1.033,-0.984015 -2.6043,-1.285525 -3.9823,-0.780764 -2.2583,1.396861 -4.3947,3.599529 -4.3947,3.599529 z"
       id="path86286-6-5-1-2-4"
       sodipodi:nodetypes="cccccc" /></g><g
     id="g87198-6-3-3-0-7-3"
     transform="matrix(-1.6602112,-0.68469363,-0.68469363,1.6602112,-2986.9496,-481.08948)"
     style="display:inline;fill:#bccbde;fill-opacity:1"
     inkscape:transform-center-x="16.804487"
     inkscape:transform-center-y="-32.300291"><path
       style="fill:#bccbde;fill-opacity:1;stroke:none;stroke-width:1px;stroke-linecap:butt;stroke-linejoin:miter;stroke-opacity:1"
       d="m -1909.7006,-79.230232 2.9959,3.70672 c -3.6075,2.615625 -8.0834,4.812699 -10.5728,10.668214 -1.702,4.003264 -3.2687,5.527098 -5.8585,6.503362 -2.2426,0.845383 -7.2758,1.241203 -8.035,1.157588 -0.4438,0.03448 -1.3779,-0.104406 -1.6553,-0.501073 -0.3329,-0.485362 -0.4527,-1.273413 -0.2918,-1.947993 2.0061,-8.363808 6.9126,-12.35091 10.4134,-13.2315 3.2317,-0.884744 5.303,-0.03871 13.0034,-6.355319 z"
       id="path82641-0-7-6-63-4-1"
       sodipodi:nodetypes="ccsscccccc" /><path
       style="fill:#bccbde;fill-opacity:1;stroke:none;stroke-width:1px;stroke-linecap:butt;stroke-linejoin:miter;stroke-opacity:1"
       d="m -1909.1786,-80.528125 3.7744,4.582841 c 0,0 2.6345,-1.813321 4.1304,-3.162434 0.6779,-0.543575 1.4048,-2.830469 0.4722,-4.239172 -1.033,-0.984015 -2.6043,-1.285525 -3.9823,-0.780764 -2.2583,1.396861 -4.3947,3.599529 -4.3947,3.599529 z"
       id="path86286-6-5-1-2-5-4"
       sodipodi:nodetypes="cccccc" /></g><g
     id="g87198-6-3-3-3-0-9"
     transform="matrix(1.0898432,-1.4273571,1.4273571,1.0898432,2265.2209,-2221.6603)"
     style="display:inline;fill:#bccbde;fill-opacity:1"
     inkscape:transform-center-x="0.3972233"
     inkscape:transform-center-y="-36.176539"><path
       style="fill:#bccbde;fill-opacity:1;stroke:none;stroke-width:1px;stroke-linecap:butt;stroke-linejoin:miter;stroke-opacity:1"
       d="m -1909.7006,-79.230232 2.9959,3.70672 c -3.6075,2.615625 -8.0834,4.812699 -10.5728,10.668214 -1.702,4.003264 -3.2687,5.527098 -5.8585,6.503362 -2.2426,0.845383 -7.2758,1.241203 -8.035,1.157588 -0.4438,0.03448 -1.3779,-0.104406 -1.6553,-0.501073 -0.3329,-0.485362 -0.4527,-1.273413 -0.2918,-1.947993 2.0061,-8.363808 6.9126,-12.35091 10.4134,-13.2315 3.2317,-0.884744 5.303,-0.03871 13.0034,-6.355319 z"
       id="path82641-0-7-6-6-6-2"
       sodipodi:nodetypes="ccsscccccc" /><path
       style="fill:#bccbde;fill-opacity:1;stroke:none;stroke-width:1px;stroke-linecap:butt;stroke-linejoin:miter;stroke-opacity:1"
       d="m -1909.1786,-80.528125 3.7744,4.582841 c 0,0 2.6345,-1.813321 4.1304,-3.162434 0.6779,-0.543575 1.4048,-2.830469 0.4722,-4.239172 -1.033,-0.984015 -2.6043,-1.285525 -3.9823,-0.780764 -2.2583,1.396861 -4.3947,3.599529 -4.3947,3.599529 z"
       id="path86286-6-5-1-1-1-0"
       sodipodi:nodetypes="cccccc" /></g><g
     id="g87198-6-3-3-3-0-7-68"
     transform="matrix(1.2353549,-1.3034588,1.3034588,1.2353549,2616.6632,-2152.8539)"
     style="display:inline;fill:#e6e9f0;fill-opacity:1"
     inkscape:transform-center-x="-1.7781512"
     inkscape:transform-center-y="-36.013684"><path
       style="fill:#e6e9f0;fill-opacity:1;stroke:none;stroke-width:1px;stroke-linecap:butt;stroke-linejoin:miter;stroke-opacity:1"
       d="m -1909.7006,-79.230232 2.9959,3.70672 c -3.6075,2.615625 -8.0834,4.812699 -10.5728,10.668214 -1.702,4.003264 -3.2687,5.527098 -5.8585,6.503362 -2.2426,0.845383 -7.2758,1.241203 -8.035,1.157588 -0.4438,0.03448 -1.3779,-0.104406 -1.6553,-0.501073 -0.3329,-0.485362 -0.4527,-1.273413 -0.2918,-1.947993 2.0061,-8.363808 6.9126,-12.35091 10.4134,-13.2315 3.2317,-0.884744 5.303,-0.03871 13.0034,-6.355319 z"
       id="path82641-0-7-6-6-6-6-92"
       sodipodi:nodetypes="ccsscccccc" /><path
       style="fill:#e6e9f0;fill-opacity:1;stroke:none;stroke-width:1px;stroke-linecap:butt;stroke-linejoin:miter;stroke-opacity:1"
       d="m -1909.1786,-80.528125 3.7744,4.582841 c 0,0 2.6345,-1.813321 4.1304,-3.162434 0.6779,-0.543575 1.4048,-2.830469 0.4722,-4.239172 -1.033,-0.984015 -2.6043,-1.285525 -3.9823,-0.780764 -2.2583,1.396861 -4.3947,3.599529 -4.3947,3.599529 z"
       id="path86286-6-5-1-1-1-5-6"
       sodipodi:nodetypes="cccccc" /></g><g
     id="g87198-6-3-3-3-0-7-6-6"
     transform="matrix(1.7363534,-0.45845741,0.45845741,1.7363534,3506.9971,-670.4337)"
     style="display:inline;fill:#dd2c00;fill-opacity:1"
     inkscape:transform-center-x="-22.032658"
     inkscape:transform-center-y="-29.060448"><path
       style="fill:#dd2c00;fill-opacity:1;stroke:none;stroke-width:1px;stroke-linecap:butt;stroke-linejoin:miter;stroke-opacity:1"
       d="m -1909.7006,-79.230232 2.9959,3.70672 c -3.6075,2.615625 -8.0834,4.812699 -10.5728,10.668214 -1.702,4.003264 -3.2687,5.527098 -5.8585,6.503362 -2.2426,0.845383 -7.2758,1.241203 -8.035,1.157588 -0.4438,0.03448 -1.3779,-0.104406 -1.6553,-0.501073 -0.3329,-0.485362 -0.4527,-1.273413 -0.2918,-1.947993 2.0061,-8.363808 6.9126,-12.35091 10.4134,-13.2315 3.2317,-0.884744 5.303,-0.03871 13.0034,-6.355319 z"
       id="path82641-0-7-6-6-6-6-9-4"
       sodipodi:nodetypes="ccsscccccc" /><path
       style="fill:#dd2c00;fill-opacity:1;stroke:none;stroke-width:1px;stroke-linecap:butt;stroke-linejoin:miter;stroke-opacity:1"
       d="m -1909.1786,-80.528125 3.7744,4.582841 c 0,0 2.6345,-1.813321 4.1304,-3.162434 0.6779,-0.543575 1.4048,-2.830469 0.4722,-4.239172 -1.033,-0.984015 -2.6043,-1.285525 -3.9823,-0.780764 -2.2583,1.396861 -4.3947,3.599529 -4.3947,3.599529 z"
       id="path86286-6-5-1-1-1-5-3-9"
       sodipodi:nodetypes="cccccc" /></g><g
     id="g87198-6-3-3-3-0-5-5"
     transform="matrix(0.93680359,-1.5321571,1.5321571,0.93680359,2051.8219,-2257.6458)"
     style="display:inline;fill:#bccbde;fill-opacity:1"
     inkscape:transform-center-x="2.5621054"
     inkscape:transform-center-y="-35.937919"><path
       style="fill:#bccbde;fill-opacity:1;stroke:none;stroke-width:1px;stroke-linecap:butt;stroke-linejoin:miter;stroke-opacity:1"
       d="m -1909.7006,-79.230232 2.9959,3.70672 c -3.6075,2.615625 -8.0834,4.812699 -10.5728,10.668214 -1.702,4.003264 -3.2687,5.527098 -5.8585,6.503362 -2.2426,0.845383 -7.2758,1.241203 -8.035,1.157588 -0.4438,0.03448 -1.3779,-0.104406 -1.6553,-0.501073 -0.3329,-0.485362 -0.4527,-1.273413 -0.2918,-1.947993 2.0061,-8.363808 6.9126,-12.35091 10.4134,-13.2315 3.2317,-0.884744 5.303,-0.03871 13.0034,-6.355319 z"
       id="path82641-0-7-6-6-6-5-0"
       sodipodi:nodetypes="ccsscccccc" /><path
       style="fill:#bccbde;fill-opacity:1;stroke:none;stroke-width:1px;stroke-linecap:butt;stroke-linejoin:miter;stroke-opacity:1"
       d="m -1909.1786,-80.528125 3.7744,4.582841 c 0,0 2.6345,-1.813321 4.1304,-3.162434 0.6779,-0.543575 1.4048,-2.830469 0.4722,-4.239172 -1.033,-0.984015 -2.6043,-1.285525 -3.9823,-0.780764 -2.2583,1.396861 -4.3947,3.599529 -4.3947,3.599529 z"
       id="path86286-6-5-1-1-1-4-4"
       sodipodi:nodetypes="cccccc" /></g></g></svg>
