<?xml version="1.0" encoding="UTF-8" standalone="no"?>
<svg
   width="1000"
   height="1000"
   version="1.1"
   id="svg4"
   sodipodi:docname="gavel.svg"
   inkscape:version="1.1 (c4e8f9ed74, 2021-05-24)"
   inkscape:export-filename="/home/simon/Dropbox/prog/Troff collection/pwa_Troff/assets/logos/gavel-192-maskable.png"
   inkscape:export-xdpi="18.431999"
   inkscape:export-ydpi="18.431999"
   xmlns:inkscape="http://www.inkscape.org/namespaces/inkscape"
   xmlns:sodipodi="http://sodipodi.sourceforge.net/DTD/sodipodi-0.dtd"
   xmlns="http://www.w3.org/2000/svg"
   xmlns:svg="http://www.w3.org/2000/svg">
  <defs
     id="defs6" />
  <sodipodi:namedview
     id="namedview4"
     pagecolor="#505050"
     bordercolor="#eeeeee"
     borderopacity="1"
     inkscape:pageshadow="0"
     inkscape:pageopacity="0"
     inkscape:pagecheckerboard="0"
     showgrid="false"
     inkscape:zoom="0.61094026"
     inkscape:cx="288.08054"
     inkscape:cy="657.18373"
     inkscape:window-width="1920"
     inkscape:window-height="1200"
     inkscape:window-x="0"
     inkscape:window-y="0"
     inkscape:window-maximized="1"
     inkscape:current-layer="svg4" />
  <rect
     id="rect3908-0"
     rx="0"
     ry="0"
     height="1000"
     width="1000"
     y="0"
     x="0"
     style="fill:#003366;fill-opacity:1;stroke-width:2.09002"
     inkscape:export-filename="/home/simon/Downloads/Troff logo/kampanjbildruta440280.png"
     inkscape:export-xdpi="90.037552"
     inkscape:export-ydpi="90.037552" />
  <path
     d="m 212.32624,415.09554 23.96085,-23.96085 c 9.92553,-9.92553 26.01733,-9.92553 35.9418,0 l 5.99048,5.99048 119.80743,-119.80637 -5.99047,-5.9905 c -9.92553,-9.92553 -9.92553,-26.01732 0,-35.9418 l 23.96086,-23.96191 c 9.92553,-9.92553 26.01732,-9.92553 35.94181,0 l 131.78733,131.78733 c 9.92553,9.92553 9.92553,26.01734 0,35.94183 l -23.96086,23.96083 c -9.92553,9.92554 -26.01733,9.92554 -35.94181,0 l -5.99047,-5.99047 -41.93229,41.93228 85.81728,85.81728 5.99048,-5.99047 c 13.23369,-13.23371 34.68908,-13.23371 47.92276,0 l 121.50811,121.51023 c 13.2337,13.23368 13.2337,34.68907 0,47.92275 l -47.92275,47.92278 c -13.23371,13.23368 -34.68909,13.23368 -47.92278,0 L 519.78483,614.72978 c -13.23369,-13.23369 -13.23369,-34.68908 0,-47.92276 l 5.99048,-5.99049 -85.81728,-85.81727 -41.93229,41.93229 5.99048,5.99047 c 9.92554,9.92553 9.92554,26.01733 0,35.94182 l -23.96084,23.96085 c -9.92554,9.92553 -26.01734,9.92553 -35.94181,0 L 212.32624,451.03736 c -9.92449,-9.92449 -9.92449,-26.01629 0,-35.94182 z"
     id="path2"
     style="fill:#f2f2f2;fill-opacity:1;stroke-width:1.05894" />
</svg>
