<?xml version="1.0" encoding="UTF-8" standalone="no"?>
<svg
   width="1000"
   height="1000"
   version="1.1"
   id="svg4"
   sodipodi:docname="gavel.svg"
   inkscape:version="1.1 (c4e8f9ed74, 2021-05-24)"
   inkscape:export-filename="/home/simon/Dropbox/prog/Troff collection/pwa_Troff/assets/logos/gavel-192.png"
   inkscape:export-xdpi="18.431999"
   inkscape:export-ydpi="18.431999"
   xmlns:inkscape="http://www.inkscape.org/namespaces/inkscape"
   xmlns:sodipodi="http://sodipodi.sourceforge.net/DTD/sodipodi-0.dtd"
   xmlns="http://www.w3.org/2000/svg"
   xmlns:svg="http://www.w3.org/2000/svg">
  <defs
     id="defs6" />
  <sodipodi:namedview
     id="namedview4"
     pagecolor="#505050"
     bordercolor="#eeeeee"
     borderopacity="1"
     inkscape:pageshadow="0"
     inkscape:pageopacity="0"
     inkscape:pagecheckerboard="0"
     showgrid="false"
     inkscape:zoom="0.21825"
     inkscape:cx="-1209.622"
     inkscape:cy="1042.3826"
     inkscape:window-width="958"
     inkscape:window-height="1052"
     inkscape:window-x="2880"
     inkscape:window-y="0"
     inkscape:window-maximized="1"
     inkscape:current-layer="svg4" />
  <rect
     id="rect3908-0"
     rx="0"
     ry="0"
     height="1000"
     width="1000"
     y="0"
     x="0"
     style="fill:#003366;fill-opacity:1;stroke-width:2.09002"
     inkscape:export-filename="/home/simon/Downloads/Troff logo/kampanjbildruta440280.png"
     inkscape:export-xdpi="90.037552"
     inkscape:export-ydpi="90.037552" />
  <path
     d="m 159.61113,422.56546 30.93526,-30.93526 c 12.81461,-12.81461 33.59033,-12.81461 46.40357,0 l 7.73416,7.73416 154.6804,-154.67904 -7.73415,-7.73416 c -12.81461,-12.81461 -12.81461,-33.59033 0,-46.40357 l 30.93526,-30.93663 c 12.81461,-12.81461 33.59033,-12.81461 46.40357,0 l 170.14736,170.14735 c 12.81461,12.81461 12.81461,33.59033 0,46.40358 l -30.93526,30.93526 c -12.81462,12.81461 -33.59034,12.81461 -46.40358,0 l -7.73416,-7.73416 -54.13773,54.13773 110.79655,110.79655 7.73416,-7.73415 c 17.08569,-17.0857 44.7862,-17.0857 61.87189,0 l 156.8761,156.87883 c 17.0857,17.08569 17.0857,44.7862 0,61.87189 l -61.87188,61.87189 c -17.0857,17.08569 -44.78621,17.08569 -61.8719,0 L 556.56328,680.30826 c -17.08569,-17.08569 -17.08569,-44.7862 0,-61.87189 l 7.73416,-7.73416 -110.79655,-110.79655 -54.13773,54.13774 7.73415,7.73415 c 12.81462,12.81461 12.81462,33.59033 0,46.40358 l -30.93526,30.93526 c -12.81461,12.81461 -33.59033,12.81461 -46.40357,0 L 159.61113,468.96904 c -12.81325,-12.81325 -12.81325,-33.58897 0,-46.40358 z"
     id="path2"
     style="fill:#f2f2f2;fill-opacity:1;stroke-width:1.36718" />
</svg>
