<?xml version="1.0" encoding="UTF-8" standalone="no"?>
<svg
   width="1000"
   height="1000"
   version="1.1"
   id="svg4"
   sodipodi:docname="question-mark.svg"
   inkscape:version="1.1 (c4e8f9ed74, 2021-05-24)"
   xmlns:inkscape="http://www.inkscape.org/namespaces/inkscape"
   xmlns:sodipodi="http://sodipodi.sourceforge.net/DTD/sodipodi-0.dtd"
   xmlns="http://www.w3.org/2000/svg"
   xmlns:svg="http://www.w3.org/2000/svg">
  <defs
     id="defs6" />
  <sodipodi:namedview
     id="namedview4"
     pagecolor="#505050"
     bordercolor="#eeeeee"
     borderopacity="1"
     inkscape:pageshadow="0"
     inkscape:pageopacity="0"
     inkscape:pagecheckerboard="0"
     showgrid="false"
     inkscape:zoom="0.30865211"
     inkscape:cx="103.6766"
     inkscape:cy="792.15399"
     inkscape:window-width="1920"
     inkscape:window-height="1200"
     inkscape:window-x="0"
     inkscape:window-y="0"
     inkscape:window-maximized="1"
     inkscape:current-layer="svg4" />
  <rect
     id="rect3908-0"
     rx="0"
     ry="0"
     height="1000"
     width="1000"
     y="0"
     x="0"
     style="fill:#003366;fill-opacity:1;stroke-width:2.09002"
     inkscape:export-filename="/home/simon/Downloads/Troff logo/kampanjbildruta440280.png"
     inkscape:export-xdpi="90.037552"
     inkscape:export-ydpi="90.037552" />
  <path
     d="m 658.99563,196.76342 q 67.02756,48.3222 67.02756,143.40782 0,49.88098 -32.73439,96.6444 -9.35268,15.5878 -68.58635,62.35122 l -35.85195,23.38171 q -31.17562,26.49927 -37.41074,46.76342 -4.67634,12.47025 -6.23512,34.29317 0,10.91147 -12.47025,10.91147 h -99.76196 q -12.47024,0 -12.47024,-9.35268 3.11756,-76.38026 21.82293,-96.6444 12.47024,-17.14659 37.41073,-37.41074 24.94049,-20.26415 43.64586,-32.73439 l 18.70537,-10.91147 q 17.14659,-12.47024 26.49927,-26.49927 21.82293,-34.29317 21.82293,-54.55732 0,-31.17561 -20.26415,-60.79244 -21.82293,-28.05806 -71.70391,-28.05806 -52.99854,0 -73.26269,34.29318 -21.82293,32.73439 -21.82293,71.70391 H 273.97681 Q 278.65315,237.29172 362.82731,182.73439 417.38463,150 492.2061,150 q 101.32074,0 166.78953,46.76342 z M 490.64732,692.45566 q 34.29317,0 56.89549,23.38171 22.60232,23.38171 21.04354,57.67488 -1.55878,35.85196 -24.94049,56.8955 -23.38171,21.04353 -57.67488,19.48475 -34.29318,0 -56.8955,-22.60232 -22.60232,-22.60231 -21.04354,-58.45427 1.55878,-35.85195 24.94049,-56.89549 23.38171,-21.04354 57.67489,-19.48476 z"
     id="path2"
     style="fill:#f2f2f2;fill-opacity:1;stroke-width:0.77939" />
</svg>
