<?xml version="1.0" encoding="UTF-8" standalone="no"?>
<svg
   width="1000"
   height="1000"
   version="1.1"
   id="svg4"
   sodipodi:docname="question-mark.svg"
   inkscape:version="1.1 (c4e8f9ed74, 2021-05-24)"
   inkscape:export-filename="/home/simon/Dropbox/prog/Troff collection/pwa_Troff/assets/logos/question-mark-192-maskable.png"
   inkscape:export-xdpi="18.43"
   inkscape:export-ydpi="18.43"
   xmlns:inkscape="http://www.inkscape.org/namespaces/inkscape"
   xmlns:sodipodi="http://sodipodi.sourceforge.net/DTD/sodipodi-0.dtd"
   xmlns="http://www.w3.org/2000/svg"
   xmlns:svg="http://www.w3.org/2000/svg">
  <defs
     id="defs6" />
  <sodipodi:namedview
     id="namedview4"
     pagecolor="#505050"
     bordercolor="#eeeeee"
     borderopacity="1"
     inkscape:pageshadow="0"
     inkscape:pageopacity="0"
     inkscape:pagecheckerboard="0"
     showgrid="false"
     inkscape:zoom="0.77498903"
     inkscape:cx="468.39373"
     inkscape:cy="560.6531"
     inkscape:window-width="941"
     inkscape:window-height="1172"
     inkscape:window-x="977"
     inkscape:window-y="0"
     inkscape:window-maximized="1"
     inkscape:current-layer="svg4" />
  <rect
     id="rect3908-0"
     rx="0"
     ry="0"
     height="1000"
     width="1000"
     y="0"
     x="0"
     style="fill:#003366;fill-opacity:1;stroke-width:2.09002"
     inkscape:export-filename="/home/simon/Downloads/Troff logo/kampanjbildruta440280.png"
     inkscape:export-xdpi="90.037552"
     inkscape:export-ydpi="90.037552" />
  <path
     d="m 637.3612,238.02463 q 57.90716,41.74703 57.90716,123.89441 0,43.0937 -28.28024,83.49406 -8.08007,13.46677 -59.25385,53.86712 l -30.9736,20.20018 q -26.93357,22.89353 -32.32028,40.40035 -4.04004,10.77343 -5.38672,29.62692 0,9.42676 -10.77343,9.42676 h -86.18741 q -10.77342,0 -10.77342,-8.08007 2.69335,-65.98725 18.85349,-83.49406 10.77343,-14.81346 32.32028,-32.32028 21.54685,-17.50682 37.707,-28.28025 l 16.16014,-9.42675 q 14.81346,-10.77342 22.89353,-22.89353 18.8535,-29.62692 18.8535,-47.13374 0,-26.93357 -17.50682,-52.52045 -18.8535,-24.24022 -61.94721,-24.24022 -45.78706,0 -63.29388,29.62693 -18.8535,28.28024 -18.8535,61.9472 h -111.7743 q 4.04003,-109.08094 76.76067,-156.21469 47.13374,-28.28025 111.7743,-28.28025 87.53409,0 144.09459,40.40036 z M 491.91993,666.26834 q 29.62692,0 49.15376,20.20018 19.52684,20.20017 18.18016,49.82709 -1.34668,30.97361 -21.54685,49.15377 -20.20018,18.18015 -49.8271,16.83347 -29.62693,0 -49.15377,-19.52683 -19.52683,-19.52683 -18.18016,-50.50044 1.34668,-30.9736 21.54686,-49.15376 20.20017,-18.18016 49.8271,-16.83348 z"
     id="path2"
     style="fill:#f2f2f2;fill-opacity:1;stroke-width:0.673339" />
</svg>
