<?xml version="1.0" encoding="UTF-8" standalone="no"?>
<svg
   viewBox="0 -150 1000 1000"
   version="1.1"
   id="svg858"
   sodipodi:docname="search-maskable.svg"
   inkscape:version="1.1.2 (0a00cf5339, 2022-02-04, custom)"
   width="1000"
   height="1000"
   inkscape:export-filename="/home/simon/Dropbox/prog/Troff collection/pwa_troff/assets/logos/search-192-maskable.png"
   inkscape:export-xdpi="18.43"
   inkscape:export-ydpi="18.43"
   xmlns:inkscape="http://www.inkscape.org/namespaces/inkscape"
   xmlns:sodipodi="http://sodipodi.sourceforge.net/DTD/sodipodi-0.dtd"
   xmlns="http://www.w3.org/2000/svg"
   xmlns:svg="http://www.w3.org/2000/svg">
  <defs
     id="defs862" />
  <sodipodi:namedview
     id="namedview860"
     pagecolor="#505050"
     bordercolor="#eeeeee"
     borderopacity="1"
     inkscape:pageshadow="0"
     inkscape:pageopacity="0"
     inkscape:pagecheckerboard="0"
     showgrid="false"
     inkscape:zoom="0.58988159"
     inkscape:cx="296.66971"
     inkscape:cy="451.78558"
     inkscape:window-width="1920"
     inkscape:window-height="1054"
     inkscape:window-x="1920"
     inkscape:window-y="0"
     inkscape:window-maximized="1"
     inkscape:current-layer="svg858"
     fit-margin-top="0"
     fit-margin-left="0"
     fit-margin-right="0"
     fit-margin-bottom="0" />
  <rect
     id="rect3908-0"
     rx="0"
     ry="0"
     height="1000"
     width="1000"
     y="-150"
     x="0"
     style="fill:#003366;fill-opacity:1;stroke-width:2.09002"
     inkscape:export-filename="/home/simon/Dropbox/prog/Troff collection/pwa_troff/assets/logos/search-192-maskable-2.png"
     inkscape:export-xdpi="18.43"
     inkscape:export-ydpi="18.43" />
  <path
     d="m 576.42296,281.49035 q 0,-56.32748 -39.92141,-96.24888 -39.92142,-39.92141 -96.79575,-40.46828 -56.87434,-0.54687 -96.79574,40.46828 -39.92141,41.01514 -39.92141,96.24888 0,55.23373 39.92141,96.79574 39.9214,41.56202 96.79574,39.92141 56.87433,-1.6406 96.79575,-39.92141 39.92141,-38.2808 39.92141,-96.79574 z m 156.40443,254.29391 q 0,15.85918 -12.03112,27.34343 -12.0311,11.48424 -27.34343,11.48424 -16.40606,0 -27.34343,-11.48424 L 561.6575,458.67578 q -54.68686,37.73393 -121.9517,37.73393 -43.74948,0 -83.6709,-16.95293 -39.92141,-16.95292 -68.35858,-45.93695 -28.43717,-28.98405 -45.93697,-68.35858 -17.49978,-39.37455 -16.95292,-83.6709 0.54687,-44.29636 16.95292,-83.12404 16.40607,-38.82767 45.93697,-68.90544 29.53091,-30.077771 68.35858,-45.936966 38.82768,-15.859196 83.6709,-16.952933 44.84323,-1.093737 83.6709,16.952933 38.82767,18.046666 68.35858,45.936966 29.5309,27.8903 45.93696,68.90544 16.40607,41.01515 16.95293,83.12404 0,67.26483 -37.73394,121.9517 l 104.45191,104.4519 q 11.48425,11.48425 11.48425,27.89031 z"
     stroke="#ff0000"
     stroke-width="0.0546868"
     fill="#000000"
     id="path856"
     style="fill:#f2f2f2;fill-opacity:1"
     inkscape:export-filename="/home/simon/Dropbox/prog/Troff collection/pwa_troff/assets/logos/search-192-maskable-2.png"
     inkscape:export-xdpi="18.43"
     inkscape:export-ydpi="18.43" />
</svg>
