<?xml version="1.0" encoding="UTF-8" standalone="no"?>
<svg
   width="1000"
   height="1000"
   version="1.1"
   id="svg4"
   sodipodi:docname="shield.svg"
   inkscape:version="1.1 (c4e8f9ed74, 2021-05-24)"
   inkscape:export-filename="/home/simon/Dropbox/prog/Troff collection/pwa_Troff/assets/logos/shield-192.png"
   inkscape:export-xdpi="18.431999"
   inkscape:export-ydpi="18.431999"
   xmlns:inkscape="http://www.inkscape.org/namespaces/inkscape"
   xmlns:sodipodi="http://sodipodi.sourceforge.net/DTD/sodipodi-0.dtd"
   xmlns="http://www.w3.org/2000/svg"
   xmlns:svg="http://www.w3.org/2000/svg">
  <defs
     id="defs7" />
  <sodipodi:namedview
     id="namedview5"
     pagecolor="#505050"
     bordercolor="#eeeeee"
     borderopacity="1"
     inkscape:pageshadow="0"
     inkscape:pageopacity="0"
     inkscape:pagecheckerboard="0"
     showgrid="false"
     inkscape:zoom="0.4365"
     inkscape:cx="256.58648"
     inkscape:cy="693.0126"
     inkscape:window-width="478"
     inkscape:window-height="1172"
     inkscape:window-x="480"
     inkscape:window-y="0"
     inkscape:window-maximized="1"
     inkscape:current-layer="svg4" />
  <rect
     id="rect3908-0"
     rx="0"
     ry="0"
     height="1000"
     width="1000"
     y="0"
     x="0"
     style="fill:#003366;fill-opacity:1;stroke-width:2.09002"
     inkscape:export-filename="/home/simon/Downloads/Troff logo/kampanjbildruta440280.png"
     inkscape:export-xdpi="90.037552"
     inkscape:export-ydpi="90.037552" />
  <path
     d="m 806.97916,248.72922 -280,-116.66668 a 70.21875,70.21875 0 0 0 -53.81249,0 L 193.16666,248.72922 C 167.06249,259.52087 150,285.04171 150,313.33337 c 0,289.47918 166.97917,489.56251 323.02084,554.60419 17.20832,7.14582 36.60416,7.14582 53.81248,0 C 651.81251,815.87504 850,636.06255 850,313.33337 c 0,-28.29166 -17.06249,-53.8125 -43.02084,-64.60415 z M 500.14583,777.52088 500,221.89588 756.52083,328.79171 c -4.8125,220.79167 -119.72916,380.77084 -256.375,448.72917 z"
     id="path2"
     style="fill:#f2f2f2;fill-opacity:1;stroke-width:1.45833" />
</svg>
