<?xml version="1.0" encoding="UTF-8" standalone="no"?>
<svg
   width="1000"
   height="1000"
   version="1.1"
   id="svg4"
   sodipodi:docname="shield-maskable.svg"
   inkscape:version="1.1 (c4e8f9ed74, 2021-05-24)"
   inkscape:export-filename="/home/simon/Dropbox/prog/Troff collection/pwa_Troff/assets/logos/shield-192-maskable.png"
   inkscape:export-xdpi="18.431999"
   inkscape:export-ydpi="18.431999"
   xmlns:inkscape="http://www.inkscape.org/namespaces/inkscape"
   xmlns:sodipodi="http://sodipodi.sourceforge.net/DTD/sodipodi-0.dtd"
   xmlns="http://www.w3.org/2000/svg"
   xmlns:svg="http://www.w3.org/2000/svg">
  <defs
     id="defs7" />
  <sodipodi:namedview
     id="namedview5"
     pagecolor="#505050"
     bordercolor="#eeeeee"
     borderopacity="1"
     inkscape:pageshadow="0"
     inkscape:pageopacity="0"
     inkscape:pagecheckerboard="0"
     showgrid="false"
     inkscape:zoom="0.873"
     inkscape:cx="431.84422"
     inkscape:cy="522.90951"
     inkscape:window-width="958"
     inkscape:window-height="1172"
     inkscape:window-x="960"
     inkscape:window-y="0"
     inkscape:window-maximized="1"
     inkscape:current-layer="svg4" />
  <rect
     id="rect3908-0"
     rx="0"
     ry="0"
     height="1000"
     width="1000"
     y="0"
     x="0"
     style="fill:#003366;fill-opacity:1;stroke-width:2.09002"
     inkscape:export-filename="/home/simon/Downloads/Troff logo/kampanjbildruta440280.png"
     inkscape:export-xdpi="90.037552"
     inkscape:export-ydpi="90.037552" />
  <path
     d="M 737.51869,323.01751 521.57686,233.04173 a 54.154161,54.154161 0 0 0 -41.50132,0 l -215.94182,89.97578 c -20.13209,8.32274 -33.29103,28.00495 -33.29103,49.82406 0,223.25237 128.77781,377.56079 249.12039,427.72229 13.27141,5.51101 28.22989,5.51101 41.50131,0 96.38655,-40.1517 249.23286,-178.82683 249.23286,-427.72229 0,-21.81911 -13.15894,-41.50132 -33.17856,-49.82406 z m -236.63626,407.81513 -0.11246,-428.50957 197.8342,82.44029 c -3.7115,170.27913 -92.33762,293.6584 -197.72174,346.06928 z"
     id="path2"
     style="fill:#f2f2f2;fill-opacity:1;stroke-width:1.12469" />
</svg>
