<?xml version="1.0" encoding="UTF-8" standalone="no"?>
<svg
   fill="currentColor"
   stroke="currentColor"
   stroke-linecap="round"
   stroke-linejoin="round"
   stroke-width="2"
   version="1.1"
   viewBox="0 0 24 24"
   id="svg1"
   sodipodi:docname="delete.svg"
   width="24"
   height="24"
   inkscape:version="1.3.2 (091e20e, 2023-11-25, custom)"
   xml:space="preserve"
   xmlns:inkscape="http://www.inkscape.org/namespaces/inkscape"
   xmlns:sodipodi="http://sodipodi.sourceforge.net/DTD/sodipodi-0.dtd"
   xmlns="http://www.w3.org/2000/svg"
   xmlns:svg="http://www.w3.org/2000/svg"><defs
     id="defs1" /><sodipodi:namedview
     id="namedview1"
     pagecolor="#ffffff"
     bordercolor="#000000"
     borderopacity="0.25"
     inkscape:showpageshadow="2"
     inkscape:pageopacity="0.0"
     inkscape:pagecheckerboard="0"
     inkscape:deskcolor="#d1d1d1"
     inkscape:zoom="16"
     inkscape:cx="18.1875"
     inkscape:cy="24.34375"
     inkscape:window-width="1920"
     inkscape:window-height="1129"
     inkscape:window-x="1912"
     inkscape:window-y="-8"
     inkscape:window-maximized="1"
     inkscape:current-layer="svg1" /><path
     fill="#000000"
     d="M 9.0069829,19.483241 V 8.5083799 q 0,-0.2178772 -0.1396648,-0.3575417 Q 8.7276533,8.0111734 8.509776,8.0083799 H 7.5097763 q -0.2178772,0 -0.3575419,0.1424583 -0.1396649,0.142458 -0.1396649,0.3575417 V 19.483241 q 0,0.217877 0.1396649,0.357541 0.1396648,0.139665 0.357542,0.139665 H 8.509776 q 0.2178773,0 0.3575421,-0.139665 0.1396648,-0.139664 0.1396648,-0.357541 z m 3.9916201,0 V 8.5083799 q 0,-0.2178772 -0.142458,-0.3575417 -0.142458,-0.1396648 -0.357542,-0.1424583 h -0.997207 q -0.217877,0 -0.357542,0.1424583 -0.139664,0.142458 -0.142458,0.3575417 V 19.483241 q 0,0.217877 0.142458,0.357541 0.142458,0.139665 0.357542,0.139665 h 0.997207 q 0.217877,0 0.357542,-0.139665 0.139664,-0.139664 0.142458,-0.357541 z m 3.988827,0 V 8.5083799 q 0,-0.2178772 -0.139665,-0.3575417 Q 16.7081,8.0111734 16.490223,8.0083799 h -0.997207 q -0.22067,0 -0.360335,0.1424583 -0.139664,0.142458 -0.139664,0.3575417 V 19.483241 q 0,0.217877 0.139664,0.357541 0.139665,0.139665 0.360335,0.139665 h 0.997207 q 0.217877,0 0.357542,-0.139665 0.139665,-0.139664 0.139665,-0.357541 z M 8.509776,4.0195531 h 6.98324 L 14.744414,2.1955307 Q 14.635474,2.0558658 14.47905,2.0251397 H 9.5377094 Q 9.3812847,2.0558668 9.272346,2.1955307 Z M 22.973464,4.51676 v 1 q 0,0.2178768 -0.139666,0.3575416 -0.139664,0.1396649 -0.357542,0.1396649 H 20.97905 V 20.790503 q 0,1.293296 -0.731844,2.23743 -0.731843,0.944134 -1.76257,0.944134 H 5.5153626 q -1.0279328,0 -1.7597762,-0.913407 Q 3.0237425,22.145251 3.0209492,20.854749 V 6.0139665 H 1.526536 q -0.2206704,0 -0.3603352,-0.1396649 Q 1.0265359,5.7346368 1.0265359,5.51676 v -1 q 0,-0.2178772 0.1396649,-0.357542 Q 1.3058656,4.0195531 1.526536,4.0195531 H 6.3421785 L 7.4343571,1.416201 Q 7.6662007,0.837989 8.2751394,0.43296079 8.8840779,0.0279329 9.5069829,0.0279329 h 4.9860331 q 0.625699,0 1.231844,0.40502789 0.606145,0.40502821 0.843575,0.98324021 l 1.089386,2.6033521 h 4.818435 q 0.217878,0 0.357542,0.1396649 0.139666,0.1396648 0.139666,0.357542 z"
     id="path1"
     style="stroke-width:0.0558658" /></svg>
