<?xml version="1.0" encoding="UTF-8" standalone="no"?>
<svg
   fill="currentColor"
   stroke="currentColor"
   stroke-linecap="round"
   stroke-linejoin="round"
   stroke-width="2"
   version="1.1"
   viewBox="0 0 24 24"
   id="svg1"
   sodipodi:docname="group-plus.svg"
   width="24"
   height="24"
   inkscape:version="1.3.2 (091e20e, 2023-11-25, custom)"
   xmlns:inkscape="http://www.inkscape.org/namespaces/inkscape"
   xmlns:sodipodi="http://sodipodi.sourceforge.net/DTD/sodipodi-0.dtd"
   xmlns="http://www.w3.org/2000/svg"
   xmlns:svg="http://www.w3.org/2000/svg">
  <defs
     id="defs1" />
  <sodipodi:namedview
     id="namedview1"
     pagecolor="#ffffff"
     bordercolor="#000000"
     borderopacity="0.25"
     inkscape:showpageshadow="2"
     inkscape:pageopacity="0.0"
     inkscape:pagecheckerboard="0"
     inkscape:deskcolor="#d1d1d1"
     inkscape:zoom="16"
     inkscape:cx="19.1875"
     inkscape:cy="22.71875"
     inkscape:window-width="1920"
     inkscape:window-height="1009"
     inkscape:window-x="-8"
     inkscape:window-y="-8"
     inkscape:window-maximized="1"
     inkscape:current-layer="svg1" />
  <path
     d="M 4.7215175,0.97598095 V 8.3800707 M 1.0194724,4.6780261 h 7.4040901"
     id="path2"
     style="stroke-width:1.85102;stroke-dasharray:none" />
  <path
     fill="currentColor"
     d="m 11.716007,15.19975 q -1.499064,0.04629 -2.4521719,1.185089 H 8.023869 q -0.7587852,0 -1.2769799,-0.37497 -0.5181948,-0.374969 -0.5181948,-1.097133 0,-3.268253 1.1474313,-3.268253 0.055521,0 0.4025263,0.194429 0.3470054,0.194429 0.9022141,0.393486 0.5552086,0.199058 1.1011638,0.199058 0.6199832,0 1.2307122,-0.212945 -0.04627,0.342564 -0.04627,0.611061 0,1.286933 0.749531,2.370178 m 9.910475,5.897668 q 0,1.111021 -0.675504,1.754488 -0.675504,0.643466 -1.795174,0.643466 h -8.08754 q -1.1196705,0 -1.7951744,-0.643466 -0.675504,-0.643467 -0.675504,-1.754488 0,-0.4907 0.032387,-0.958254 0.032387,-0.467556 0.1295487,-1.009178 0.097162,-0.541622 0.2452172,-1.004548 0.1480556,-0.462926 0.3978995,-0.902704 0.2498439,-0.43978 0.5737156,-0.74994 0.3238714,-0.310159 0.7911724,-0.49533 0.467301,-0.18517 1.031763,-0.18517 0.09253,0 0.397899,0.199058 0.305365,0.199058 0.675504,0.444408 0.370139,0.24535 0.990123,0.444408 0.619983,0.199058 1.249219,0.199058 0.629236,0 1.24922,-0.199058 0.619983,-0.199058 0.990122,-0.444408 0.370139,-0.24535 0.675504,-0.444408 0.305365,-0.199058 0.397899,-0.199058 0.564463,0 1.031763,0.18517 0.4673,0.185171 0.791173,0.49533 0.323871,0.31016 0.573715,0.74994 0.249844,0.439778 0.3979,0.902704 0.148055,0.462926 0.245217,1.004548 0.09716,0.541622 0.129549,1.009178 0.03239,0.467554 0.03239,0.958254 M 12.15092,9.2743055 q 0,0.9814015 -0.694011,1.6757895 -0.694011,0.694388 -1.6748792,0.694388 -0.9808687,0 -1.6748795,-0.694388 -0.6940108,-0.694388 -0.6940108,-1.6757895 0,-0.9814016 0.6940108,-1.6757896 0.6940108,-0.694388 1.6748795,-0.694388 0.9808682,0 1.6748792,0.694388 0.694011,0.694388 0.694011,1.6757896 m 6.514449,3.5552665 q 0,1.472103 -1.041016,2.513685 -1.041017,1.041582 -2.51232,1.041582 -1.471303,0 -2.512319,-1.041582 -1.041016,-1.041582 -1.041016,-2.513685 0,-1.472102 1.041016,-2.513684 1.041016,-1.0415825 2.512319,-1.0415825 1.471303,0 2.51232,1.0415825 1.041016,1.041582 1.041016,2.513684 m 5.330003,2.083164 q 0,0.722164 -0.518195,1.097133 -0.518194,0.37497 -1.27698,0.37497 h -1.239966 q -0.953108,-1.138797 -2.452172,-1.185089 0.749532,-1.083245 0.749532,-2.370178 0,-0.268497 -0.04627,-0.611061 0.610729,0.212945 1.230712,0.212945 0.545956,0 1.101164,-0.199058 0.555209,-0.199057 0.902214,-0.393486 0.347006,-0.194429 0.402527,-0.194429 1.147431,0 1.147431,3.268253 M 22.810927,9.2743055 q 0,0.9814015 -0.694011,1.6757895 -0.694011,0.694388 -1.674879,0.694388 -0.980869,0 -1.67488,-0.694388 -0.694011,-0.694388 -0.694011,-1.6757895 0,-0.9814016 0.694011,-1.6757896 0.694011,-0.694388 1.67488,-0.694388 0.980868,0 1.674879,0.694388 0.694011,0.694388 0.694011,1.6757896"
     id="path1"
     style="stroke-width:0.00925593" />
</svg>
