<?xml version="1.0" encoding="UTF-8" standalone="no"?>
<svg
   viewBox="0 0 24 24"
   fill="currentColor"
   version="1.1"
   id="svg1"
   sodipodi:docname="heart.svg"
   inkscape:version="1.3.2 (091e20e, 2023-11-25, custom)"
   xmlns:inkscape="http://www.inkscape.org/namespaces/inkscape"
   xmlns:sodipodi="http://sodipodi.sourceforge.net/DTD/sodipodi-0.dtd"
   xmlns="http://www.w3.org/2000/svg"
   xmlns:svg="http://www.w3.org/2000/svg">
  <defs
     id="defs1" />
  <sodipodi:namedview
     id="namedview1"
     pagecolor="#ffffff"
     bordercolor="#000000"
     borderopacity="0.25"
     inkscape:showpageshadow="2"
     inkscape:pageopacity="0.0"
     inkscape:pagecheckerboard="0"
     inkscape:deskcolor="#d1d1d1"
     inkscape:zoom="37.125"
     inkscape:cx="12.013468"
     inkscape:cy="12"
     inkscape:window-width="1920"
     inkscape:window-height="1009"
     inkscape:window-x="-8"
     inkscape:window-y="-8"
     inkscape:window-maximized="1"
     inkscape:current-layer="svg1" />
  <path
     d="m 12,22.296857 q -0.336,0 -0.6,-0.24 l -8.352,-8.064 q -0.12,-0.12 -0.36,-0.36 -0.24,-0.24 -0.744,-0.888 -0.504,-0.648 -0.912,-1.296 -0.408,-0.648 -0.72,-1.6079996 Q 0,8.8808573 0,7.9928573 q 0,-2.952 1.704,-4.608 1.704,-1.656 4.704,-1.68 0.816,0 1.68,0.288 0.864,0.288 1.608,0.792 0.744,0.504 1.296,0.912 0.552,0.408 1.008,0.912 0.48,-0.48 1.008,-0.912 0.528,-0.432 1.296,-0.912 0.768,-0.48 1.608,-0.792 0.84,-0.312 1.68,-0.288 3,0 4.704,1.68 1.704,1.68 1.704,4.608 0,2.9519997 -3.072,6.0239997 l -8.328,8.04 q -0.24,0.24 -0.6,0.24 z"
     id="path1"
     style="stroke-width:0.024" />
</svg>
