<?xml version="1.0" encoding="UTF-8" standalone="no"?>
<svg
   fill="currentColor"
   stroke="currentColor"
   stroke-linecap="round"
   stroke-linejoin="round"
   stroke-width="2"
   version="1.1"
   viewBox="0 0 24 24"
   id="svg1"
   sodipodi:docname="marker-plus.svg"
   width="24"
   height="24"
   inkscape:version="1.3.2 (091e20e, 2023-11-25, custom)"
   xmlns:inkscape="http://www.inkscape.org/namespaces/inkscape"
   xmlns:sodipodi="http://sodipodi.sourceforge.net/DTD/sodipodi-0.dtd"
   xmlns="http://www.w3.org/2000/svg"
   xmlns:svg="http://www.w3.org/2000/svg">
  <defs
     id="defs1" />
  <sodipodi:namedview
     id="namedview1"
     pagecolor="#ffffff"
     bordercolor="#000000"
     borderopacity="0.25"
     inkscape:showpageshadow="2"
     inkscape:pageopacity="0.0"
     inkscape:pagecheckerboard="0"
     inkscape:deskcolor="#d1d1d1"
     inkscape:zoom="5.6568543"
     inkscape:cx="25.455844"
     inkscape:cy="50.646523"
     inkscape:window-width="1920"
     inkscape:window-height="1129"
     inkscape:window-x="1912"
     inkscape:window-y="-8"
     inkscape:window-maximized="1"
     inkscape:current-layer="svg1" />
  <path
     d="M 4.7215175,0.97598095 V 8.3800707 M 1.0194724,4.6780261 h 7.4040901"
     id="path2"
     style="stroke-width:1.85102;stroke-dasharray:none" />
  <path
     stroke-width="0.120645"
     stroke-linejoin="round"
     d="M 23.939678,9.7033434 16.285493,2.0453202 c -0.39692,0.3898112 -0.692856,0.8202204 -0.887757,1.2912873 -0.19484,0.4710674 -0.292321,0.9529323 -0.292321,1.4455349 0,0.4854242 0.09809,0.9636705 0.29413,1.4347373 L 10.621931,10.991011 C 10.220246,10.782954 9.8023977,10.626354 9.3683797,10.52115 8.9343629,10.415937 8.4938327,10.363283 8.0466658,10.363283 c -0.7030513,0 -1.3833005,0.127342 -2.0408687,0.38203 -0.6576298,0.254685 -1.2446217,0.639067 -1.761158,1.153205 l 4.0710027,4.060323 -2.6129628,3.007613 -1.9601593,2.37633 -1.2392532,1.653532 C 2.2151692,23.421957 2.07106,23.701739 2.07106,23.835658 c -0.00384,0.09184 0.00106,0.100804 0.078901,0.08964 0.1339151,0 0.4136875,-0.141636 0.8393189,-0.425039 l 1.6535438,-1.232105 2.3762,-1.967397 3.0218863,-2.616597 4.045849,4.056764 c 0.516538,-0.516551 0.901512,-1.10356 1.154984,-1.76121 0.253474,-0.657587 0.380209,-1.336709 0.380209,-2.037308 0,-0.449592 -0.05205,-0.890739 -0.156052,-1.323559 -0.103997,-0.432823 -0.261255,-0.851289 -0.471115,-1.255395 l 4.773453,-4.774192 c 0.471054,0.193699 0.949285,0.290579 1.434696,0.290579 0.495001,0 0.977397,-0.09747 1.447304,-0.292328 0.469847,-0.194906 0.8997,-0.489647 1.289441,-0.8841633 z"
     id="path3"
     sodipodi:nodetypes="cccscccsccccccccccccccscccscsc" />
</svg>
