<?xml version="1.0" encoding="UTF-8" standalone="no"?>
<svg
   fill="currentColor"
   stroke="currentColor"
   stroke-linecap="round"
   stroke-linejoin="round"
   stroke-width="2"
   version="1.1"
   viewBox="0 0 24 24"
   id="svg1"
   sodipodi:docname="notes-search.svg"
   width="24"
   height="24"
   inkscape:version="1.3.2 (091e20e, 2023-11-25, custom)"
   xml:space="preserve"
   xmlns:inkscape="http://www.inkscape.org/namespaces/inkscape"
   xmlns:sodipodi="http://sodipodi.sourceforge.net/DTD/sodipodi-0.dtd"
   xmlns="http://www.w3.org/2000/svg"
   xmlns:svg="http://www.w3.org/2000/svg"><defs
     id="defs1" /><sodipodi:namedview
     id="namedview1"
     pagecolor="#ffffff"
     bordercolor="#000000"
     borderopacity="0.25"
     inkscape:showpageshadow="2"
     inkscape:pageopacity="0.0"
     inkscape:pagecheckerboard="0"
     inkscape:deskcolor="#d1d1d1"
     inkscape:zoom="11.313709"
     inkscape:cx="23.157747"
     inkscape:cy="14.628272"
     inkscape:window-width="1920"
     inkscape:window-height="1129"
     inkscape:window-x="1912"
     inkscape:window-y="-8"
     inkscape:window-maximized="1"
     inkscape:current-layer="svg1" /><path
     fill="#000000"
     d="m 8.1056195,4.958541 q 0,-1.3003729 -0.9239824,-2.2230965 Q 6.2576551,1.8127213 4.958541,1.8114625 3.6594269,1.8101934 2.7341855,2.7354445 1.8089447,3.6606857 1.8114625,4.958541 1.8140006,6.2563963 2.7341855,7.1816371 3.6543915,8.1068785 4.958541,8.1056196 6.26269,8.1043505 7.1816371,7.1816371 8.1005842,6.2589141 8.1056195,4.958541 Z m 3.5964815,5.844754 q 0,0.365061 -0.266873,0.631933 -0.266872,0.266873 -0.633192,0.266873 -0.378908,0 -0.631933,-0.266873 L 7.7606995,9.0321193 Q 6.5031272,9.9032312 4.958541,9.9032312 q -1.0045478,0 -1.9222355,-0.3889794 Q 2.1186172,9.125273 1.4564718,8.4606098 0.79432675,7.7959471 0.40283012,6.8795177 0.01133351,5.9630884 0.01259234,4.958541 0.01386143,3.9539937 0.40283012,3.0375643 0.79180908,2.121135 1.4564718,1.4564718 2.1211349,0.79180917 3.0363055,0.40283021 3.951476,0.01385125 4.958541,0.01259242 5.9656059,0.01132131 6.8795177,0.40283021 7.7934295,0.79432684 8.4593509,1.4564718 9.125273,2.1186172 9.512993,3.0375643 9.9007131,3.956511 9.9032308,4.958541 q 0,1.5458451 -0.8711116,2.8021586 l 2.4094028,2.4094034 q 0.260579,0.260578 0.260579,0.633192 z"
     id="path1"
     style="stroke-width:0.0251766" /><path
     fill="#000000"
     d="M 23.980503,6.9205661 V 19.106132 q 0,0.543964 -0.3685,0.968998 -0.368493,0.425033 -0.935864,0.657045 -0.567364,0.232013 -1.126933,0.348997 -0.559568,0.116975 -1.048948,0.113074 -0.489372,-0.0042 -1.050894,-0.113074 -0.561516,-0.109188 -1.124979,-0.348997 -0.56347,-0.239815 -0.935864,-0.657045 -0.372394,-0.417238 -0.370446,-0.968998 0.0021,-0.551766 0.370446,-0.968996 0.368493,-0.417238 0.935864,-0.657046 0.567365,-0.239816 1.124979,-0.348996 0.557621,-0.109182 1.050894,-0.113083 1.142539,0 2.088145,0.423086 V 11.59982 l -8.356467,2.577495 v 7.714924 q 0,0.543963 -0.3685,0.967049 -0.368493,0.423079 -0.935857,0.658994 -0.567372,0.235914 -1.12694,0.347041 -0.559561,0.111135 -1.04894,0.115037 -0.48938,0.0042 -1.0508951,-0.115037 Q 9.1392812,23.746393 8.5758183,23.518282 8.0123485,23.29017 7.6399542,22.859288 7.2675599,22.428407 7.2695071,21.892239 q 0.00209,-0.536162 0.3704471,-0.968998 0.368493,-0.432828 0.9358641,-0.658993 0.5673642,-0.226164 1.1249856,-0.347049 0.5576141,-0.120877 1.0508951,-0.115029 1.142531,0 2.088137,0.425034 V 9.7066728 q 0,-0.3372999 0.206675,-0.6161066 0.206667,-0.2788007 0.53422,-0.3860344 l 9.050566,-2.7841593 q 0.130629,-0.044875 0.306107,-0.044875 0.434788,0 0.73894,0.3060958 0.304159,0.3061025 0.304159,0.7389384 z"
     id="path1-2"
     style="stroke-width:0.0389941" /></svg>
