<?xml version="1.0" encoding="UTF-8" standalone="no"?>
<svg
   fill="currentColor"
   stroke="currentColor"
   stroke-linecap="round"
   stroke-linejoin="round"
   stroke-width="2"
   version="1.1"
   viewBox="0 0 24 24"
   id="svg1"
   sodipodi:docname="note-search.svg"
   width="24"
   height="24"
   inkscape:version="1.3.2 (091e20e, 2023-11-25, custom)"
   xml:space="preserve"
   xmlns:inkscape="http://www.inkscape.org/namespaces/inkscape"
   xmlns:sodipodi="http://sodipodi.sourceforge.net/DTD/sodipodi-0.dtd"
   xmlns="http://www.w3.org/2000/svg"
   xmlns:svg="http://www.w3.org/2000/svg"><defs
     id="defs1" /><sodipodi:namedview
     id="namedview1"
     pagecolor="#ffffff"
     bordercolor="#000000"
     borderopacity="0.25"
     inkscape:showpageshadow="2"
     inkscape:pageopacity="0.0"
     inkscape:pagecheckerboard="0"
     inkscape:deskcolor="#d1d1d1"
     inkscape:zoom="16"
     inkscape:cx="22.5"
     inkscape:cy="9.59375"
     inkscape:window-width="1920"
     inkscape:window-height="1129"
     inkscape:window-x="1912"
     inkscape:window-y="-8"
     inkscape:window-maximized="1"
     inkscape:current-layer="svg1" /><path
     id="path3743"
     d="M 14.411998,0.24159853 C 15.833176,3.7075327 17.384871,5.7426208 18.373411,6.8689288 19.154093,7.7583737 23.434546,11.712536 18.50151,17.892727 21.430877,11.840635 20.377079,8.2538525 15.137089,6.0423254 V 18.852264 c 0.164354,5.276244 -5.256909,5.597701 -6.576574,4.193441 -1.365588,-1.447764 1.853816,-6.257533 5.851483,-4.676835 z"
     fill-rule="evenodd"
     style="stroke-width:0.483394" /><path
     fill="#000000"
     d="m 6.9191932,4.232755 q 0,-1.1100362 -0.7887384,-1.8976998 Q 5.3417167,1.5473916 4.232755,1.5463171 3.1237935,1.5452581 2.3339807,2.3350552 1.5441679,3.124868 1.5463171,4.232755 1.5484673,5.340642 2.3339807,6.1304548 3.1194951,6.9202676 4.232755,6.9191932 5.3460151,6.9181341 6.1304548,6.1304548 6.9148948,5.3427912 6.9191932,4.232755 Z m 3.070061,4.9892528 q 0,0.3116266 -0.2278099,0.5394365 -0.2278099,0.2278099 -0.5405112,0.2278099 -0.3234471,0 -0.5394369,-0.2278099 L 6.6247595,7.7100804 Q 5.551259,8.4536863 4.232755,8.4536863 q -0.8575111,0 -1.6408763,-0.3320435 Q 1.8085135,7.789599 1.243287,7.2222233 0.67806042,6.6548476 0.34386743,5.8725568 0.00967444,5.090266 0.0107492,4.232755 0.01180823,3.375244 0.34386743,2.5929535 0.67591123,1.8106627 1.243287,1.243287 1.8106627,0.67591123 2.5918787,0.34386749 3.3730948,0.01182377 4.232755,0.0107492 5.0924152,0.00967412 5.8725568,0.34386749 6.6526984,0.67806039 7.2211486,1.243287 7.789599,1.8085135 8.1205681,2.5929535 q 0.330969,0.7844396 0.3331182,1.6398015 0,1.3195784 -0.7436059,2.3920045 l 2.0567368,2.0567367 q 0.222437,0.2224371 0.222437,0.5405116 z"
     id="path1"
     style="stroke-width:0.0214915" /></svg>
