<?xml version="1.0" encoding="UTF-8" standalone="no"?>
<svg
   fill="currentColor"
   stroke="currentColor"
   version="1.1"
   viewBox="0 0 24.000001 23.999999"
   id="svg1"
   sodipodi:docname="pause.svg"
   width="24"
   height="24"
   inkscape:version="1.3.2 (091e20e, 2023-11-25, custom)"
   xmlns:inkscape="http://www.inkscape.org/namespaces/inkscape"
   xmlns:sodipodi="http://sodipodi.sourceforge.net/DTD/sodipodi-0.dtd"
   xmlns="http://www.w3.org/2000/svg"
   xmlns:svg="http://www.w3.org/2000/svg">
  <defs
     id="defs1" />
  <sodipodi:namedview
     id="namedview1"
     pagecolor="#ffffff"
     bordercolor="#000000"
     borderopacity="0.25"
     inkscape:showpageshadow="2"
     inkscape:pageopacity="0.0"
     inkscape:pagecheckerboard="0"
     inkscape:deskcolor="#d1d1d1"
     inkscape:zoom="15.046838"
     inkscape:cx="10.002102"
     inkscape:cy="9.3375101"
     inkscape:window-width="1920"
     inkscape:window-height="1009"
     inkscape:window-x="-8"
     inkscape:window-y="-8"
     inkscape:window-maximized="1"
     inkscape:current-layer="svg1" />
  <path
     d="m 1.2560176,22.087701 q 0,0.784754 0.5421945,1.341217 0.5421944,0.556463 1.3269496,0.556463 h 3.7097517 q 0.7847552,0 1.3269497,-0.556463 0.5421945,-0.556463 0.5421945,-1.341217 V 1.8837633 q 0,-0.7847552 -0.5421945,-1.32694968 Q 7.6196686,0.01461914 6.8349134,0.01461914 H 3.1251617 q -0.7847552,0 -1.3269496,0.54219448 Q 1.2560176,1.0990081 1.2560176,1.8837633 Z m 14.0255974,0 q 0,0.784754 0.549329,1.341217 0.549329,0.556463 1.319816,0.556463 h 3.724078 q 0.770487,0 1.319815,-0.556463 0.549329,-0.556463 0.549329,-1.341217 V 1.8837633 q 0,-0.7847552 -0.549329,-1.32694968 Q 21.645325,0.01461914 20.874838,0.01461914 H 17.15076 q -0.770487,0 -1.319816,0.54219448 -0.549329,0.54219448 -0.549329,1.32694968 z"
     id="path1"
     style="stroke-width:0.0292383" />
</svg>
